<?xml version="1.0" encoding="utf-8"?>
<!-- Generator: Adobe Illustrator 24.3.0, SVG Export Plug-In . SVG Version: 6.00 Build 0)  -->
<svg version="1.1" id="Layer_1" xmlns="http://www.w3.org/2000/svg" xmlns:xlink="http://www.w3.org/1999/xlink" x="0px" y="0px"
	 viewBox="0 0 678.86 571" style="enable-background:new 0 0 678.86 571;" xml:space="preserve">
<style type="text/css">
	.st0{fill:#FAF8F7;}
	.st1{fill:#FCFBFA;}
	.st2{fill:#1C1A1D;}
	.st3{fill:#F59564;}
	.st4{fill:#2A2A2B;}
	.st5{fill:#C6C3C2;}
	.st6{fill:#C5C4C2;}
	.st7{fill:#4C3527;}
	.st8{fill:#E3EAF4;}
	.st9{fill:#FDFDFC;}
	.st10{fill:#FEFEFD;}
	.st11{fill:#618ECA;}
	.st12{fill:#FDFCFB;}
	.st13{fill:#F6ABC2;}
	.st14{fill:#E9BE93;}
	.st15{fill:#E4E9F4;}
	.st16{fill:#E9BE94;}
	.st17{fill:#4C7CBF;}
	.st18{fill:#333E83;}
	.st19{fill:#8075B6;}
	.st20{fill:#2A306D;}
	.st21{fill:#FCD464;}
	.st22{fill:#796EB2;}
	.st23{fill:#618EC9;}
	.st24{fill:#E4EAF4;}
	.st25{fill:#608ECA;}
	.st26{fill:#618DC9;}
	.st27{fill:#FEFDFC;}
	.st28{fill:#E8BC92;}
	.st29{fill:#F1BE97;}
	.st30{fill:#DAA576;}
	.st31{fill:#E8BF96;}
	.st32{fill:#DAA577;}
	.st33{fill:#628ECA;}
	.st34{fill:#4C7BBE;}
	.st35{fill:#DBA676;}
	.st36{fill:#FDFCFC;}
	.st37{fill:#4B7CBE;}
	.st38{fill:#E6EBF3;}
	.st39{fill:#ED825A;}
	.st40{fill:#CB8D6B;}
	.st41{fill:#F1BE98;}
	.st42{fill:#E7C096;}
	.st43{fill:#F4824D;}
	.st44{fill:#FCFCFB;}
	.st45{fill:#DAA778;}
	.st46{fill:#DBA576;}
	.st47{fill:#618DC8;}
	.st48{fill:#DDA679;}
	.st49{fill:#DFA577;}
	.st50{fill:#DFAA80;}
	.st51{fill:#EF835C;}
	.st52{fill:#D1906A;}
	.st53{fill:#4BA668;}
	.st54{fill:#4BA969;}
	.st55{fill:#7B6DB0;}
	.st56{fill:#796CAE;}
	.st57{fill:#4CA86A;}
	.st58{fill:#DCAB7D;}
	.st59{fill:#E5BA93;}
	.st60{fill:#F3F2F1;}
	.st61{fill:#E4B88F;}
	.st62{fill:#EEBB97;}
	.st63{fill:#F0A8BE;}
	.st64{fill:#4BA669;}
	.st65{fill:#F1F2F1;}
	.st66{fill:#6791CA;}
	.st67{fill:#D1976F;}
	.st68{fill:#BD875B;}
	.st69{fill:#CF9A6F;}
	.st70{fill:#BE845A;}
	.st71{fill:#E8B991;}
	.st72{fill:#EBBD9A;}
	.st73{fill:#E7B893;}
	.st74{fill:#513629;}
	.st75{fill:#E3E6EB;}
	.st76{fill:#E97746;}
	.st77{fill:#E4AB80;}
	.st78{fill:#E3B391;}
	.st79{fill:#F0EFEC;}
	.st80{fill:#DBAC84;}
	.st81{fill:#F2F2F2;}
	.st82{fill:#84654E;}
	.st83{fill:#D0AF98;}
	.st84{fill:#EAE8E7;}
	.st85{fill:#DDDEDC;}
	.st86{fill:#5E78A4;}
	.st87{fill:#362922;}
	.st88{fill:#433128;}
	.st89{fill:#433129;}
	.st90{fill:#44322B;}
	.st91{fill:#524137;}
	.st92{fill:#58453A;}
	.st93{fill:#574339;}
	.st94{fill:#E4AE84;}
	.st95{fill:#B67E5B;}
	.st96{fill:#292A33;}
	.st97{fill:#2E2729;}
	.st98{fill:#2D2B31;}
	.st99{fill:#B8D4EC;}
	.st100{fill:#86A9CB;}
	.st101{fill:#607285;}
	.st102{fill:#6B7A8C;}
	.st103{fill:#69788B;}
	.st104{fill:#FCFAFA;}
	.st105{fill:#F8D7AD;}
	.st106{fill:#D1D8E3;}
	.st107{fill:#B7D3EC;}
	.st108{fill:#8DACCB;}
	.st109{fill:#516278;}
	.st110{fill:#F6AC79;}
	.st111{fill:#B6D3EC;}
	.st112{fill:#B5D3ED;}
	.st113{fill:#86A7C8;}
	.st114{fill:#526278;}
	.st115{fill:#B5D2EB;}
	.st116{fill:#D2DAE3;}
	.st117{fill:#89ADD0;}
	.st118{fill:#5E6F82;}
	.st119{fill:#5D6D80;}
	.st120{fill:#516176;}
	.st121{fill:#5F6F83;}
	.st122{fill:#85A7C6;}
	.st123{fill:#F6C8B2;}
	.st124{fill:#56667C;}
	.st125{fill:#B5D3EC;}
	.st126{fill:#B8D5ED;}
	.st127{fill:#54647A;}
	.st128{fill:#84A7C8;}
	.st129{fill:#F4C9B4;}
	.st130{fill:#5E6E81;}
	.st131{fill:#C0A492;}
	.st132{fill:#ADC9E3;}
	.st133{fill:#C29F86;}
	.st134{fill:#B1CEE8;}
	.st135{fill:#CCD6E2;}
	.st136{fill:#F1C5AD;}
	.st137{fill:#F6CDB7;}
	.st138{fill:#E4B9A5;}
	.st139{fill:#8FA9C3;}
	.st140{fill:#FADC85;}
	.st141{fill:#FADC84;}
	.st142{fill:#F58E6E;}
	.st143{fill:#F7AD7A;}
	.st144{fill:#8FAECD;}
	.st145{fill:#F8D5A9;}
	.st146{fill:#F6AC7A;}
	.st147{fill:#FDFBFB;}
	.st148{fill:#8FAECC;}
	.st149{fill:#F7D4A7;}
	.st150{fill:#F5AC79;}
	.st151{fill:#F6AE7C;}
	.st152{fill:#362F25;}
	.st153{fill:#F5906C;}
	.st154{fill:#F8D4A7;}
	.st155{fill:#F7CCB7;}
	.st156{fill:#FBF9F9;}
	.st157{fill:#E3ECF2;}
	.st158{fill:#F7D77E;}
	.st159{fill:#F48967;}
	.st160{fill:#F9D985;}
	.st161{fill:#E2ECF2;}
	.st162{fill:#FAFAFA;}
	.st163{fill:#F3CFA0;}
	.st164{fill:#B3D0EA;}
	.st165{fill:#F3CAB4;}
	.st166{fill:#F0C999;}
	.st167{fill:#F1C894;}
	.st168{fill:#EABD8E;}
	.st169{fill:#EBC495;}
	.st170{fill:#82A5C4;}
	.st171{fill:#ECC695;}
	.st172{fill:#EEEEEF;}
	.st173{fill:#F0F4F6;}
	.st174{fill:#E88C6D;}
	.st175{fill:#F5C5AF;}
	.st176{fill:#E0EBF2;}
	.st177{fill:#C1A391;}
	.st178{fill:#E4EDF3;}
	.st179{fill:#E5EDF2;}
	.st180{fill:#E2EBF1;}
	.st181{fill:#E3ECF1;}
	.st182{fill:#E4EAEF;}
	.st183{fill:#D9E2E8;}
	.st184{fill:#DBE1E5;}
	.st185{fill:#C4C7CC;}
	.st186{fill:#9B9EA5;}
	.st187{fill:#2B2C35;}
	.st188{fill:#2C2D36;}
	.st189{fill:#382D31;}
	.st190{fill:#383A45;}
	.st191{fill:#2E313C;}
	.st192{fill:#5B4B48;}
	.st193{fill:#65504A;}
	.st194{fill:#4E3937;}
	.st195{fill:#413534;}
	.st196{fill:#312D2E;}
	.st197{fill:#353234;}
	.st198{fill:#584643;}
	.st199{fill:#4E3D3A;}
	.st200{fill:#353339;}
	.st201{fill:#D2DAE4;}
	.st202{fill:#D1D9E3;}
	.st203{fill:#F48C6E;}
	.st204{fill:#96B7D4;}
	.st205{fill:#AECCE5;}
	.st206{fill:#DFECF5;}
	.st207{fill:#F6CB87;}
	.st208{fill:#F2AB79;}
	.st209{fill:#FAF7F6;}
	.st210{fill:#F2A975;}
	.st211{fill:#F3906C;}
	.st212{fill:#EEB57D;}
	.st213{fill:#EFEFEE;}
	.st214{fill:#E8B181;}
	.st215{fill:#E6E5E2;}
	.st216{fill:#89A9C4;}
	.st217{fill:#624537;}
	.st218{fill:#424145;}
	.st219{fill:#4B3125;}
	.st220{fill:#FFFFFF;}
	.st221{fill:#292424;}
	.st222{fill:#2D241F;}
	.st223{fill:#2B2726;}
	.st224{fill:#26211F;}
	.st225{fill:#D5E6EC;}
	.st226{fill:#C48358;}
	.st227{fill:#F8C9AE;}
	.st228{fill:#F7C9AC;}
	.st229{fill:#634646;}
	.st230{fill:#F6C9AF;}
	.st231{fill:#D7D2CC;}
	.st232{fill:#D9D2CB;}
	.st233{fill:#95B2D8;}
	.st234{fill:#94B1D8;}
	.st235{fill:#95B2D9;}
	.st236{fill:#94B1D7;}
	.st237{fill:#96B3D9;}
	.st238{fill:#DBE4EC;}
	.st239{fill:#DAE3EC;}
	.st240{fill:#DDE4EB;}
	.st241{fill:#DBE4EB;}
	.st242{fill:#93B1D8;}
	.st243{fill:#DCE5EC;}
	.st244{fill:#99B5DA;}
	.st245{fill:#DDE5EC;}
	.st246{fill:#DDE3EA;}
	.st247{fill:#8FAED7;}
	.st248{fill:#C6CFDB;}
	.st249{fill:#97B3D9;}
	.st250{fill:#DCE3E8;}
	.st251{fill:#D9E2EA;}
	.st252{fill:#E0E5E9;}
	.st253{fill:#E0E6EB;}
	.st254{fill:#D9E1E7;}
	.st255{fill:#8CABD2;}
	.st256{fill:#8FADD2;}
	.st257{fill:#5B6069;}
	.st258{fill:#E6B187;}
	.st259{fill:#F6A87C;}
	.st260{fill:#D2986F;}
	.st261{fill:#E5B187;}
	.st262{fill:#D69B72;}
	.st263{fill:#E6B185;}
	.st264{fill:#E4AF84;}
	.st265{fill:#C4D2EA;}
	.st266{fill:#D59B73;}
	.st267{fill:#F4BDB5;}
	.st268{fill:#EDD3B4;}
	.st269{fill:#EED6B7;}
	.st270{fill:#E4B086;}
	.st271{fill:#E6B289;}
	.st272{fill:#ECD0B2;}
	.st273{fill:#EDD3B6;}
	.st274{fill:#F3A379;}
	.st275{fill:#F5A67C;}
	.st276{fill:#C4D4EA;}
	.st277{fill:#95B1D7;}
	.st278{fill:#C9C9C7;}
	.st279{fill:#EBCFAF;}
	.st280{fill:#ECE7DA;}
	.st281{fill:#91AFD5;}
	.st282{fill:#8CABD3;}
	.st283{fill:#F2A57B;}
	.st284{fill:#EBE8DC;}
	.st285{fill:#E9E5D7;}
	.st286{fill:#F1A77D;}
	.st287{fill:#91ADD1;}
	.st288{fill:#E5CDB0;}
	.st289{fill:#D79B78;}
	.st290{fill:#DC9870;}
	.st291{fill:#D49B72;}
	.st292{fill:#E5B086;}
	.st293{fill:#D49B73;}
	.st294{fill:#C5D5EA;}
	.st295{fill:#F9EEDE;}
	.st296{fill:#8DACD4;}
	.st297{fill:#F0A37A;}
	.st298{fill:#F3A67C;}
	.st299{fill:#8EABD3;}
	.st300{fill:#8FACD3;}
	.st301{fill:#8FACD4;}
	.st302{fill:#8AA9D2;}
	.st303{fill:#C3D2E9;}
	.st304{fill:#8CAAD3;}
	.st305{fill:#8DABD3;}
	.st306{fill:#8DAAD4;}
	.st307{fill:#97B1D4;}
	.st308{fill:#EDD1B0;}
	.st309{fill:#92AED4;}
	.st310{fill:#E2AE87;}
	.st311{fill:#A3BAD8;}
	.st312{fill:#7D5E56;}
	.st313{fill:#F4ECDC;}
	.st314{fill:#DFCAB0;}
	.st315{fill:#D7A681;}
	.st316{fill:#E7E5DE;}
	.st317{fill:#839CBD;}
	.st318{fill:#93B2DA;}
	.st319{fill:#F7A97E;}
	.st320{fill:#7C9AC5;}
	.st321{fill:#95B3D9;}
	.st322{fill:#92AFD4;}
	.st323{fill:#EED2B4;}
	.st324{fill:#91B0D8;}
	.st325{fill:#F5A57C;}
	.st326{fill:#EDD4B7;}
	.st327{fill:#EDD2B3;}
	.st328{fill:#EED4B6;}
	.st329{fill:#C3D1E8;}
	.st330{fill:#C5CFDC;}
	.st331{fill:#EDD4B4;}
	.st332{fill:#3F2C22;}
	.st333{fill:#3B332D;}
	.st334{fill:#483B31;}
	.st335{fill:#483A31;}
	.st336{fill:#4F3D33;}
	.st337{fill:#4C3E33;}
	.st338{fill:#4F453B;}
	.st339{fill:#3F2D22;}
	.st340{fill:#483427;}
	.st341{fill:#42352A;}
	.st342{fill:#553A2A;}
	.st343{fill:#382920;}
	.st344{fill:#3D2E24;}
	.st345{fill:#4F3729;}
	.st346{fill:#30241C;}
	.st347{fill:#473122;}
	.st348{fill:#3B2B29;}
	.st349{fill:#3E352D;}
	.st350{fill:#3E342A;}
	.st351{fill:#3D3229;}
	.st352{fill:#3C322A;}
	.st353{fill:#3D2D24;}
	.st354{fill:#443C33;}
	.st355{fill:#483124;}
	.st356{fill:#4D3425;}
	.st357{fill:#3A312E;}
	.st358{fill:#453730;}
	.st359{fill:#282729;}
	.st360{fill:#CDD1D0;}
	.st361{fill:#E3AE85;}
	.st362{fill:#E0AC82;}
	.st363{fill:#E3AF84;}
	.st364{fill:#EC9D75;}
	.st365{fill:#FBEDDB;}
	.st366{fill:#FCECDD;}
	.st367{fill:#302E2F;}
	.st368{fill:#35322D;}
	.st369{fill:#4D4842;}
	.st370{fill:#4C4740;}
	.st371{fill:#4E4742;}
	.st372{fill:#4F4A44;}
	.st373{fill:#423E39;}
	.st374{fill:#5F5751;}
	.st375{fill:#58534F;}
	.st376{fill:#4C443E;}
	.st377{fill:#4A3C36;}
	.st378{fill:#51443D;}
	.st379{fill:#48423E;}
	.st380{fill:#3A3532;}
	.st381{fill:#92B0D6;}
	.st382{fill:#F0A47B;}
	.st383{fill:#383636;}
	.st384{fill:#473927;}
	.st385{fill:#44362E;}
	.st386{fill:#FBCF7E;}
	.st387{fill:#504134;}
	.st388{fill:#473930;}
	.st389{fill:#504031;}
	.st390{fill:#55453C;}
	.st391{fill:#5A4636;}
	.st392{fill:#584436;}
	.st393{fill:#776662;}
	.st394{fill:#7C6C68;}
	.st395{fill:#84716F;}
	.st396{fill:#685551;}
	.st397{fill:#564845;}
	.st398{fill:#554542;}
	.st399{fill:#614640;}
	.st400{fill:#654943;}
	.st401{fill:#EEF4F9;}
	.st402{fill:#EDF4F9;}
	.st403{fill:#4C4C68;}
	.st404{fill:#7796CA;}
	.st405{fill:#FAD576;}
	.st406{fill:#ACB0BA;}
	.st407{fill:#F8CAB7;}
	.st408{fill:#955F5B;}
	.st409{fill:#AAB0B9;}
	.st410{fill:#F4BF64;}
	.st411{fill:#EDF3F9;}
	.st412{fill:#A8AEB7;}
	.st413{fill:#A7AFB7;}
	.st414{fill:#F3BF66;}
	.st415{fill:#6FAF83;}
	.st416{fill:#6DB082;}
	.st417{fill:#F6C7BC;}
	.st418{fill:#F7D171;}
	.st419{fill:#EFF4F8;}
	.st420{fill:#F7D06F;}
	.st421{fill:#F7D273;}
	.st422{fill:#ABB0B9;}
	.st423{fill:#ECF2F8;}
	.st424{fill:#EDF3F7;}
	.st425{fill:#EDF2F6;}
	.st426{fill:#AAAEB7;}
	.st427{fill:#ABB1B9;}
	.st428{fill:#FAF9F8;}
	.st429{fill:#A8AEB6;}
	.st430{fill:#F29A6F;}
	.st431{fill:#A9AFB7;}
	.st432{fill:#5B9B6D;}
	.st433{fill:#65A378;}
	.st434{fill:#5C9B6E;}
	.st435{fill:#E5EAED;}
	.st436{fill:#E0E8EE;}
	.st437{fill:#EC976E;}
	.st438{fill:#669E74;}
	.st439{fill:#989999;}
	.st440{fill:#CAC5C3;}
	.st441{fill:#AEA7AA;}
	.st442{fill:#B5CAD2;}
	.st443{fill:#F4C169;}
	.st444{fill:#F4C067;}
	.st445{fill:#F4C066;}
	.st446{fill:#F4C167;}
	.st447{fill:#F3B562;}
	.st448{fill:#F6D06F;}
	.st449{fill:#F7CF6E;}
	.st450{fill:#F7D272;}
	.st451{fill:#F3C067;}
	.st452{fill:#F1BF66;}
	.st453{fill:#F5D073;}
	.st454{fill:#EDCC75;}
	.st455{fill:#F69A6C;}
	.st456{fill:#F6996B;}
	.st457{fill:#F6986A;}
	.st458{fill:#F6996C;}
	.st459{fill:#F5996B;}
	.st460{fill:#EC7F50;}
	.st461{fill:#EC8051;}
	.st462{fill:#F7D27C;}
	.st463{fill:#F6D371;}
	.st464{fill:#F3C973;}
	.st465{fill:#DBBF79;}
	.st466{fill:#E6C16D;}
	.st467{fill:#DBAC63;}
	.st468{fill:#434140;}
	.st469{fill:#636262;}
	.st470{fill:#604C43;}
	.st471{fill:#554239;}
	.st472{fill:#685147;}
	.st473{fill:#5A473F;}
	.st474{fill:#5C4F49;}
	.st475{fill:#FBFAF9;}
	.st476{fill:#0C0C0C;}
	.st477{fill:#111010;}
	.st478{fill:#111111;}
	.st479{fill:#131213;}
	.st480{fill:#191818;}
	.st481{fill:#1A1818;}
	.st482{fill:#1A1819;}
	.st483{fill:#BBBBBB;}
	.st484{fill:#FEFEFE;}
	.st485{fill:#FEFDFD;}
	.st486{fill:#F9F8F8;}
	.st487{fill:#B9BBBB;}
	.st488{fill:#CCCCCE;}
	.st489{fill:#B9BAB9;}
	.st490{fill:#B7B8B8;}
	.st491{fill:#B8B9B8;}
	.st492{fill:#0E0E0E;}
	.st493{fill:#141213;}
	.st494{fill:#131212;}
	.st495{fill:#161616;}
	.st496{fill:#181717;}
	.st497{fill:#0D0D0E;}
	.st498{fill:#201F20;}
	.st499{fill:#212122;}
	.st500{fill:#232325;}
	.st501{fill:#151414;}
	.st502{fill:#FCFBFB;}
	.st503{fill:#FBFBFA;}
	.st504{fill:#F8F7F6;}
	.st505{fill:#EBEAE8;}
	.st506{fill:#E8E7E5;}
	.st507{fill:#F9F9F8;}
	.st508{fill:#E8E9E8;}
	.st509{fill:#F8F7F7;}
	.st510{fill:#F3F2F2;}
	.st511{fill:#F5F5F4;}
	.st512{fill:#F6F5F1;}
	.st513{fill:#030303;}
	.st514{fill:#D4D4CE;}
	.st515{fill:#030404;}
	.st516{fill:#D7D7D1;}
	.st517{fill:#D2D2CD;}
	.st518{fill:#DAD9D3;}
	.st519{fill:#DCDBD6;}
	.st520{fill:#F6F5F0;}
	.st521{fill:#D9D9D3;}
	.st522{fill:#D2D1CA;}
	.st523{fill:#161514;}
	.st524{fill:#A8A69F;}
	.st525{fill:#D8D7D2;}
	.st526{fill:#181715;}
	.st527{fill:#D7D8D2;}
	.st528{fill:#181615;}
	.st529{fill:#171514;}
	.st530{fill:#D9D8D3;}
	.st531{fill:#DBDAD4;}
	.st532{fill:#DCDBD5;}
	.st533{fill:#151412;}
	.st534{fill:#DADAD4;}
	.st535{fill:#D8D7D3;}
	.st536{fill:#141412;}
	.st537{fill:#141211;}
	.st538{fill:#1C1A18;}
	.st539{fill:#161513;}
	.st540{fill:#D8D8D3;}
	.st541{fill:#171615;}
	.st542{fill:#1B1918;}
	.st543{fill:#1C1B1A;}
	.st544{fill:#1B1A18;}
	.st545{fill:#201E1C;}
	.st546{fill:#1C1B19;}
	.st547{fill:#D7D6D1;}
	.st548{fill:#2B2927;}
	.st549{fill:#D9D9D4;}
	.st550{fill:#1A1917;}
	.st551{fill:#1B1917;}
	.st552{fill:#1E1D1B;}
	.st553{fill:#1E1C1A;}
	.st554{fill:#1C1A19;}
	.st555{fill:#21201E;}
	.st556{fill:#1A1816;}
	.st557{fill:#1F1D1B;}
	.st558{fill:#1D1B1A;}
	.st559{fill:#1E1E1C;}
	.st560{fill:#22201F;}
	.st561{fill:#F0EFEB;}
	.st562{fill:#272623;}
	.st563{fill:#1D1C1B;}
	.st564{fill:#262422;}
	.st565{fill:#1E1C1B;}
	.st566{fill:#191715;}
	.st567{fill:#2C2A28;}
	.st568{fill:#D6D3CD;}
	.st569{fill:#CECEC8;}
	.st570{fill:#2A2725;}
	.st571{fill:#2F2C29;}
	.st572{fill:#322F2C;}
	.st573{fill:#2D2A27;}
	.st574{fill:#24211F;}
	.st575{fill:#2E2B29;}
	.st576{fill:#212120;}
	.st577{fill:#2B2826;}
	.st578{fill:#34322F;}
	.st579{fill:#2C2927;}
	.st580{fill:#373431;}
	.st581{fill:#232220;}
	.st582{fill:#282725;}
	.st583{fill:#302D2B;}
	.st584{fill:#3D3B38;}
	.st585{fill:#292725;}
	.st586{fill:#2C2926;}
	.st587{fill:#393531;}
	.st588{fill:#34312E;}
	.st589{fill:#322F2B;}
	.st590{fill:#2E2B2A;}
	.st591{fill:#1F1E1D;}
	.st592{fill:#413F3C;}
	.st593{fill:#33302E;}
	.st594{fill:#504D4B;}
	.st595{fill:#383633;}
	.st596{fill:#393533;}
	.st597{fill:#3B3937;}
	.st598{fill:#5A5854;}
	.st599{fill:#2D2D2B;}
	.st600{fill:#45413D;}
	.st601{fill:#585450;}
	.st602{fill:#67645E;}
	.st603{fill:#BFC2C2;}
	.st604{fill:#6E6D68;}
	.st605{fill:#4A4440;}
	.st606{fill:#938D87;}
	.st607{fill:#43403C;}
	.st608{fill:#7E7D79;}
	.st609{fill:#6B6660;}
	.st610{fill:#695C56;}
	.st611{fill:#AAA9A2;}
	.st612{fill:#F6F4EF;}
	.st613{fill:#F6F6F1;}
	.st614{fill:#F5F4F0;}
	.st615{fill:#C6C5BE;}
	.st616{fill:#D2D4D2;}
	.st617{fill:#D9D9D7;}
	.st618{fill:#7B7E77;}
	.st619{fill:#F6F5EF;}
	.st620{fill:#F5F4EF;}
	.st621{fill:#121210;}
	.st622{fill:#F4F3ED;}
	.st623{fill:#191816;}
	.st624{fill:#171715;}
	.st625{fill:#151413;}
	.st626{fill:#221F1D;}
	.st627{fill:#24221F;}
	.st628{fill:#272421;}
	.st629{fill:#2B2825;}
	.st630{fill:#302E2A;}
	.st631{fill:#2C2925;}
	.st632{fill:#1C1B18;}
	.st633{fill:#292723;}
	.st634{fill:#272624;}
	.st635{fill:#302D29;}
	.st636{fill:#201F1C;}
	.st637{fill:#292624;}
	.st638{fill:#272524;}
	.st639{fill:#302E2B;}
	.st640{fill:#282623;}
	.st641{fill:#242321;}
	.st642{fill:#43413E;}
	.st643{fill:#312F2D;}
	.st644{fill:#3A3936;}
	.st645{fill:#413D3A;}
	.st646{fill:#3E3B38;}
	.st647{fill:#53524F;}
	.st648{fill:#46423E;}
	.st649{fill:#7B7973;}
	.st650{fill:#6F6A63;}
	.st651{fill:#7B7A74;}
	.st652{fill:#F8F7F3;}
	.st653{fill:#DCDCD9;}
	.st654{fill:#AAA8A6;}
	.st655{fill:#878A8A;}
	.st656{fill:#646666;}
	.st657{fill:#828888;}
	.st658{fill:#A9ADAD;}
	.st659{fill:#B0B3B3;}
	.st660{fill:#9DA0A0;}
	.st661{fill:#9AAAAF;}
	.st662{fill:#151312;}
	.st663{fill:#F7F6F1;}
	.st664{fill:#1E1E1D;}
	.st665{fill:#191716;}
	.st666{fill:#252220;}
	.st667{fill:#272523;}
	.st668{fill:#2E2C29;}
	.st669{fill:#3D3B37;}
	.st670{fill:#3D3935;}
	.st671{fill:#5B5752;}
	.st672{fill:#252422;}
	.st673{fill:#33312D;}
	.st674{fill:#4D4742;}
	.st675{fill:#3F3E3B;}
	.st676{fill:#74726D;}
	.st677{fill:#262421;}
	.st678{fill:#D9D9D2;}
	.st679{fill:#282624;}
	.st680{fill:#23211F;}
	.st681{fill:#22201E;}
	.st682{fill:#3E3C39;}
	.st683{fill:#605C56;}
	.st684{fill:#6C6964;}
	.st685{fill:#D7D6D0;}
	.st686{fill:#3E3B36;}
	.st687{fill:#3F3B37;}
	.st688{fill:#3C3835;}
	.st689{fill:#746F6A;}
	.st690{fill:#252321;}
	.st691{fill:#2E2D2A;}
	.st692{fill:#3A3634;}
	.st693{fill:#4D4946;}
	.st694{fill:#FBF9F8;}
	.st695{fill:#151514;}
	.st696{fill:#171313;}
	.st697{fill:#2F67B1;}
	.st698{fill:#F6B71D;}
	.st699{fill:#1C1B3B;}
	.st700{fill:#7E433A;}
	.st701{fill:#F6B61C;}
	.st702{fill:#3066B1;}
	.st703{fill:#7D453C;}
	.st704{fill:#7E453B;}
	.st705{fill:#1F1C3A;}
	.st706{fill:#F498B2;}
	.st707{fill:#F397B1;}
	.st708{fill:#FEFDFB;}
	.st709{fill:#F396B0;}
	.st710{fill:#F396B1;}
	.st711{fill:#7B423B;}
	.st712{fill:#7E453A;}
	.st713{fill:#F398B3;}
	.st714{fill:#F6B61A;}
	.st715{fill:#FDFDFD;}
	.st716{fill:#F8B61C;}
	.st717{fill:#F496B0;}
	.st718{fill:#F6B61B;}
	.st719{fill:#201E3C;}
	.st720{fill:#F394AE;}
	.st721{fill:#FBFAFA;}
	.st722{fill:#F094AF;}
	.st723{fill:#F3B51F;}
	.st724{fill:#F6F6F5;}
	.st725{fill:#F093AC;}
	.st726{fill:#EF95B0;}
	.st727{fill:#F09CB6;}
	.st728{fill:#F199B5;}
	.st729{fill:#F092AD;}
	.st730{fill:#EC9CB4;}
	.st731{fill:#F4F3F2;}
	.st732{fill:#EF9BB5;}
	.st733{fill:#F5F4F2;}
	.st734{fill:#EDEDED;}
	.st735{fill:#F6F4F3;}
	.st736{fill:#ED8EA9;}
	.st737{fill:#ECECEB;}
	.st738{fill:#ECECEA;}
	.st739{fill:#F5F4F4;}
	.st740{fill:#E9B029;}
	.st741{fill:#75413A;}
	.st742{fill:#DD93A8;}
	.st743{fill:#C696A4;}
	.st744{fill:#B49649;}
	.st745{fill:#BBBEBA;}
	.st746{fill:#857781;}
	.st747{fill:#C3C6C7;}
	.st748{fill:#262322;}
	.st749{fill:#221A13;}
	.st750{fill:#40201D;}
	.st751{fill:#1F1412;}
	.st752{fill:#150D0C;}
	.st753{fill:#180F0E;}
	.st754{fill:#150C0B;}
	.st755{fill:#1A1110;}
	.st756{fill:#1B1919;}
	.st757{fill:#241614;}
	.st758{fill:#1C100F;}
	.st759{fill:#201512;}
	.st760{fill:#EDECEC;}
	.st761{fill:#121111;}
	.st762{fill:#171616;}
	.st763{fill:#181614;}
	.st764{fill:#171614;}
	.st765{fill:#1C1917;}
	.st766{fill:#181716;}
	.st767{fill:#1A1B1B;}
	.st768{fill:#B8B7B3;}
	.st769{fill:#B8B7B2;}
	.st770{fill:#AEAEAB;}
	.st771{fill:#A7A7A4;}
	.st772{fill:#F6F4F0;}
	.st773{fill:#AFAFAC;}
	.st774{fill:#ADAEAA;}
	.st775{fill:#EAE9E3;}
	.st776{fill:#D3D1D0;}
	.st777{fill:#BFBEBB;}
	.st778{fill:#A7A7A6;}
	.st779{fill:#C0C0BD;}
	.st780{fill:#B1AFAD;}
	.st781{fill:#D1D0CD;}
	.st782{fill:#E1DEDB;}
	.st783{fill:#D6D5CE;}
	.st784{fill:#DEDBD8;}
	.st785{fill:#D7D5D4;}
	.st786{fill:#7D7B75;}
	.st787{fill:#C3C2BF;}
	.st788{fill:#C2C1BF;}
	.st789{fill:#C2C1BE;}
	.st790{fill:#C1C1BD;}
	.st791{fill:#B9B9B4;}
	.st792{fill:#B9BAB6;}
	.st793{fill:#D2B48B;}
	.st794{fill:#B1B3AE;}
	.st795{fill:#B6B3B4;}
	.st796{fill:#B2B0B1;}
	.st797{fill:#AEAFAE;}
	.st798{fill:#E0DDD8;}
	.st799{fill:#9F9EA1;}
	.st800{fill:#949396;}
	.st801{fill:#AAABA8;}
	.st802{fill:#AEACA7;}
	.st803{fill:#E7E7E2;}
	.st804{fill:#A1A49F;}
	.st805{fill:#99968E;}
	.st806{fill:#B4B2AF;}
	.st807{fill:#AEAEAA;}
	.st808{fill:#B5B5B2;}
	.st809{fill:#272322;}
	.st810{fill:#242120;}
	.st811{fill:#23201F;}
	.st812{fill:#262321;}
	.st813{fill:#252322;}
	.st814{fill:#2F2C2A;}
	.st815{fill:#302E2C;}
	.st816{fill:#282523;}
	.st817{fill:#2E2A28;}
	.st818{fill:#2F2B29;}
	.st819{fill:#2F2D2B;}
	.st820{fill:#312E2B;}
	.st821{fill:#2D2A28;}
	.st822{fill:#020302;}
	.st823{fill:#111011;}
	.st824{fill:#141313;}
	.st825{fill:#171517;}
	.st826{fill:#161516;}
	.st827{fill:#FAFAF9;}
	.st828{fill:#EBECE9;}
	.st829{fill:#E5E4DF;}
	.st830{fill:#E2E1DE;}
	.st831{fill:#B4B7B6;}
	.st832{fill:#F5F4F3;}
	.st833{fill:#EEEFEC;}
	.st834{fill:#E7E7E3;}
	.st835{fill:#DEE0DD;}
	.st836{fill:#BAB7B4;}
	.st837{fill:#A09F9F;}
	.st838{fill:#E8EBE8;}
	.st839{fill:#E7E8E5;}
	.st840{fill:#E1E1DA;}
	.st841{fill:#ECEAE9;}
	.st842{fill:#AFB8BB;}
	.st843{fill:#DFDFDF;}
	.st844{fill:#070707;}
	.st845{fill:#FDFDFB;}
	.st846{fill:#FAF9F7;}
	.st847{fill:#F9F8F6;}
	.st848{fill:#F9F8F7;}
	.st849{fill:#FBFBF9;}
	.st850{fill:#FBFAF8;}
	.st851{fill:#F3F2F0;}
	.st852{fill:#F4F4F2;}
	.st853{fill:#F8F8F6;}
	.st854{fill:#F7F6F5;}
	.st855{fill:#F8F7F5;}
	.st856{fill:#F7F8F8;}
	.st857{fill:#F6F5F3;}
	.st858{fill:#F2F1F0;}
	.st859{fill:#E9E8E6;}
	.st860{fill:#B7B6B3;}
	.st861{fill:#B8B9B5;}
	.st862{fill:#A9A8A5;}
	.st863{fill:#767676;}
	.st864{fill:#211F1F;}
	.st865{fill:#242322;}
	.st866{fill:#44413E;}
	.st867{fill:#474544;}
	.st868{fill:#252626;}
	.st869{fill:#37393C;}
	.st870{fill:#161313;}
	.st871{fill:#050505;}
	.st872{fill:#060607;}
	.st873{fill:#9D9B99;}
	.st874{fill:#BA8451;}
	.st875{fill:#2D9654;}
	.st876{fill:#F9CC3E;}
	.st877{fill:#EAE5DE;}
	.st878{fill:#697676;}
	.st879{fill:#BC9E81;}
	.st880{fill:#D14B4A;}
	.st881{fill:#84572F;}
	.st882{fill:#FCFCFC;}
	.st883{fill:#BC8655;}
	.st884{fill:#060606;}
	.st885{fill:#BB8551;}
	.st886{fill:#84562E;}
	.st887{fill:#BE8561;}
	.st888{fill:#6B787A;}
	.st889{fill:#A55033;}
	.st890{fill:#6A7575;}
	.st891{fill:#A45034;}
	.st892{fill:#7F552C;}
	.st893{fill:#8D5831;}
	.st894{fill:#FCFAF9;}
	.st895{fill:#6B7676;}
	.st896{fill:#B49C83;}
	.st897{fill:#83582F;}
	.st898{fill:#8E572F;}
	.st899{fill:#697877;}
	.st900{fill:#8D5930;}
	.st901{fill:#DDCCB1;}
	.st902{fill:#6F7B7C;}
	.st903{fill:#DFD0B6;}
	.st904{fill:#BD9D80;}
	.st905{fill:#B59D86;}
	.st906{fill:#BE8460;}
	.st907{fill:#8E5930;}
	.st908{fill:#D3AF8E;}
	.st909{fill:#6F797A;}
	.st910{fill:#DECFB7;}
	.st911{fill:#697677;}
	.st912{fill:#BE8663;}
	.st913{fill:#935A30;}
	.st914{fill:#CC8070;}
	.st915{fill:#8C5A30;}
	.st916{fill:#90552F;}
	.st917{fill:#905C30;}
	.st918{fill:#E4D0B0;}
	.st919{fill:#905630;}
	.st920{fill:#6F7A7A;}
	.st921{fill:#E6CDAC;}
	.st922{fill:#8F5830;}
	.st923{fill:#8D5B30;}
	.st924{fill:#8D5B31;}
	.st925{fill:#855830;}
	.st926{fill:#8A5D32;}
	.st927{fill:#C38865;}
	.st928{fill:#8E5A2F;}
	.st929{fill:#C38864;}
	.st930{fill:#855630;}
	.st931{fill:#8A5A33;}
	.st932{fill:#F2F0EE;}
	.st933{fill:#8F562F;}
	.st934{fill:#915C31;}
	.st935{fill:#89562F;}
	.st936{fill:#BFA185;}
	.st937{fill:#8D5A30;}
	.st938{fill:#959891;}
	.st939{fill:#B1AC9C;}
	.st940{fill:#925B32;}
	.st941{fill:#905A30;}
	.st942{fill:#C3984D;}
	.st943{fill:#8E5A31;}
	.st944{fill:#C69945;}
	.st945{fill:#8F5C33;}
	.st946{fill:#9FA198;}
	.st947{fill:#A8A69C;}
	.st948{fill:#9C9F97;}
	.st949{fill:#8D5731;}
	.st950{fill:#AAA89F;}
	.st951{fill:#DEDEDD;}
	.st952{fill:#E4E7E6;}
	.st953{fill:#F0EFED;}
	.st954{fill:#925F35;}
	.st955{fill:#815B32;}
	.st956{fill:#E7E9E9;}
	.st957{fill:#DADDDD;}
	.st958{fill:#C2BCA9;}
	.st959{fill:#C4BDAA;}
	.st960{fill:#C9C5B1;}
	.st961{fill:#D0C9B3;}
	.st962{fill:#D4CEB7;}
	.st963{fill:#CECBB7;}
	.st964{fill:#9D753D;}
	.st965{fill:#CDC7B5;}
	.st966{fill:#D3CCB1;}
	.st967{fill:#E0DAC2;}
	.st968{fill:#A5AAAB;}
	.st969{fill:#A07B3D;}
	.st970{fill:#C0BCAD;}
	.st971{fill:#CBC4B1;}
	.st972{fill:#9F824D;}
	.st973{fill:#9A9796;}
	.st974{fill:#211B18;}
	.st975{fill:#1C1A16;}
	.st976{fill:#1B1B16;}
	.st977{fill:#1C1B17;}
	.st978{fill:#1B1A16;}
	.st979{fill:#1B1A14;}
	.st980{fill:#1D1C16;}
	.st981{fill:#1A1915;}
	.st982{fill:#1A1914;}
	.st983{fill:#1E1D17;}
	.st984{fill:#1B1914;}
	.st985{fill:#1D1C17;}
	.st986{fill:#1D1B16;}
	.st987{fill:#161413;}
	.st988{fill:#251C16;}
	.st989{fill:#231B17;}
	.st990{fill:#1D1814;}
	.st991{fill:#2B231A;}
	.st992{fill:#2D241D;}
	.st993{fill:#241512;}
	.st994{fill:#201714;}
	.st995{fill:#1E1613;}
	.st996{fill:#291D16;}
	.st997{fill:#271D17;}
	.st998{fill:#271C16;}
	.st999{fill:#1C1B16;}
	.st1000{fill:#1C1C15;}
	.st1001{fill:#E3CDB6;}
	.st1002{fill:#171311;}
	.st1003{fill:#1E1E17;}
	.st1004{fill:#241F1C;}
	.st1005{fill:#1E1814;}
	.st1006{fill:#231B15;}
	.st1007{fill:#2A201B;}
	.st1008{fill:#30241D;}
	.st1009{fill:#291E19;}
	.st1010{fill:#322720;}
	.st1011{fill:#362A22;}
	.st1012{fill:#24211B;}
	.st1013{fill:#2D241C;}
	.st1014{fill:#201E1D;}
	.st1015{fill:#242220;}
	.st1016{fill:#7B7843;}
	.st1017{fill:#6B7777;}
	.st1018{fill:#6A7676;}
	.st1019{fill:#6C797A;}
	.st1020{fill:#6A7677;}
	.st1021{fill:#BB885B;}
	.st1022{fill:#6A7778;}
	.st1023{fill:#6B7778;}
	.st1024{fill:#BF8E62;}
	.st1025{fill:#6A7678;}
	.st1026{fill:#697576;}
	.st1027{fill:#697476;}
	.st1028{fill:#6C787A;}
	.st1029{fill:#8B5830;}
	.st1030{fill:#83572E;}
	.st1031{fill:#A67D3D;}
	.st1032{fill:#BA8653;}
	.st1033{fill:#81552E;}
	.st1034{fill:#687576;}
	.st1035{fill:#6F7C7D;}
	.st1036{fill:#CA9D60;}
	.st1037{fill:#A37C42;}
	.st1038{fill:#C6A981;}
	.st1039{fill:#CBAA6F;}
	.st1040{fill:#C7A975;}
	.st1041{fill:#17110E;}
	.st1042{fill:#281F19;}
	.st1043{fill:#31261D;}
	.st1044{fill:#2D221B;}
	.st1045{fill:#3D2E23;}
	.st1046{fill:#231B16;}
	.st1047{fill:#E6E5E3;}
	.st1048{fill:#38322D;}
	.st1049{fill:#3B3430;}
	.st1050{fill:#332F2B;}
	.st1051{fill:#2C2723;}
	.st1052{fill:#39322D;}
	.st1053{fill:#38312E;}
	.st1054{fill:#35312D;}
	.st1055{fill:#302C27;}
	.st1056{fill:#3B342E;}
	.st1057{fill:#403934;}
	.st1058{fill:#3A3531;}
	.st1059{fill:#3C332C;}
	.st1060{fill:#2B2720;}
	.st1061{fill:#33291F;}
	.st1062{fill:#292623;}
	.st1063{fill:#687676;}
	.st1064{fill:#2B2823;}
	.st1065{fill:#161111;}
	.st1066{fill:#151111;}
	.st1067{fill:#171111;}
	.st1068{fill:#040505;}
	.st1069{fill:#0F0E0E;}
	.st1070{fill:#1D1A1A;}
	.st1071{fill:#1F1C1C;}
	.st1072{fill:#1E1C1C;}
	.st1073{fill:#222020;}
	.st1074{fill:#282626;}
	.st1075{fill:#24619C;}
	.st1076{fill:#A05F30;}
	.st1077{fill:#A16031;}
	.st1078{fill:#24609C;}
	.st1079{fill:#F37021;}
	.st1080{fill:#B1693F;}
	.st1081{fill:#824921;}
	.st1082{fill:#246099;}
	.st1083{fill:#F8CB17;}
	.st1084{fill:#25619A;}
	.st1085{fill:#B16A3F;}
	.st1086{fill:#7C4725;}
	.st1087{fill:#25619C;}
	.st1088{fill:#245E99;}
	.st1089{fill:#F7CA17;}
	.st1090{fill:#804721;}
	.st1091{fill:#256099;}
	.st1092{fill:#26619B;}
	.st1093{fill:#F27021;}
	.st1094{fill:#7F4923;}
	.st1095{fill:#E62D2C;}
	.st1096{fill:#F7CA18;}
	.st1097{fill:#245E96;}
	.st1098{fill:#EB6C23;}
	.st1099{fill:#F5C81B;}
	.st1100{fill:#E96823;}
	.st1101{fill:#F1C51D;}
	.st1102{fill:#EC7223;}
	.st1103{fill:#B2683C;}
	.st1104{fill:#EABF25;}
	.st1105{fill:#AB643D;}
	.st1106{fill:#AC653D;}
	.st1107{fill:#D82C28;}
	.st1108{fill:#A36139;}
	.st1109{fill:#255E96;}
	.st1110{fill:#774626;}
	.st1111{fill:#E16925;}
	.st1112{fill:#E76924;}
	.st1113{fill:#A25D3B;}
	.st1114{fill:#2C598B;}
	.st1115{fill:#E57026;}
	.st1116{fill:#25619D;}
	.st1117{fill:#25609B;}
	.st1118{fill:#583828;}
	.st1119{fill:#583829;}
	.st1120{fill:#E82D2C;}
	.st1121{fill:#5C3B2A;}
	.st1122{fill:#040404;}
	.st1123{fill:#F9CC17;}
	.st1124{fill:#F8CA18;}
	.st1125{fill:#24619A;}
	.st1126{fill:#F36F21;}
	.st1127{fill:#F9CB18;}
	.st1128{fill:#F26C21;}
	.st1129{fill:#E32C2C;}
	.st1130{fill:#F26F22;}
	.st1131{fill:#F16F22;}
	.st1132{fill:#B3B2AF;}
	.st1133{fill:#E52C2C;}
	.st1134{fill:#E62E2C;}
	.st1135{fill:#F8CA17;}
	.st1136{fill:#ED6C22;}
	.st1137{fill:#EE6E22;}
	.st1138{fill:#E32D2C;}
	.st1139{fill:#F5C619;}
	.st1140{fill:#316396;}
	.st1141{fill:#EDC124;}
	.st1142{fill:#2F5B8C;}
	.st1143{fill:#DB282A;}
	.st1144{fill:#E8A466;}
	.st1145{fill:#030403;}
	.st1146{fill:#E72D2D;}
	.st1147{fill:#24609D;}
	.st1148{fill:#E6A367;}
	.st1149{fill:#F9CA17;}
	.st1150{fill:#F37121;}
	.st1151{fill:#F6C916;}
	.st1152{fill:#E32F2C;}
	.st1153{fill:#E42E2C;}
	.st1154{fill:#25609A;}
	.st1155{fill:#27619B;}
	.st1156{fill:#E4312C;}
	.st1157{fill:#ED6F22;}
	.st1158{fill:#EEC21F;}
	.st1159{fill:#E66B24;}
	.st1160{fill:#DF352B;}
	.st1161{fill:#E76B24;}
	.st1162{fill:#EBBF2B;}
	.st1163{fill:#EEC120;}
	.st1164{fill:#E1A163;}
	.st1165{fill:#E3A66B;}
	.st1166{fill:#DE9E63;}
	.st1167{fill:#DD2C2A;}
	.st1168{fill:#DB9A60;}
	.st1169{fill:#AFAFAD;}
	.st1170{fill:#8F8E8C;}
	.st1171{fill:#1F1610;}
	.st1172{fill:#221712;}
	.st1173{fill:#2C1B17;}
	.st1174{fill:#2C1F19;}
	.st1175{fill:#2D1F18;}
	.st1176{fill:#231814;}
	.st1177{fill:#2D1512;}
	.st1178{fill:#341715;}
	.st1179{fill:#26110E;}
	.st1180{fill:#0C1118;}
	.st1181{fill:#150F0D;}
	.st1182{fill:#1B1410;}
	.st1183{fill:#2E221F;}
	.st1184{fill:#281D19;}
	.st1185{fill:#34231D;}
	.st1186{fill:#31221C;}
	.st1187{fill:#34241E;}
	.st1188{fill:#262424;}
	.st1189{fill:#1F1F20;}
	.st1190{fill:#42403D;}
	.st1191{fill:#1A1C1C;}
	.st1192{fill:#F9F7F7;}
	.st1193{fill:#0F0F0F;}
	.st1194{fill:#101010;}
	.st1195{fill:#514D4A;}
	.st1196{fill:#F8F8F7;}
	.st1197{fill:#F2F1F1;}
	.st1198{fill:#F0EFEF;}
	.st1199{fill:#F1F1F0;}
	.st1200{fill:#F1F0EF;}
	.st1201{fill:#2C2B2A;}
	.st1202{fill:#F8F8F8;}
	.st1203{fill:#DFDDDC;}
	.st1204{fill:#8B8888;}
	.st1205{fill:#BDBAB9;}
	.st1206{fill:#737373;}
	.st1207{fill:#879093;}
	.st1208{fill:#FAF9F9;}
	.st1209{fill:#F7F7F7;}
	.st1210{fill:#F6F5F5;}
	.st1211{fill:#F7F6F6;}
	.st1212{fill:#F7F7F6;}
	.st1213{fill:#F2F0F0;}
	.st1214{fill:#E6E6E5;}
	.st1215{fill:#E2E2E1;}
	.st1216{fill:#555350;}
	.st1217{fill:#EBEAEA;}
	.st1218{fill:#EDEBEB;}
	.st1219{fill:#F5F5F5;}
	.st1220{fill:#EAE9E7;}
	.st1221{fill:#E2E1E0;}
	.st1222{fill:#F1EEEC;}
	.st1223{fill:#ECEBEB;}
	.st1224{fill:#E4E3E3;}
	.st1225{fill:#DFDEDD;}
	.st1226{fill:#E3E2E1;}
	.st1227{fill:#E2E1E1;}
	.st1228{fill:#E3E3E3;}
	.st1229{fill:#E7E6E6;}
	.st1230{fill:#E1E1E1;}
	.st1231{fill:#D9DAD9;}
	.st1232{fill:#D8D8D8;}
	.st1233{fill:#C9CBCB;}
	.st1234{fill:#686A6B;}
	.st1235{fill:#BABCBC;}
	.st1236{fill:#807A73;}
	.st1237{fill:#242121;}
	.st1238{fill:#232121;}
	.st1239{fill:#2B2523;}
	.st1240{fill:#3C3938;}
	.st1241{fill:#3D3B3A;}
	.st1242{fill:#282726;}
	.st1243{fill:#252120;}
	.st1244{fill:#252222;}
	.st1245{fill:#343230;}
	.st1246{fill:#2A2726;}
	.st1247{fill:#2C2725;}
	.st1248{fill:#333130;}
	.st1249{fill:#3F3C3B;}
	.st1250{fill:#34312F;}
	.st1251{fill:#080909;}
	.st1252{fill:#181819;}
	.st1253{fill:#1A1919;}
	.st1254{fill:#1C1B1B;}
	.st1255{fill:#1F1F1F;}
	.st1256{fill:#201F1E;}
	.st1257{fill:#232322;}
	.st1258{fill:#F6F4F2;}
	.st1259{fill:#F8F6F6;}
	.st1260{fill:#F7F5F4;}
	.st1261{fill:#EFEDEC;}
	.st1262{fill:#C3BDBC;}
	.st1263{fill:#EBE8E6;}
	.st1264{fill:#222021;}
	.st1265{fill:#252325;}
	.st1266{fill:#2C2D2E;}
	.st1267{fill:#272525;}
	.st1268{fill:#393737;}
	.st1269{fill:#33302F;}
	.st1270{fill:#2D2B2A;}
	.st1271{fill:#2D2C2E;}
	.st1272{fill:#17191A;}
	.st1273{fill:#171716;}
	.st1274{fill:#20201F;}
	.st1275{fill:#1A1A1A;}
	.st1276{fill:#232221;}
	.st1277{fill:#242423;}
	.st1278{fill:#1A1A19;}
	.st1279{fill:#181919;}
	.st1280{fill:#292929;}
	.st1281{fill:#0C0D0D;}
	.st1282{fill:#121211;}
	.st1283{fill:#141413;}
	.st1284{fill:#F4F2F1;}
	.st1285{fill:#F5F3F2;}
	.st1286{fill:#F0EFEE;}
	.st1287{fill:#EDEDEC;}
	.st1288{fill:#B7B2AF;}
	.st1289{fill:#171817;}
	.st1290{fill:#1E1D1C;}
	.st1291{fill:#181A1B;}
	.st1292{fill:#1B1B1B;}
	.st1293{fill:#2F2829;}
	.st1294{fill:#292827;}
	.st1295{fill:#0F0F0E;}
	.st1296{fill:#060707;}
	.st1297{fill:#050606;}
	.st1298{fill:#161515;}
	.st1299{fill:#141414;}
	.st1300{fill:#151515;}
	.st1301{fill:#191817;}
	.st1302{fill:#1B1B1A;}
	.st1303{fill:#222121;}
	.st1304{fill:#232423;}
	.st1305{fill:#F6F4F4;}
	.st1306{fill:#EFEEED;}
	.st1307{fill:#E3E2E0;}
	.st1308{fill:#A19E98;}
	.st1309{fill:#908785;}
	.st1310{fill:#A49B99;}
	.st1311{fill:#7A7C7D;}
	.st1312{fill:#9AA09D;}
	.st1313{fill:#B5AFAD;}
	.st1314{fill:#181816;}
	.st1315{fill:#1C1C1A;}
	.st1316{fill:#181817;}
	.st1317{fill:#1B1B1C;}
	.st1318{fill:#1D1D1B;}
	.st1319{fill:#2E2F2B;}
	.st1320{fill:#2E2A2B;}
	.st1321{fill:#373437;}
	.st1322{fill:#3E3B3F;}
	.st1323{fill:#4B474C;}
	.st1324{fill:#453D43;}
	.st1325{fill:#312C2F;}
	.st1326{fill:#383336;}
	.st1327{fill:#474447;}
	.st1328{fill:#363133;}
	.st1329{fill:#443E41;}
	.st1330{fill:#9D999C;}
	.st1331{fill:#A7A7A9;}
	.st1332{fill:#474449;}
	.st1333{fill:#636062;}
	.st1334{fill:#666064;}
	.st1335{fill:#6F6C71;}
	.st1336{fill:#413B3C;}
	.st1337{fill:#504C4E;}
	.st1338{fill:#676669;}
	.st1339{fill:#6B6363;}
	.st1340{fill:#636167;}
	.st1341{fill:#605C5C;}
	.st1342{fill:#E4E4E1;}
	.st1343{fill:#F6F6F6;}
	.st1344{fill:#434242;}
	.st1345{fill:#464142;}
	.st1346{fill:#403D3D;}
	.st1347{fill:#47464A;}
	.st1348{fill:#343134;}
	.st1349{fill:#38373A;}
	.st1350{fill:#040405;}
	.st1351{fill:#FFFEFD;}
	.st1352{fill:#ECEBEA;}
	.st1353{fill:#BFC5C4;}
	.st1354{fill:#F5F5F2;}
	.st1355{fill:#EDECEB;}
	.st1356{fill:#C3C5C4;}
	.st1357{fill:#CED0D0;}
	.st1358{fill:#B4B8B6;}
	.st1359{fill:#1A191A;}
	.st1360{fill:#181818;}
	.st1361{fill:#2B2828;}
	.st1362{fill:#1D1D1D;}
</style>
<g>
	<rect class="st475" width="678.86" height="571"/>
	<path class="st475" d="M412.29,351.5c0.03,1.37-0.59,1.93-1.82,2.29c-8.02,2.35-16.03,4.76-24.03,7.16
		c-4.58,1.37-9.17,2.72-13.72,4.16c-1.52,0.48-2.88,0.39-4.38-0.16c-4.55-1.69-9.15-3.25-13.73-4.86c-1.97-0.69-1.97-0.69-1.98-2.81
		c-0.01-1.84,0-3.68,0-5.52c-0.01,0-0.01,0-0.01,0c0-1.83-0.01-3.67,0-5.51c0.01-1.89,0.02-1.9,1.8-2.41
		c5.66-1.62,11.33-3.22,16.98-4.85c7.26-2.1,14.53-4.2,21.77-6.36c1.13-0.34,2.09-0.42,3.23-0.02c4.73,1.64,9.48,3.23,14.26,4.72
		c1.23,0.38,1.66,0.97,1.64,2.18C412.26,343.51,412.24,347.5,412.29,351.5z"/>
	<path class="st475" d="M414.41,352.53c0-3.9,0.01-7.54-0.01-11.18c0-1.15,0.98-1.17,1.65-1.38c3.04-0.94,6.1-1.79,9.16-2.68
		c6.1-1.77,12.21-3.54,18.31-5.32c1.46-0.43,2.87-0.75,4.41-0.17c5.27,1.98,10.57,3.9,16.39,6.04
		C447.47,342.8,431.12,347.61,414.41,352.53z"/>
	<path class="st475" d="M456.7,305.43c-0.02,2.02,0.02,2.04-1.81,2.78c-7.9,3.19-15.81,6.38-23.72,9.55
		c-4.43,1.77-8.89,3.5-13.32,5.3c-1.01,0.41-1.9,0.48-2.97,0.06c-4.82-1.88-9.67-3.7-14.53-5.46c-1.34-0.48-1.8-1.27-1.84-2.65
		c-0.09-3.03-0.33-6.06-0.51-9.09c-0.13-2.26-0.12-2.29-2.42-2.99c-6.86-2.08-13.73-4.12-20.59-6.19
		c-5.79-1.76-11.59-3.5-17.35-5.35c-2.24-0.72-4.06-2.2-5.73-3.83c-8.13-7.91-16.25-15.84-24.37-23.76
		c-0.23-0.21-0.46-0.42-0.89-0.83c-8.03,7.68-16.04,15.32-23.99,22.91c0.42,0.83,1.04,0.74,1.57,0.85c3.28,0.62,5.77,2.6,8.15,4.76
		c1,0.92,1.96,1.89,3.02,2.72c1.42,1.13,2.58,2.37,2.87,4.24c0.12,0.78,0.56,1.23,1.39,1.37c1.17,0.21,2.33,0.5,3.49,0.79
		c1.01,0.26,2.13,0.51,2.7,1.41c0.77,1.21,1.92,1.55,3.15,1.86c2.86,0.72,4.57,2.42,4.87,5.46c0.14,1.34,0.48,2.66,0.72,4
		c0.17,0.92,0.62,1.64,1.51,2c0.71,0.29,1.33,0.37,1.84-0.45c0.81-1.28,1.75-2.48,2.6-3.74c2.35-3.46,4.29-4.1,8.11-2.43
		c9.04,3.97,18.05,7.98,27.07,11.98c2.33,1.04,4.65,2.08,6.97,3.13c0.73,0.33,1.43,0.69,2.03,1.25c1.62,1.5,1.52,3.85-0.23,5.19
		c-0.85,0.65-1.84,0.89-2.91,0.94c-6.22,0.31-12.44,0.68-18.67,0.96c-9.41,0.42-18.83,0.97-28.26,1.12
		c-0.96,0.01-1.93,0.05-2.87-0.07c-2.51-0.3-3.75-2.61-2.7-4.95c0.56-1.24,1.37-2.34,2.15-3.45c0.77-1.11,1.66-2.14,2.27-3.56
		c-3.67-0.73-5.15-3.25-5.54-6.65c-0.09-0.71-0.22-1.41-0.31-2.12c-0.34-2.81-0.96-3.19-3.5-2.16c-1.57,0.64-3.14,0.43-4.68-0.04
		c-1.15-0.35-1.89-0.33-2.22,1.14c-0.41,1.88-1.73,3.18-3.43,4.01c-0.15,0.85,0.47,1.22,0.84,1.68c4.37,5.4,8.67,10.86,13.18,16.14
		c4.37,5.12,6.1,10.93,5.41,17.53c-0.87,8.42-1.75,16.84-2.65,25.25c-0.48,4.51-0.5,4.51,3.8,5.89c3.1,1.01,6.19,2.07,9.32,2.99
		c1.31,0.38,1.75,1.05,1.72,2.39c-0.08,3.27-0.08,6.55,0,9.82c0.03,1.18-0.45,1.78-1.47,2.12c-1.65,0.57-3.3,1.14-5.05,1.74
		c1.48,0.85,3.02,1.24,4.52,1.74c1.06,0.36,1.48,0.98,1.46,2.13c-0.07,3.51-0.09,7.03,0,10.54c0.05,1.8-0.03,3.36-2.49,3.74
		c0.58,0.26,0.86,0.41,1.15,0.53c3.53,1.46,3.15,0.43,3.15,4.74c0,3.92-0.11,7.84,0,11.75c0.05,1.55-0.55,2.33-1.9,2.83
		c-2.99,1.11-5.96,2.25-8.93,3.39c-13.69,5.26-27.37,10.52-41.04,15.78c-1.21,0.47-2.31,0.68-3.67,0.18
		c-12.39-4.6-24.82-9.1-37.23-13.63c-0.38-0.14-0.76-0.26-1.12-0.43c-1.94-0.86-1.95-0.24-1.97-2.92c-0.03-3.19,0.02-6.39-0.05-9.58
		c-0.02-1.19,0.23-1.89,1.53-2.24c1.6-0.42,3.1-1.23,4.7-1.71c1.05-0.31,1.45-0.85,1.33-1.88c-0.01-0.08,0-0.16,0-0.24
		c0.1-2.84,0.08-2.79-2.6-3.88c-1.61-0.65-3.87-0.65-4.66-2.11c-0.71-1.31-0.24-3.27-0.25-4.95c-0.02-2.15,0.07-4.32-0.04-6.47
		c-0.07-1.38,0.44-1.99,1.77-2.3c1.46-0.34,2.86-0.95,4.61-1.56c-2.15-0.65-2.46-2.06-2.38-3.84c0.12-2.79,0.04-5.59,0.06-8.39
		c0.02-2.21,0.02-2.24,2.03-2.82c4.51-1.31,9.01-2.62,13.53-3.88c7.74-2.16,15.48-4.28,23.22-6.43c2.05-0.57,2.03-0.58,2.2-2.72
		c0.56-7.16,1.08-14.33,1.72-21.49c0.12-1.4-0.18-2.41-1.18-3.39c-4.57-4.47-9.07-9.01-13.63-13.49c-4.95-4.87-9.95-9.7-14.93-14.54
		c-0.39-0.38-0.82-0.71-1.54-1.31c-0.18,4.07-0.33,7.73-0.49,11.4c-0.18,4.15-0.28,8.3-0.57,12.45c-0.33,4.89-2.31,9.14-5.85,12.5
		c-5.05,4.78-10.24,9.4-15.38,14.08c-9.98,9.09-19.98,18.15-29.93,27.28c-0.94,0.86-1.62,1.11-2.61,0.25
		c-0.5-0.45-1.09-0.81-2.04-1.5c1.18,3.54,2.21,6.62,3.23,9.71c0.23,0.7,0.72,0.96,1.4,1.12c1.25,0.27,2.48,0.59,3.7,0.97
		c4.03,1.22,6.14,3.78,6.48,7.94c0.11,1.26,0.01,2.55-0.03,3.83c-0.04,1.12-0.51,1.72-1.78,1.7c-5.91-0.05-11.83,0.09-17.74-0.1
		c-3.35-0.1-6.12-1.7-8.01-4.57c-2.41-3.67-4.38-7.6-6.59-11.39c-0.28-0.48-0.58-0.97-0.78-1.48c-0.49-1.25-1.35-1.79-2.58-1.2
		c-1.42,0.68-2.18,0.05-2.92-1.07c-1.85-2.8-3.71-5.59-5.65-8.32c-0.6-0.84-0.44-1.36,0.15-2.06c1.74-2.09,3.5-4.15,5.47-6.03
		c1.15-1.11,2.3-2.22,3.44-3.34c2.09-2.07,2.08-2.08,0.19-4.38c0.98-1.55,2.32-2.81,3.6-4.11c11.6-11.79,23.2-23.58,34.85-35.33
		c1.05-1.05,1.44-1.97,1.24-3.54c-1.55-11.87-2.97-23.76-4.4-35.64c-1.13-9.41,0.58-18.27,5.33-26.5c1.32-2.29,3.04-4.3,4.58-6.44
		c2.06-2.88,2.03-2.88-0.51-5.19c-1.29-1.19-2.52-2.46-3.83-3.63c-6.93-6.17-7.7-18.9,0.79-25.83c4.08-3.34,8.19-6.64,12.33-9.88
		c7.86-6.15,15.67-12.36,23.54-18.5c5.03-3.91,10.73-5.79,17.16-5.48c2.83,0.14,5.48,0.9,8.13,1.81c6.02,2.06,11.98,4.3,17.92,6.61
		c1.14,0.44,1.88,0.53,2.81-0.61c1.88-2.28,4.01-4.34,6.06-6.46c1.19-1.23,1.86-2.52,1.26-4.3c-0.3-0.89-0.34-1.88-0.48-2.82
		c-0.49-3.14,0.55-5.7,3.12-7.51c0.79-0.55,1.31-1.09,1.49-2c0.08-0.39,0.24-0.76,0.4-1.13c0.5-1.16,1.44-2.34,1.39-3.48
		c-0.04-1.09-1.69-1.51-2.49-2.39c-0.61-0.66-0.88-1.26-0.33-2.1c0.44-0.67,0.73-1.42,1.13-2.11c0.56-0.94,1.31-1.61,2.52-1.43
		c1.25,0.18,2.05-0.36,2.8-1.38c5.46-7.45,12.83-10.72,22.02-9.78c1.07,0.11,2.04-0.33,3.09-0.19c5.99,0.85,10.94,3.33,14,8.83
		c0.3,0.55,0.56,1.15,0.94,1.65c4.93,6.73,5.63,14.16,3.07,21.84c-0.97,2.92-1.15,5.29,0.83,7.7c0.44,0.54,0.65,1.28,0.97,1.92
		c0.55,1.12,0.04,2.01-0.66,2.83c-0.66,0.78-1.48,0.84-2.39,0.45c-1.47-0.62-2.97-1.15-4.42-1.81c-1.57-0.73-1.56-0.79-2.37,0.81
		c-1.72,3.43-3.63,6.74-5.63,10.01c-2.01,3.27-4.18,6.43-6.87,9.19c-3.38,3.49-7.42,5.46-12.4,5.11c-0.32-0.02-0.64-0.01-0.96,0.01
		c-0.04,0-0.08,0.12-0.2,0.32c1.86,1.87,3.8,3.72,5.63,5.66c7.68,8.14,14.82,16.74,22.25,25.09c2.12,2.39,4.26,4.76,6.33,7.19
		c0.66,0.79,1.49,1.18,2.4,1.48c11.34,3.71,22.69,7.42,34.03,11.12c0.23,0.08,0.45,0.16,0.67,0.25c1.61,0.62,1.6,0.62,1.2,2.43
		c-0.06,0.3-0.05,0.62-0.08,1.05c4.15,0.16,8.22,0.3,12.28,0.46c3.99,0.15,7.51,1.43,10.7,3.63c0.96,0.66,1.7,0.77,2.58,0.26
		c2.78-1.58,5.45-1.37,8.39-0.14c3.66,1.54,7.5,2.65,11.29,3.84c1.17,0.37,1.7,0.9,1.74,2.17
		C456.35,297.77,456.74,301.59,456.7,305.43z"/>
	<path class="st475" d="M484.21,389.93c-5.03,1.54-10.05,3.1-15.07,4.66c-1.18,0.37-2.55,0.53-2.38,2.37
		c0.08,0.8-0.76,0.93-1.36,1.1c-0.93,0.25-1.2,0.82-1.16,1.75c0.07,1.76,0.1,3.52,0,5.27c-0.08,1.16,0.36,1.86,1.37,2.22
		c1.27,0.44,1.59,1.32,1.55,2.59c-0.07,2.88-0.04,5.76,0.01,8.63c0.02,1.28-0.3,2.2-1.7,2.44c-1.1,0.19-1.3,0.94-1.27,1.94
		c0.06,2.23-0.1,4.48,0.07,6.7c0.12,1.67-0.58,2.45-2.02,3.02c-3.93,1.54-7.85,3.12-11.73,4.76c-14.97,6.33-29.97,12.54-45.03,18.66
		c-2.43,0.99-4.86,1.99-7.25,3.07c-1.02,0.46-1.91,0.44-2.95,0.06c-12.19-4.47-24.39-8.9-36.59-13.32
		c-4.12-1.49-4.13-1.46-4.14-5.79c0-2.56,0.05-5.11-0.02-7.67c-0.03-1.05,0.33-1.56,1.32-1.91c1.88-0.65,3.67-1.57,5.57-2.13
		c1.42-0.42,1.55-1.23,1.58-2.49c0.04-1.34-0.41-2.07-1.66-2.47c-1.67-0.54-3.29-1.24-4.97-1.72c-1.38-0.4-2.01-1.14-1.81-2.59
		c0.15-1.09,0.02-2.05-1.27-2.44c-0.65-0.2-0.68-0.8-0.68-1.39v-15.58c3.49,1.2,6.77,2.32,10.07,3.45c0.33-2.2,0.33-2.19-1.45-2.8
		c-2.49-0.85-4.97-1.71-7.45-2.57c-0.69-0.24-1.22-0.49-1.2-1.45c0.05-5.03,0.02-10.06,0.02-15.16c1.6-0.11,2.93,0.52,4.22,1.01
		c1.63,0.62,3.02,0.49,4.69-0.58c-2.33-1.08-4.55-1.81-6.83-2.37c-2.07-0.51-2.08-0.51-2.08-2.62v-14.66
		c2.87,0.94,5.56,1.81,8.24,2.7c2.56,0.86,5.13,1.7,7.67,2.62c1.33,0.49,2.55,0.56,3.95,0.13c7.3-2.21,14.65-4.31,21.97-6.48
		c0.69-0.2,1.34-0.5,2.11-0.33c0.4,1.14-0.02,2.37,0.31,3.57c1.37,0.34,1.77-0.31,1.82-1.58c0.13-3.07,0.18-3.01,3.05-3.86
		c12.28-3.65,24.55-7.33,36.82-10.99c1.29-0.38,2.59-0.73,4.21-1.19v6.51c0,0.64,0.08,1.29-0.01,1.92c-0.2,1.45,0.49,2.02,2.07,2.05
		c0-3.02-0.02-6.05,0-9.07c0.02-2.11,0.05-2.12,1.91-2.67c13.19-3.91,26.39-7.82,39.58-11.75c0.46-0.14,0.89-0.35,1.53-0.13
		c0,5.13-0.03,10.31,0.02,15.5c0.01,1.02-0.67,1.16-1.33,1.36c-4.5,1.36-9,2.68-13.5,4.04c-6.07,1.83-12.13,3.67-18.44,5.58
		c1.52,0.76,2.76,1.41,4.4,0.89c3.18-1.02,6.41-1.87,9.62-2.82c0.62-0.19,1.21-0.37,2.02-0.3c0,5.11-0.01,10.22,0.01,15.32
		c0,0.73-0.18,1.38-0.95,1.4c-2.07,0.07-3,2.19-4.88,2.59c-0.46,0.1-0.5,0.59-0.41,0.99c0.14,0.6,0.61,0.41,0.96,0.3
		c1.75-0.53,3.48-1.12,5.23-1.66c5.17-1.58,10.35-3.15,15.52-4.74c0.54-0.17,1.05-0.35,1.79-0.11c0,4.41-0.01,8.88,0,13.34
		C487.91,388.82,487.91,388.8,484.21,389.93z"/>
	<path class="st475" d="M509.48,361.22c0.01,1.11-0.47,1.46-1.46,1.75c-6.34,1.85-12.65,3.77-18.97,5.68
		c-5.24,1.59-10.47,3.21-15.71,4.81c-0.6-0.61-0.38-1.28-0.39-1.86c-0.07-4.39-0.03-8.78-0.19-13.17c-0.06-1.46,0.59-1.9,1.78-2.25
		c7.39-2.21,14.77-4.46,22.15-6.71c4.17-1.27,8.33-2.54,12.77-3.9C509.46,351.01,509.44,356.12,509.48,361.22z"/>
	<path class="st475" d="M506.89,325.08c-4.49,1.39-9,2.68-13.5,4.01c-8.01,2.36-16.03,4.69-24.03,7.1
		c-1.13,0.34-2.11,0.36-3.23-0.06c-4.91-1.84-9.84-3.65-14.8-5.37c-1.38-0.48-1.79-1.2-1.76-2.61c0.09-3.67,0.06-7.35-0.01-11.02
		c-0.03-1.33,0.35-1.9,1.74-2.29c12.93-3.63,25.84-7.36,38.74-11.1c1.29-0.38,2.44-0.39,3.72,0.07c4.71,1.7,9.44,3.34,14.2,4.92
		c1.08,0.35,1.57,0.8,1.51,1.99c-0.08,1.99-0.02,3.99-0.02,5.99h0.03c0,1.67,0.02,3.35-0.01,5.03
		C509.42,324.53,509.97,324.13,506.89,325.08z"/>
	<path class="st475" d="M509.57,342.19c0.01,0.78-0.32,1.2-1,1.4c-6.08,1.82-12.16,3.63-17.98,5.37c-0.61-0.09-0.63-0.37-0.63-0.59
		c-0.03-4.78-0.01-9.57-0.07-14.36c-0.02-1.15,0.35-1.67,1.48-2c5.5-1.61,10.96-3.31,16.44-4.95c0.45-0.13,0.94-0.11,1.75-0.2
		C509.56,332.15,509.54,337.17,509.57,342.19z"/>
	<path class="st475" d="M509.58,380.84c0.01,1.1-0.52,1.55-1.48,1.82c-2.07,0.58-4.12,1.22-6.17,1.86
		c-3.42,1.06-6.84,2.13-10.26,3.19c-0.37,0.11-0.77,0.14-1.07,0.19c-0.53-0.3-0.44-0.73-0.45-1.1c-0.02-4.87-0.03-9.74-0.08-14.6
		c-0.01-0.99,0.18-1.63,1.25-1.95c5.94-1.77,11.86-3.59,18.24-5.53C509.56,370.32,509.54,375.58,509.58,380.84z"/>
	<path class="st1122" d="M456.7,305.43c-0.02,2.02,0.02,2.04-1.81,2.78c-7.9,3.19-15.81,6.38-23.72,9.55
		c-4.43,1.77-8.89,3.5-13.32,5.3c-1.01,0.41-1.9,0.48-2.97,0.06c-4.82-1.88-9.67-3.7-14.53-5.46c-1.34-0.48-1.8-1.27-1.84-2.65
		c-0.09-3.03-0.33-6.06-0.51-9.09c-0.13-2.26-0.12-2.29-2.42-2.99c-6.86-2.08-13.73-4.12-20.59-6.19
		c-5.79-1.76-11.59-3.5-17.35-5.35c-2.24-0.72-4.06-2.2-5.73-3.83c-8.13-7.91-16.25-15.84-24.37-23.76
		c-0.23-0.21-0.46-0.42-0.89-0.83c-8.03,7.68-16.04,15.32-23.99,22.91c0.42,0.83,1.04,0.74,1.57,0.85c3.28,0.62,5.77,2.6,8.15,4.76
		c1,0.92,1.96,1.89,3.02,2.72c1.42,1.13,2.58,2.37,2.87,4.24c0.12,0.78,0.56,1.23,1.39,1.37c1.17,0.21,2.33,0.5,3.49,0.79
		c1.01,0.26,2.13,0.51,2.7,1.41c0.77,1.21,1.92,1.55,3.15,1.86c2.86,0.72,4.57,2.42,4.87,5.46c0.14,1.34,0.48,2.66,0.72,4
		c0.17,0.92,0.62,1.64,1.51,2c0.71,0.29,1.33,0.37,1.84-0.45c0.81-1.28,1.75-2.48,2.6-3.74c2.35-3.46,4.29-4.1,8.11-2.43
		c9.04,3.97,18.05,7.98,27.07,11.98c2.33,1.04,4.65,2.08,6.97,3.13c0.73,0.33,1.43,0.69,2.03,1.25c1.62,1.5,1.52,3.85-0.23,5.19
		c-0.85,0.65-1.84,0.89-2.91,0.94c-6.22,0.31-12.44,0.68-18.67,0.96c-9.41,0.42-18.83,0.97-28.26,1.12
		c-0.96,0.01-1.93,0.05-2.87-0.07c-2.51-0.3-3.75-2.61-2.7-4.95c0.56-1.24,1.37-2.34,2.15-3.45c0.77-1.11,1.66-2.14,2.27-3.56
		c-3.67-0.73-5.15-3.25-5.54-6.65c-0.09-0.71-0.22-1.41-0.31-2.12c-0.34-2.81-0.96-3.19-3.5-2.16c-1.57,0.64-3.14,0.43-4.68-0.04
		c-1.15-0.35-1.89-0.33-2.22,1.14c-0.41,1.88-1.73,3.18-3.43,4.01c-0.15,0.85,0.47,1.22,0.84,1.68c4.37,5.4,8.67,10.86,13.18,16.14
		c4.37,5.12,6.1,10.93,5.41,17.53c-0.87,8.42-1.75,16.84-2.65,25.25c-0.48,4.51-0.5,4.51,3.8,5.89c3.1,1.01,6.19,2.07,9.32,2.99
		c1.31,0.38,1.75,1.05,1.72,2.39c-0.08,3.27-0.08,6.55,0,9.82c0.03,1.18-0.45,1.78-1.47,2.12c-1.65,0.57-3.3,1.14-5.05,1.74
		c1.48,0.85,3.02,1.24,4.52,1.74c1.06,0.36,1.48,0.98,1.46,2.13c-0.07,3.51-0.09,7.03,0,10.54c0.05,1.8-0.03,3.36-2.49,3.74
		c0.58,0.26,0.86,0.41,1.15,0.53c3.53,1.46,3.15,0.43,3.15,4.74c0,3.92-0.11,7.84,0,11.75c0.05,1.55-0.55,2.33-1.9,2.83
		c-2.99,1.11-5.96,2.25-8.93,3.39c-13.69,5.26-27.37,10.52-41.04,15.78c-1.21,0.47-2.31,0.68-3.67,0.18
		c-12.39-4.6-24.82-9.1-37.23-13.63c-0.38-0.14-0.76-0.26-1.12-0.43c-1.94-0.86-1.95-0.24-1.97-2.92c-0.03-3.19,0.02-6.39-0.05-9.58
		c-0.02-1.19,0.23-1.89,1.53-2.24c1.6-0.42,3.1-1.23,4.7-1.71c1.05-0.31,1.45-0.85,1.33-1.88c-0.01-0.08,0-0.16,0-0.24
		c0.1-2.84,0.08-2.79-2.6-3.88c-1.61-0.65-3.87-0.65-4.66-2.11c-0.71-1.31-0.24-3.27-0.25-4.95c-0.02-2.15,0.07-4.32-0.04-6.47
		c-0.07-1.38,0.44-1.99,1.77-2.3c1.46-0.34,2.86-0.95,4.61-1.56c-2.15-0.65-2.46-2.06-2.38-3.84c0.12-2.79,0.04-5.59,0.06-8.39
		c0.02-2.21,0.02-2.24,2.03-2.82c4.51-1.31,9.01-2.62,13.53-3.88c7.74-2.16,15.48-4.28,23.22-6.43c2.05-0.57,2.03-0.58,2.2-2.72
		c0.56-7.16,1.08-14.33,1.72-21.49c0.12-1.4-0.18-2.41-1.18-3.39c-4.57-4.47-9.07-9.01-13.63-13.49c-4.95-4.87-9.95-9.7-14.93-14.54
		c-0.39-0.38-0.82-0.71-1.54-1.31c-0.18,4.07-0.33,7.73-0.49,11.4c-0.18,4.15-0.28,8.3-0.57,12.45c-0.33,4.89-2.31,9.14-5.85,12.5
		c-5.05,4.78-10.24,9.4-15.38,14.08c-9.98,9.09-19.98,18.15-29.93,27.28c-0.94,0.86-1.62,1.11-2.61,0.25
		c-0.5-0.45-1.09-0.81-2.04-1.5c1.18,3.54,2.21,6.62,3.23,9.71c0.23,0.7,0.72,0.96,1.4,1.12c1.25,0.27,2.48,0.59,3.7,0.97
		c4.03,1.22,6.14,3.78,6.48,7.94c0.11,1.26,0.01,2.55-0.03,3.83c-0.04,1.12-0.51,1.72-1.78,1.7c-5.91-0.05-11.83,0.09-17.74-0.1
		c-3.35-0.1-6.12-1.7-8.01-4.57c-2.41-3.67-4.38-7.6-6.59-11.39c-0.28-0.48-0.58-0.97-0.78-1.48c-0.49-1.25-1.35-1.79-2.58-1.2
		c-1.42,0.68-2.18,0.05-2.92-1.07c-1.85-2.8-3.71-5.59-5.65-8.32c-0.6-0.84-0.44-1.36,0.15-2.06c1.74-2.09,3.5-4.15,5.47-6.03
		c1.15-1.11,2.3-2.22,3.44-3.34c2.09-2.07,2.08-2.08,0.19-4.38c0.98-1.55,2.32-2.81,3.6-4.11c11.6-11.79,23.2-23.58,34.85-35.33
		c1.05-1.05,1.44-1.97,1.24-3.54c-1.55-11.87-2.97-23.76-4.4-35.64c-1.13-9.41,0.58-18.27,5.33-26.5c1.32-2.29,3.04-4.3,4.58-6.44
		c2.06-2.88,2.03-2.88-0.51-5.19c-1.29-1.19-2.52-2.46-3.83-3.63c-6.93-6.17-7.7-18.9,0.79-25.83c4.08-3.34,8.19-6.64,12.33-9.88
		c7.86-6.15,15.67-12.36,23.54-18.5c5.03-3.91,10.73-5.79,17.16-5.48c2.83,0.14,5.48,0.9,8.13,1.81c6.02,2.06,11.98,4.3,17.92,6.61
		c1.14,0.44,1.88,0.53,2.81-0.61c1.88-2.28,4.01-4.34,6.06-6.46c1.19-1.23,1.86-2.52,1.26-4.3c-0.3-0.89-0.34-1.88-0.48-2.82
		c-0.49-3.14,0.55-5.7,3.12-7.51c0.79-0.55,1.31-1.09,1.49-2c0.08-0.39,0.24-0.76,0.4-1.13c0.5-1.16,1.44-2.34,1.39-3.48
		c-0.04-1.09-1.69-1.51-2.49-2.39c-0.61-0.66-0.88-1.26-0.33-2.1c0.44-0.67,0.73-1.42,1.13-2.11c0.56-0.94,1.31-1.61,2.52-1.43
		c1.25,0.18,2.05-0.36,2.8-1.38c5.46-7.45,12.83-10.72,22.02-9.78c1.07,0.11,2.04-0.33,3.09-0.19c5.99,0.85,10.94,3.33,14,8.83
		c0.3,0.55,0.56,1.15,0.94,1.65c4.93,6.73,5.63,14.16,3.07,21.84c-0.97,2.92-1.15,5.29,0.83,7.7c0.44,0.54,0.65,1.28,0.97,1.92
		c0.55,1.12,0.04,2.01-0.66,2.83c-0.66,0.78-1.48,0.84-2.39,0.45c-1.47-0.62-2.97-1.15-4.42-1.81c-1.57-0.73-1.56-0.79-2.37,0.81
		c-1.72,3.43-3.63,6.74-5.63,10.01c-2.01,3.27-4.18,6.43-6.87,9.19c-3.38,3.49-7.42,5.46-12.4,5.11c-0.32-0.02-0.64-0.01-0.96,0.01
		c-0.04,0-0.08,0.12-0.2,0.32c1.86,1.87,3.8,3.72,5.63,5.66c7.68,8.14,14.82,16.74,22.25,25.09c2.12,2.39,4.26,4.76,6.33,7.19
		c0.66,0.79,1.49,1.18,2.4,1.48c11.34,3.71,22.69,7.42,34.03,11.12c0.23,0.08,0.45,0.16,0.67,0.25c1.61,0.62,1.6,0.62,1.2,2.43
		c-0.06,0.3-0.05,0.62-0.08,1.05c4.15,0.16,8.22,0.3,12.28,0.46c3.99,0.15,7.51,1.43,10.7,3.63c0.96,0.66,1.7,0.77,2.58,0.26
		c2.78-1.58,5.45-1.37,8.39-0.14c3.66,1.54,7.5,2.65,11.29,3.84c1.17,0.37,1.7,0.9,1.74,2.17
		C456.35,297.77,456.74,301.59,456.7,305.43z"/>
	<path class="st513" d="M484.21,389.93c-5.03,1.54-10.05,3.1-15.07,4.66c-1.18,0.37-2.55,0.53-2.38,2.37
		c0.08,0.8-0.76,0.93-1.36,1.1c-0.93,0.25-1.2,0.82-1.16,1.75c0.07,1.76,0.1,3.52,0,5.27c-0.08,1.16,0.36,1.86,1.37,2.22
		c1.27,0.44,1.59,1.32,1.55,2.59c-0.07,2.88-0.04,5.76,0.01,8.63c0.02,1.28-0.3,2.2-1.7,2.44c-1.1,0.19-1.3,0.94-1.27,1.94
		c0.06,2.23-0.1,4.48,0.07,6.7c0.12,1.67-0.58,2.45-2.02,3.02c-3.93,1.54-7.85,3.12-11.73,4.76c-14.97,6.33-29.97,12.54-45.03,18.66
		c-2.43,0.99-4.86,1.99-7.25,3.07c-1.02,0.46-1.91,0.44-2.95,0.06c-12.19-4.47-24.39-8.9-36.59-13.32
		c-4.12-1.49-4.13-1.46-4.14-5.79c0-2.56,0.05-5.11-0.02-7.67c-0.03-1.05,0.33-1.56,1.32-1.91c1.88-0.65,3.67-1.57,5.57-2.13
		c1.42-0.42,1.55-1.23,1.58-2.49c0.04-1.34-0.41-2.07-1.66-2.47c-1.67-0.54-3.29-1.24-4.97-1.72c-1.38-0.4-2.01-1.14-1.81-2.59
		c0.15-1.09,0.02-2.05-1.27-2.44c-0.65-0.2-0.68-0.8-0.68-1.39v-15.58c3.49,1.2,6.77,2.32,10.07,3.45c0.33-2.2,0.33-2.19-1.45-2.8
		c-2.49-0.85-4.97-1.71-7.45-2.57c-0.69-0.24-1.22-0.49-1.2-1.45c0.05-5.03,0.02-10.06,0.02-15.16c1.6-0.11,2.93,0.52,4.22,1.01
		c1.63,0.62,3.02,0.49,4.69-0.58c-2.33-1.08-4.55-1.81-6.83-2.37c-2.07-0.51-2.08-0.51-2.08-2.62v-14.66
		c2.87,0.94,5.56,1.81,8.24,2.7c2.56,0.86,5.13,1.7,7.67,2.62c1.33,0.49,2.55,0.56,3.95,0.13c7.3-2.21,14.65-4.31,21.97-6.48
		c0.69-0.2,1.34-0.5,2.11-0.33c0.4,1.14-0.02,2.37,0.31,3.57c1.37,0.34,1.77-0.31,1.82-1.58c0.13-3.07,0.18-3.01,3.05-3.86
		c12.28-3.65,24.55-7.33,36.82-10.99c1.29-0.38,2.59-0.73,4.21-1.19v6.51c0,0.64,0.08,1.29-0.01,1.92c-0.2,1.45,0.49,2.02,2.07,2.05
		c0-3.02-0.02-6.05,0-9.07c0.02-2.11,0.05-2.12,1.91-2.67c13.19-3.91,26.39-7.82,39.58-11.75c0.46-0.14,0.89-0.35,1.53-0.13
		c0,5.13-0.03,10.31,0.02,15.5c0.01,1.02-0.67,1.16-1.33,1.36c-4.5,1.36-9,2.68-13.5,4.04c-6.07,1.83-12.13,3.67-18.44,5.58
		c1.52,0.76,2.76,1.41,4.4,0.89c3.18-1.02,6.41-1.87,9.62-2.82c0.62-0.19,1.21-0.37,2.02-0.3c0,5.11-0.01,10.22,0.01,15.32
		c0,0.73-0.18,1.38-0.95,1.4c-2.07,0.07-3,2.19-4.88,2.59c-0.46,0.1-0.5,0.59-0.41,0.99c0.14,0.6,0.61,0.41,0.96,0.3
		c1.75-0.53,3.48-1.12,5.23-1.66c5.17-1.58,10.35-3.15,15.52-4.74c0.54-0.17,1.05-0.35,1.79-0.11c0,4.41-0.01,8.88,0,13.34
		C487.91,388.82,487.91,388.8,484.21,389.93z"/>
	<path class="st1350" d="M506.89,325.08c-4.49,1.39-9,2.68-13.5,4.01c-8.01,2.36-16.03,4.69-24.03,7.1
		c-1.13,0.34-2.11,0.36-3.23-0.06c-4.91-1.84-9.84-3.65-14.8-5.37c-1.38-0.48-1.79-1.2-1.76-2.61c0.09-3.67,0.06-7.35-0.01-11.02
		c-0.03-1.33,0.35-1.9,1.74-2.29c12.93-3.63,25.84-7.36,38.74-11.1c1.29-0.38,2.44-0.39,3.72,0.07c4.71,1.7,9.44,3.34,14.2,4.92
		c1.08,0.35,1.57,0.8,1.51,1.99c-0.08,1.99-0.02,3.99-0.02,5.99h0.03c0,1.67,0.02,3.35-0.01,5.03
		C509.42,324.53,509.97,324.13,506.89,325.08z"/>
	<path class="st513" d="M412.29,351.5c0.03,1.37-0.59,1.93-1.82,2.29c-8.02,2.35-16.03,4.76-24.03,7.16
		c-4.58,1.37-9.17,2.72-13.72,4.16c-1.52,0.48-2.88,0.39-4.38-0.16c-4.55-1.69-9.15-3.25-13.73-4.86c-1.97-0.69-1.97-0.69-1.98-2.81
		c-0.01-1.84,0-3.68,0-5.52c-0.01,0-0.01,0-0.01,0c0-1.83-0.01-3.67,0-5.51c0.01-1.89,0.02-1.9,1.8-2.41
		c5.66-1.62,11.33-3.22,16.98-4.85c7.26-2.1,14.53-4.2,21.77-6.36c1.13-0.34,2.09-0.42,3.23-0.02c4.73,1.64,9.48,3.23,14.26,4.72
		c1.23,0.38,1.66,0.97,1.64,2.18C412.26,343.51,412.24,347.5,412.29,351.5z"/>
	<path class="st515" d="M509.48,361.22c0.01,1.11-0.47,1.46-1.46,1.75c-6.34,1.85-12.65,3.77-18.97,5.68
		c-5.24,1.59-10.47,3.21-15.71,4.81c-0.6-0.61-0.38-1.28-0.39-1.86c-0.07-4.39-0.03-8.78-0.19-13.17c-0.06-1.46,0.59-1.9,1.78-2.25
		c7.39-2.21,14.77-4.46,22.15-6.71c4.17-1.27,8.33-2.54,12.77-3.9C509.46,351.01,509.44,356.12,509.48,361.22z"/>
	<path class="st1068" d="M414.41,352.53c0-3.9,0.01-7.54-0.01-11.18c0-1.15,0.98-1.17,1.65-1.38c3.04-0.94,6.1-1.79,9.16-2.68
		c6.1-1.77,12.21-3.54,18.31-5.32c1.46-0.43,2.87-0.75,4.41-0.17c5.27,1.98,10.57,3.9,16.39,6.04
		C447.47,342.8,431.12,347.61,414.41,352.53z"/>
	<path class="st1122" d="M509.58,380.84c0.01,1.1-0.52,1.55-1.48,1.82c-2.07,0.58-4.12,1.22-6.17,1.86
		c-3.42,1.06-6.84,2.13-10.26,3.19c-0.37,0.11-0.77,0.14-1.07,0.19c-0.53-0.3-0.44-0.73-0.45-1.1c-0.02-4.87-0.03-9.74-0.08-14.6
		c-0.01-0.99,0.18-1.63,1.25-1.95c5.94-1.77,11.86-3.59,18.24-5.53C509.56,370.32,509.54,375.58,509.58,380.84z"/>
	<path class="st1297" d="M509.57,342.19c0.01,0.78-0.32,1.2-1,1.4c-6.08,1.82-12.16,3.63-17.98,5.37c-0.61-0.09-0.63-0.37-0.63-0.59
		c-0.03-4.78-0.01-9.57-0.07-14.36c-0.02-1.15,0.35-1.67,1.48-2c5.5-1.61,10.96-3.31,16.44-4.95c0.45-0.13,0.94-0.11,1.75-0.2
		C509.56,332.15,509.54,337.17,509.57,342.19z"/>
	<path class="st9" d="M289.26,281.28c-5.23,5.75-10.07,11.06-15.04,16.51c-1.2-1.08-2.36-2.13-3.52-3.17
		c-13.56-12.14-27-24.42-40.42-36.71c-5.74-5.26-5.62-12.59-3.43-17.29c1-2.15,2.54-3.85,4.37-5.31
		c11.36-9.04,22.72-18.09,34.09-27.13c6.25-4.96,13.27-6.79,21.1-4.98c3.42,0.79,6.61,2.29,9.93,3.4c0.9,0.3,0.68,0.96,0.66,1.55
		c-0.18,3.69-0.97,7.28-2.25,10.73c-3.05,8.2-8.08,15.16-13.88,21.6c-0.58,0.65-1.27,1.21-2.09,1.57
		c-2.51,1.11-9.04,1.42-12.21,0.49c1.44-1.17,2.74-2.28,4.09-3.32c3.16-2.44,6.34-4.85,9.51-7.27c0.25-0.19,0.52-0.37,0.76-0.58
		c0.72-0.59,1.4-1.26,0.65-2.2c-0.79-0.99-1.52-0.3-2.24,0.25c-7.36,5.61-14.73,11.2-22.09,16.82c-1.64,1.25-1.61,1.29-3.27-0.09
		c-0.8-0.66-1.58-1.34-2.35-2.04c-0.43-0.39-0.91-0.64-1.45-0.8c-0.45-0.13-0.83,0.05-1.09,0.33c-0.34,0.37-0.42,0.91-0.09,1.32
		c0.39,0.5,0.86,0.94,1.33,1.36c12.54,11.36,25.08,22.72,37.62,34.08C288.32,280.72,288.76,280.95,289.26,281.28z"/>
	<path class="st485" d="M317.41,267.93c1.75-4.19,4.09-7.96,6.44-11.72c3.6-5.75,6.88-11.66,9.28-18.03
		c0.78-2.09,1.05-4.31,1.74-6.54c2.44,1.64,4.4,3.62,6.25,5.69c5.42,6.07,10.79,12.19,16.16,18.29c3.95,4.49,7.93,8.96,11.79,13.53
		c1.18,1.4,2.71,1.88,4.29,2.39c9.53,3.12,19.06,6.21,28.59,9.34c1.5,0.49,3.05,0.87,4.49,1.66c-2.53,5.92-5.04,11.76-7.5,17.63
		c-0.38,0.9-0.78,0.94-1.63,0.68c-9.57-2.96-19.15-5.87-28.73-8.81c-3.04-0.93-6.06-1.93-9.1-2.83c-1.96-0.58-3.66-1.56-5.1-2.97
		c-8.12-7.92-16.21-15.85-24.35-23.75c-1.51-1.47-1.27-1.41,0.08-2.75c1.19-1.18,2.46-2.29,3.64-3.47c0.59-0.6,1.42-1.22,0.62-2.22
		c-0.6-0.75-1.38-0.67-2.44,0.31c-3.1,2.88-6.18,5.78-9.27,8.67C320.92,264.68,319.16,266.31,317.41,267.93z"/>
	<path class="st715" d="M358.94,206.51c-3.15,5.94-6.35,11.83-11.29,16.5c-3.89,3.67-8.45,4.67-13.5,2.78
		c-6.61-2.47-10.78-6.94-11.34-14.25c-0.08-1.04-0.1-2.24-1.5-2.31c-0.97-0.05-1.35,0.83-1.05,2.68c0.82,5.12,1.16,10.31,2.15,15.41
		c0.18,0.94-0.1,1.29-1.07,1.34c-2.55,0.14-4.7-0.79-6.59-2.36c-4.41-3.68-5.38-8.45-4.26-13.84c0.17-0.81,0.74-1.38,1.3-1.97
		c3.41-3.59,6.81-7.19,10.19-10.81c1.71-1.84,1.69-1.86-0.13-3.51c-2.25-2.04-2.01-5.69,0.41-7.42c2.5-1.78,4.47,0.03,4.87,2.01
		c0.11,0.54,0,1.12,0.07,1.67c0.21,1.67,1.29,2.1,2.63,1.05c1.75-1.38,3.47-2.81,5.2-4.22c1.45-1.17,1.47-1.2,3.09-0.15
		c7.16,4.65,14.54,8.92,22.18,12.73c0.56,0.28,1.03,0.48,0.58,1.2c-0.35,0.57-0.44,1.36-1.53,0.95c-1.56-0.58-3.2-0.95-4.8-1.41
		c-0.31-0.09-0.61-0.19-0.92-0.24c-0.74-0.11-1.5-0.16-1.74,0.78c-0.28,1.05,0.39,1.43,1.25,1.64c0.62,0.15,1.23,0.31,1.85,0.45
		C356.29,205.46,357.62,205.68,358.94,206.51z"/>
	<path class="st1351" d="M356.21,164.36c6.04,1.57,8.99,5.11,9.17,10.71c0.07,2.16-0.12,4.3-0.72,6.39
		c-0.13,0.46-0.26,0.93-0.29,1.4c-0.05,0.74,0.38,1.18,1.06,1.4c0.84,0.27,1.2-0.3,1.4-0.92c0.65-1.98,1-4.02,1.22-6.39
		c2.09,4.22,2.03,8.36,1.15,12.54c-0.42,2.02-0.93,4.05-1.89,5.9c-0.51,0.99-0.4,1.8,0.13,2.69c0.96,1.63,1.89,3.28,2.96,5.17
		c-1.66-0.24-2.9-0.97-4.15-1.54c-10.11-4.58-19.73-10.03-28.92-16.24c-3.56-2.41-7.09-4.87-10.63-7.32
		c-0.59-0.41-1.15-0.86-1.7-1.31c-0.41-0.34-1.04-0.6-0.72-1.32c0.24-0.53,0.66-0.89,1.26-1c0.08-0.01,0.16-0.04,0.24-0.02
		c2.16,0.5,3.09-1.01,4.17-2.44c4.55-6.02,10.52-9.05,18.18-8.7c5.05,0.23,7.03,1.96,7.37,7.06c0.14,2.15,0.18,4.31-0.39,6.43
		c-0.15,0.54-0.16,1.11-0.31,1.64c-0.24,0.85,0.03,1.4,0.86,1.67c0.95,0.3,1.31-0.39,1.58-1.06c0.26-0.66,0.43-1.37,0.56-2.08
		C358.55,172.76,358.53,168.59,356.21,164.36z"/>
	<path class="st9" d="M306.44,314.32c-1.65,0.99-3.08,0.42-4.44-0.5c-1.06-0.73-1.84-1.76-2.72-2.68c-0.54-0.56-1.11-1.34-1.99-0.56
		c-0.85,0.76-0.47,1.54,0.09,2.31c0.5,0.69,1.35,1.13,1.64,2.23c-1.43,0.51-2.63,0.15-3.64-0.84c-0.79-0.78-1.46-1.68-2.22-2.5
		c-0.55-0.59-1.18-0.79-1.89-0.2c-0.71,0.59-0.63,1.19-0.11,1.87c0.33,0.43,0.83,0.76,0.95,1.45c-1.86,0.05-3.18-0.84-4.27-2.2
		c-1.92-2.39-3.15-5.15-4.22-8c-1.03-2.74-1.77-5.65-3.88-7.86c-0.63-0.65-0.05-1.03,0.26-1.4c1.08-1.27,2.22-2.51,3.34-3.74
		c1.98-2.18,3.96-4.35,6.04-6.63c3,2.91,6.88,2.96,10.53,3.45c4.36,0.59,8.16,1.96,11.13,5.34c0.89,1.01,2.03,1.79,3.03,2.7
		c0.62,0.57,1.43,1.03,1.54,2.15c-2.87-0.12-5.5-1.07-8.18-1.71c-0.58-0.14-0.8-0.72-1.09-1.2c-0.35-0.57-0.88-0.99-1.59-0.67
		c-0.82,0.37-0.86,1.12-0.62,1.84c0.64,1.88,1.28,3.77,2.05,5.6c0.56,1.31,1.23,2.59,2.15,3.71c1.36,1.65,2.94,2.87,5.21,3.01
		c1.2,0.08,1.48,0.62,1.13,1.71c-0.55,1.75-2.64,2.77-4.44,2.17c-1.8-0.6-3.15-1.83-4.41-3.18c-0.43-0.47-0.82-0.98-1.27-1.42
		c-0.62-0.61-1.29-0.52-1.9,0.04c-0.59,0.54-0.52,1.16-0.04,1.69C303.86,311.63,305.14,312.94,306.44,314.32z"/>
	<path class="st36" d="M339.98,316.62c1.05-1.6,1.9-2.94,2.79-4.25c1.48-2.17,2.38-2.45,4.8-1.39c3.94,1.73,7.85,3.51,11.78,5.25
		c7.34,3.26,14.7,6.51,22.03,9.8c0.74,0.33,1.99,0.41,1.83,1.54c-0.17,1.22-1.47,1.12-2.34,1.17c-3.5,0.21-7.02,0.37-10.52,0.5
		c-9.57,0.33-19.12,1.1-28.7,1.2c-2.55,0.03-5.1,0.23-7.65,0.34c-0.48,0.02-0.97,0.05-1.43-0.04c-1.06-0.19-1.46-0.81-0.9-1.7
		c1.48-2.36,3.09-4.65,4.64-6.97c0.44-0.66,1.08-0.56,1.72-0.51c3.26,0.23,6.53,0.46,9.79,0.7c0.48,0.03,0.95,0.13,1.43,0.13
		c0.71-0.01,1.26-0.32,1.34-1.08c0.08-0.69-0.44-0.94-1-1.14C346.45,319.01,343.33,317.85,339.98,316.62z"/>
	<path class="st36" d="M305.85,210.54c1.02-0.07,1.61,0.38,2.44,0.6c-1.15,3.53-1.12,7.06,0.2,10.49c1.42,3.68,3.72,6.7,7.38,8.41
		c3.66,1.71,7.25,1.67,10.57-0.94c0.16-0.13,0.38-0.18,0.74-0.35c-0.56,2.48-1.3,4.74-2.3,6.9c-2.25,4.87-5.2,9.31-8.41,13.58
		c-0.64,0.85-1.15,1.28-2.31,0.58c-5.78-3.51-11.62-6.93-17.45-10.35c-0.92-0.54-0.87-0.99-0.35-1.86
		c3.55-5.97,6.76-12.09,8.39-18.92C305.38,216.03,305.76,213.36,305.85,210.54z"/>
	<path class="st36" d="M257.52,392.78c3.25,1.16,6.17,2.17,9.07,3.24c7.01,2.59,14.02,5.2,21.02,7.82c2,0.75,2,0.78,2.01,2.87
		c0.01,2.24,0,4.47,0,6.71c-0.48,0.41-0.91,0-1.3-0.14c-9.83-3.66-19.66-7.35-29.49-11c-0.85-0.32-1.34-0.66-1.31-1.67
		C257.56,398.14,257.52,395.68,257.52,392.78z"/>
	<path class="st36" d="M260.77,390.88c4.54-1.22,9.04-2.41,13.52-3.67c0.81-0.23,1.47-0.19,2.29,0.06
		c4.42,1.36,8.62,3.29,12.94,4.88c4.85,1.79,9.69,3.62,14.54,5.44c-0.25,0.68-0.85,0.64-1.35,0.81c-3.32,1.09-6.65,2.16-9.95,3.31
		c-1.26,0.44-2.41,0.44-3.66-0.04c-5.72-2.19-11.45-4.33-17.19-6.47c-3.28-1.22-6.58-2.39-9.87-3.57
		C261.59,391.49,261.13,391.37,260.77,390.88z"/>
	<path class="st12" d="M260.99,423.88c3.11,1.1,6.03,2.11,8.94,3.15c6.82,2.44,13.63,4.92,20.47,7.31c1.25,0.43,1.78,0.98,1.69,2.37
		c-0.14,2.21-0.04,4.44-0.04,6.56c-0.97,0.52-1.6-0.04-2.23-0.27c-9.06-3.24-18.1-6.53-27.15-9.77c-1.19-0.42-1.81-0.94-1.72-2.37
		C261.1,428.64,260.99,426.4,260.99,423.88z"/>
	<path class="st721" d="M296.64,391.94c9.85-3.06,19.47-6.04,29.08-9.07c0.87-0.28,1.69-0.49,2.56-0.21
		c3.58,1.17,7.16,2.37,11.26,3.74c-3.14,1.07-5.8,2.01-8.47,2.88c-6.65,2.16-13.33,4.23-19.96,6.46c-1.75,0.59-3.22,0.71-4.97-0.12
		c-2.51-1.18-5.19-1.99-7.8-2.97C297.81,392.46,297.32,392.23,296.64,391.94z"/>
	<path class="st44" d="M279.82,385.63c7.62-2.18,14.87-4.26,22.11-6.34c2.21-0.64,4.45-1.21,6.62-1.95
		c1.13-0.38,2.14-0.31,3.22,0.04c3.55,1.16,7.12,2.27,10.73,3.42c-0.02,0.46-0.47,0.55-0.74,0.64c-9.18,2.84-18.37,5.62-27.53,8.49
		c-1.31,0.41-2.41,0.35-3.67-0.16C287.14,388.38,283.65,387.1,279.82,385.63z"/>
	<path class="st44" d="M408.14,298.11c-1.86,0.99-3.93,1.49-5.91,2.23c-0.52-0.62-0.01-1.1,0.18-1.56
		c1.55-3.76,3.16-7.49,4.69-11.25c0.42-1.02,0.95-1.46,2.14-1.39c4.3,0.26,8.62,0.35,12.92,0.59c2.92,0.16,5.54,1.2,8.12,3.02
		c-1.2,0.46-2.21,0.82-3.2,1.23c-1.7,0.7-3.36,1.52-4.75-0.6c-0.38-0.59-1.18-0.58-1.72-0.13c-0.7,0.57-0.52,1.29,0,1.9
		c0.82,0.98,1.66,1.94,2.54,2.86c1.37,1.45,2.84,2.81,4.01,4.44c0.32,0.45,0.63,0.92,0.89,1.41c0.37,0.72,0.7,1.55,0.04,2.21
		c-0.78,0.78-1.62,0.31-2.39-0.15c-1.87-1.11-3.45-2.58-4.92-4.16c-1.11-1.18-2.29-1.78-4-1.54c-2.84,0.39-5.59,0.04-7.85-1.99
		c-0.31-0.28-0.67-0.42-1.08-0.42c-0.5,0-0.94,0.07-1.23,0.56c-0.3,0.5-0.08,0.91,0.15,1.33
		C407.07,297.28,407.86,297.36,408.14,298.11z"/>
	<path class="st848" d="M339.41,404.19c-8.28,2.85-16.01,5.48-23.71,8.16c-6.83,2.38-13.64,4.78-20.43,7.27
		c-1.73,0.63-3.21,0.72-4.99,0.01c-4.05-1.63-8.21-2.98-12.32-4.44c-0.3-0.11-0.62-0.18-0.73-0.54c2.96-1.65,2.96-1.66,5.98-0.53
		c2.09,0.78,4.2,1.51,6.24,2.4c1.11,0.49,2.12,0.46,3.21,0.09c13.26-4.46,26.55-8.84,39.77-13.41
		C334.95,402.31,336.79,403.32,339.41,404.19z"/>
	<path class="st502" d="M271.33,424.53c-1.91-0.27-3.38-1.05-4.92-1.62c-3.94-1.45-7.87-2.94-11.83-4.32
		c-0.95-0.33-1.22-0.81-1.2-1.72c0.04-2.39,0.01-4.77,0.01-7.16c0.79-0.39,1.45,0.09,2.06,0.3c4.8,1.66,9.55,3.46,14.35,5.1
		c1.2,0.41,1.6,1.01,1.56,2.23C271.28,419.69,271.33,422.06,271.33,424.53z"/>
	<path class="st1" d="M273.88,440.27c2.02,0.66,3.77,1.18,5.48,1.79c3.44,1.23,6.87,2.48,10.29,3.76c1.96,0.74,1.83,0.21,1.83,2.68
		c0,2.29,0,4.57,0,6.91c-1.35,0.14-2.2-0.55-3.13-0.89c-4.33-1.56-8.62-3.24-12.96-4.75c-1.2-0.42-1.58-1-1.53-2.22
		C273.95,445.24,273.88,442.94,273.88,440.27z"/>
	<path class="st44" d="M271.29,448.32c-5.77-2.16-11.11-4.2-16.48-6.13c-1.11-0.4-1.47-0.95-1.44-2.07
		c0.07-2.31,0.02-4.62,0.02-7.02c1.02-0.25,1.86,0.28,2.7,0.58c4.57,1.63,9.1,3.36,13.68,4.96c1.2,0.42,1.58,1.05,1.54,2.26
		C271.23,443.26,271.29,445.65,271.29,448.32z"/>
	<path class="st12" d="M291.42,432.05c-5.76-2.15-11.17-4.2-16.62-6.16c-0.79-0.29-0.92-0.66-0.92-1.37
		c0.02-2.55,0.01-5.1,0.01-7.81c2.97,0.71,5.64,1.9,8.4,2.81c2.64,0.88,5.22,1.94,7.86,2.81c0.92,0.3,1.29,0.74,1.27,1.69
		C291.39,426.58,291.42,429.12,291.42,432.05z"/>
	<path class="st44" d="M426.22,294.07c3.66-1.39,7.26-2.68,10.8-4.12c1.36-0.55,2.55-0.57,3.91-0.07c3.13,1.14,6.31,2.14,9.46,3.19
		c-0.11,0.98-0.92,0.96-1.43,1.16c-5.38,2.19-10.77,4.34-16.16,6.49c-1.53,0.61-1.57,0.61-2.26-0.84c-0.8-1.69-2.08-3.01-3.28-4.39
		C426.89,295.08,426.34,294.81,426.22,294.07z"/>
	<path class="st502" d="M400.55,304.82c4.52,1.55,8.87,3.04,13.21,4.53c0.64,0.22,1.03,0.59,1.02,1.38c-0.04,3.1-0.02,6.2-0.02,9.49
		c-4.18-1.57-8.38-3.17-12.61-4.72c-0.73-0.27-1.01-0.74-1.05-1.41C400.91,311.08,400.74,308.07,400.55,304.82z"/>
	<path class="st852" d="M341.25,422.04c-15.73,5.33-30.96,10.5-46.24,15.68c-0.35-2.34-0.35-2.34,1.24-2.88
		c13.25-4.48,26.5-8.94,39.73-13.49C337.72,420.75,339.17,420.94,341.25,422.04z"/>
	<path class="st475" d="M403.05,302.79c1.43-0.52,2.55-0.92,3.67-1.34c2.65-0.99,5.2-1.78,8.23-1.62c2.55,0.14,4.32,0.69,5.84,2.61
		c0.58,0.73,1.37,1.29,2.29,2.13c-2.36,0.91-4.51,1.75-6.68,2.59c-0.39,0.15-0.77,0.1-1.16-0.04
		C411.29,305.71,407.34,304.31,403.05,302.79z"/>
	<path class="st511" d="M256.78,407.25c1.2-0.39,2.36-0.77,3.53-1.13c0.54-0.16,1.11-0.25,1.65-0.04c4.8,1.86,9.59,3.72,14.74,5.73
		c-2.22,1.08-4,1.74-6.2,0.87c-3.91-1.54-7.91-2.84-11.85-4.3C258.03,408.14,257.21,408.12,256.78,407.25z"/>
	<path class="st1352" d="M336.33,318.55c-3.25,0.8-4.89-0.11-5.57-3.17c-0.29-1.32-0.6-2.66-0.71-4c-0.19-2.34-1.39-3.63-3.65-4.04
		c-0.68-0.12-1.72-0.15-1.54-1.04c0.24-1.19,1.31-0.43,2-0.38c0.62,0.04,1.23,0.3,1.85,0.48c1.52,0.45,2.43,1.42,2.66,3.03
		c0.19,1.34,0.48,2.67,0.68,4.01c0.34,2.32,1.4,4.04,3.8,4.7C336.05,318.18,336.32,318.24,336.33,318.55z"/>
	<path class="st1353" d="M256.58,430.79c0.6-0.26,1.1-1.01,1.82-0.45c0.28,0.21,0.3,0.88-0.03,1.05
		C257.67,431.77,257.06,431.45,256.58,430.79z"/>
	<path class="st36" d="M364.55,378.25c2.87,0.6,5.43,1.66,8.03,2.58c6.97,2.47,13.9,5.04,20.84,7.57c3.16,1.15,3.17,1.14,3.17,4.4
		c0,1.83,0,3.66,0,5.43c-0.57,0.34-1.02,0.16-1.47,0c-9.53-3.51-19.07-7-28.59-10.57c-2.17-0.81-1.98-0.24-1.99-2.84
		C364.55,382.67,364.55,380.53,364.55,378.25z"/>
	<path class="st502" d="M410.92,382.81c-3.71,1.29-7.33,2.48-10.89,3.83c-1.44,0.55-2.68,0.51-4.11-0.02
		c-8.28-3.06-16.59-6.05-24.88-9.06c-0.96-0.35-1.91-0.71-2.85-1.06c0.04-0.87,0.7-0.6,1.05-0.71c3.63-1.17,7.29-2.27,10.92-3.46
		c0.95-0.31,1.79-0.43,2.77-0.08c9.18,3.38,18.37,6.72,27.56,10.09C410.63,382.4,410.71,382.57,410.92,382.81z"/>
	<path class="st12" d="M365.54,425.21c2.5,0.4,4.61,1.35,6.77,2.1c7.43,2.58,14.81,5.31,22.24,7.9c1.17,0.41,1.64,0.91,1.58,2.18
		c-0.11,2.29-0.03,4.59-0.03,7.21c-2.61-0.93-4.83-1.72-7.04-2.52c-7.32-2.63-14.62-5.29-21.96-7.87c-1.18-0.41-1.62-1.01-1.58-2.24
		C365.59,429.75,365.54,427.54,365.54,425.21z"/>
	<path class="st36" d="M365.56,401.54c3.36,1.13,6.38,2.11,9.38,3.16c6.24,2.18,12.46,4.41,18.7,6.61c2.1,0.74,2.11,0.74,2.1,3.04
		c0,2.14,0,4.28,0,6.61c-3.86-1.35-7.53-2.61-11.18-3.92c-5.91-2.11-11.82-4.25-17.72-6.39c-0.63-0.23-1.35-0.31-1.31-1.36
		C365.61,406.84,365.56,404.37,365.56,401.54z"/>
	<path class="st1" d="M443.76,371.27c-8.38,2.97-16.76,5.94-25.14,8.92c-0.75,0.27-1.49,0.57-2.23,0.84
		c-0.61,0.22-1.24,0.33-1.87,0.09c-3.94-1.46-7.88-2.93-12.15-4.51c5.92-2.03,11.51-3.95,17.1-5.88c3.61-1.24,7.23-2.48,10.82-3.77
		c0.73-0.26,1.37-0.29,2.08-0.05c3.81,1.31,7.62,2.6,11.43,3.89C443.79,370.96,443.77,371.11,443.76,371.27z"/>
	<path class="st12" d="M419.93,359.75c3.98-1.28,7.54-2.4,11.07-3.58c0.9-0.3,1.73-0.16,2.55,0.1c6.52,2.07,13.03,4.16,19.54,6.24
		c2.57,0.82,5.13,1.65,8.08,2.6c-3.61,1.27-6.92,2.33-10.14,3.62c-1.98,0.79-3.72,0.66-5.69-0.05c-7.69-2.79-15.43-5.42-23.16-8.11
		C421.59,360.36,421,360.14,419.93,359.75z"/>
	<path class="st721" d="M386.13,370.71c2.91-1.21,5.53-1.83,8.09-2.65c6.52-2.07,13.05-4.13,19.54-6.27
		c1.45-0.48,2.72-0.52,4.16,0.05c2.91,1.16,5.89,2.16,9.03,3.29c-1.64,1.11-3.39,1.39-5.01,1.96c-7.28,2.56-14.61,4.97-21.89,7.51
		c-1.22,0.42-2.24,0.38-3.43-0.09C393.29,373.22,389.9,372.07,386.13,370.71z"/>
	<path class="st733" d="M443.27,406.44c0,3.16,0,6.1,0,9.15c2.29-0.36,4.21-1.35,6.2-2.09c3.73-1.39,7.42-2.9,11.12-4.35
		c0.22-0.09,0.46-0.14,0.68-0.22c0.83-0.31,1.9-0.76,2.25,0.35c0.32,1.03-0.81,1.32-1.61,1.63c-3.64,1.4-7.27,2.82-10.91,4.21
		c-9.65,3.7-19.3,7.41-28.97,11.07c-0.97,0.37-1.39,0.81-1.34,1.88c0.09,2.07-0.03,4.16,0.07,6.23c0.07,1.41-0.43,2.12-2.01,2.13
		c0-2.86,0-5.73,0-8.89c-6.77,2.24-13.03,5.19-19.62,7.2c-0.61-1.78-0.62-1.81,0.89-2.39c7.8-3,15.61-5.99,23.42-8.96
		c5.21-1.98,10.44-3.92,15.65-5.88c2.09-0.79,2.09-0.8,2.08-3.13c-0.01-1.92-0.03-3.83-0.03-5.75
		C441.16,407.04,441.17,407.04,443.27,406.44z"/>
	<path class="st1354" d="M418.66,412.85c0-2.98,0-5.91,0-9.19c-2.7,0.92-5.08,1.7-7.43,2.54c-3.6,1.28-7.17,2.62-10.77,3.9
		c-0.6,0.21-1.4,0.83-1.85-0.09c-0.52-1.06,0.22-1.62,1.13-1.95c5.39-1.94,10.79-3.88,16.19-5.81c7.87-2.81,15.73-5.64,23.62-8.39
		c1.17-0.41,1.68-0.95,1.61-2.2c-0.09-1.43-0.04-2.88,0.01-4.31c0.05-1.61,0.08-1.61,2.12-1.87c0,2.22,0,4.42,0,6.75
		c2.06-0.44,3.83-1.15,5.61-1.79c3.9-1.4,7.79-2.82,11.68-4.22c0.45-0.16,0.91-0.29,1.38-0.39c0.59-0.13,1.13-0.04,1.35,0.64
		c0.22,0.69-0.19,1.07-0.75,1.29c-1.33,0.53-2.67,1.03-4.02,1.52c-10.85,3.91-21.69,7.81-32.54,11.72
		c-1.35,0.49-2.67,1.05-4.05,1.44c-1.06,0.3-1.31,0.87-1.27,1.9c0.08,2.23,0.07,4.47,0.05,6.71
		C420.7,412.41,420.67,412.41,418.66,412.85z"/>
	<path class="st502" d="M377.64,440.88c4.74,1.69,9.08,3.19,13.39,4.79c1.39,0.52,3.34,0.47,4,1.81c0.57,1.17,0.19,2.81,0.21,4.24
		c0.02,1.49,0,2.99,0,4.68c-1.7-0.66-3.24-1.28-4.79-1.85c-3.73-1.36-7.47-2.7-11.21-4.02c-1.07-0.37-1.69-0.87-1.62-2.17
		C377.73,445.99,377.64,443.61,377.64,440.88z"/>
	<path class="st502" d="M357.22,410.23c5.67,2.02,11.03,3.96,16.41,5.83c1.04,0.36,1.55,0.82,1.5,2.02
		c-0.1,2.38-0.03,4.77-0.03,7.14c-0.92,0.29-1.61-0.2-2.32-0.46c-4.77-1.7-9.52-3.5-14.31-5.13c-0.96-0.33-1.26-0.76-1.26-1.65
		C357.23,415.52,357.22,413.06,357.22,410.23z"/>
	<path class="st502" d="M377.64,417.41c2.2,0.79,3.98,1.44,5.77,2.07c3.53,1.23,7.06,2.46,10.6,3.65c0.73,0.24,1.29,0.43,1.27,1.39
		c-0.05,2.62-0.02,5.25-0.02,7.82c-1.1,0.43-1.86-0.23-2.64-0.5c-4.43-1.55-8.8-3.25-13.23-4.78c-1.38-0.47-1.87-1.16-1.79-2.6
		C377.73,422.24,377.64,420,377.64,417.41z"/>
	<path class="st502" d="M375.06,448.62c-0.88,0.32-1.44-0.04-2.03-0.26c-4.77-1.79-9.52-3.6-14.32-5.31
		c-1.07-0.38-1.55-0.84-1.52-2.01c0.08-2.37,0.02-4.75,0.02-7.15c1.28-0.02,2.19,0.51,3.15,0.86c4.27,1.53,8.53,3.07,12.78,4.65
		c1.94,0.72,1.92,0.75,1.91,2.9C375.06,444.43,375.06,446.56,375.06,448.62z"/>
	<path class="st12" d="M375.11,401.84c-1.28-0.04-2.26-0.62-3.29-0.98c-4.41-1.55-8.81-3.15-13.25-4.64
		c-0.99-0.33-1.42-0.74-1.4-1.8c0.06-2.45,0.02-4.9,0.02-7.5c0.99,0.26,1.81,0.34,2.5,0.68c4.45,2.14,9.12,3.68,13.73,5.41
		c1.37,0.51,1.78,1.23,1.71,2.61C375.03,397.66,375.11,399.73,375.11,401.84z"/>
	<path class="st503" d="M395.28,409.08c-1.98-0.24-3.57-1.2-5.28-1.78c-3.69-1.25-7.31-2.66-11-3.92c-1-0.34-1.38-0.84-1.35-1.89
		c0.07-2.22,0.02-4.44,0.02-6.91c2.1,0.76,4.02,1.46,5.95,2.15c3.37,1.2,6.72,2.44,10.11,3.58c1.16,0.39,1.63,0.98,1.58,2.23
		C395.2,404.69,395.28,406.84,395.28,409.08z"/>
	<path class="st1355" d="M441.19,438.5c0-2.39,0.08-4.54-0.03-6.68c-0.07-1.37,0.39-2.08,1.94-2.19c0.34,2.48,0.13,4.99,0.12,7.48
		C443.22,438.16,442.29,438.24,441.19,438.5z"/>
	<path class="st1356" d="M362.96,430.75c0.2,0.7,0.28,1.39-0.1,2.19c-0.8-0.47-1.84-0.36-2.52-1.2
		C361.15,431.19,361.97,430.78,362.96,430.75z"/>
	<path class="st1357" d="M362.89,409.49c-0.97-0.52-1.9-0.52-2.61-1.32c0.45-0.16,0.79-0.28,1.14-0.39
		C363.09,407.23,363.09,407.24,362.89,409.49z"/>
	<path class="st1358" d="M362.08,384.91c-0.13,0.45-0.45,0.57-0.86,0.51c-0.36-0.05-0.55-0.33-0.48-0.63
		c0.08-0.32,0.43-0.39,0.73-0.34C361.74,384.48,362.1,384.48,362.08,384.91z"/>
	<path class="st44" d="M503.8,310.05c-3.02,0.93-5.49,1.71-7.97,2.44c-8.45,2.49-16.93,4.93-25.36,7.49c-1.76,0.53-3.29,0.55-5-0.16
		c-2.34-0.98-4.79-1.67-7.17-2.57c-0.62-0.24-1.47-0.19-1.85-1.11c7.48-2.15,14.93-4.27,22.38-6.42c3.82-1.1,7.63-2.24,11.44-3.37
		c0.75-0.22,1.43-0.49,2.3-0.18C496.1,307.45,499.69,308.64,503.8,310.05z"/>
	<path class="st1" d="M406.45,338.7c-0.44,0.87-1.09,0.76-1.59,0.91c-10.65,3.21-21.32,6.38-31.96,9.62
		c-1.37,0.42-2.6,0.42-3.94-0.09c-3.26-1.25-6.56-2.39-10.12-3.67c2.25-1.06,4.42-1.41,6.49-2.02c8.91-2.66,17.85-5.22,26.75-7.91
		c1.93-0.58,3.68-0.6,5.56,0.11C400.53,336.73,403.47,337.67,406.45,338.7z"/>
	<path class="st1359" d="M345.41,212.91c0.67-2.44,1.31-4.8,1.96-7.15c0.21-0.77,0.42-1.53,0.65-2.29c0.2-0.66,0.7-0.85,1.31-0.7
		c0.67,0.16,0.83,0.67,0.76,1.29c-0.02,0.16-0.07,0.31-0.11,0.47c-0.81,3.08-1.58,6.17-2.44,9.23c-0.41,1.47-0.88,1.74-2.22,1.25
		c-1.57-0.57-3.09-1.26-4.61-1.94c-0.61-0.27-1.12-0.73-0.76-1.49c0.34-0.74,0.9-0.71,1.59-0.38
		C342.74,211.77,343.98,212.28,345.41,212.91z"/>
	<path class="st1360" d="M333.35,212.39c0.54-0.03,0.9,0.33,1.2,0.67c1.99,2.32,4.41,4.07,7.06,5.54c0.6,0.33,1.06,0.81,0.64,1.54
		c-0.4,0.7-1.11,0.61-1.69,0.33c-3.04-1.44-5.76-3.33-7.91-5.95c-0.35-0.42-0.63-0.95-0.28-1.53
		C332.59,212.64,332.91,212.42,333.35,212.39z"/>
	<path class="st1275" d="M346.59,199.43c0.07,0.81-0.98,1.56-1.64,1.24c-0.28-0.13-0.5-0.38-0.74-0.59
		c-1.91-1.68-3.78-3.41-5.92-4.79c-0.85-0.55-1.07-1.18-0.47-1.96c0.59-0.77,1.33-0.78,2.06-0.14c2.03,1.78,4.07,3.55,6.08,5.35
		C346.24,198.8,346.41,199.18,346.59,199.43z"/>
	<path class="st1361" d="M355.93,208.59c0.06,1.06-0.59,1.81-1.64,1.89c-1.28,0.1-2.14-0.67-2.15-1.91
		c-0.01-1.01,0.71-1.76,1.76-1.83C354.96,206.68,355.87,207.51,355.93,208.59z"/>
	<path class="st1362" d="M339.96,199.28c1.06,0.05,1.87,0.8,1.9,1.75c0.03,0.99-0.98,1.97-2,1.94c-1.1-0.02-1.86-0.9-1.79-2.07
		C338.14,199.77,338.77,199.22,339.96,199.28z"/>
</g>
</svg>
