<?xml version="1.0" encoding="utf-8"?>
<!-- Generator: Adobe Illustrator 24.3.0, SVG Export Plug-In . SVG Version: 6.00 Build 0)  -->
<svg version="1.1" id="Layer_1" xmlns="http://www.w3.org/2000/svg" xmlns:xlink="http://www.w3.org/1999/xlink" x="0px" y="0px"
	 viewBox="0 0 467.13 478.04" style="enable-background:new 0 0 467.13 478.04;" xml:space="preserve">
<style type="text/css">
	.st0{fill:#FFFFFD;}
	.st1{fill:#FFFFFF;}
	.st2{fill:#FEFDFD;}
	.st3{fill:#1C1B1B;}
	.st4{fill:#0D0D0D;}
	.st5{fill:#161515;}
	.st6{fill:#E7E7E6;}
	.st7{fill:#F7F6F6;}
	.st8{fill:#DCDBDB;}
	.st9{fill:#E4E3E3;}
	.st10{fill:#FAF9F9;}
	.st11{fill:#FAFAF9;}
	.st12{fill:#E2E2E2;}
	.st13{fill:#FAF9F8;}
	.st14{fill:#E4E4E4;}
	.st15{fill:#DFDFDF;}
	.st16{fill:#EAE9E9;}
	.st17{fill:#E7E6E6;}
	.st18{fill:#F6F6F6;}
	.st19{fill:#F2F0EF;}
	.st20{fill:#FDFCFC;}
	.st21{fill:#E5E4E3;}
	.st22{fill:#E6E6E6;}
	.st23{fill:#E6E6E5;}
	.st24{fill:#E3E2E1;}
	.st25{fill:#E3E3E4;}
	.st26{fill:#E5E7E6;}
	.st27{fill:#E5E5E4;}
	.st28{fill:#E3E7E9;}
	.st29{fill:#E2E3E3;}
	.st30{fill:#DCDBDA;}
	.st31{fill:#E3E3E2;}
	.st32{fill:#E3E2E2;}
	.st33{fill:#E0DFDF;}
	.st34{fill:#D4D6D6;}
	.st35{fill:#D9DBDB;}
	.st36{fill:#CEE7F2;}
	.st37{fill:#7E959D;}
	.st38{fill:#BEC8CD;}
	.st39{fill:#AAA9AA;}
	.st40{fill:#A8A7A8;}
	.st41{fill:#8C8B8B;}
	.st42{fill:#C7C7C7;}
	.st43{fill:#8D8D8D;}
	.st44{fill:#A9A9A9;}
	.st45{fill:#C8C8C7;}
	.st46{fill:#A9A8A8;}
	.st47{fill:#CAC9C9;}
	.st48{fill:#E2E2E1;}
	.st49{fill:#FCFBFB;}
	.st50{fill:#EAEAEA;}
	.st51{fill:#F8F7F6;}
	.st52{fill:#E2E1E1;}
	.st53{fill:#8F8F8F;}
	.st54{fill:#AAA9A9;}
	.st55{fill:#E0E0DF;}
	.st56{fill:#8E8D8D;}
	.st57{fill:#FDFDFC;}
	.st58{fill:#F6F5F5;}
	.st59{fill:#FCFCFB;}
	.st60{fill:#E7E6E5;}
	.st61{fill:#E1E1E0;}
	.st62{fill:#E0DFDE;}
	.st63{fill:#AAAAAA;}
	.st64{fill:#F7F6F5;}
	.st65{fill:#DEDEDD;}
	.st66{fill:#F0EFEF;}
	.st67{fill:#F9F8F8;}
	.st68{fill:#C6C5C6;}
	.st69{fill:#F5F4F3;}
	.st70{fill:#EBEAEA;}
	.st71{fill:#DFDEDE;}
	.st72{fill:#DDDCDC;}
	.st73{fill:#DBDBDB;}
	.st74{fill:#C9C8C9;}
	.st75{fill:#8C8D8D;}
	.st76{fill:#DDDDDD;}
	.st77{fill:#D7D7D7;}
	.st78{fill:#423F3F;}
	.st79{fill:#E5E5E6;}
	.st80{fill:#D9D9D9;}
	.st81{fill:#4B4949;}
	.st82{fill:#CBC7C7;}
	.st83{fill:#6D6B6B;}
	.st84{fill:#ADAEAF;}
	.st85{fill:#BEBDBD;}
	.st86{fill:#D9E3EA;}
	.st87{fill:#BDBDBD;}
	.st88{fill:#A09A99;}
	.st89{fill:#FEFEFE;}
	.st90{fill:#FCFCFC;}
	.st91{fill:#E0E0DE;}
	.st92{fill:#FBFAFA;}
	.st93{fill:#DFDFDE;}
	.st94{fill:#E1E0DF;}
	.st95{fill:#F4F3F2;}
	.st96{fill:#DEDDDD;}
	.st97{fill:#DDDDDC;}
	.st98{fill:#DCDCDC;}
	.st99{fill:#DFDEDD;}
	.st100{fill:#DADADA;}
	.st101{fill:#DCDCDB;}
	.st102{fill:#E9E9E9;}
	.st103{fill:#D6D6D6;}
	.st104{fill:#D3D3D3;}
	.st105{fill:#DCDDDE;}
	.st106{fill:#D8D9D9;}
	.st107{fill:#D6D7D7;}
	.st108{fill:#C1C2C3;}
	.st109{fill:#110F0D;}
	.st110{fill:#0E0D0C;}
	.st111{fill:#ABABAB;}
	.st112{fill:#222020;}
	.st113{fill:#FBD02D;}
	.st114{fill:#E5D077;}
	.st115{fill:#F9CF2C;}
	.st116{fill:#251F28;}
	.st117{fill:#2A2121;}
	.st118{fill:#2C2020;}
	.st119{fill:#281D20;}
	.st120{fill:#E7EFF3;}
	.st121{fill:#1D1D2B;}
	.st122{fill:#202232;}
	.st123{fill:#1D1D30;}
	.st124{fill:#171B32;}
	.st125{fill:#E6EDF2;}
	.st126{fill:#1D2136;}
	.st127{fill:#28252E;}
	.st128{fill:#1E2230;}
	.st129{fill:#282220;}
	.st130{fill:#2A2229;}
	.st131{fill:#292027;}
	.st132{fill:#2A2228;}
	.st133{fill:#2C2126;}
	.st134{fill:#232027;}
	.st135{fill:#29262E;}
	.st136{fill:#28262D;}
	.st137{fill:#29262D;}
	.st138{fill:#818B97;}
	.st139{fill:#24253D;}
	.st140{fill:#37446E;}
	.st141{fill:#575769;}
	.st142{fill:#232240;}
	.st143{fill:#F2BF7C;}
	.st144{fill:#F1BF7E;}
	.st145{fill:#6B8DAD;}
	.st146{fill:#F4B47A;}
	.st147{fill:#CC8750;}
	.st148{fill:#F1BE7B;}
	.st149{fill:#E89F67;}
	.st150{fill:#688CAD;}
	.st151{fill:#F5B67A;}
	.st152{fill:#F5B57B;}
	.st153{fill:#F7DC57;}
	.st154{fill:#FDFDFD;}
	.st155{fill:#F9A967;}
	.st156{fill:#F1BE7D;}
	.st157{fill:#F47848;}
	.st158{fill:#D3A45B;}
	.st159{fill:#7B6E6D;}
	.st160{fill:#DEE7E6;}
	.st161{fill:#82A0BB;}
	.st162{fill:#76AB72;}
	.st163{fill:#E6EFF2;}
	.st164{fill:#7C7170;}
	.st165{fill:#E6EEF2;}
	.st166{fill:#598A7A;}
	.st167{fill:#526188;}
	.st168{fill:#E4EBEE;}
	.st169{fill:#DBDCD4;}
	.st170{fill:#D9E2E4;}
	.st171{fill:#192039;}
	.st172{fill:#566287;}
	.st173{fill:#F1C07D;}
	.st174{fill:#E7B26B;}
	.st175{fill:#E0B06F;}
	.st176{fill:#ECF3F4;}
	.st177{fill:#DADCD6;}
	.st178{fill:#EAF2F4;}
	.st179{fill:#4F8177;}
	.st180{fill:#E7ECEF;}
	.st181{fill:#AE6C45;}
	.st182{fill:#B6754A;}
	.st183{fill:#FAFAFA;}
	.st184{fill:#F0BE7F;}
	.st185{fill:#F3CB7D;}
	.st186{fill:#4D6A9E;}
	.st187{fill:#575A6B;}
	.st188{fill:#E2AD65;}
	.st189{fill:#ECC27A;}
	.st190{fill:#EEF0F1;}
	.st191{fill:#82AB9E;}
	.st192{fill:#EAEBE6;}
	.st193{fill:#E8BC7F;}
	.st194{fill:#E4E9EA;}
	.st195{fill:#F2F3F5;}
	.st196{fill:#6684A7;}
	.st197{fill:#F0C68A;}
	.st198{fill:#F5F5F5;}
	.st199{fill:#EAEEF0;}
	.st200{fill:#537092;}
	.st201{fill:#212337;}
	.st202{fill:#F4F5F5;}
	.st203{fill:#6989A8;}
	.st204{fill:#E5B880;}
	.st205{fill:#DEE1E9;}
	.st206{fill:#DCDEDA;}
	.st207{fill:#C4CDC3;}
	.st208{fill:#BF814B;}
	.st209{fill:#EAF2F3;}
	.st210{fill:#E7E8E5;}
	.st211{fill:#E0E8EB;}
	.st212{fill:#7D99A3;}
	.st213{fill:#F2F2F3;}
	.st214{fill:#E5EBF0;}
	.st215{fill:#ECEFF2;}
	.st216{fill:#DCE7EC;}
	.st217{fill:#E7EEF0;}
	.st218{fill:#E6B167;}
	.st219{fill:#F5F4F4;}
	.st220{fill:#D9E0E0;}
	.st221{fill:#B7BAAB;}
	.st222{fill:#E8EAE3;}
	.st223{fill:#6F6F7D;}
	.st224{fill:#6282A5;}
	.st225{fill:#F18C59;}
	.st226{fill:#C6985E;}
	.st227{fill:#EABF82;}
	.st228{fill:#73707A;}
	.st229{fill:#F5DB5A;}
	.st230{fill:#505A77;}
	.st231{fill:#F7F7F7;}
	.st232{fill:#E4EBF0;}
	.st233{fill:#DDB27F;}
	.st234{fill:#E3E9ED;}
	.st235{fill:#E8EBEF;}
	.st236{fill:#F2CB81;}
	.st237{fill:#68677A;}
	.st238{fill:#797682;}
	.st239{fill:#BE794F;}
	.st240{fill:#DEBF8E;}
	.st241{fill:#E5DFD0;}
	.st242{fill:#5E6F93;}
	.st243{fill:#AFABA1;}
	.st244{fill:#EDEEEC;}
	.st245{fill:#F0D68E;}
	.st246{fill:#556691;}
	.st247{fill:#576490;}
	.st248{fill:#628092;}
	.st249{fill:#D4D7DD;}
	.st250{fill:#E7D09C;}
	.st251{fill:#DA6D52;}
	.st252{fill:#AA7269;}
	.st253{fill:#D8E1E4;}
	.st254{fill:#638389;}
	.st255{fill:#8498A6;}
	.st256{fill:#D56E55;}
	.st257{fill:#F3F3F3;}
	.st258{fill:#D5C2A9;}
	.st259{fill:#4A5873;}
	.st260{fill:#DBDDE1;}
	.st261{fill:#353E61;}
	.st262{fill:#494C61;}
	.st263{fill:#D9AB7B;}
	.st264{fill:#557775;}
	.st265{fill:#D0D6DB;}
	.st266{fill:#535667;}
	.st267{fill:#D2BC9C;}
	.st268{fill:#484A4B;}
	.st269{fill:#A3AFBB;}
	.st270{fill:#B9C2CA;}
	.st271{fill:#AEB9C4;}
	.st272{fill:#BABABF;}
	.st273{fill:#AAB6C2;}
	.st274{fill:#9697A1;}
	.st275{fill:#A6A1A4;}
	.st276{fill:#75747A;}
	.st277{fill:#938580;}
	.st278{fill:#878692;}
	.st279{fill:#404153;}
	.st280{fill:#C58150;}
	.st281{fill:#F5B276;}
	.st282{fill:#F2B378;}
	.st283{fill:#F8DD5B;}
	.st284{fill:#E69F67;}
	.st285{fill:#699B68;}
	.st286{fill:#E7EFF1;}
	.st287{fill:#22263E;}
	.st288{fill:#F0F3F4;}
	.st289{fill:#F7DC5A;}
	.st290{fill:#F7DD59;}
	.st291{fill:#718E97;}
	.st292{fill:#EEF2F5;}
	.st293{fill:#EFBC7D;}
	.st294{fill:#E6ECED;}
	.st295{fill:#EC7246;}
	.st296{fill:#E6EEF3;}
	.st297{fill:#E0975E;}
	.st298{fill:#DFB06C;}
	.st299{fill:#7BA779;}
	.st300{fill:#6987A6;}
	.st301{fill:#E5B64E;}
	.st302{fill:#A8724C;}
	.st303{fill:#B27047;}
	.st304{fill:#EA7349;}
	.st305{fill:#73849B;}
	.st306{fill:#A76A45;}
	.st307{fill:#E6EAEE;}
	.st308{fill:#EB7851;}
	.st309{fill:#E6EDF1;}
	.st310{fill:#EFF1F2;}
	.st311{fill:#E7D5BA;}
	.st312{fill:#5E9275;}
	.st313{fill:#F8F7F7;}
	.st314{fill:#B5774E;}
	.st315{fill:#23292B;}
	.st316{fill:#F0CB66;}
	.st317{fill:#E7D3BA;}
	.st318{fill:#232431;}
	.st319{fill:#5F5C62;}
	.st320{fill:#C59A5B;}
	.st321{fill:#DCB471;}
	.st322{fill:#D7D6CA;}
	.st323{fill:#748F97;}
	.st324{fill:#DCE3E7;}
	.st325{fill:#DCB477;}
	.st326{fill:#799097;}
	.st327{fill:#E2B083;}
	.st328{fill:#5F8D72;}
	.st329{fill:#E67248;}
	.st330{fill:#767984;}
	.st331{fill:#D6D4D0;}
	.st332{fill:#D1D1CF;}
	.st333{fill:#B7705A;}
	.st334{fill:#AB766F;}
	.st335{fill:#696F79;}
	.st336{fill:#E2E6E7;}
	.st337{fill:#D7DFE6;}
	.st338{fill:#E2E1E2;}
	.st339{fill:#D5D4D4;}
	.st340{fill:#C16E56;}
	.st341{fill:#7A7680;}
	.st342{fill:#BCB9BF;}
	.st343{fill:#BCC8D4;}
	.st344{fill:#E7A067;}
	.st345{fill:#C6824F;}
	.st346{fill:#F2B37A;}
	.st347{fill:#74A970;}
	.st348{fill:#E3AD60;}
	.st349{fill:#B9784F;}
	.st350{fill:#D0623F;}
	.st351{fill:#FDFCFB;}
	.st352{fill:#E4EAEC;}
	.st353{fill:#A86842;}
	.st354{fill:#D06140;}
	.st355{fill:#F08557;}
	.st356{fill:#6E8BA5;}
	.st357{fill:#E6EBED;}
	.st358{fill:#E0E5E6;}
	.st359{fill:#EC8056;}
	.st360{fill:#6F849D;}
	.st361{fill:#F5A98A;}
	.st362{fill:#37456E;}
	.st363{fill:#F8DC5A;}
	.st364{fill:#F4A78A;}
	.st365{fill:#2A3857;}
	.st366{fill:#1B1C31;}
	.st367{fill:#C4D6E1;}
	.st368{fill:#F4A788;}
	.st369{fill:#323C5F;}
	.st370{fill:#A0B3C5;}
	.st371{fill:#D1CED2;}
	.st372{fill:#39466D;}
	.st373{fill:#384163;}
	.st374{fill:#384168;}
	.st375{fill:#414350;}
	.st376{fill:#E6F0F3;}
	.st377{fill:#384369;}
	.st378{fill:#7C7D8D;}
	.st379{fill:#D1DDE3;}
	.st380{fill:#DFE0E3;}
	.st381{fill:#EAF0F1;}
	.st382{fill:#EAEAE4;}
	.st383{fill:#50566A;}
	.st384{fill:#5C7C9E;}
	.st385{fill:#E7EDEF;}
	.st386{fill:#E9EDED;}
	.st387{fill:#FAF6D8;}
	.st388{fill:#6A809B;}
	.st389{fill:#2C395A;}
	.st390{fill:#374369;}
	.st391{fill:#38456C;}
	.st392{fill:#3A456C;}
	.st393{fill:#688BAB;}
	.st394{fill:#DDE6EB;}
	.st395{fill:#536C8E;}
	.st396{fill:#516C8A;}
	.st397{fill:#A7724D;}
	.st398{fill:#E5EBEE;}
	.st399{fill:#E6D3BA;}
	.st400{fill:#E5D4BB;}
	.st401{fill:#ECF0F2;}
	.st402{fill:#D7D6D1;}
	.st403{fill:#D6CEC7;}
	.st404{fill:#D4CFCB;}
	.st405{fill:#99B8C6;}
	.st406{fill:#AFC7D2;}
	.st407{fill:#353239;}
	.st408{fill:#A5714D;}
	.st409{fill:#E4D2B8;}
	.st410{fill:#E2D0B5;}
	.st411{fill:#D4D4D1;}
	.st412{fill:#DDD2C7;}
	.st413{fill:#D2D1D2;}
	.st414{fill:#97949E;}
	.st415{fill:#A9754D;}
	.st416{fill:#E8D4BA;}
	.st417{fill:#E7D3B8;}
	.st418{fill:#D6D7D3;}
	.st419{fill:#D4D4CF;}
	.st420{fill:#BBBFC3;}
	.st421{fill:#A6724C;}
	.st422{fill:#E7D5BD;}
	.st423{fill:#E6D5BC;}
	.st424{fill:#D1D0CA;}
	.st425{fill:#DAD0C8;}
	.st426{fill:#D5D0CE;}
	.st427{fill:#48424D;}
	.st428{fill:#908C97;}
	.st429{fill:#A6734C;}
	.st430{fill:#E6D2B8;}
	.st431{fill:#E6D1B7;}
	.st432{fill:#D7CEC4;}
	.st433{fill:#D4D0CB;}
	.st434{fill:#D7CBBB;}
	.st435{fill:#6F6C75;}
	.st436{fill:#646169;}
	.st437{fill:#E8F0F5;}
	.st438{fill:#E9F0F4;}
	.st439{fill:#F6DB5C;}
	.st440{fill:#E7ECEE;}
	.st441{fill:#2F2A2F;}
	.st442{fill:#EEC16C;}
	.st443{fill:#DAB987;}
	.st444{fill:#DAA675;}
	.st445{fill:#D49F79;}
	.st446{fill:#D0D0D2;}
	.st447{fill:#282830;}
	.st448{fill:#28232B;}
	.st449{fill:#292430;}
	.st450{fill:#20272E;}
	.st451{fill:#212D37;}
	.st452{fill:#312D32;}
	.st453{fill:#353037;}
	.st454{fill:#3E383D;}
	.st455{fill:#343239;}
	.st456{fill:#383135;}
	.st457{fill:#202134;}
	.st458{fill:#262D45;}
	.st459{fill:#2B252E;}
	.st460{fill:#2E252B;}
	.st461{fill:#242434;}
	.st462{fill:#312D30;}
	.st463{fill:#37353D;}
	.st464{fill:#D2DAE0;}
	.st465{fill:#9FA8B4;}
	.st466{fill:#A6B0BD;}
	.st467{fill:#B2B9C8;}
	.st468{fill:#3D3B39;}
	.st469{fill:#433F3D;}
	.st470{fill:#2E2B31;}
	.st471{fill:#383439;}
	.st472{fill:#373338;}
	.st473{fill:#363337;}
	.st474{fill:#363136;}
	.st475{fill:#232D2E;}
	.st476{fill:#313039;}
	.st477{fill:#76889C;}
	.st478{fill:#D1D9DE;}
	.st479{fill:#DAE4E9;}
	.st480{fill:#CF8072;}
	.st481{fill:#3F2727;}
	.st482{fill:#3C2627;}
	.st483{fill:#412927;}
	.st484{fill:#3B2423;}
	.st485{fill:#3E2525;}
	.st486{fill:#412929;}
	.st487{fill:#3C466A;}
	.st488{fill:#374266;}
	.st489{fill:#384469;}
	.st490{fill:#1C2033;}
	.st491{fill:#23263A;}
	.st492{fill:#32313A;}
	.st493{fill:#323038;}
	.st494{fill:#3F3E44;}
	.st495{fill:#37343B;}
	.st496{fill:#3A3A45;}
	.st497{fill:#333441;}
	.st498{fill:#2B2D39;}
	.st499{fill:#3A2C26;}
	.st500{fill:#51525C;}
	.st501{fill:#807D89;}
	.st502{fill:#898C97;}
	.st503{fill:#8E8D98;}
	.st504{fill:#808A99;}
	.st505{fill:#4A5868;}
	.st506{fill:#7F868F;}
	.st507{fill:#9298A2;}
	.st508{fill:#7A808F;}
	.st509{fill:#7A7D8D;}
	.st510{fill:#A2BDCC;}
	.st511{fill:#D6B58B;}
	.st512{fill:#DABA8A;}
	.st513{fill:#B0B8C2;}
	.st514{fill:#333540;}
	.st515{fill:#999FA4;}
	.st516{fill:#332F33;}
	.st517{fill:#383337;}
	.st518{fill:#4D5364;}
	.st519{fill:#A3A5B0;}
	.st520{fill:#9A9BA8;}
	.st521{fill:#9AB3C5;}
	.st522{fill:#9195A3;}
	.st523{fill:#E9E2CA;}
	.st524{fill:#496859;}
	.st525{fill:#FCFBFA;}
	.st526{fill:#C92E2D;}
	.st527{fill:#B22224;}
	.st528{fill:#FFFEFD;}
	.st529{fill:#FFFFFC;}
	.st530{fill:#FCF8F7;}
	.st531{fill:#EAC6C2;}
	.st532{fill:#FFFEFC;}
	.st533{fill:#E03631;}
	.st534{fill:#FEFDFC;}
	.st535{fill:#FEFEFC;}
	.st536{fill:#E03831;}
	.st537{fill:#E13731;}
	.st538{fill:#E23832;}
	.st539{fill:#E13730;}
	.st540{fill:#D8302A;}
	.st541{fill:#D72F2A;}
	.st542{fill:#FEFBFA;}
	.st543{fill:#E03832;}
	.st544{fill:#FDFBFA;}
	.st545{fill:#FAF5F3;}
	.st546{fill:#EAD0CC;}
	.st547{fill:#EDCFCB;}
	.st548{fill:#FCFAF9;}
	.st549{fill:#B22D2D;}
	.st550{fill:#C72C2C;}
	.st551{fill:#C82C2C;}
	.st552{fill:#C62D2D;}
	.st553{fill:#FAF1F0;}
	.st554{fill:#AA2C2C;}
	.st555{fill:#B92627;}
	.st556{fill:#E13831;}
	.st557{fill:#18183A;}
	.st558{fill:#C3CDD6;}
	.st559{fill:#19183A;}
	.st560{fill:#1A1635;}
	.st561{fill:#181A37;}
	.st562{fill:#1A1442;}
	.st563{fill:#C3CDD7;}
	.st564{fill:#1B173A;}
	.st565{fill:#1B1736;}
	.st566{fill:#C3CDD5;}
	.st567{fill:#D7DFE3;}
	.st568{fill:#D7DFE4;}
	.st569{fill:#38B161;}
	.st570{fill:#FFFFFE;}
	.st571{fill:#28825D;}
	.st572{fill:#49B565;}
	.st573{fill:#161841;}
	.st574{fill:#7AC367;}
	.st575{fill:#45B364;}
	.st576{fill:#D7DFE5;}
	.st577{fill:#135258;}
	.st578{fill:#D4DDE3;}
	.st579{fill:#9E6B42;}
	.st580{fill:#3CB15D;}
	.st581{fill:#AA88BE;}
	.st582{fill:#B7C6CD;}
	.st583{fill:#7EC466;}
	.st584{fill:#BFCCD4;}
	.st585{fill:#EFEEEF;}
	.st586{fill:#3B3B3A;}
	.st587{fill:#373636;}
	.st588{fill:#29292E;}
	.st589{fill:#F4B247;}
	.st590{fill:#F5B545;}
	.st591{fill:#28282F;}
	.st592{fill:#383838;}
	.st593{fill:#F3B344;}
	.st594{fill:#F59932;}
	.st595{fill:#77C268;}
	.st596{fill:#7CC468;}
	.st597{fill:#ED7923;}
	.st598{fill:#48B6C9;}
	.st599{fill:#7DC467;}
	.st600{fill:#34B05F;}
	.st601{fill:#F6AB3E;}
	.st602{fill:#7AC369;}
	.st603{fill:#8169AE;}
	.st604{fill:#7F65AC;}
	.st605{fill:#7152A2;}
	.st606{fill:#7251A1;}
	.st607{fill:#7452A1;}
	.st608{fill:#FCC312;}
	.st609{fill:#F6971E;}
	.st610{fill:#FCDC50;}
	.st611{fill:#E7556A;}
	.st612{fill:#F37E84;}
	.st613{fill:#F8B089;}
	.st614{fill:#CDDAE4;}
	.st615{fill:#CDDAE3;}
	.st616{fill:#CEDBE1;}
	.st617{fill:#A1B5C2;}
	.st618{fill:#A1B6C2;}
	.st619{fill:#9FB3BF;}
	.st620{fill:#289CBF;}
	.st621{fill:#648DC8;}
	.st622{fill:#386CB4;}
	.st623{fill:#668EC9;}
	.st624{fill:#63C4D3;}
	.st625{fill:#CED5DB;}
	.st626{fill:#CFD5DC;}
	.st627{fill:#CFD5DB;}
	.st628{fill:#CFD4DB;}
	.st629{fill:#CED3DB;}
	.st630{fill:#CED4DB;}
	.st631{fill:#D1D8DE;}
	.st632{fill:#CED4DA;}
	.st633{fill:#CFD6DC;}
	.st634{fill:#CBD3DA;}
	.st635{fill:#CBD1D8;}
	.st636{fill:#CFD5DA;}
	.st637{fill:#1A183B;}
	.st638{fill:#B8C6CE;}
	.st639{fill:#0F120E;}
	.st640{fill:#E6EAEC;}
	.st641{fill:#15100D;}
	.st642{fill:#16100D;}
	.st643{fill:#0F120F;}
	.st644{fill:#13100E;}
	.st645{fill:#E5E9EB;}
	.st646{fill:#F9E8A3;}
	.st647{fill:#8AC869;}
	.st648{fill:#199F49;}
	.st649{fill:#1B9B48;}
	.st650{fill:#1D9D49;}
	.st651{fill:#EDCF74;}
	.st652{fill:#EECE71;}
	.st653{fill:#189D49;}
	.st654{fill:#208C44;}
	.st655{fill:#208B44;}
	.st656{fill:#8DC86F;}
	.st657{fill:#142516;}
	.st658{fill:#142717;}
	.st659{fill:#86C669;}
	.st660{fill:#8BC86C;}
	.st661{fill:#1B9B49;}
	.st662{fill:#1C9C49;}
	.st663{fill:#1E9E49;}
	.st664{fill:#1C9B49;}
	.st665{fill:#1B9C49;}
	.st666{fill:#FAE9A5;}
	.st667{fill:#1E9C49;}
	.st668{fill:#209C49;}
	.st669{fill:#86C66A;}
	.st670{fill:#248742;}
	.st671{fill:#248843;}
	.st672{fill:#238542;}
	.st673{fill:#258943;}
	.st674{fill:#F8CC2C;}
	.st675{fill:#F8CC2E;}
	.st676{fill:#E9A722;}
	.st677{fill:#EFAB1F;}
	.st678{fill:#EDA820;}
	.st679{fill:#90C971;}
	.st680{fill:#BE822B;}
	.st681{fill:#2F974B;}
	.st682{fill:#26A04B;}
	.st683{fill:#2C984B;}
	.st684{fill:#2D984D;}
	.st685{fill:#31944C;}
	.st686{fill:#2B964A;}
	.st687{fill:#2E964A;}
	.st688{fill:#BE802B;}
	.st689{fill:#C17E2B;}
	.st690{fill:#BD802C;}
	.st691{fill:#87C16E;}
	.st692{fill:#269B49;}
	.st693{fill:#8AC66D;}
	.st694{fill:#F5CC30;}
	.st695{fill:#F5CB2C;}
	.st696{fill:#239F4A;}
	.st697{fill:#249C49;}
	.st698{fill:#182B19;}
	.st699{fill:#BF832C;}
	.st700{fill:#BC822C;}
	.st701{fill:#89C470;}
	.st702{fill:#84C06A;}
	.st703{fill:#8DC275;}
	.st704{fill:#192E1A;}
	.st705{fill:#85BB78;}
	.st706{fill:#90C182;}
	.st707{fill:#7CB673;}
	.st708{fill:#78B473;}
	.st709{fill:#76B370;}
	.st710{fill:#EC8223;}
	.st711{fill:#ED8223;}
	.st712{fill:#EE8422;}
	.st713{fill:#EC8123;}
	.st714{fill:#ED8323;}
	.st715{fill:#F9C91B;}
	.st716{fill:#F8C81B;}
	.st717{fill:#EAC135;}
	.st718{fill:#EEC126;}
	.st719{fill:#F0C527;}
	.st720{fill:#F0A721;}
	.st721{fill:#F1A521;}
	.st722{fill:#F1A122;}
	.st723{fill:#EBBF2B;}
	.st724{fill:#F0A121;}
	.st725{fill:#F1A820;}
	.st726{fill:#F1A621;}
	.st727{fill:#F1A421;}
	.st728{fill:#D9BC5F;}
	.st729{fill:#F3C52A;}
	.st730{fill:#EF9521;}
	.st731{fill:#F09521;}
	.st732{fill:#F09421;}
	.st733{fill:#F19620;}
	.st734{fill:#EF9321;}
	.st735{fill:#F09821;}
	.st736{fill:#F19C20;}
	.st737{fill:#F7DF71;}
	.st738{fill:#F0DA67;}
	.st739{fill:#EDC123;}
	.st740{fill:#F5DE77;}
	.st741{fill:#E68925;}
	.st742{fill:#F9CE29;}
	.st743{fill:#F9CE2B;}
	.st744{fill:#F8CE25;}
	.st745{fill:#FAD22D;}
	.st746{fill:#FBD128;}
	.st747{fill:#FACF27;}
	.st748{fill:#E98A24;}
	.st749{fill:#F9CD28;}
	.st750{fill:#E88A25;}
	.st751{fill:#F9CF27;}
	.st752{fill:#EA8A24;}
	.st753{fill:#F0DA74;}
	.st754{fill:#EA8C23;}
	.st755{fill:#EA8E24;}
	.st756{fill:#EFC325;}
	.st757{fill:#EB8B24;}
	.st758{fill:#7F7763;}
	.st759{fill:#D1B759;}
	.st760{fill:#F7C82C;}
	.st761{fill:#F7C72B;}
	.st762{fill:#F8C623;}
	.st763{fill:#F3C628;}
	.st764{fill:#F5C529;}
	.st765{fill:#F6C72D;}
	.st766{fill:#FBC826;}
	.st767{fill:#F9C520;}
	.st768{fill:#F8C92B;}
	.st769{fill:#F8C82F;}
	.st770{fill:#F6C526;}
	.st771{fill:#F9CA2C;}
	.st772{fill:#D5B85B;}
	.st773{fill:#F4DD73;}
	.st774{fill:#BAA96B;}
	.st775{fill:#F5A61D;}
	.st776{fill:#D77827;}
	.st777{fill:#F6C71A;}
	.st778{fill:#EABF33;}
	.st779{fill:#F0C225;}
	.st780{fill:#F6C822;}
	.st781{fill:#EFA622;}
	.st782{fill:#F2AB20;}
	.st783{fill:#EFA621;}
	.st784{fill:#F1A321;}
	.st785{fill:#EABC2B;}
	.st786{fill:#EDC12D;}
	.st787{fill:#FAC819;}
	.st788{fill:#F19521;}
	.st789{fill:#F19721;}
	.st790{fill:#F0D96E;}
	.st791{fill:#E8CB4E;}
	.st792{fill:#F6DC70;}
	.st793{fill:#F0C525;}
	.st794{fill:#F8CE2B;}
	.st795{fill:#F9CD29;}
	.st796{fill:#F9D02E;}
	.st797{fill:#F8CD27;}
	.st798{fill:#E78924;}
	.st799{fill:#E88824;}
	.st800{fill:#E68724;}
	.st801{fill:#EA8824;}
	.st802{fill:#E4BC29;}
	.st803{fill:#F6E07E;}
	.st804{fill:#F7C830;}
	.st805{fill:#F7C82A;}
	.st806{fill:#F7C92F;}
	.st807{fill:#F6C82C;}
	.st808{fill:#F7CB30;}
	.st809{fill:#D6B752;}
	.st810{fill:#C4AE64;}
	.st811{fill:#8AC86C;}
	.st812{fill:#8BC86E;}
	.st813{fill:#193A1E;}
	.st814{fill:#18371D;}
	.st815{fill:#1E8F45;}
	.st816{fill:#229F4A;}
	.st817{fill:#249C4A;}
	.st818{fill:#209F4A;}
	.st819{fill:#28984A;}
	.st820{fill:#67AF52;}
	.st821{fill:#6BB256;}
	.st822{fill:#69AF56;}
	.st823{fill:#6CB558;}
	.st824{fill:#1A361D;}
	.st825{fill:#193A20;}
	.st826{fill:#6FA165;}
	.st827{fill:#E48B25;}
	.st828{fill:#FCCB18;}
	.st829{fill:#FBC91B;}
	.st830{fill:#E18926;}
	.st831{fill:#F69D1D;}
	.st832{fill:#FACA25;}
	.st833{fill:#F8CC23;}
	.st834{fill:#F8DA70;}
	.st835{fill:#F6DF8B;}
	.st836{fill:#F8E084;}
	.st837{fill:#FBE285;}
	.st838{fill:#F8DE7A;}
	.st839{fill:#F7CA23;}
	.st840{fill:#BC842C;}
	.st841{fill:#B8832D;}
	.st842{fill:#162918;}
	.st843{fill:#1A2B19;}
	.st844{fill:#182E1A;}
	.st845{fill:#192C19;}
	.st846{fill:#1B2C19;}
	.st847{fill:#192A19;}
	.st848{fill:#1A2E1A;}
	.st849{fill:#122716;}
	.st850{fill:#BD822C;}
	.st851{fill:#BB822C;}
	.st852{fill:#BD842C;}
	.st853{fill:#BC832C;}
	.st854{fill:#219F4A;}
	.st855{fill:#24A04A;}
	.st856{fill:#259B49;}
	.st857{fill:#78B872;}
	.st858{fill:#D87C27;}
	.st859{fill:#FCE37F;}
	.st860{fill:#D57A28;}
	.st861{fill:#FAD55C;}
	.st862{fill:#F9D55E;}
	.st863{fill:#CE7E29;}
	.st864{fill:#1B3B1F;}
	.st865{fill:#1C3D20;}
	.st866{fill:#1B3B1E;}
	.st867{fill:#1D3E20;}
	.st868{fill:#1C3C20;}
	.st869{fill:#1C3C1F;}
	.st870{fill:#1E4021;}
	.st871{fill:#1E3E20;}
	.st872{fill:#8CC86C;}
	.st873{fill:#289D4A;}
	.st874{fill:#24A149;}
	.st875{fill:#20A04A;}
	.st876{fill:#23A14A;}
	.st877{fill:#229E49;}
	.st878{fill:#193E21;}
	.st879{fill:#193C20;}
	.st880{fill:#1A3E22;}
	.st881{fill:#D47828;}
	.st882{fill:#F9E49E;}
	.st883{fill:#219F49;}
	.st884{fill:#7BB871;}
	.st885{fill:#73B56F;}
	.st886{fill:#81BA74;}
	.st887{fill:#7EB774;}
	.st888{fill:#F6A71C;}
	.st889{fill:#FACB18;}
	.st890{fill:#8AC66B;}
	.st891{fill:#8DC66D;}
	.st892{fill:#94C776;}
	.st893{fill:#94C777;}
	.st894{fill:#193A1F;}
	.st895{fill:#1B3D20;}
	.st896{fill:#193F20;}
	.st897{fill:#173E20;}
	.st898{fill:#164223;}
	.st899{fill:#2C9749;}
	.st900{fill:#8BC46D;}
	.st901{fill:#319F4B;}
	.st902{fill:#8EC56D;}
	.st903{fill:#F8A71B;}
	.st904{fill:#FAC116;}
	.st905{fill:#FAC415;}
	.st906{fill:#FBE382;}
	.st907{fill:#D37D28;}
	.st908{fill:#FAD454;}
	.st909{fill:#FAD15D;}
	.st910{fill:#1DA34A;}
	.st911{fill:#2B984A;}
	.st912{fill:#2B9849;}
	.st913{fill:#FCE483;}
	.st914{fill:#F8C717;}
	.st915{fill:#FAD971;}
	.st916{fill:#FADA71;}
	.st917{fill:#CD812B;}
	.st918{fill:#1D1F4F;}
	.st919{fill:#18234C;}
	.st920{fill:#CCD6DF;}
	.st921{fill:#CDD6DF;}
	.st922{fill:#CCD6DE;}
	.st923{fill:#CCD5DE;}
	.st924{fill:#56567A;}
	.st925{fill:#DABAD9;}
	.st926{fill:#B17DB6;}
	.st927{fill:#B37EB7;}
	.st928{fill:#B07CB6;}
	.st929{fill:#AF7AB5;}
	.st930{fill:#3A3454;}
	.st931{fill:#AE7AB5;}
	.st932{fill:#9157A0;}
	.st933{fill:#9056A0;}
	.st934{fill:#1E1E39;}
	.st935{fill:#B17BB5;}
	.st936{fill:#56557A;}
	.st937{fill:#9058A0;}
	.st938{fill:#8F56A0;}
	.st939{fill:#8F57A0;}
	.st940{fill:#9057A0;}
	.st941{fill:#B27DB6;}
	.st942{fill:#AE7BB5;}
	.st943{fill:#AF7BB5;}
	.st944{fill:#AE7CB6;}
	.st945{fill:#975EA3;}
	.st946{fill:#B37FB7;}
	.st947{fill:#965DA2;}
	.st948{fill:#985FA3;}
	.st949{fill:#9A5FA5;}
	.st950{fill:#945CA2;}
	.st951{fill:#D7B7D7;}
	.st952{fill:#D4B5D6;}
	.st953{fill:#2D2324;}
	.st954{fill:#AD79B3;}
	.st955{fill:#AC7AB4;}
	.st956{fill:#F6D36A;}
	.st957{fill:#A87AB2;}
	.st958{fill:#A776B0;}
	.st959{fill:#FBF2D7;}
	.st960{fill:#0C89A5;}
	.st961{fill:#29B3AD;}
	.st962{fill:#F9C841;}
	.st963{fill:#0B89A5;}
	.st964{fill:#1E8B90;}
	.st965{fill:#0E6883;}
	.st966{fill:#0F6573;}
	.st967{fill:#1187A4;}
	.st968{fill:#1288A4;}
	.st969{fill:#0F8AA5;}
	.st970{fill:#0F88A4;}
	.st971{fill:#39B2AF;}
	.st972{fill:#1B7D84;}
	.st973{fill:#5CC5DD;}
	.st974{fill:#0E6573;}
	.st975{fill:#F9E292;}
	.st976{fill:#157393;}
	.st977{fill:#158D96;}
	.st978{fill:#B0B3B3;}
	.st979{fill:#30B0AD;}
	.st980{fill:#B0B3B4;}
	.st981{fill:#85CDC5;}
	.st982{fill:#1187A2;}
	.st983{fill:#8BCFC7;}
	.st984{fill:#8ACEC6;}
	.st985{fill:#8ECFC5;}
	.st986{fill:#89CEC6;}
	.st987{fill:#8CCFC5;}
	.st988{fill:#8BCFC6;}
	.st989{fill:#35B0AE;}
	.st990{fill:#35AEAD;}
	.st991{fill:#35B0AD;}
	.st992{fill:#34AFAD;}
	.st993{fill:#32AFAC;}
	.st994{fill:#34B1AE;}
	.st995{fill:#1388A3;}
	.st996{fill:#F8F7F8;}
	.st997{fill:#0E6983;}
	.st998{fill:#DE9D3A;}
	.st999{fill:#322523;}
	.st1000{fill:#E5CB7E;}
	.st1001{fill:#0F6881;}
	.st1002{fill:#176876;}
	.st1003{fill:#166875;}
	.st1004{fill:#186D7A;}
	.st1005{fill:#176A77;}
	.st1006{fill:#176978;}
	.st1007{fill:#176E7B;}
	.st1008{fill:#176B7B;}
	.st1009{fill:#CA9958;}
	.st1010{fill:#116A85;}
	.st1011{fill:#8CCAC7;}
	.st1012{fill:#6689A1;}
	.st1013{fill:#985EA3;}
	.st1014{fill:#9A60A6;}
	.st1015{fill:#EEAD32;}
	.st1016{fill:#EFB033;}
	.st1017{fill:#EDAB31;}
	.st1018{fill:#FADC7A;}
	.st1019{fill:#E7A12C;}
	.st1020{fill:#F9DD7A;}
	.st1021{fill:#F3BB39;}
	.st1022{fill:#FADB79;}
	.st1023{fill:#E7A12F;}
	.st1024{fill:#F3BD3C;}
	.st1025{fill:#E49E2F;}
	.st1026{fill:#F8DA7D;}
	.st1027{fill:#E49F31;}
	.st1028{fill:#E39D35;}
	.st1029{fill:#ECB13E;}
	.st1030{fill:#172349;}
	.st1031{fill:#B0B4B5;}
	.st1032{fill:#B0B4B4;}
	.st1033{fill:#B2B4B4;}
	.st1034{fill:#B2B6B5;}
	.st1035{fill:#B1B4B5;}
	.st1036{fill:#B1B5B6;}
	.st1037{fill:#AFB3B3;}
	.st1038{fill:#B0B2B3;}
	.st1039{fill:#1D264F;}
	.st1040{fill:#1E254F;}
	.st1041{fill:#1E264F;}
	.st1042{fill:#1E2651;}
	.st1043{fill:#1D254F;}
	.st1044{fill:#ABAFB1;}
	.st1045{fill:#E6ECF1;}
	.st1046{fill:#E7EDF2;}
	.st1047{fill:#1B263A;}
	.st1048{fill:#116985;}
	.st1049{fill:#281F1F;}
	.st1050{fill:#E6ECEF;}
	.st1051{fill:#0F88A5;}
	.st1052{fill:#E5EAEE;}
	.st1053{fill:#1187A3;}
	.st1054{fill:#0F88A3;}
	.st1055{fill:#E4EBEF;}
	.st1056{fill:#0F87A2;}
	.st1057{fill:#1287A3;}
	.st1058{fill:#1A243C;}
	.st1059{fill:#E3EAEE;}
	.st1060{fill:#106B86;}
	.st1061{fill:#222852;}
	.st1062{fill:#292E59;}
	.st1063{fill:#2A3059;}
	.st1064{fill:#44B75E;}
	.st1065{fill:#2A2F5A;}
	.st1066{fill:#272F5B;}
	.st1067{fill:#272E56;}
	.st1068{fill:#292D59;}
	.st1069{fill:#252A56;}
	.st1070{fill:#292C5B;}
	.st1071{fill:#808498;}
	.st1072{fill:#282D56;}
	.st1073{fill:#2B315B;}
	.st1074{fill:#2A2F5B;}
	.st1075{fill:#2C2F5F;}
	.st1076{fill:#292F58;}
	.st1077{fill:#2B305B;}
	.st1078{fill:#2A3058;}
	.st1079{fill:#252B56;}
	.st1080{fill:#2C2E5A;}
	.st1081{fill:#242C57;}
	.st1082{fill:#282D5B;}
	.st1083{fill:#2D325D;}
	.st1084{fill:#2B2F5E;}
	.st1085{fill:#2D315D;}
	.st1086{fill:#2A325A;}
	.st1087{fill:#252D54;}
	.st1088{fill:#232A55;}
	.st1089{fill:#1188A5;}
	.st1090{fill:#F4C552;}
	.st1091{fill:#71562B;}
	.st1092{fill:#755A30;}
	.st1093{fill:#EDC058;}
	.st1094{fill:#EEBF55;}
	.st1095{fill:#EDC25B;}
	.st1096{fill:#EFC258;}
	.st1097{fill:#EDC157;}
	.st1098{fill:#F1C157;}
	.st1099{fill:#F1B132;}
	.st1100{fill:#E29D30;}
	.st1101{fill:#F8C542;}
	.st1102{fill:#E69E33;}
	.st1103{fill:#271F20;}
	.st1104{fill:#FAC83F;}
	.st1105{fill:#F8E295;}
	.st1106{fill:#F5DF94;}
	.st1107{fill:#F2DB93;}
	.st1108{fill:#030403;}
	.st1109{fill:#111111;}
	.st1110{fill:#010101;}
	.st1111{fill:#D4D4D4;}
	.st1112{fill:#F9F7F7;}
	.st1113{fill:#D5D6D7;}
	.st1114{fill:#FBFBFB;}
	.st1115{fill:#EAEDEE;}
	.st1116{fill:#F7F5F5;}
	.st1117{fill:#F5F3F3;}
	.st1118{fill:#F0EFEE;}
	.st1119{fill:#DDE1E4;}
	.st1120{fill:#EDEBEB;}
	.st1121{fill:#DFDDDD;}
	.st1122{fill:#DCDFE1;}
	.st1123{fill:#DAD8D8;}
	.st1124{fill:#DDDBDC;}
	.st1125{fill:#DBDEE1;}
	.st1126{fill:#E8E9EA;}
	.st1127{fill:#FBFAF9;}
	.st1128{fill:#FAF8F8;}
	.st1129{fill:#D2D1D0;}
	.st1130{fill:#D2D2D2;}
	.st1131{fill:#F8F6F6;}
	.st1132{fill:#F4F3F3;}
	.st1133{fill:#F4F2F2;}
	.st1134{fill:#2F2A29;}
	.st1135{fill:#EEEEEF;}
	.st1136{fill:#D0CECD;}
	.st1137{fill:#EFECEC;}
	.st1138{fill:#312C2C;}
	.st1139{fill:#F8F6F5;}
	.st1140{fill:#E9E9EA;}
	.st1141{fill:#E2E4E6;}
	.st1142{fill:#EBEAEB;}
	.st1143{fill:#434040;}
	.st1144{fill:#CBCAC9;}
	.st1145{fill:#BCBFC1;}
	.st1146{fill:#BEBEC0;}
	.st1147{fill:#A4A2A3;}
	.st1148{fill:#5C5756;}
	.st1149{fill:#595859;}
	.st1150{fill:#727477;}
	.st1151{fill:#BDBFC2;}
	.st1152{fill:#D4D5D7;}
	.st1153{fill:#C0BDBE;}
	.st1154{fill:#BFC2C4;}
	.st1155{fill:#BEC5C9;}
	.st1156{fill:#CFD4D8;}
	.st1157{fill:#DBDDDF;}
	.st1158{fill:#CFD0D3;}
	.st1159{fill:#D7E1E6;}
	.st1160{fill:#D4DADE;}
	.st1161{fill:#2F2D2D;}
	.st1162{fill:#3A3637;}
	.st1163{fill:#151313;}
	.st1164{fill:#444241;}
	.st1165{fill:#4B4747;}
	.st1166{fill:#434241;}
	.st1167{fill:#4E4C4C;}
	.st1168{fill:#434141;}
	.st1169{fill:#494645;}
	.st1170{fill:#5E5C5C;}
	.st1171{fill:#4D4B4A;}
	.st1172{fill:#504D4D;}
	.st1173{fill:#443F3E;}
	.st1174{fill:#474242;}
	.st1175{fill:#454040;}
	.st1176{fill:#444040;}
	.st1177{fill:#464241;}
	.st1178{fill:#453F3E;}
	.st1179{fill:#464140;}
	.st1180{fill:#433F3F;}
	.st1181{fill:#433F3E;}
	.st1182{fill:#44403F;}
	.st1183{fill:#3E3736;}
	.st1184{fill:#3A3534;}
	.st1185{fill:#404243;}
	.st1186{fill:#424142;}
	.st1187{fill:#020202;}
	.st1188{fill:#050505;}
	.st1189{fill:#090909;}
	.st1190{fill:#0B0B0B;}
	.st1191{fill:#2A2728;}
	.st1192{fill:#272424;}
	.st1193{fill:#2A2525;}
	.st1194{fill:#2E2A29;}
	.st1195{fill:#322C2B;}
	.st1196{fill:#2F2B2A;}
	.st1197{fill:#35302F;}
	.st1198{fill:#363131;}
	.st1199{fill:#34302F;}
	.st1200{fill:#352F2E;}
	.st1201{fill:#312D2C;}
	.st1202{fill:#393433;}
	.st1203{fill:#322D2D;}
	.st1204{fill:#363231;}
	.st1205{fill:#332D2C;}
	.st1206{fill:#353130;}
	.st1207{fill:#332E2D;}
	.st1208{fill:#383333;}
	.st1209{fill:#363030;}
	.st1210{fill:#342F2E;}
	.st1211{fill:#3A3434;}
	.st1212{fill:#373231;}
	.st1213{fill:#373332;}
	.st1214{fill:#3A3635;}
	.st1215{fill:#3C3737;}
	.st1216{fill:#423C3B;}
	.st1217{fill:#2D2B2D;}
	.st1218{fill:#2B2626;}
	.st1219{fill:#2D2828;}
	.st1220{fill:#322D2C;}
	.st1221{fill:#413D3D;}
	.st1222{fill:#423D3C;}
	.st1223{fill:#403B3B;}
	.st1224{fill:#433D3D;}
	.st1225{fill:#211E1E;}
	.st1226{fill:#373232;}
	.st1227{fill:#3C3636;}
	.st1228{fill:#494646;}
	.st1229{fill:#3B3635;}
	.st1230{fill:#332F2E;}
	.st1231{fill:#2B292A;}
	.st1232{fill:#D7D8D7;}
	.st1233{fill:#070707;}
	.st1234{fill:#0F0F10;}
	.st1235{fill:#827E7F;}
	.st1236{fill:#141313;}
	.st1237{fill:#FEFEFD;}
	.st1238{fill:#FFFEFE;}
	.st1239{fill:#F9F8F7;}
	.st1240{fill:#F6F5F4;}
	.st1241{fill:#F6F4F4;}
	.st1242{fill:#201F1F;}
	.st1243{fill:#1F1E1E;}
	.st1244{fill:#252323;}
	.st1245{fill:#212020;}
	.st1246{fill:#FBFBFA;}
	.st1247{fill:#242323;}
	.st1248{fill:#2A2929;}
	.st1249{fill:#151414;}
	.st1250{fill:#100F0E;}
	.st1251{fill:#1B1919;}
	.st1252{fill:#111010;}
	.st1253{fill:#1F1C1D;}
	.st1254{fill:#252222;}
	.st1255{fill:#232121;}
	.st1256{fill:#0E0E0D;}
	.st1257{fill:#C2C5C7;}
	.st1258{fill:#8D9497;}
	.st1259{fill:#EDEEEF;}
	.st1260{fill:#1A1818;}
	.st1261{fill:#1A1817;}
	.st1262{fill:#1C1919;}
	.st1263{fill:#1C1A19;}
	.st1264{fill:#1D1A1A;}
	.st1265{fill:#232020;}
	.st1266{fill:#1C1A1A;}
	.st1267{fill:#1E1B1B;}
	.st1268{fill:#1D1B1B;}
	.st1269{fill:#1E1C1C;}
	.st1270{fill:#1F1D1D;}
	.st1271{fill:#201E1E;}
	.st1272{fill:#1E1C1B;}
	.st1273{fill:#201D1D;}
	.st1274{fill:#221F1F;}
	.st1275{fill:#242121;}
	.st1276{fill:#3F3533;}
	.st1277{fill:#222222;}
	.st1278{fill:#191717;}
	.st1279{fill:#F3F2F3;}
	.st1280{fill:#0E0E0E;}
	.st1281{fill:#030303;}
	.st1282{fill:#080808;}
	.st1283{fill:#171515;}
	.st1284{fill:#1E1918;}
	.st1285{fill:#141211;}
	.st1286{fill:#0C0C0C;}
	.st1287{fill:#100F0F;}
	.st1288{fill:#D8D9DB;}
	.st1289{fill:#E6E5E5;}
	.st1290{fill:#D9D7D7;}
	.st1291{fill:#2D2A2A;}
	.st1292{fill:#161617;}
	.st1293{fill:#312A29;}
	.st1294{fill:#231E1D;}
	.st1295{fill:#3B3533;}
	.st1296{fill:#131313;}
	.st1297{fill:#0F0D0D;}
	.st1298{fill:#141212;}
	.st1299{fill:#FBF9F9;}
	.st1300{fill:#EEEDED;}
	.st1301{fill:#2A2828;}
	.st1302{fill:#DEDCDC;}
	.st1303{fill:#E8E6E7;}
	.st1304{fill:#D0CFD0;}
	.st1305{fill:#F4F4F4;}
	.st1306{fill:#D6D7D8;}
	.st1307{fill:#EDEDED;}
	.st1308{fill:#EBECED;}
	.st1309{fill:#020303;}
	.st1310{fill:#E0E0E0;}
	.st1311{fill:#F2F1F1;}
	.st1312{fill:#F5F7F8;}
	.st1313{fill:#B8B7B8;}
	.st1314{fill:#E2E3E4;}
	.st1315{fill:#D3D9DC;}
	.st1316{fill:#BCBCBC;}
	.st1317{fill:#F2F5F6;}
	.st1318{fill:#B3B2B3;}
	.st1319{fill:#979392;}
	.st1320{fill:#BFC1C3;}
	.st1321{fill:#AAADB1;}
	.st1322{fill:#BDC0C3;}
	.st1323{fill:#AFB6BB;}
	.st1324{fill:#D0DCE3;}
	.st1325{fill:#D9E8F0;}
	.st1326{fill:#EEEEEE;}
	.st1327{fill:#EFEDED;}
	.st1328{fill:#A7A4A5;}
	.st1329{fill:#211F1F;}
	.st1330{fill:#2D2929;}
	.st1331{fill:#302D2D;}
	.st1332{fill:#292828;}
	.st1333{fill:#2D2B2B;}
	.st1334{fill:#2E2D2D;}
	.st1335{fill:#1F1C1C;}
	.st1336{fill:#1D1C1C;}
	.st1337{fill:#1D1B1C;}
	.st1338{fill:#292524;}
	.st1339{fill:#201F1E;}
	.st1340{fill:#222121;}
	.st1341{fill:#262525;}
	.st1342{fill:#282626;}
	.st1343{fill:#302C2C;}
	.st1344{fill:#272524;}
	.st1345{fill:#151415;}
	.st1346{fill:#1C1B1C;}
	.st1347{fill:#262424;}
	.st1348{fill:#242120;}
	.st1349{fill:#232222;}
	.st1350{fill:#ECEAE9;}
	.st1351{fill:#131212;}
	.st1352{fill:#1A1919;}
	.st1353{fill:#1B1A19;}
	.st1354{fill:#242424;}
	.st1355{fill:#F9F9F9;}
	.st1356{fill:#EFEDEE;}
	.st1357{fill:#E5E5E5;}
	.st1358{fill:#E6E7E8;}
	.st1359{fill:#E3E3E3;}
	.st1360{fill:#E5E4E4;}
	.st1361{fill:#DEDEDE;}
	.st1362{fill:#D7DCDE;}
	.st1363{fill:#191819;}
	.st1364{fill:#171616;}
	.st1365{fill:#1F1B1B;}
	.st1366{fill:#1F1E1D;}
	.st1367{fill:#FEFDFB;}
	.st1368{fill:#151213;}
	.st1369{fill:#FDFBFB;}
	.st1370{fill:#524B49;}
	.st1371{fill:#E5E3E2;}
	.st1372{fill:#35302E;}
	.st1373{fill:#DCDADB;}
	.st1374{fill:#040403;}
	.st1375{fill:#F8FAFB;}
	.st1376{fill:#F1F0F0;}
	.st1377{fill:#F9F9F8;}
	.st1378{fill:#93AFBA;}
	.st1379{fill:#F2F3F4;}
	.st1380{fill:#F5F4F5;}
	.st1381{fill:#413A39;}
	.st1382{fill:#332C29;}
	.st1383{fill:#5F5959;}
	.st1384{fill:#4D4543;}
	.st1385{fill:#433E3E;}
	.st1386{fill:#E7E5E4;}
	.st1387{fill:#E8E6E5;}
	.st1388{fill:#433635;}
	.st1389{fill:#AFABAA;}
	.st1390{fill:#5B5453;}
	.st1391{fill:#F3F2F1;}
	.st1392{fill:#F3F1F0;}
	.st1393{fill:#B9B5B4;}
	.st1394{fill:#F1F1F0;}
	.st1395{fill:#F8F9F9;}
	.st1396{fill:#EFEEED;}
	.st1397{fill:#362622;}
	.st1398{fill:#EAE8E8;}
	.st1399{fill:#F1EFEF;}
	.st1400{fill:#E7E7E7;}
	.st1401{fill:#F1F2F2;}
	.st1402{fill:#E7E8E9;}
	.st1403{fill:#EFF2F3;}
	.st1404{fill:#E4E2E1;}
	.st1405{fill:#F8F9FA;}
	.st1406{fill:#EDEAE8;}
	.st1407{fill:#F3F2F2;}
	.st1408{fill:#ECEBEB;}
	.st1409{fill:#E9EAEA;}
	.st1410{fill:#F2F2F1;}
	.st1411{fill:#ECECEC;}
	.st1412{fill:#E0DEDD;}
	.st1413{fill:#F6F3F1;}
	.st1414{fill:#E3E1E0;}
	.st1415{fill:#DBD9D8;}
	.st1416{fill:#FCFBF9;}
	.st1417{fill:#F4EFED;}
	.st1418{fill:#FBF9F8;}
	.st1419{fill:#E8E3E0;}
	.st1420{fill:#F0F5F8;}
	.st1421{fill:#E4E5E5;}
	.st1422{fill:#F9F9FA;}
	.st1423{fill:#45403F;}
	.st1424{fill:#47413F;}
	.st1425{fill:#EBF3F7;}
	.st1426{fill:#473E3C;}
	.st1427{fill:#EEF2F4;}
	.st1428{fill:#D7DADB;}
	.st1429{fill:#4D413F;}
	.st1430{fill:#504442;}
	.st1431{fill:#D1D1D0;}
	.st1432{fill:#B1AEAD;}
	.st1433{fill:#D2DFE6;}
	.st1434{fill:#E6E9E9;}
	.st1435{fill:#5B5251;}
	.st1436{fill:#514B4A;}
	.st1437{fill:#332E2E;}
	.st1438{fill:#342B2B;}
	.st1439{fill:#857D7B;}
	.st1440{fill:#4B4746;}
	.st1441{fill:#494544;}
	.st1442{fill:#565150;}
	.st1443{fill:#343130;}
	.st1444{fill:#4F4947;}
	.st1445{fill:#F0EEEE;}
	.st1446{fill:#2F2B2B;}
	.st1447{fill:#EBE9E9;}
	.st1448{fill:#F6F4F3;}
	.st1449{fill:#E9E7E6;}
	.st1450{fill:#EEEBEA;}
	.st1451{fill:#EAEBEB;}
	.st1452{fill:#EBE8E8;}
	.st1453{fill:#D1CFCF;}
	.st1454{fill:#D4D2D2;}
	.st1455{fill:#CECDCD;}
	.st1456{fill:#615C5A;}
	.st1457{fill:#F3F6F7;}
	.st1458{fill:#FAFBFC;}
	.st1459{fill:#F0F1F2;}
	.st1460{fill:#4D4544;}
	.st1461{fill:#D7D6D6;}
	.st1462{fill:#D5D3D3;}
	.st1463{fill:#F1F0EF;}
	.st1464{fill:#F6F7F8;}
	.st1465{fill:#F5F6F7;}
	.st1466{fill:#564643;}
	.st1467{fill:#F9FAFA;}
	.st1468{fill:#312F2F;}
	.st1469{fill:#F5F6F6;}
	.st1470{fill:#EBEBEC;}
	.st1471{fill:#EFF0F0;}
	.st1472{fill:#554946;}
	.st1473{fill:#E5E1E0;}
	.st1474{fill:#E8E8E9;}
	.st1475{fill:#F6F6F7;}
	.st1476{fill:#E4E5E6;}
	.st1477{fill:#302E2E;}
	.st1478{fill:#494443;}
	.st1479{fill:#4D4746;}
	.st1480{fill:#2F2726;}
	.st1481{fill:#282422;}
	.st1482{fill:#3C3938;}
	.st1483{fill:#2D2626;}
	.st1484{fill:#5A5555;}
	.st1485{fill:#625351;}
	.st1486{fill:#666161;}
	.st1487{fill:#544E4D;}
	.st1488{fill:#5A5454;}
	.st1489{fill:#3E3737;}
	.st1490{fill:#403B3A;}
	.st1491{fill:#302B2B;}
	.st1492{fill:#423A39;}
	.st1493{fill:#403837;}
	.st1494{fill:#574D4B;}
	.st1495{fill:#1D1919;}
	.st1496{fill:#4E4F50;}
	.st1497{fill:#281B17;}
	.st1498{fill:#8A7A77;}
	.st1499{fill:#413B3A;}
	.st1500{fill:#403A3A;}
	.st1501{fill:#282424;}
	.st1502{fill:#29292A;}
	.st1503{fill:#524642;}
	.st1504{fill:#554B48;}
	.st1505{fill:#5A4C49;}
	.st1506{fill:#52413E;}
	.st1507{fill:#444242;}
	.st1508{fill:#1C1615;}
	.st1509{fill:#675651;}
	.st1510{fill:#201919;}
	.st1511{fill:#32211E;}
	.st1512{fill:#4E4948;}
	.st1513{fill:#4E4A4A;}
	.st1514{fill:#514948;}
	.st1515{fill:#4A3F3D;}
	.st1516{fill:#4B3D3A;}
	.st1517{fill:#444142;}
	.st1518{fill:#4F4848;}
	.st1519{fill:#4E4949;}
	.st1520{fill:#4C4746;}
	.st1521{fill:#535557;}
	.st1522{fill:#251C19;}
	.st1523{fill:#493E3B;}
	.st1524{fill:#9C847C;}
	.st1525{fill:#4C4544;}
	.st1526{fill:#1E1A1B;}
	.st1527{fill:#221E1D;}
	.st1528{fill:#554744;}
	.st1529{fill:#221816;}
	.st1530{fill:#1C1718;}
	.st1531{fill:#1C1312;}
	.st1532{fill:#454141;}
	.st1533{fill:#463D3B;}
	.st1534{fill:#2C1D1A;}
	.st1535{fill:#261D1B;}
	.st1536{fill:#221614;}
	.st1537{fill:#494241;}
	.st1538{fill:#4C3F3D;}
	.st1539{fill:#252020;}
	.st1540{fill:#464748;}
	.st1541{fill:#FBFCFC;}
	.st1542{fill:#363230;}
	.st1543{fill:#F6F9FA;}
	.st1544{fill:#F0EEED;}
	.st1545{fill:#565556;}
	.st1546{fill:#281814;}
	.st1547{fill:#ECEBEA;}
	.st1548{fill:#F9FBFC;}
	.st1549{fill:#5C4A46;}
	.st1550{fill:none;}
</style>
<g>
	<path class="st1127" d="M467.13,478.04c0-159.47,0-318.72,0-478.04C311.42,0,155.71,0,0,0c0,159.34,0,318.69,0,478.04
		C155.7,478.04,311.39,478.04,467.13,478.04z"/>
	<path class="st1281" d="M127.79,288.61c-4.03,0.46-7.19,2.57-9.75,5.52c-8.73,10.07-7.6,23.17-0.16,32.78
		c2.46,3.17,5.45,5.8,8.7,8.18c9.69,7.08,19.96,13.17,30.76,18.39c0.63,0.31,1.23,0.68,2.17,1.2c-1.97,0.51-3.66,0.43-5.34,0.38
		c-6.07-0.2-12.07-1.1-18.06-2.03c-5.5-0.86-10.92-0.81-16.26,1.21c-8.47,3.21-11.18,10.59-10.52,17.43
		c0.76,7.93,5.6,13.37,13.67,15.68c5.4,1.55,10.89,1.47,16.39,0.79c8-1,16.01-1.91,24.07-2.26c4.6-0.2,8.79-1.48,12.95-3.67
		c3.83-2.02,7.78-3.98,11.93-5.4c0.9-0.31,1.43-0.12,2.03,0.57c0.67,0.78,1.46,1.48,2.26,2.13c1.27,1.02,2.57,1.29,4.21,0.57
		c3.49-1.55,7.08-2.88,10.6-4.36c0.96-0.4,1.73-0.42,2.71,0.01c2.85,1.24,5.78,2.27,8.65,3.47c2.23,0.93,4.11,0.48,5.53-1.39
		c0.7-0.93,1.3-0.89,2.2-0.48c1.3,0.6,2.62,1.16,3.98,1.62c1.6,0.54,3.04,1.12,3.93,2.77c0.61,1.13,1.87,1.72,3.05,2.22
		c1.75,0.75,3.53,1.46,5.32,2.13c3.31,1.25,6.33,3.02,9.24,4.98c4.34,2.91,9.25,3.77,14.32,3.88c3.19,0.07,4.59-1.22,5.22-4.44
		c0.67-3.46,0.77-6.98,0.8-10.5c0.03-2.76,0.01-5.53,0.01-8.54c3.53,1.2,6.79,2.19,10.17,2.7c12.85,1.93,24.65-0.24,34.62-9.13
		c4.91-4.38,7.86-9.96,9.26-16.38c0.41-3.1,0.86-6.2,1.43-9.28c0.32-1.72-0.76-3.23-0.83-4.89c-1.08-4.66-3.7-8.62-5.86-12.78
		c-3.35-6.45-7.46-12.43-11.47-18.48c-0.32-0.65-0.52-1.37-1.01-1.93c-2.98-2.3-5.05-5.47-7.95-7.89
		c-9.48-7.91-22.36-9.16-33.01-2.89c-1.03,0.61-2.16,1.03-3.17,1.66c-1.84,3.08-5.03,4.55-7.91,6.26c-1.61,0.96-3.36,1.75-4.95,2.8
		c-2.94,2.31-6.4,3.04-9.99,3.59c-4.5,0.68-9.01,1.32-13.44,2.32c-8.09,1.84-16.15,1.29-24.26,0.24c-15.98-2.05-32-3.82-48-5.64
		c-3.88-0.44-7.79-0.69-11.61-1.56c-1.21-0.13-2.03-0.56-1.97-2.02c0.04-0.94-0.4-1.8-0.84-2.63c-0.21-0.3-0.48-0.51-0.8-0.66
		c-0.45-0.26-0.98-0.26-1.22-0.95c-0.88-2.58-1.96-3.38-4.73-2.97c-1.88,0.28-3.2-0.16-4.35-1.58
		C129.78,288.54,128.94,287.97,127.79,288.61z"/>
	<path class="st1287" d="M308.63,301.61c-0.08,0.71,0.19,1.33,0.52,1.93c3.01,0.93,6.13,1.18,9.2,0.93
		c2.63-0.22,5.27-0.14,7.89-0.43c1.42-0.16,1.85,0.55,1.96,1.76c0.2,2.24-0.06,4.47-0.24,6.69c-0.13,1.62-0.04,3.19,0.26,4.76
		c1.85,9.43,1.86,9.43,0.02,18.97c-0.6-0.81-0.6-2.03-1.8-2.2c-0.05,0.64-0.23,1.34,0.13,1.88c1.36,2.07,0,4.37,0.59,6.49
		c-1.32,1.96-0.65,4.16-0.75,6.27c0.92-1.91,0.94-4.01,1.27-6.04c0.14-0.9,0.28-1.63,1.09-2.22c1.44-1.06,1.87-2.75,2.28-4.37
		c0.82-3.25,1.16-6.6,1.5-9.93c0.22-2.17-0.11-4.31-0.89-6.35c-1.09-2.83-1.36-5.72-0.92-8.7c0.34-2.3,0.48-4.61,0.04-6.91
		c-0.25-1.31,0.24-1.82,1.46-2.16c4.05-1.11,7.17-3.43,8.87-7.37c0.83-1.91,1.32-3.91,1.62-5.97c0.71-5.03,0.31-10.04-0.26-15.04
		c-0.93-8.24-2.4-16.4-4.3-24.47c-0.27-1.15,0.06-1.61,0.95-2.04c3.14-1.53,3.22-1.66,2.12-5.16c-3.62-11.47-7.67-22.79-12.68-33.73
		c-1.09-2.39-2.38-4.69-3.66-6.98c-3.87-6.9-9.38-11.92-16.68-15.15c-7.89-3.48-16.09-5.93-24.38-8.18c-1.84-0.5-3.71-0.92-5.53-1.5
		c-2.41-0.76-4.01-2.54-5.29-4.61c-2.29-3.7-3.72-7.75-4.61-11.99c-0.49-2.33-0.93-4.69-0.96-7.23c4.98-0.84,7.8-3.99,8.8-8.77
		c0.69-3.29,0.42-6.57-1.72-9.34c-0.7-0.91-0.61-1.68-0.36-2.6c-1.91-0.41-3.8,0.17-5.72,0.06c-0.63-0.04-1.12,0.5-1.18,1.23
		c0.25,0.48,0.73,0.57,1.19,0.7c3.44,0.95,5.15,2.87,5.41,6.4c0.21,2.91-0.71,5.53-2.69,7.7c-1.32,1.45-3.02,1.89-5,1.72
		c-2.22-0.2-2.76,0.66-1.86,2.66c0.81,1.79,0.66,3.75,1,5.62c0.8,4.51,2.01,8.86,4.11,12.95c1.3,2.53,2.89,4.82,5.18,6.49
		c1.43,1.04,1.47,2.03,0.69,3.44c-4.49,8.17-11.25,13.32-20.34,15.39c-1.57,0.36-3.18,0.29-4.77,0.03
		c-3.37-0.56-5.21-2.34-5.95-5.69c-0.17-0.78-0.24-1.58-0.44-2.47c0.07,0.14,0.1,0.17,0.1,0.2c0.3,1.21,0.38,2.92,2.14,2.51
		c1.74-0.4,1.14-1.97,0.86-3.21c-0.4-1.79-1.7-3.6-1.25-5.28c0.49-1.82,2.96-1.85,4.45-2.86c5.63-3.79,10.07-8.56,12.83-14.82
		c0.16-0.37,0.34-0.73,0.43-1.12c0.24-0.99,0.29-2.02-0.79-2.49c-1.22-0.53-1.73,0.48-2.11,1.36c-1.89,4.32-4.66,7.97-8.11,11.15
		c-3.55,3.28-7.56,5.61-12.46,6.08c-5.13,0.48-8.86-2.22-12.13-5.66c-5.08-5.34-8.09-11.82-9.79-18.93
		c-0.79-3.34-1.6-6.67-2.3-10.03c-0.55-2.65,0.28-3.86,2.99-4.29c0.87-0.14,1.76-0.05,2.63-0.14c0.92-0.1,1.79-0.33,1.84-1.47
		c0.05-1.09-0.74-1.51-1.62-1.79c-1.87-0.61-3.71-0.22-5.35,0.62c-1.79,0.92-2.13,0.22-2.33-1.39c-0.29-2.37-0.51-4.74-0.59-7.12
		c-0.78-0.43-1.18,0.01-1.47,0.67c-0.19,0.44-0.25,0.94-0.48,1.35c-0.6,1.06-0.2,2.62-1.11,3.32c-1.01,0.78-1.91-0.88-3.04-0.78
		c-0.24,0.02-0.46,0.09-0.64,0.27c0.47,1.89,1.69,3.04,3.56,3.44c1.13,0.24,1.46,0.9,1.68,1.96c1.31,6.32,2.66,12.65,4.39,18.87
		c2.16,7.8,6.22,14.46,12.37,19.81c3.23,2.81,6.89,4.24,11.2,3.9c0.64-0.05,1.28-0.02,1.92-0.08c0.59-0.05,0.86,0.25,1.05,0.74
		c0.23,0.6-0.12,0.92-0.57,1.13c-1.08,0.52-2.17,0.99-3.26,1.48c-4.74,2.1-9.23,4.66-13.74,7.21c-7.07,4-11.75,9.85-14.36,17.52
		c-2.96,8.69-4.98,17.63-7.1,26.54c-0.76,3.18-1.51,6.36-2.25,9.55c-0.71,3.06-0.57,3.41,1.99,5.17c0.46,0.32,0.92,0.63,1.41,0.9
		c0.56,0.3,0.82,0.71,0.7,1.35c-0.68,3.65-1.25,7.33-2.64,10.95c-1.2-2.97-2.41-5.95-3.59-8.92c-2.27-5.7-4.56-11.39-6.76-17.11
		c-1.34-3.49-3.8-5.02-7.49-5.19c-5.82-0.27-11.63-0.8-17.44-1.2c-5.89-0.4-11.79-0.75-17.69-1.16c-6.05-0.41-12.1-0.86-18.15-1.29
		c-4.7-0.33-9.4-0.68-14.1-0.94c-3.69-0.2-5.59,2.56-4.17,6.01c4.08,9.96,8.18,19.91,12.27,29.87c0.77,1.87,0.76,1.87-0.85,3.2
		c-2.48,2.06-2.91,4.65-1.03,7.14c0.48,0.65,0.69,1.14,0.47,1.92c-0.54,1.94-0.05,3.65,1.52,4.95c0.56,0.47,0.64,1,0.67,1.67
		c0.08,1.47,0.52,2.82,1.75,3.78c1.18,0.92-0.38,0.77-0.46,1.2c1.07-0.08,1.75,0.46,2.36,1.3c1.02,1.42,2.2,2.29,4.19,1.68
		c1.16-0.35,2.53-0.3,3.68,0.46c0.6,0.4,1.17,0.77,0.93,1.7c-0.43,1.66,0.74,1.59,1.82,1.56c-0.1-1.7,0.31-3.14,1.36-4.61
		c1.22-1.71,1.07-4.26,0.84-5.97c-0.45-3.27,0.54-7.44-3.48-9.53c-0.43-0.22-0.73-0.65-0.86-1.12c-0.79-2.95-3.04-4.22-5.75-4.77
		c-2.06-0.42-3.08-1.62-3.82-3.49c-4.09-10.32-8.3-20.59-12.52-30.86c-1.05-2.56-0.67-3.27,2.06-3.18c6.06,0.21,12.1,0.7,18.15,1.12
		c5.81,0.4,11.62,0.8,17.43,1.22c8.67,0.62,17.36,0.97,26.02,1.82c1.6,0.16,3.19,0.06,4.79,0.19c2.37,0.2,4.01,1.29,4.91,3.57
		c8.06,20.26,16.31,40.45,24.21,60.77c1.09,2.81,0.66,3.28-2.27,2.97c-20.01-2.13-40-4.43-59.98-6.76c-3.17-0.37-6.37-0.49-9.5-1.17
		c-0.4-0.09-0.79-0.01-1.13,0.26c0.13,1.14,0.76,2.14,0.61,3.39c-0.11,0.88,0.65,1.56,1.74,1.45c0.63-1.14,1.67-1.02,2.73-0.91
		c11.2,1.11,22.37,2.56,33.56,3.75c10.56,1.12,21.09,2.5,31.65,3.54c4.98,0.49,9.88-0.29,14.76-1.13
		c8.42-1.46,16.88-2.62,25.26-4.31c0.32-0.06,0.63-0.08,0.95,0.01c1.26-1.05,2.54-2.02,4.23-2.39c1.42-0.31,2.36-1.54,3.53-2.33
		c0.78-0.53,1.49-1.17,2.38-1.53c1.36-0.54,1.92-1.56,1.9-2.97c-1.67-1.87-3.93-1.84-5.89-1.16c-5.28,1.83-10.14,1.18-14.99-1.37
		c-3.17-1.66-6.33-0.96-9.36,0.75c-2.91,1.64-5.37,4.04-8.63,5.07c-0.02,1.97,1.01,2.7,2.76,1.62c1.78-1.1,3.5-1.22,5.48-0.88
		c1.77,0.3,3.18,0.95,4.14,2.49c2.58,0.88,5.02-0.06,7.48-0.62c0.76-0.17,1.19-0.79,1.12-1.63c-0.07-0.85-0.67-1.23-1.39-1.45
		c-2.08-0.61-4.25-0.64-6.38-0.94c-0.94-0.13-1.91-0.09-2.84-0.36c2.29-1.74,3.72-1.96,6.22-0.96c1.04,0.41,2.02,0.96,3.05,1.38
		c4.21,1.72,8.47,2.23,12.83,0.59c0.6-0.22,1.21-0.42,1.85-0.5c0.23-0.03,0.47-0.05,0.75,0.23c-1.87,1.48-3.76,2.7-6.23,3.1
		c-11.26,1.84-22.51,3.74-33.79,5.52c-0.54,0.09-1.09,0.27-1.76-0.02c0.66-0.86,2.1-0.31,2.5-1.44c-0.65-1.15-1.92-0.99-2.93-1.32
		c-1.66-0.54-2.38-1.73-2.7-3.33c-0.32-1.65,0.59-2.52,1.92-3.15c0.99-1.25,1.9-2.57,2.82-3.87c3.16-4.45,7.24-7.56,12.53-9.13
		c1.31-0.39,3.55-0.64,2.72-2.76c-0.73-1.87-2.48-0.62-3.78-0.29c-6.57,1.65-11.21,5.84-14.93,11.28c-0.53,0.77-1.08,2.4-2.12,1.67
		c-0.89-0.63,0.37-1.82,0.89-2.65c2.96-4.81,6.66-8.77,12.3-10.45c0.83-0.25,1.66-0.6,2.4-1.08c0.7-0.45,1.35-0.99,0.97-1.94
		c-0.35-0.87-1.15-1.05-2-0.95c-1.06,0.12-1.92,0.77-2.9,1.1c-5.55,1.84-9.78,5.28-12.76,10.3c-0.21,0.36-0.37,0.89-1.23,0.92
		c2.15-3.64,4.33-7,7.88-9.22c0.68-0.42,1.41-0.75,2.12-1.12c5.84-3.09,11.75-4.09,18.16-1.47c3.98,1.63,8.19,2.7,12.34,3.87
		c3.94,1.1,7.86,1.53,12.05,1.2c5.8-0.45,11.63-0.61,17.43-1.11c7.32-0.63,14.6-1.53,21.92-2.14c4.23-0.35,8.45-0.4,12.68-0.23
		c0.4,0.02,0.8,0.07,1.19,0.1c0.97,0.07,1.82-0.18,2.01-1.25c0.19-1.09-0.59-1.65-1.49-1.85c-1.95-0.42-3.93-0.87-5.93-0.73
		c-2.03,0.14-3.1-0.64-3.57-2.64c-0.69-2.95-1.65-5.84-2.44-8.77c-0.61-2.26-0.42-2.6,1.97-3c8.48-1.42,16.64-3.87,24.55-7.22
		c1.46-0.62,2.21-0.38,2.55,1.24c2.48,11.82,4.69,23.66,4.04,35.83c-0.36,6.66-3.92,10.8-10.39,12.29
		c-5.84,1.34-11.76,0.93-17.66,1.02C310.87,300.93,309.6,300.6,308.63,301.61z"/>
	<path class="st1281" d="M267.38,133.23c0.37-0.74,1.09-1.17,1.76-0.87c1.81,0.79,3.38-0.05,5.01-0.5c1.47-2.89,1.98-5.89,0.72-8.95
		c-0.38-0.91,0.05-1.3,0.44-1.87c1.39-2.02,1.81-4.21,1.2-6.6c-0.46-1.8-1.51-3.18-3.12-4.04c-1.01-0.53-1.27-1.11-1.08-2.24
		c0.95-5.68-3.07-9.56-6.88-10.56c-1.11-0.29-2.23-0.37-3.32-0.15c-1.21,0.25-1.64-0.13-2-1.3c-1.01-3.27-3.3-5.38-6.52-6.47
		c-3.11-1.06-5.96-0.37-8.62,1.41c-0.45,0.3-0.89,0.62-1.4,0.97c-2.17-2.48-4.83-3.98-8.03-4.44c-5.26-0.77-11.1,1.71-13.8,6.97
		c-0.25,0.5-0.55,0.98-0.74,1.5c-0.25,0.66-0.54,0.82-1.24,0.51c-1.32-0.59-2.74-0.77-4.19-0.8c-6.26-0.13-9.67,5.26-9.33,9.86
		c0.03,0.47,0.11,0.95,0.19,1.59c-2.89,0.75-5.24,2.19-6.21,5.23c-0.97,3.05-0.01,5.62,1.93,7.95c-0.54,0.96-1.24,1.72-1.64,2.69
		c-1.63,3.97,0.04,8.11,4.04,9.59c0.89,0.33,1.58,0.65,1.94,1.53c1.1,0.09,1.84,0.86,2.73,1.37c1.3,0.74,2.06,0.41,1.96-1.09
		c-0.12-1.7,1.15-2.93,1.16-4.54c0-0.43,0.56-0.48,0.97-0.45c1.95,0.72,3.03-0.72,3.99-1.87c1-1.19,1.81-1.59,3.43-1.2
		c4.28,1.04,7.86-0.64,10.56-4.78c0.68-1.04,1.17-1.58,2.41-0.77c3.88,2.54,7.69,2.12,11.42-0.4c0.26-0.17,0.5-0.4,0.89-0.27
		c0.47,0.38,0.45,0.98,0.54,1.5c0.5,2.99,2.08,5.26,4.88,6.35c3.36,1.31,4.69,3.87,5.18,7.14c0.2,1.34,0.38,2.69,0.78,3.99
		c0.45,1.46,1.28,2.62,2.98,2.67c1.62,0.05,2.62-0.97,2.88-2.39C263.76,136.79,265.91,135.26,267.38,133.23z"/>
	<path class="st1351" d="M140.28,166.56c-0.19-1.02-0.31-2.3-0.7-3.51c-0.33-1.02-0.02-1.66,0.7-2.3c0.83-0.75,1.61-1.55,2.4-2.35
		c0.44-0.45,1.07-0.9,0.82-1.6c-0.28-0.76-1.08-0.85-1.8-0.92c-0.95-0.09-1.91-0.15-2.86-0.24c-1.04-0.1-1.73-0.55-2.1-1.62
		c-0.39-1.12-0.93-2.21-1.51-3.24c-0.82-1.46-1.57-1.45-2.32,0c-0.55,1.06-1.04,2.16-1.45,3.28c-0.34,0.93-0.91,1.42-1.9,1.52
		c-1.19,0.12-2.39,0.24-3.54,0.51c-1.83,0.43-2,1.04-0.72,2.35c0.84,0.85,1.72,1.67,2.62,2.45c0.68,0.59,0.87,1.22,0.62,2.11
		c-0.33,1.23-0.58,2.49-0.72,3.75c-0.15,1.4,0.45,1.85,1.66,1.27c1.57-0.76,3-2.36,4.62-2.29c1.5,0.06,2.93,1.47,4.43,2.21
		C139.8,168.57,140.27,168.22,140.28,166.56z"/>
	<path class="st1351" d="M153.86,139.51c0.12,0.52,0.41,0.84,0.93,0.96c1.01,0.23,2,0.52,3.01,0.73c2.22,0.47,3.42,1.87,3.82,4.05
		c0.2,1.1,0.47,2.18,0.69,3.27c0.12,0.6,0.38,1.08,1.08,1.03c0.56-0.05,0.76-0.49,0.88-0.98c0.27-1.16,0.61-2.31,0.84-3.48
		c0.43-2.21,1.82-3.47,3.91-4.04c0.84-0.23,1.7-0.42,2.55-0.58c0.61-0.11,1.11-0.37,1.16-1c0.07-0.71-0.51-0.86-1.09-0.99
		c-1.01-0.23-1.99-0.55-3-0.77c-1.93-0.42-3.04-1.63-3.46-3.51c-0.29-1.32-0.58-2.64-0.85-3.97c-0.11-0.55-0.13-1.21-0.86-1.22
		c-0.84-0.02-0.95,0.68-1.09,1.32c-0.29,1.32-0.62,2.63-0.89,3.96c-0.38,1.83-1.49,2.93-3.3,3.37c-1.16,0.28-2.3,0.61-3.46,0.88
		C154.18,138.66,153.93,138.99,153.86,139.51z"/>
	<path class="st1236" d="M176.97,186.42c-1.42-2.43,0.07-4.12,2-5.81c1.04-0.91,0.74-1.8-0.67-1.87c-2.67-0.13-4.35-1.1-5.1-3.86
		c-0.41-1.53-1.76-1.57-2.26-0.09c-0.87,2.55-2.27,3.9-5.1,3.93c-1.45,0.02-1.64,0.99-0.67,2.12c0.05,0.06,0.1,0.14,0.16,0.18
		c2.2,1.28,2.68,3.11,1.85,5.44c-0.2,0.57-0.34,1.32,0.29,1.77c0.62,0.45,1.21,0.09,1.76-0.27c0.07-0.04,0.15-0.06,0.21-0.11
		c1.69-1.47,3.39-1.42,5.12-0.06c0.12,0.1,0.29,0.14,0.43,0.2C176.47,188.67,177.1,188.26,176.97,186.42z"/>
	<path class="st1236" d="M145.7,207.91c0.6-0.04,1.09-0.45,1.11-1c0.1-3.33,1.81-5.05,5.07-5.42c0.46-0.05,0.86-0.45,0.81-1.03
		c-0.05-0.56-0.5-0.79-0.96-0.93c-0.3-0.09-0.63-0.06-0.95-0.12c-2.2-0.41-3.53-1.65-3.81-3.94c-0.11-0.92-0.04-2.21-1.21-2.3
		c-1.37-0.1-1.16,1.31-1.27,2.16c-0.3,2.38-1.52,3.75-3.94,3.99c-0.31,0.03-0.64,0.07-0.93,0.18c-0.47,0.18-0.82,0.5-0.85,1.05
		c-0.02,0.58,0.42,0.82,0.86,1.01c0.29,0.12,0.6,0.25,0.91,0.26c2.7,0.08,3.69,1.79,4.04,4.14c0.06,0.39,0.09,0.79,0.21,1.17
		C144.9,207.51,145.37,207.87,145.7,207.91z"/>
	<path class="st1352" d="M138.73,127.95c1.42-0.02,2.54-1.23,2.46-2.65c-0.08-1.31-1.21-2.46-2.43-2.49
		c-1.35-0.03-2.57,1.18-2.6,2.59C136.12,126.79,137.32,127.97,138.73,127.95z"/>
	<path class="st1353" d="M121.16,188.91c1.48,0.04,2.67-1.09,2.63-2.5c-0.04-1.3-1.19-2.46-2.46-2.49c-1.4-0.03-2.61,1.16-2.61,2.57
		C118.72,187.84,119.76,188.87,121.16,188.91z"/>
	<path class="st1354" d="M182.83,156.67c0.95,0.01,1.96-1.03,1.96-2.03c0-1.01-0.79-1.78-1.83-1.79c-1.18-0.02-1.94,0.76-1.91,1.94
		C181.08,155.79,181.89,156.66,182.83,156.67z"/>
	<path class="st1245" d="M151.48,172.97c0.05,0.99,1.11,1.96,2.06,1.89c0.98-0.08,1.84-1.13,1.75-2.16
		c-0.08-1.01-0.86-1.7-1.91-1.69C152.28,171.01,151.43,171.89,151.48,172.97z"/>
	<path class="st0" d="M141.24,295.77c2.59,1.27,5.45,1.09,8.19,1.4c6.81,0.76,13.63,1.55,20.43,2.37c4.99,0.6,9.99,1.06,14.98,1.62
		c6.33,0.72,12.66,1.49,18.99,2.22c3.09,0.36,6.18,0.7,9.27,1c2.31,0.23,3.08-0.82,2.21-3.02c-2.23-5.63-4.5-11.25-6.75-16.87
		c-5.98-14.95-12.01-29.87-17.9-44.85c-1.09-2.76-2.82-4.05-5.69-4.2c-5.42-0.29-10.84-0.67-16.25-1.04
		c-8.44-0.57-16.89-1.16-25.33-1.72c-5.81-0.39-11.63-0.76-17.45-1.13c-2.79-0.18-5.58-0.26-8.36-0.57
		c-2.04-0.23-3.07,1.11-2.23,3.14c4.67,11.26,9.26,22.55,13.85,33.84c0.39,0.95,0.83,1.52,1.99,1.68c1.24,0.16,2.49,0.51,3.67,1.04
		c1.78,0.81,3.21,1.85,3.06,4.06c-0.05,0.74,0.34,0.84,0.91,1.09c2.87,1.24,3.26,2.03,2.58,5.16c-0.13,0.58,0.06,0.87,0.38,1.24
		c1.18,1.33,1.23,2.74,0.11,4.09c-0.44,0.53-0.37,0.92-0.1,1.45c0.73,1.45,0.13,2.62-0.91,3.64c-1.39,1.36-1.41,1.35-0.56,3.09
		c0.14,0.28,0.28,0.56,0.42,0.85C141.03,295.36,141.18,295.52,141.24,295.77z"/>
	<path class="st534" d="M225.68,295.73c1.38,0.42,2.47-0.18,3.54-0.95c1.93-1.41,3.84-2.82,5.97-3.94c2.97-1.56,5.88-1.7,8.88-0.12
		c2.62,1.39,5.36,2.41,8.4,2.36c1.52-0.02,3.08-0.03,4.45-0.68c2.56-1.21,5.07-0.96,7.61-0.06c1.15,0.29,1.97-0.43,2.85-0.93
		c4.8-2.72,9.87-4.37,15.46-4.23c5.66,0.14,10.79,1.83,15.38,5.14c2.99,2.16,5.67,4.67,7.92,7.59c0.67,0.86,1.39,1.51,2.48,1.69
		c3.19,0.02,6.39,0.05,9.58,0.05c3.68,0.01,7.32-0.28,10.94-0.97c8.08-1.56,10.82-5.66,11.61-13.3c0.55-5.27,0.13-10.54-0.58-15.77
		c-0.96-7.11-2.13-14.2-3.75-21.2c-0.12-0.54-0.16-1.12-0.68-1.53c-9.56,4.23-19.51,7.24-29.77,8.67c-0.37,0.22-0.34,0.49-0.28,0.69
		c1.26,4.53,2.55,9.04,3.78,13.58c0.24,0.9,0.72,1.13,1.54,1.07c2.24-0.15,4.47,0.1,6.69,0.38c0.32,0.04,0.65,0.02,0.95,0.1
		c0.74,0.19,1.8,0.21,1.56,1.35c-0.22,1.11-1.11,0.79-1.93,0.65c-4.3-0.71-8.61-0.41-12.91-0.04c-5.48,0.47-10.94,1.16-16.42,1.69
		c-8.34,0.8-16.7,1.39-25.07,1.79c-3.99,0.19-7.75-0.44-11.52-1.56c-5.72-1.7-11.36-3.67-17.16-5.1c-1.85-0.46-3.62-0.46-5.4,0.17
		c-1.65,0.58-3.26,1.33-4.94,1.79c-6.1,1.7-9.59,6.31-12.77,11.27c-0.69,1.08-0.63,1.12,0.49,2.78c0.99-1.4,1.98-2.73,2.89-4.12
		c2.34-3.57,5.35-6.28,9.45-7.73c1.57-0.55,3.05-1.37,4.59-2.01c0.59-0.24,1.33-0.41,1.68,0.35c0.43,0.92-0.28,1.23-0.99,1.54
		c-2.05,0.89-4.06,1.85-6.12,2.7c-2.05,0.85-3.66,2.2-5.07,3.89c-1.8,2.15-3.31,4.5-4.85,6.82c-0.13,0.2-0.25,0.41-0.36,0.62
		c-0.49,0.91-0.02,1.57,0.67,2.04c0.7,0.47,1.18-0.06,1.58-0.6c1.61-2.18,3.29-4.3,5-6.4c2.14-2.63,4.72-4.46,7.93-5.5
		c1.66-0.54,3.29-1.17,4.93-1.79c0.69-0.26,1.29-0.25,1.61,0.48c0.38,0.86-0.36,1.17-0.93,1.37c-2.18,0.76-4.35,1.52-6.48,2.43
		c-1.57,0.67-2.91,1.56-4.1,2.8c-1.94,2.02-3.69,4.19-5.36,6.44c-0.52,0.7-1.05,1.42-1.05,2.36c0.87,1.62,2.02,0.86,2.95,0.2
		c1.41-1.02,2.91-2.03,4.01-3.36c3.44-4.16,8.64-4.7,13.13-6.72c-0.23,0.94-1.05,1.05-1.7,1.33c-3.9,1.66-7.05,4.29-9.71,7.52
		C225.68,293.55,224.24,294.42,225.68,295.73z"/>
	<path class="st2" d="M171.68,381.73c-2.54,0.03-4.55-1.61-6.97-1.81c-0.59-0.05-1.01-0.49-0.89-1.19c0.11-0.68,0.59-0.91,1.22-0.86
		c0.47,0.04,0.94,0.18,1.41,0.25c1.95,0.27,3.36-0.39,3.98-2.24c1.28-3.86,1.07-7.72-0.74-11.38c-0.85-1.71-2.12-2.11-4.03-1.55
		c-0.76,0.22-1.46,0.65-2.29,0.54c-0.45-0.05-0.71-0.37-0.8-0.77c-0.08-0.32,0.1-0.63,0.36-0.83c0.19-0.14,0.4-0.31,0.62-0.34
		c2.67-0.4,3.54-2.63,4.88-4.71c-2.43,0-4.72-0.18-6.96,0.04c-5.29,0.51-10.52,0.03-15.76-0.51c-2.61-0.27-5.2-0.79-7.81-1.05
		c-6.07-0.62-11.64,0.75-16.15,4.98c-5.82,5.46-5.66,14.86,0.21,20.28c4.59,4.24,10.16,5.87,16.28,5.51
		c4.05-0.24,8.09-0.79,12.13-1.22c3.73-0.4,7.46-0.66,11.21-0.88c3.09-0.18,6.22-0.22,9.18-1.35
		C171.11,382.5,171.54,382.5,171.68,381.73z"/>
	<path class="st49" d="M259.11,391.58c-3.89-2.29-6.8-5.33-8.31-9.59c-2.63-7.37-0.81-17.62,9.29-21.87
		c0.52-0.22,1.18-0.27,1.05-1.02c-0.12-0.73-0.67-1.02-1.4-0.98c-1.85,0.11-3.67-0.12-5.46-0.52c-0.75-0.17-1.39,0.07-2.07,0.35
		c-4.19,1.73-8.47,3.27-12.59,5.16c-3.51,1.6-5.94,4.18-5.94,8.43c0,2.5,0.14,4.94,1.23,7.24c0.74,1.58,1.81,2.82,3.51,3.39
		c5.85,1.97,11.25,4.83,16.43,8.17C256.08,391.13,257.48,391.76,259.11,391.58z"/>
	<path class="st1237" d="M326.44,334.02c0.85,1.07,0.96,2.48,1.67,3.7c1.08-1.61,1.27-3.45,1.59-5.23c0.33-1.88,0.52-3.78,0.8-5.67
		c0.29-1.93,0.15-3.89-0.54-5.65c-1.53-3.92-1.63-7.91-1.07-11.97c0.23-1.68-0.06-3.33-0.09-5c-0.01-0.95-0.39-1.28-1.31-1.13
		c-6.1,0.94-12.23,0.66-18.35,0.47c0.18,0.81,0.77,1.38,1.24,2.02c6.08,8.35,11.02,17.36,15.45,26.66
		C326.1,332.78,326.24,333.41,326.44,334.02z"/>
	<path class="st10" d="M252.51,301.56c-0.51-1.22-1.51-0.48-2.18-0.39c-3.15,0.43-6.27,1.04-9.41,1.55
		c-7.3,1.21-14.59,2.44-21.9,3.58c-2.77,0.43-5.58,0.21-8.36-0.09c-6.81-0.73-13.61-1.52-20.41-2.31
		c-7.75-0.9-15.49-1.84-23.24-2.71c-6.49-0.73-12.98-1.42-19.47-2.08c-1.41-0.14-2.81-0.65-4.24-0.34
		c-0.38,0.71,0.18,1.24,0.28,1.84c1.12,0.7,2.43,0.74,3.67,0.89c8.22,0.99,16.44,1.94,24.66,2.88c9.02,1.03,18.04,2.01,27.06,3.05
		c4.66,0.54,9.32,1.12,13.98,1.74c4.67,0.62,9.21-0.28,13.76-1.03c6.04-1,12.06-2.17,18.11-3.1c2.11-0.32,3.99-0.92,5.67-2.23
		C251.12,302.33,251.84,301.97,252.51,301.56z"/>
	<path class="st57" d="M187.96,374.76c-2.18-2.92-3.96-5.91-5.2-9.2c-0.99-2.61-1.8-5.26-2.19-8.04c-0.21-1.51-0.25-1.56-1.59-1.07
		c-2.77,1.02-5.56,1.9-8.52,2.16c-1.21,0.11-1.4,1.13-2.03,2.04c3.68,1.92,4.37,5.42,4.72,9.01c0.34,3.54-0.09,6.95-2.85,9.96
		c3.48,0.35,6.55,0.51,9.49-1.19C182.31,376.97,185.04,375.86,187.96,374.76z"/>
	<path class="st525" d="M263.02,392.62c0.57,0.28,1.44,0.35,2.32,0.35c3.46,0.01,3.98-0.48,4.47-3.84c0.37-2.53,0.53-5.08,0.54-7.63
		c0.03-6.94,0.31-13.89-0.53-20.81c-0.28-2.31-0.5-2.54-2.8-2.59c-1.27-0.02-2.53,0-3.75,0
		C264.12,369.69,264.39,381.1,263.02,392.62z"/>
	<path class="st1355" d="M201.87,335.42c-4.61,3.28-9.44,6.24-14.18,9.34c-1.34,0.87-2.65,1.78-3.97,2.67
		c-0.13,0.09-0.28,0.15-0.41,0.25c-0.54,0.44-1.37,0.87-0.77,1.7c0.49,0.68,1.14,0.21,1.69-0.13c0.27-0.17,0.53-0.36,0.8-0.53
		c18.3-11.82,36.19-24.25,54.28-36.38c0.46-0.31,0.91-0.64,1.37-0.96c0.53-0.36,1.24-0.75,0.84-1.48c-0.44-0.81-1.12-0.26-1.64,0.04
		c-0.96,0.56-1.91,1.16-2.83,1.79c-10.44,7.07-20.87,14.17-31.32,21.23c-2.28,1.54-1.41,1.58-3.83-0.08
		c-11.38-7.81-22.61-15.86-34.69-22.59c-2.02-1.12-4.12-2.1-6.17-3.16c-0.54-0.28-1.1-0.51-1.47,0.1c-0.44,0.73,0.09,1.17,0.68,1.52
		c0.27,0.16,0.55,0.33,0.83,0.47c10.2,4.85,19.42,11.29,28.77,17.53c3.58,2.39,7.09,4.9,10.64,7.35
		C200.99,334.45,201.6,334.71,201.87,335.42z"/>
	<path class="st49" d="M261.58,361.63c-5.05,2.11-8.35,5.32-9.38,10.39c-1.35,6.62,0.71,12.72,5.83,16.32
		c0.78,0.55,1.61,1.01,2.46,1.44c0.51,0.26,0.92,0.08,1.02-0.55c0.05-0.31,0.09-0.63,0.11-0.95
		C262.1,379.53,262.02,370.78,261.58,361.63z"/>
	<path class="st67" d="M124.69,385.32c-5.89-3.63-9.48-8.63-9.18-15.72c0.3-6.95,4.11-11.66,10.33-14.59
		c-9.43,1.03-14.69,6.56-14.62,15.16C111.27,377.96,117.1,384.6,124.69,385.32z"/>
	<path class="st18" d="M288.81,335.61c-0.95,0.02-1.55,0.73-2.2,1.28c-4.59,3.87-9.58,7.17-14.74,10.21
		c-3.78,2.23-7.73,4.12-11.68,6.02c-0.73,0.35-2.09,0.57-1.7,1.61c0.52,1.35,1.67,0.36,2.43,0.02c9.96-4.45,19.19-10.07,27.54-17.11
		c0.36-0.3,0.77-0.61,0.98-1.01C289.72,336.11,289.41,335.74,288.81,335.61z"/>
	<path class="st67" d="M233.14,365.55c-2.85,1.15-5.18,2.12-7.54,3.01c-0.75,0.28-0.84,0.83-1.06,1.43
		c-1.38,3.85-1.4,3.86,2.22,5.39c1.67,0.71,3.37,1.33,5.37,2.12C231.51,373.44,231.27,369.67,233.14,365.55z"/>
	<path class="st2" d="M241.46,186.75c-0.82-0.07-1.29,0.25-1.78,0.49c-4.9,2.33-9.64,4.94-14.32,7.69
		c-5.81,3.42-9.81,8.28-12.18,14.57c-2.66,7.03-4.36,14.33-6.13,21.6c-1.27,5.19-2.43,10.4-3.64,15.6c-0.46,1.96-0.5,2,1.2,3.09
		c5.15,3.29,10.75,5.48,16.73,6.74c1.72,0.36,3.46,0.54,5.34,0.71c0.2-2.05-0.37-3.97-0.71-5.88c-1.38-7.69-2.83-15.37-4.25-23.05
		c-0.04-0.24-0.14-0.46-0.16-0.7c-0.06-0.6,0.04-1.14,0.75-1.28c0.7-0.13,1.01,0.36,1.21,0.91c0.13,0.37,0.18,0.77,0.26,1.17
		c2.41,13.02,5.04,26,6.77,39.14c0.04,0.32,0.13,0.63,0.16,0.94c0.1,0.98,0.33,1.57,1.61,1.41c2.51-0.32,4.87,0.58,7.24,1.28
		c5.72,1.7,11.44,3.38,17.14,5.11c1.33,0.4,2.67,0.47,4.02,0.48c8.07,0.03,16.11-0.63,24.13-1.44c7.3-0.74,14.61-1.39,21.92-2.09
		c0.24-0.02,0.47-0.09,0.87-0.18c-1-3.62-1.98-7.22-2.98-10.82c-0.17-0.61-0.36-1.22-0.54-1.83c-0.62-2.2-0.62-2.23-2.86-2.43
		c-1.3-0.12-1.96-0.72-2.24-2.03c-1.22-5.85-2.54-11.69-3.78-17.54c-0.56-2.65-1.01-5.33-1.5-7.99c-0.07-0.39-0.15-0.79-0.2-1.18
		c-0.08-0.64,0.16-1.14,0.82-1.25c0.69-0.11,0.97,0.42,1.17,0.96c0.11,0.29,0.1,0.63,0.16,0.94c1.49,7.91,3.11,15.8,4.87,23.66
		c0.07,0.31,0.17,0.61,0.25,0.92c0.44,1.64,0.47,1.67,2.04,1.48c10.42-1.26,20.45-3.94,30.1-8.07c2.05-0.88,4.04-1.87,6-2.94
		c0.73-0.4,0.96-0.83,0.66-1.73c-4.33-12.84-8.6-25.7-14.76-37.82c-1.99-3.92-4.3-7.64-7.46-10.78c-2.7-2.69-5.84-4.64-9.27-6.25
		c-8.03-3.78-16.48-6.33-25.04-8.57c-1.23-0.32-2.59-1.07-3.66-0.77c-1.15,0.32-1.16,2.1-1.77,3.19
		c-4.92,8.74-12.14,14.47-22.01,16.59c-2.4,0.52-4.92,0.53-7.35-0.23c-4.09-1.26-6.52-4.28-6.79-8.56
		C241.4,188.92,241.46,187.82,241.46,186.75z"/>
	<path class="st2" d="M267.38,133.23c-2.62,1.04-3.98,3.05-4.53,5.73c-0.21,1-0.41,2.08-1.63,2.43c-1.43,0.41-2.64-0.21-3.15-1.81
		c-0.36-1.13-0.52-2.33-0.74-3.5c-0.19-1.02-0.27-2.07-0.54-3.06c-0.56-2.05-1.41-3.92-3.64-4.7c-4.33-1.52-6.22-4.71-6.3-9.16
		c0-0.15-0.07-0.31-0.18-0.72c-4.73,4.48-9.62,4.88-14.53,0.56c-0.68,0.57-0.73,1.35-1.05,1.98c-1.87,3.65-6.43,6.44-11.33,4.57
		c-1.16-0.44-1.62-0.29-2.22,0.76c-0.92,1.62-2.29,2.84-4.23,3.21c-0.84,0.4-0.7,1.16-0.66,1.87c0.17,2.77,0.65,5.49,1.2,8.37
		c1.51-0.86,2.86-1.69,4.46-1.95c1.11-0.18,2.21-0.25,3.31,0.09c0.62,0.19,1.3,0.31,1.2,1.19c-0.1,0.86-0.74,0.9-1.42,0.87
		c-0.8-0.04-1.59-0.06-2.39-0.06c-1.62,0.01-2.83,0.93-4.04,1.85c-0.56,0.43-0.54,0.94-0.39,1.49c2.06,7.67,2.95,15.69,6.81,22.83
		c2.27,4.19,5.16,7.86,8.8,10.93c4.07,3.44,8.65,4.23,13.64,2.43c7.97-2.88,13.24-8.61,16.82-16.09c0.24-0.5,0.4-1.05,0.68-1.52
		c0.24-0.39,0.58-0.8,1.16-0.51c0.48,0.24,0.74,0.64,0.58,1.17c-0.21,0.68-0.44,1.37-0.75,2.01c-3.75,7.89-9.45,13.73-17.89,16.93
		c0.64,2.19,1.27,4.37,1.91,6.56c0.13,0.46,0.29,0.91,0.36,1.38c0.1,0.67-0.25,1.09-0.89,1.18c-0.56,0.08-0.84-0.31-1.01-0.8
		c-0.39-1.09-0.5-2.28-1.34-3.6c0,1.51-0.12,2.68,0.02,3.82c0.53,4.37,3.25,6.84,7.64,7.09c3.18,0.18,6.19-0.48,9.07-1.73
		c7.32-3.16,12.82-8.23,16.24-15.48c0.53-1.11,0.56-1.77-0.72-2.41c-2.45-1.23-3.99-3.41-5.25-5.75c-2.95-5.49-4.48-11.4-4.99-17.59
		c-0.08-0.92,0.1-1.84-1.03-2.42c-0.62-0.32-0.33-1.26,0.38-1.41c0.38-0.08,0.8-0.07,1.18,0.02c2.7,0.58,4.69-0.64,6.23-2.64
		c2.36-3.06,2.92-6.53,1.61-10.17C272.79,134.49,270.57,133.07,267.38,133.23z"/>
	<path class="st57" d="M207.54,254.13c-0.94,4.46-1.54,9.04-2.97,13.42c-0.24,0.74-0.03,1.4,0.25,2.08
		c1.88,4.64,3.75,9.28,5.68,14.09c1.23-1.57,2.41-3.04,3.56-4.53c2.14-2.77,4.73-4.91,8.06-6.11c1.86-0.67,3.66-1.53,5.51-2.23
		c0.89-0.34,1.19-0.79,1.02-1.78c-0.47-2.82-0.83-5.67-1.19-8.51c-0.11-0.86-0.49-1.19-1.37-1.28c-3.09-0.32-6.12-0.95-9.12-1.76
		c-2.61-0.71-5.16-1.56-7.58-2.79C208.86,254.44,208.34,253.99,207.54,254.13z"/>
	<path class="st1281" d="M225.68,295.73c-0.49-0.92,0.14-1.51,0.65-2.09c3.18-3.61,6.61-6.88,11.34-8.39
		c0.3-0.1,0.58-0.25,0.87-0.38c0.59-0.28,0.87-0.72,0.52-1.33c-0.25-0.45-0.65-0.69-1.19-0.43c-3.99,1.86-8.55,2.51-12.02,5.5
		c-1.81,1.56-3.54,3.2-5.31,4.8c-0.88,0.79-1.8,1.37-2.94,0.45c-2.16,0.25-2.49,0.59-2.52,2.58c-0.04,2.58,1.14,4.05,3.71,4.72
		c0.85,0.22,1.69,0.45,2.57,0.45c0.71,0.7,1.6,0.61,2.47,0.48c4.24-0.65,8.45-1.44,12.67-2.21c0.67-0.12,1.47-0.16,1.64-1.09
		c0.05-1.53-0.75-2.35-2.19-2.62c-1.46-0.28-2.92-0.6-4.4-0.81c-1.27-0.18-2.23,0.52-3.2,1.28
		C227.01,297.71,226.4,297.46,225.68,295.73z"/>
	<path class="st67" d="M238.16,298.78c-5.56,1.15-11.13,2.18-16.77,2.82c-0.52,0.5-1.19,0.38-1.81,0.45
		c-1.69,0.19-1.69,0.18-2.03,2.37c2.39-0.36,4.72-0.68,7.04-1.06c7.62-1.23,15.24-2.48,22.86-3.73c2.91-0.48,5.81-0.95,8.71-1.45
		c0.38-0.07,0.78-0.2,1.1-0.41c1.8-1.15,3.57-2.33,5.5-3.6c-1.58-0.79-2.89-0.78-4.28-0.19c-4.29,1.83-8.55,1.52-12.77-0.26
		c-1.03-0.43-2.07-0.85-3.06-1.35c-2.28-1.16-4.46-0.95-6.58,0.36c-0.71,0.44-1.57,0.69-2.26,1.58c3.02,0.36,5.84,0.69,8.65,1.04
		c1.03,0.13,2.05,0.28,3.08,0.44c0.53,0.08,0.87,0.4,0.84,0.97c-0.03,0.54-0.37,0.88-0.9,0.96
		C243.03,298.05,240.64,298.71,238.16,298.78z"/>
	<path class="st313" d="M126.45,276.87c-0.25,3.08,0.18,3.67,2.65,4.32c1.5,0.4,3.02,0.27,4.53,0.19c1.59-0.09,3.17-0.37,4.74-0.65
		c0.73-0.13,1.39-0.52,1.41-1.4c0.02-0.86-0.62-1.2-1.32-1.5c-0.61-0.26-1.25-0.28-1.88-0.28
		C133.24,277.5,129.88,277.95,126.45,276.87z"/>
	<path class="st58" d="M127.2,268.96c-0.8,0.23-1.22,0.73-1.64,1.2c-1.22,1.37-1.09,3.19,0.49,4.08c2.91,1.64,6.06,1.77,9.25,0.96
		c0.73-0.18,0.77-0.73,0.46-1.31c-0.36-0.67-0.99-1.04-1.68-1.27c-1.21-0.39-2.42-0.91-3.66-1.04
		C128.7,271.4,127.42,270.88,127.2,268.96z"/>
	<path class="st219" d="M128.79,283.39c0.25,2.19,0.98,3.05,3.02,3.28c2.66,0.31,5.19-0.43,7.68-1.23c0.53-0.17,1.11-0.47,1.06-1.12
		c-0.05-0.79-0.62-1.28-1.36-1.46c-0.45-0.1-0.96-0.09-1.42,0C134.81,283.5,131.81,283.54,128.79,283.39z"/>
	<path class="st1356" d="M131.86,288.88c0.42,1.67,1.33,2.16,2.56,2.25c1.71,0.13,3.34-0.1,4.81-1.05c0.56-0.36,1.02-0.77,0.7-1.55
		c-0.32-0.79-0.88-0.73-1.57-0.55C136.3,288.52,134.18,288.7,131.86,288.88z"/>
	<path class="st17" d="M220.66,118.32c2.77-0.05,5.46-2.99,5.19-5.57c-0.04-0.4-0.16-0.81-0.66-0.81c-0.37,0-0.51,0.33-0.61,0.64
		c-0.07,0.23-0.08,0.47-0.15,0.7c-0.96,3.24-2.43,4.02-5.62,2.94c-0.47-0.16-0.96-0.44-1.25,0.06c-0.28,0.48,0.13,0.87,0.52,1.18
		C218.87,118.09,219.84,118.12,220.66,118.32z"/>
	<path class="st1126" d="M235.1,95.29c-2.01-0.07-3.51,0.69-4.56,2.27c-0.22,0.32-0.35,0.78,0.02,1.09c0.38,0.33,0.68,0.07,1-0.21
		c2.71-2.4,3.28-2.46,6.22-0.75c0.41,0.24,0.84,0.66,1.21,0.07c0.32-0.52-0.13-0.9-0.49-1.2C237.49,95.72,236.35,95.18,235.1,95.29z
		"/>
	<path class="st1357" d="M249.58,99.58c-0.32,0.02-0.64,0.02-0.95,0.08c-0.49,0.09-0.97,0.29-0.87,0.89
		c0.1,0.61,0.63,0.54,1.12,0.56c2.77,0.11,3.23,0.47,4.07,3.26c0.13,0.44,0.28,0.78,0.73,0.72c0.57-0.08,0.71-0.53,0.69-1.06
		c-0.11-1.96-1.86-3.97-3.84-4.34C250.22,99.62,249.9,99.61,249.58,99.58z"/>
	<path class="st1358" d="M257.68,120.38c0.11-0.01,0.44,0.03,0.74-0.06c0.67-0.19,1.72-0.35,1.61-1.12
		c-0.17-1.17-1.13-0.35-1.74-0.3c-1.77,0.16-3.13-0.37-3.93-2.05c-0.2-0.41-0.49-0.97-1.06-0.63c-0.48,0.28-0.35,0.83-0.17,1.3
		C253.78,119.16,255.61,120.37,257.68,120.38z"/>
	<path class="st1359" d="M214.24,106.62c0.04,0.22,0.04,0.47,0.13,0.69c0.16,0.4,0.15,1.05,0.81,0.95c0.64-0.09,0.56-0.65,0.5-1.11
		c-0.2-1.59,0.44-2.77,1.78-3.57c0.49-0.29,0.75-0.76,0.51-1.16c-0.37-0.63-0.97-0.3-1.44,0
		C214.99,103.38,214.41,104.88,214.24,106.62z"/>
	<path class="st1360" d="M265.63,110.12c-0.01-2.23-1.76-4.26-3.67-4.33c-0.33-0.01-0.68,0.04-0.8,0.35
		c-0.16,0.42,0.01,0.8,0.46,0.92c1.63,0.44,2.64,1.35,2.6,3.17c-0.01,0.48,0.12,1.06,0.69,1.06
		C265.7,111.3,265.58,110.59,265.63,110.12z"/>
	<path class="st1361" d="M210.11,114.31c0.02,0.17,0.02,0.41,0.07,0.64c0.12,0.5,0.01,1.23,0.87,1.1c0.69-0.1,0.52-0.63,0.46-1.1
		c-0.21-1.65,0.5-2.73,2.08-3.22c0.44-0.14,0.71-0.37,0.6-0.83c-0.15-0.59-0.6-0.64-1.11-0.51
		C211.42,110.81,210.13,112.48,210.11,114.31z"/>
	<path class="st1362" d="M206.93,122.49c0.22,0.75,0.84,0.87,1.47,0.86c0.28,0,0.63-0.08,0.63-0.51c-0.01-0.62-0.85-1.17-1.56-1.02
		C207.1,121.9,207.01,122.18,206.93,122.49z"/>
	<path class="st1239" d="M140.26,157.67c-3.3,0.24-5.43-0.94-5.93-4.48c-1.27,1.25-1.2,2.86-2.27,3.66
		c-1.12,0.83-2.58,0.63-3.91,0.97c0,0.83,0.7,1.21,1.21,1.6c1.41,1.09,1.65,2.42,1.1,4.01c-0.18,0.52-0.37,1.06-0.17,1.69
		c1.4-0.25,2.33-1.65,3.79-1.65c1.38,0,2.27,1.37,3.73,1.51c0.11-1.43-0.85-2.74-0.32-4.05
		C137.98,159.68,139.38,159.09,140.26,157.67z"/>
	<path class="st1311" d="M163.53,135.04c-1,2.09-1.96,3.7-4.45,4.28c2.12,1.1,3.52,2.3,4.34,4.73c0.61-2.5,1.98-3.7,3.91-4.68
		C165.37,138.53,164.04,137.35,163.53,135.04z"/>
	<path class="st1311" d="M172.12,177.49c-0.9,1.79-1.8,3.15-4.34,2.71c1.58,1.61,2.54,3.1,1.59,5.46c1.81-1.39,3.31-1.83,5.22-0.17
		c-0.84-2.44,0.12-3.82,1.83-5.19C174.05,180.45,172.65,179.65,172.12,177.49z"/>
	<path class="st52" d="M147.68,200.67c-0.66-0.6-1.29-1.18-2-1.83c-0.57,0.53-1.23,1.15-1.93,1.8c0.84,0.42,1.37,1.11,2,1.73
		C146.3,201.7,146.85,201.06,147.68,200.67z"/>
	<path class="st1351" d="M185.36,239.07c0.05,0.09,0.13,0.41,0.32,0.64c1.18,1.36,1.72,3.05,2.37,4.67
		c6.99,17.61,13.96,35.23,20.93,52.86c0.47,1.18,0.89,2.39,1.37,3.57c0.27,0.66,0.58,1.48,1.5,1.15c0.89-0.32,0.72-1.1,0.45-1.82
		c-1-2.6-1.96-5.21-2.99-7.8c-6.54-16.49-13.1-32.98-19.66-49.47c-0.65-1.62-1.17-3.33-2.58-4.51c-0.35-0.29-0.74-0.65-1.26-0.28
		C185.54,238.27,185.33,238.49,185.36,239.07z"/>
	<path class="st5" d="M139.52,370.44c0.17-4.87-1.99-9.05-5.9-12.41c-0.36-0.31-0.74-0.6-1.14-0.86c-0.42-0.27-0.89-0.45-1.26,0.07
		c-0.31,0.43-0.33,0.95,0.03,1.33c0.54,0.58,1.17,1.08,1.75,1.63c4.89,4.67,6,11.81,2.72,17.53c-0.92,1.61-2.18,2.95-3.57,4.16
		c-0.42,0.37-0.84,0.74-1.21,1.16c-0.29,0.33-0.27,0.73,0.02,1.08c0.28,0.35,0.64,0.5,1.05,0.31c0.36-0.17,0.69-0.4,1-0.64
		C137.2,380.67,139.48,376.12,139.52,370.44z"/>
	<path class="st1340" d="M144.35,362.56c-0.55,0.08-0.94,0.42-0.95,0.93c-0.01,0.54,0.17,1.09,0.29,1.62c0.9,4.03,0.84,8.03-0.36,12
		c-0.26,0.85-1.02,2.01,0.37,2.4c1.13,0.32,1.33-0.93,1.56-1.72c1.35-4.51,1.61-9.05,0.29-13.63
		C145.35,363.49,145.16,362.79,144.35,362.56z"/>
	<path class="st3" d="M157.27,362.4c-0.73-0.08-1.21,0.58-0.95,1.49c0.35,1.23,0.68,2.45,0.89,3.71c0.56,3.37,0.33,6.67-0.63,9.93
		c-0.09,0.31-0.23,0.6-0.29,0.91c-0.11,0.52,0.06,0.97,0.55,1.19c0.64,0.28,1.07-0.05,1.35-0.61c0.66-1.3,0.87-2.74,1.07-4.14
		c0.5-3.67,0.39-7.32-0.76-10.88C158.09,362.75,157.83,362.46,157.27,362.4z"/>
	<path class="st1363" d="M152.77,371.07c0.11-2.01-0.14-3.91-0.56-5.78c-0.17-0.77-0.48-1.51-0.8-2.23
		c-0.16-0.37-0.52-0.64-0.97-0.46c-0.39,0.16-0.67,0.47-0.64,0.91c0.03,0.47,0.1,0.95,0.22,1.41c1.14,4.19,1.08,8.36-0.11,12.52
		c-0.09,0.31-0.2,0.61-0.24,0.93c-0.07,0.53,0.15,0.96,0.65,1.16c0.56,0.23,0.95-0.14,1.15-0.58c0.29-0.65,0.56-1.33,0.7-2.02
		C152.56,374.97,152.94,373,152.77,371.07z"/>
	<path class="st1251" d="M239.58,373.58c-0.08,2.14,0.35,4.15,0.86,6.15c0.19,0.75,0.58,1.14,1.34,0.93
		c0.7-0.19,0.69-0.81,0.61-1.37c-0.14-0.94-0.34-1.87-0.52-2.79c-0.63-3.21-0.26-6.31,0.92-9.34c0.11-0.3,0.21-0.6,0.34-0.89
		c0.25-0.56-0.04-0.93-0.45-1.2c-0.48-0.32-0.94-0.14-1.22,0.31c-0.33,0.54-0.66,1.1-0.83,1.7
		C240.03,369.22,239.49,371.37,239.58,373.58z"/>
	<path class="st1245" d="M244.43,374.75c0.08,1.85,0.25,3.58,0.72,5.27c0.13,0.45,0.31,0.9,0.55,1.3c0.23,0.38,0.65,0.42,1.06,0.33
		c0.47-0.11,0.61-0.5,0.6-0.9c-0.01-0.39-0.14-0.78-0.24-1.16c-0.98-3.89-0.74-7.71,0.65-11.46c0.05-0.15,0.14-0.29,0.21-0.43
		c0.3-0.63,0.42-1.29-0.3-1.65c-0.91-0.46-1.25,0.31-1.56,0.95C244.9,369.47,244.62,372.15,244.43,374.75z"/>
	<path class="st1364" d="M293.65,213.79c-0.02,0.46,0.06,0.94,0.65,1.06c0.66,0.14,1.09-0.21,1.27-0.81c0.2-0.69,0.3-1.4,0.48-2.09
		c1.31-4.94,3.55-9.36,7.18-13.02c1.54-1.54,3.29-2.76,5.25-3.7c0.6-0.28,1.28-0.57,0.93-1.37c-0.37-0.85-1.08-0.72-1.82-0.39
		c-2.82,1.26-5.19,3.13-7.17,5.46c-3.36,3.96-5.46,8.57-6.61,13.63C293.73,212.94,293.71,213.34,293.65,213.79z"/>
	<path class="st1236" d="M235.24,171.2c5.82-0.06,10.33-4.98,11.41-9.81c0.36-1.62-0.58-2.27-2.35-1.55
		c-2.14,0.87-4.28,1.71-6.49,2.39c-2.98,0.91-6.01,1.54-9.12,1.79c-0.4,0.03-0.81,0.03-1.19,0.14c-1.1,0.31-1.46,1.03-0.78,1.98
		C228.83,169.11,231.38,171.41,235.24,171.2z"/>
	<path class="st1364" d="M230.95,159.25c0.86-0.1,1.75,0.01,2.56-0.44c0.54-0.3,0.97-0.64,0.78-1.29c-0.2-0.67-0.73-0.77-1.34-0.49
		c-0.83,0.37-1.71,0.36-2.58,0.29c-1.61-0.12-2.28-0.87-2.15-2.5c0.12-1.51,0.38-3,0.57-4.5c0.26-2.06,0.32-4.13-0.01-6.18
		c-0.1-0.61-0.18-1.26-0.66-1.76c-0.53-0.54-1.29-0.43-1.49,0.28c-0.08,0.29-0.09,0.64-0.02,0.94c0.76,3.51,0.15,6.97-0.37,10.43
		C225.73,157.48,227.41,159.32,230.95,159.25z"/>
	<path class="st1271" d="M233.74,135.92c0.02,0.64,0.37,1.05,1.03,1c0.38-0.03,0.75-0.24,1.1-0.43c3.2-1.69,6.54-1.73,9.95-0.79
		c0.3,0.08,0.6,0.21,0.9,0.31c0.61,0.19,1.15,0.08,1.39-0.54c0.25-0.63-0.11-0.99-0.67-1.31c-3.29-1.83-10.17-1.43-13.03,0.79
		C234.08,135.2,233.81,135.48,233.74,135.92z"/>
	<path class="st1365" d="M236.86,144.33c0,0.64,0.77,1.18,1.35,0.88c0.34-0.18,0.58-0.53,0.87-0.8c1.55-1.46,3.34-1.72,5.29-1.03
		c0.52,0.18,0.99,0.53,1.52,0.66c0.37,0.09,0.77-0.12,0.97-0.53c0.16-0.33,0.11-0.65-0.13-0.88c-1.41-1.36-3.16-1.87-5.04-1.59
		c-1.91,0.28-3.7,0.96-4.71,2.84C236.91,144.01,236.9,144.18,236.86,144.33z"/>
	<path class="st1366" d="M264.97,142.77c0.05,0.55,0.03,0.96,0.12,1.34c0.13,0.53,0.54,0.77,1.08,0.72c0.44-0.04,0.7-0.34,0.76-0.78
		c0.04-0.31-0.01-0.64,0.04-0.95c0.32-2.06,1.08-3.82,3.19-4.67c0.5-0.2,1.09-0.48,0.79-1.22c-0.26-0.63-0.85-0.62-1.42-0.61
		c-0.51,0-0.92,0.23-1.31,0.51C266.21,138.52,265.17,140.48,264.97,142.77z"/>
	<path class="st1268" d="M222.11,145.65c-2.31-0.01-3.81,0.56-4.79,2.12c-0.38,0.6-0.76,1.31,0.06,1.87
		c0.74,0.51,1.13-0.07,1.52-0.6c1.11-1.51,2.59-1.59,4.23-1.11c0.73,0.22,1.67,0.7,1.99-0.41c0.28-1-0.73-1.33-1.43-1.59
		C223.03,145.69,222.29,145.68,222.11,145.65z"/>
	<path class="st313" d="M229.2,165.94c4.39,6.27,12.7,2.58,15.13-3.79C239.35,163.88,234.57,165.66,229.2,165.94z"/>
</g>
</svg>
