<?xml version="1.0" encoding="utf-8" ?><svg xmlns="http://www.w3.org/2000/svg" xmlns:xlink="http://www.w3.org/1999/xlink" width="11978" height="6739" viewBox="0 0 11978 6739"><path fill="#312726" transform="matrix(6.58132 0 0 6.58106 0.000976562 0)" d="M1517.94 43.949L1530.28 44.4802C1542.84 52.0694 1551.67 62.6958 1565.99 69.7516C1559.61 59.6027 1547.32 51.7379 1537.84 44.2759C1553.64 44.4034 1558.29 50.2774 1570.16 60.65C1576.89 55.7673 1583.81 49.9914 1590.34 44.7417L1602.99 44.7473C1599.12 47.4282 1594.84 50.7325 1591.17 53.7342C1564.6 75.4728 1536.99 96.0289 1510.57 117.899C1507.94 120.077 1505.08 124.5 1503.17 127.423C1506.95 125.307 1510.97 122.434 1514.39 119.753C1546.36 94.705 1578.08 69.1701 1610.38 44.5514L1621.74 44.662C1611.2 53.5747 1598.75 63.0403 1587.88 71.8721C1606.4 85.3987 1622.7 99.0747 1640.58 113.219L1641.29 44.6186L1654.93 44.4023L1654.53 550.835C1654.37 634.401 1653.45 719.706 1654.36 803.111L1654.58 909.851L1667.47 910.072C1667.3 920.092 1667.34 930.048 1667.37 940.066L1654.62 940.305L1654.56 981.146L1640.52 981.29L1640.43 945.829C1627.84 956.358 1609.41 970.773 1595.77 980.803C1594.83 981.493 1589.74 981.25 1588.16 981.182L1587.53 980.282C1594.56 971.793 1635.32 945.853 1636.32 940.496C1623.17 937.572 1586.85 978.314 1573 981.252C1559.1 984.201 1518.12 939.093 1508.44 940.888C1507.96 948.094 1550.08 972.438 1554.29 980.837L1553.25 981.484C1538.22 981.127 1518.05 959.564 1504.57 950.264L1504.56 981.261L1490.37 981.352L1490.29 940.478L1475.47 940.265L1475.3 912.201C1481.38 912.094 1484.28 911.617 1490.19 910.613C1491.67 814.122 1490.18 714.158 1490.22 617.36L1490.26 44.5167L1503.69 44.4821L1503.89 112.505C1520.38 100.686 1539.27 85.201 1555.56 72.5105C1543.19 63.7108 1530.32 53.2021 1517.94 43.949ZM1516.43 909.924L1573.39 910.101C1591.69 910.085 1610.79 910.354 1629.02 909.989C1620.7 903.398 1581.09 872.09 1572.72 867.523C1553.75 881.472 1535.27 895.92 1516.43 909.924ZM1607.1 581.726C1582.53 582.488 1544.35 583.893 1519.81 586.802C1528.79 594.277 1544.46 606.499 1554.46 612.539C1561.19 616.476 1566.44 621.098 1572.43 626.067C1577.67 621.918 1581.83 617.815 1587.2 613.463C1599.81 603.244 1615.63 592.688 1627.07 581.526C1620.55 581.583 1613.58 581.515 1607.1 581.726ZM1562.06 692.822C1581.43 689.399 1599.69 688.041 1618.86 684.991C1614.44 681.414 1575.84 650.574 1573.14 649.605C1555.67 663.193 1536.26 678.482 1518.26 691.277C1521.64 693.443 1525.13 695.575 1528.26 698.078C1539.38 696.403 1551.04 694.826 1562.06 692.822ZM1587.68 300.889L1611.4 319.774C1620.98 327.402 1630.89 335.554 1640.57 342.977C1640.71 332.103 1642.5 265.361 1639.2 261.188C1621.97 274.075 1604.49 287.444 1587.68 300.889ZM1587.16 524.437C1595.82 530.388 1603.56 536.492 1611.82 542.946C1621.08 550.426 1631.34 558.386 1640.34 566.054C1640.39 555.266 1641.78 487.16 1638.75 483.492C1621 496.67 1604.33 510.527 1587.16 524.437ZM1519.22 125.433L1573.39 125.352C1590.46 125.338 1608.15 125.568 1625.16 125.25C1612.79 115.386 1584.27 91.6982 1572.1 84.4129C1554.41 97.2831 1536.08 111.501 1519.22 125.433ZM1504.13 565.743L1533.76 541.993L1557 523.715C1544.25 514.96 1532.39 504.865 1520.23 495.359C1516.6 492.525 1507.59 484.88 1504.18 482.865L1504.13 565.743ZM1534.17 205.05C1541.68 199.326 1549.67 193.435 1556.96 187.493C1539.99 175.698 1519.79 157.549 1503.64 147.34L1503.81 229.092C1513.91 220.963 1523.92 212.987 1534.17 205.05ZM1613.05 207.897C1622.48 215.008 1631.38 221.976 1640.58 229.379C1640.62 218.528 1641.66 154.576 1639.36 148.894L1638.72 148.323C1623.08 160.788 1603.83 176.837 1587.6 187.935C1596.23 194.558 1604.58 201.054 1613.05 207.897ZM1587.87 410.374L1613.22 430.322C1621.71 437.158 1631.61 445.51 1640.5 451.575C1640.51 439.789 1641.2 378.575 1639.36 371.258L1638.63 370.535C1622.37 383.455 1604.5 398.313 1587.87 410.374ZM1599.03 490.222C1606.18 484.633 1613.68 478.944 1620.51 473.01C1587.94 472.962 1554.91 472.641 1522.37 473.05C1538.81 485.405 1556.39 498.827 1572.37 511.797L1599.03 490.222ZM1624.73 794.415C1616.75 789.504 1573.45 756.535 1572.4 756.22C1559.38 765.883 1534.48 783.376 1523.28 793.817L1576.28 793.807C1592.12 793.944 1608.97 793.816 1624.73 794.415ZM1524.87 363.61C1538 373.864 1558.93 388.325 1570.26 399.244L1596.79 379.705C1603.23 374.768 1611.49 368.769 1617.51 363.563C1588.55 363.3 1553.68 362.296 1524.87 363.61ZM1564.51 747.521C1550.45 757.885 1510.57 785.668 1501.13 797.965C1510.95 793.764 1549.98 764.98 1559.07 756.704C1570.34 746.451 1634.75 703.041 1639.42 695.21L1639.37 694.334C1627.06 697.947 1581.31 733.288 1570.48 742.987C1562.32 735.277 1514.33 695.286 1506.84 695.432C1506 703.54 1565.81 738.691 1568.19 744.292C1566.64 745.986 1566.39 746.218 1564.51 747.521ZM1597 955.369L1616.88 939.959C1589 939.632 1551.41 938.474 1524.01 939.909C1536.88 951.226 1556.03 966.04 1570.16 975.991C1579.36 969.136 1588.03 962.537 1597 955.369ZM1571.73 312.693C1555.61 324.931 1534.81 339.914 1519.76 352.993L1572.73 353.551C1588.94 353.371 1608.05 353.773 1623.96 353.124C1610.21 342.153 1585.61 321.555 1571.73 312.693ZM1639.46 575.19C1619.02 555.598 1594.39 541.148 1575.21 523.904C1591.19 513.28 1603.12 502.288 1617.65 489.913C1624.44 484.129 1634.25 479.772 1639.22 471.957L1638.92 470.896C1633.72 471.141 1618.64 484.499 1613.68 488.397C1600 499.146 1584.97 509.639 1572.08 521.238C1562.53 514.319 1509.77 471.054 1503.57 469.171C1503.77 469.964 1504.03 470.938 1504.32 472.093C1521.62 489.365 1551.4 509.103 1568.53 524.665C1553.83 535.782 1511.8 566.895 1502.32 579.444C1525.54 569.939 1549.49 540.384 1570.88 529.246C1577.34 525.885 1626.39 572.991 1637.42 576.321C1638.76 575.796 1638.86 576.046 1639.46 575.19ZM1579.45 76.1906C1579.33 78.5997 1578.94 79.5562 1581.28 81.5658C1589.28 88.4439 1633.99 124.577 1639.9 127.243C1640.18 124.779 1640.81 124.076 1638.97 122.243C1632.16 115.445 1585.06 77.9135 1579.45 76.1906ZM1506.76 240.608C1520.47 231.08 1638.02 141.306 1640.08 136.039C1639.68 134.29 1639.72 133.92 1638.43 132.622C1594.98 167.042 1547.33 202.416 1505.16 237.738L1505.03 238.96L1506.76 240.608ZM1554.85 411.203C1544.51 403.198 1513.75 378.398 1503.83 372.869C1503.77 397.594 1503.54 422.468 1504.3 447.172C1514.72 440.288 1524.59 432.971 1534.67 425.61C1540.88 421.124 1548.53 415.27 1554.85 411.203ZM1506.58 353.227C1510.47 350.876 1527.34 338.175 1530.73 335.221C1543.46 324.117 1638.3 254.769 1639.75 248.914L1639.32 245.116C1627.11 254.524 1507.33 346.54 1505.71 350.221L1506.58 353.227ZM1571.6 175.69L1598.43 154.818C1606.29 148.814 1614.27 142.814 1622.03 136.688C1593.68 136.068 1565.34 135.933 1536.99 136.214C1533.21 136.251 1529.42 136.152 1525.65 136.419L1523.74 137.095C1526.61 141.574 1563.53 167.812 1571.6 175.69ZM1520.32 804.644C1537.01 817.396 1555.68 831.147 1571.43 844.754C1580.88 837.708 1590.97 830.402 1600.17 823.134C1607.77 817.362 1616.88 810.056 1624.65 804.783C1589.82 803.815 1555.15 804.108 1520.32 804.644ZM1556.51 637.646C1547.23 631.119 1511.21 603.172 1504.74 600.43C1502.83 624.261 1503.59 654.589 1504.26 678.69C1514.09 671.527 1523.62 664.581 1533.19 657.065C1540.46 651.514 1550.33 644.173 1556.51 637.646ZM1507.58 461.071C1523.94 448.725 1636.6 365.628 1640.21 359.434L1639.8 358.063L1638.13 357.202L1551.29 422.094C1543.94 427.646 1509.99 453.173 1505.63 459.221L1505.69 460.836L1507.58 461.071ZM1639.65 783.266C1639.7 771.107 1641.85 713.227 1639.42 705.645C1621.68 718.186 1604.47 730.957 1587.47 744.489L1612.37 762.794C1620.75 769.197 1631.04 777.505 1639.65 783.266ZM1619.29 693.715C1594.98 696.16 1559.52 700.678 1535.82 705.362C1541.41 709.468 1547.24 713.898 1552.97 717.727C1559.48 722.659 1565.7 727.332 1571.9 732.673C1581.18 724.923 1615.12 701.391 1620.52 694.729L1619.94 693.762L1619.29 693.715ZM1639.95 465.004C1639.89 462.444 1639.93 461.722 1637.43 459.59C1629.18 452.546 1585.99 415.734 1578.25 415.079L1578.15 416.846C1587.38 425.371 1630.79 460.545 1639.95 465.004ZM1503.78 134.97C1504.1 135.799 1504.54 136.934 1505.1 138.374C1524.11 152.591 1542.81 170.208 1562.61 182.639C1563.33 183.093 1565.38 182.588 1566.24 182.471C1563.33 176.48 1510.85 136.964 1503.78 134.97ZM1641.25 355.788C1639.62 349.47 1585.26 306.926 1577.76 305.705C1580.42 310.851 1635.71 355.184 1641.25 355.788ZM1565.92 850.638C1560.8 841.128 1518.06 812.63 1506.91 804.578C1506.58 804.337 1503.99 804.186 1503.48 804.149C1507.62 810.42 1551.64 844.957 1562.3 850.652C1562.59 850.81 1565.27 850.682 1565.92 850.638ZM1506.08 359.683C1505.68 361.279 1504.71 363.457 1505.81 364.339C1514.29 371.149 1556.77 404.801 1563.63 407.236C1563.83 406.045 1564.34 404.718 1563.76 404.057C1557.72 397.224 1511.25 361.512 1506.08 359.683ZM1660.53 919.235C1656.39 916.092 1629.61 917.231 1622.81 917.232L1562.35 917.243L1512.62 917.276C1503.74 917.285 1491.02 916.956 1482.36 917.774C1486.85 921.253 1515.85 919.995 1523.28 919.993L1589.14 919.994L1633.98 920.136C1641.22 920.155 1653.88 920.744 1660.53 919.235ZM1504.16 587.183C1507.74 595.764 1552.32 625.744 1561.92 632.579C1562.71 633.147 1565.08 632.5 1566.01 632.19C1561.65 626.397 1510.57 588.686 1504.16 587.183ZM1506.83 690.877C1523.81 677.96 1637.74 592.875 1639.71 584.883C1638.92 583.555 1639.27 583.736 1638.12 582.923C1622.89 595.001 1510.35 680.343 1505.7 688.524C1506.18 690.388 1505.66 689.793 1506.83 690.877ZM1502.91 247.709C1504.52 252.983 1557.7 295.524 1565.15 294.702C1560.81 287.829 1510.34 248.826 1502.91 247.709ZM1578.23 748.304C1578.41 749.042 1578.64 749.938 1578.9 750.993C1593.52 764.191 1624.65 788.19 1640.2 797.569C1639.51 792.342 1639.62 791.813 1634.4 788.341C1625.79 782.615 1584.61 749.868 1578.23 748.304ZM1638.32 241.584C1638.6 239.573 1639.13 238.993 1637.95 237.684C1631.27 230.281 1584.76 193.326 1578.27 191.781L1578 194.177C1583.95 201.27 1629.13 236.083 1638.32 241.584ZM1638.12 804.283C1617.92 818.997 1512.31 894.671 1504.47 906.682C1505.05 908.114 1504.88 908.063 1505.86 909.188C1549.21 876.383 1591.5 842.303 1636.18 811.154C1637.8 810.02 1639.25 808.222 1639.59 806.241C1639.04 805.41 1638.84 804.896 1638.12 804.283ZM1579.78 643.311C1584.36 650.305 1631.3 686.09 1640.65 689.03C1637.92 680.635 1593.17 650.73 1583.82 644.305C1582.99 643.739 1580.87 643.384 1579.78 643.311ZM1579.29 860.292C1580.03 863.537 1580.93 864.394 1583.66 866.529C1602.21 881.024 1621.31 895.299 1639.92 909.695C1639.72 907.101 1640.05 904.118 1637.81 902.535C1626.69 894.675 1590.58 862.411 1579.29 860.292ZM1604.45 249.309C1579.97 250.798 1547.17 249.559 1521.98 249.777C1532.56 258.093 1544.37 266.682 1554.62 274.995C1560.19 279.416 1566.22 284.024 1571.65 288.556C1586 277.448 1608.67 261.086 1621.76 249.748C1616.22 249.435 1609.91 248.888 1604.45 249.309ZM1639.43 673.857C1641.05 660.203 1641.99 611.607 1640.14 597.996C1621.77 611.328 1606.05 624.125 1588.29 638.158C1595.87 643.183 1602.14 647.653 1609.41 653.135C1618.65 660.21 1629.23 668.41 1639.43 673.857ZM1504.5 896.142C1514.34 888.14 1523.88 880.427 1534 872.76C1541.2 867.213 1548.55 861.403 1555.87 856.041C1537.87 842.683 1522.03 830.269 1504.46 816.573C1504.44 842.78 1504.04 870.025 1504.5 896.142ZM1640.39 894.516L1640.49 841.003C1640.49 837.519 1640.63 820.41 1640.08 817.667C1625.28 828.197 1602.5 843.538 1589.49 855.255C1596.75 861.31 1603.61 866.905 1611.11 872.693C1620.6 879.792 1630.78 887.718 1640.39 894.516ZM1572.12 199.954C1555.05 212.9 1538.56 225.447 1521.99 239.017C1538.87 238.855 1555.61 238.699 1572.5 238.887C1588.29 238.92 1606.64 239.43 1622.21 238.905L1572.12 199.954ZM1533.45 761.629L1556.23 744.18C1540.82 732.596 1525.19 721.323 1510.04 709.412C1508.37 708.098 1506.25 706.24 1504.46 705.227C1504.52 731.291 1504.18 758.41 1504.7 784.386C1514.43 776.96 1523.9 769.293 1533.45 761.629ZM1620.93 573.288C1614.64 568.399 1576.25 538.29 1571.4 536.682C1556.46 548.409 1535.33 564.388 1521.66 576.77C1536.97 576.739 1553.87 576.234 1569.17 575.21C1585.19 574.63 1605.19 574.521 1620.93 573.288ZM1503.69 260.852L1503.73 340.162C1514.29 332.784 1524.08 324.942 1534.2 316.977C1541.26 311.608 1548.61 305.825 1555.75 300.628C1542.35 289.954 1517.48 269.114 1503.69 260.852ZM1622.43 462.279C1605.46 448.507 1589.34 435.518 1571.97 422.158L1519.14 462.358L1569.17 462.441C1586.2 462.452 1605.59 462.916 1622.43 462.279Z"/><path fill="#F9D0A4" fill-opacity="0.0078431377" transform="matrix(6.58132 0 0 6.58106 0.000976562 0)" d="M1578.27 191.781C1584.76 193.326 1631.27 230.281 1637.95 237.684C1639.13 238.993 1638.6 239.573 1638.32 241.584C1629.13 236.083 1583.95 201.27 1578 194.177L1578.27 191.781Z"/><path fill="#312726" transform="matrix(6.58132 0 0 6.58106 0.000976562 0)" d="M198.659 54.1808C202.456 54.1352 251.082 70.359 258.541 72.7012L508.156 151.581C513.737 159.214 535.544 188.172 538.074 194.948L537.215 196.039C525.153 197.27 508.58 197.014 496.206 197.071L430.694 197.199L228.437 197.141C228.432 208.056 229.608 228.805 227.819 238.656C225.02 241.823 224.737 238.839 220.167 241.182C218.649 245.215 219.442 268.329 219.516 274.072L232.767 273.935L232.831 224.612C251.534 224.722 271.297 225.204 289.901 224.493C289.59 247.808 289.848 271.733 289.847 295.095L232.64 294.957L232.675 283.132L219.631 282.983L219.482 957.736L219.452 981.297C216.721 981.554 213.192 982.296 210.944 981.146C208.909 973.153 210.072 921.072 210.378 910.295C203.734 910.084 196.542 910.196 189.85 910.179C189.399 933.455 189.959 958.685 190.029 982.113L179.688 981.828C180.601 911.819 179.57 839.7 179.517 769.575L180.071 282.798C175.57 282.847 170.679 283.185 169.216 278.031L170.568 276.082C173.171 274.21 176.319 274.574 179.615 274.517C179.788 266.917 180.717 248.05 178.892 241.571L175.443 239.954C173.092 235.549 174.117 203.765 174.19 196.497C147.385 195.578 119.091 196.867 92.1853 196.414C87.6702 196.338 68.585 196.955 65.9144 196.253C64.4286 194.039 64.9436 193.946 65.0472 190.9C67.7904 189.302 81.0848 190.031 85.0654 190.089L84.9697 164.95C82.1092 162.415 78.6957 159.866 75.6536 157.49C69.6935 157.443 68.4047 158.068 63.939 154.397L64.2435 152.401C71.1566 149.72 159.273 151.314 174.102 151.416L173.91 118.58C177.574 118.441 181.592 118.503 185.288 118.482C187.401 101.232 191.922 78.3759 195.191 61.2542C164.466 73.3899 134.426 88.9994 104.428 102.849C98.5459 105.565 67.8973 121.46 64.6906 120.146L64.5689 117.271C68.1189 113.612 184.672 60.8655 198.659 54.1808ZM214.53 119.066L228.461 119.022L228.431 151.129L403.899 151.065C432.506 151.055 462.907 151.585 491.391 151.034L320.688 97.1449C284.603 85.5733 241.699 70.4629 205.582 60.8929C209.25 79.5873 213.568 100.08 214.53 119.066ZM213.362 206.886C213.453 184.746 213.654 162.436 213.08 140.313L189.655 140.381C189.456 156.338 188.291 192.359 190.048 207.02L213.362 206.886ZM264.702 177.715C268.528 174.168 281.921 163.185 277.349 157.443C268.745 155.739 239.098 156.591 228.462 156.71L228.431 190.438L252.543 190.431L264.702 177.715ZM209.458 544.84C211.022 541.999 210.479 493.024 210.484 484.722C204.493 484.695 196.511 484.449 190.69 484.818C189.254 486.115 189.41 486.108 189.421 488.831C189.491 507.241 189.196 526.438 189.652 544.787L209.458 544.84ZM124.522 189.791C130.499 189.843 136.42 189.948 142.394 189.697C142.443 179.37 142.25 167.611 142.644 157.409L88.6463 157.308C93.4631 169.995 113.12 181.81 124.522 189.791ZM189.43 358.927C196.006 358.931 204.07 359.139 210.511 358.788L210.456 302.403C203.395 302.303 196.965 302.346 189.908 302.575C189.412 321.461 189.417 340.047 189.43 358.927ZM189.459 480.154L210.576 480.195L210.556 424.813C203.611 424.783 196.333 424.647 189.421 424.83L189.459 480.154ZM210.026 846.303C210.202 829.164 211.09 806.436 209.856 789.827L189.857 790.148C189.547 806.335 188.54 830.647 189.846 846.194C195.903 846.3 204.165 846.657 210.026 846.303ZM209.587 784.947C211.312 770.279 210.484 745.126 210.344 729.418C202.518 729.059 197.723 728.945 189.944 729.508C188.641 742.097 188.81 770.649 190.348 782.993C197.033 784.264 202.763 785.74 209.587 784.947ZM210.406 604.437L210.38 549.307C203.597 549.269 196.215 549.092 189.488 549.304L189.707 604.659C196.53 604.696 203.621 604.86 210.406 604.437ZM189.33 664.452L206.145 664.67L209.754 663.89C211.246 661.158 210.299 616.764 210.417 609.722C205.208 609.544 198.938 609.181 193.823 609.236L190.158 609.893C188.687 612.544 189.374 657.609 189.33 664.452ZM189.505 419.514C193.581 419.553 206.702 419.962 209.833 419.066L210.154 418.386L210.429 364.438C203.734 364.332 196.068 364.047 189.469 364.333L189.505 419.514ZM364.21 190.399C376.261 190.391 389.479 190.649 401.436 190.314C401.523 185.265 402.589 163.733 400.462 160.882L400.122 160.752C394.122 165.022 365.219 185.151 363.064 189.92L364.21 190.399ZM283.704 190.221L294.063 190.221C301.972 184.007 309.751 177.846 317.546 171.479L335.813 156.484C318.604 156.783 300.701 156.388 283.76 156.806L283.704 190.221ZM423.837 190.156L464.091 190.295C464.129 184.209 464.557 166.125 463.682 160.879C457.357 165.257 426.893 185.853 423.859 189.76L423.837 190.156ZM210.254 669.326L189.389 669.296L189.375 724.424C196.194 724.431 203.59 724.588 210.356 724.413L210.254 669.326ZM305.547 190.42L340.128 190.271C340.164 184.589 341 164.322 338.388 160.734C330.285 167.203 311.083 182.036 304.493 188.894L304.553 190.121L305.547 190.42ZM199.562 119.007L209.591 118.803C207.925 107.72 203.689 76.2304 200.334 67.554C196.406 79.2834 192.179 105.758 190.482 118.65L199.562 119.007ZM278.067 190.375C278.119 186.931 278.925 174.49 276.815 172.322C273.121 175.827 262.871 185.462 260.8 189.507L261.462 190.288L278.067 190.375ZM90.9178 189.703C98.5288 189.748 107.73 190.046 115.213 189.754C110.907 185.106 96.4345 174.051 90.8328 170.226L90.9178 189.703ZM173.437 180.724C173.484 174.171 173.245 163.559 173.815 157.336C165.306 157.298 156.593 157.162 148.104 157.337C151.596 160.93 170.037 180.646 173.437 180.724ZM210.366 283.099C203.937 282.978 196.462 282.657 190.156 283.125L190.144 296.048C196.256 296.069 204.541 296.313 210.456 295.883L210.366 283.099ZM148.729 165.837L148.846 189.383C157.179 189.695 165.471 190.181 173.78 189.376C168.112 183.687 154.822 169.922 148.729 165.837ZM470.139 157.181C469.987 165.586 468.557 183.643 472.649 189.81C475.292 191.359 474.212 190.925 478.013 190.64C486.145 181.813 497.768 166.97 504.234 156.681L496.892 156.886L470.139 157.181ZM507.595 161.599C501.046 170.238 492.122 182.44 485.096 190.232L508.542 190.366L529.193 190.275C524.807 184.019 512.612 166.067 507.595 161.599ZM396.634 156.551L353.07 156.798C349.465 157.256 348.049 156.691 346.32 158.883C345.182 166.509 342.295 187.225 351.603 189.63C359.071 188.324 367.754 179.348 374.148 174.424C381.635 168.657 389.554 162.76 396.634 156.551ZM460.011 156.725L407.176 156.738C407.176 163.859 405.889 186.405 409.818 190.427C416.341 192.148 434.232 176.07 440.261 171.507C446.46 166.994 454.284 161.596 460.011 156.725ZM189.772 240.559C189.453 251.668 189.73 262.699 189.925 273.808C196.93 274.005 203.56 274.193 210.566 274.034L210.632 240.262C203.404 240.177 196.981 240.082 189.772 240.559ZM210.125 903.599L210.197 851.216C203.424 851.099 196.695 850.923 189.924 851.151C189.035 863.804 188.991 892.229 190.103 904.802C195.255 904.893 204.991 905.297 209.735 904.661L210.125 903.599Z"/><path fill="#312726" transform="matrix(6.58132 0 0 6.58106 0.000976562 0)" d="M642.438 210.788C638.891 181.672 638.433 157.507 657.657 133.377C693.852 87.9454 769.511 77.0922 815.432 113.758C833.421 128.122 843.973 144.93 853.335 165.568C865.983 163.309 890.825 160.13 902.653 166.996C910.346 171.462 905.236 181.73 901.051 187.139C887.671 204.429 867.556 213.465 847.119 219.678C846.516 227.056 845.401 231.078 842.613 237.965C853.275 255.758 875.961 270.974 846.646 280.163C848.197 288.775 844.401 325.388 838.252 333.098C835.794 336.18 833.088 338.503 829.698 340.696C815.96 340.503 805.656 338.65 792.298 335.261L784.057 343.325C790.704 348.414 794.587 351.321 800.301 357.485C791.153 369.571 788.885 372.831 784.938 387.874C792.268 400.506 801.93 412.782 808.491 424.697C837.341 477.096 850.179 527.417 854.68 586.487C883.342 579.416 918.167 571.435 945.257 559.407C950.348 557.146 958.4 545.198 963.442 540.768C971.105 534.034 977.443 531.337 985.618 526.556C1008.34 513.266 1013.84 510.309 1039.34 506.672C1053.06 489.322 1066.58 471.69 1080.69 454.677C1088.55 445.208 1095.78 434.684 1106.7 428.907C1116.28 430.045 1130.51 435.381 1140.32 438.08C1161.71 443.967 1186.53 451.814 1208.51 454.725C1227.3 435.067 1241.47 419.353 1256.03 395.793C1274.29 402.712 1295.29 412.566 1304.31 431.307C1317.75 459.236 1288.81 476.717 1270.52 493.401C1210.35 548.307 1154.05 607.851 1109.27 676.193C1099.07 691.761 1087.54 710.522 1078.29 726.647C1063.37 752.663 1060.1 760.871 1030.73 773.02C984.702 792.057 929.036 796.571 881.518 780.119C878.916 779.176 876.579 777.819 874.827 775.697C871.535 764.876 914.335 700.836 919.8 688.116C922.067 682.839 933.848 663.258 937.345 658.589C910.912 667.47 882.686 680.993 855.078 690.496C857.333 738.672 856.032 787.072 859.398 835.277C859.838 841.576 857.59 852.649 858.406 857.374C861.459 875.065 866.394 893.385 870.061 910.955C877.972 948.855 887.298 986.159 895.366 1024L885.59 1024L823.233 1024L818.853 1024L708.647 1024L614.462 1024L527.366 1024L517.381 1024C525.719 976.053 537.639 912.483 545.014 863.344C546.091 856.175 534.79 811.751 532.777 800.661C515.124 792.335 495.215 783.431 479.75 771.63C495.605 646.492 519.666 465.338 586.191 358.729C591.434 350.327 596.649 341.524 602.944 333.882C608.264 327.424 614.525 321.836 620.722 316.247C625.984 288.476 633.92 297.128 653.548 285.48C646.623 274.671 642.459 268.261 644.701 254.548C644.873 253.491 644.96 253.779 645.987 252.816C652.874 258.424 660.474 271.617 668.515 263.203C671.068 256.215 660.343 237.497 656.871 230.333C642.781 229.975 626.352 227.884 642.438 210.788Z"/><path fill="#F6F3E0" transform="matrix(6.58132 0 0 6.58106 0.000976562 0)" d="M576.376 812.36C616.517 826.228 662.662 835.26 704.301 843.194C731.267 848.333 759.887 853.709 787.081 857.37C788.948 873.796 793.315 891.395 796.254 907.767C803.139 946.123 812.806 985.691 818.853 1024L708.647 1024L656.525 900.548C633.308 887.526 607.752 874.53 590.443 853.78C580.623 842.008 578.146 827.095 576.376 812.36Z"/><path fill="#F6F3E0" transform="matrix(6.58132 0 0 6.58106 0.000976562 0)" d="M542.248 802.638C552.083 805.83 561.995 809.182 571.995 811.775C575.212 856.391 588.225 856.819 617.825 883.927C604.551 879.374 575.336 867.966 563.462 866.054C581.288 878.781 598.923 881.201 619.247 888.816C628.662 892.344 636.109 896.656 644.614 901.925C619.93 904.635 595.981 906.318 573.064 916.143C581.225 916.152 589.228 914.883 597.215 913.301C612.515 910.27 627.934 908.085 643.361 905.814L624.502 982.097C621.928 992.336 615.873 1014.09 614.462 1024L527.366 1024L546.205 915.421C547.951 905.486 554.674 873.171 554.095 865.595C552.669 846.954 545.338 822.006 542.248 802.638Z"/><path fill="#F6F3E0" transform="matrix(6.58132 0 0 6.58106 0.000976562 0)" d="M791.321 858.33C810.423 860.089 831.26 861.896 850.179 864.716L872.645 964.384C876.66 982.146 882.63 1006.23 885.59 1024L823.233 1024L803.317 921.507C799.821 903.863 793.039 875.378 791.321 858.33Z"/><path fill="#F6F3E0" transform="matrix(6.58132 0 0 6.58106 0.000976562 0)" d="M1107.75 437.365C1117.34 440.735 1135.3 445.424 1145.47 448.198C1193.45 461.276 1245.27 476.119 1294.19 460.612C1291.73 463.351 1288.04 466.914 1285.24 469.301C1199.76 542.134 1121.27 628.596 1067.51 727.749C1053.47 753.642 1048.44 755.923 1021.41 767.141C978.309 784.101 927.541 786.618 883.484 771.621C891.665 754.122 904.445 733.706 914.309 716.75L965.976 627.874C989.028 614.796 1025.66 611.361 1043.41 589.121C1053.7 576.235 1062.61 553.044 1065.9 536.79C1071.43 533.042 1077.35 530.01 1078.48 522.965C1074.44 509.944 1048.1 518.195 1038.98 520.821C1062.4 493.104 1083.75 465.031 1107.75 437.365Z"/><path fill="#E67856" transform="matrix(6.58132 0 0 6.58106 0.000976562 0)" d="M507.864 639.303C519.831 646.114 539.727 653.986 552.834 659.014C589.464 673.065 627.821 685.466 665.686 695.648C671.267 710.416 678.603 729.915 693.712 736.978C716.457 747.612 752.214 733.21 774.185 725.411C798.975 732.222 823.299 738.436 848.545 743.285C848.499 766.194 848.834 788.938 849.898 811.823C850.163 817.528 851.959 842.111 848.734 844.663C825.35 843.833 780.632 838.244 757.281 835.284C682.088 825.751 551.006 811.968 489.235 767.506C491.935 730.569 501.68 676.943 507.864 639.303Z"/><path fill="#F6F3E0" transform="matrix(6.58132 0 0 6.58106 0.000976562 0)" d="M718.506 393.12C757.094 390.966 767.595 406.041 772.916 440.902C779.582 484.572 784.709 522.767 782.712 566.988C762.942 557.877 744.849 548.027 726.242 536.771C716.085 530.625 701.425 518.453 691.443 514.558C702.707 531.037 757.488 559.424 776.814 568.544C783.361 571.222 796.608 576.173 796.156 584.631C795.725 585.426 795.233 586.336 794.677 587.362C789.866 587.869 777.735 588.892 773.58 589.651C743.431 595.165 714.881 609.9 691.311 628.806C677.365 591.834 667.82 553.75 661.166 514.805C654.455 475.525 658.017 427.926 693.164 402.658C701.25 396.845 708.973 394.667 718.506 393.12Z"/><path fill="#F6F3E0" transform="matrix(6.58132 0 0 6.58106 0.000976562 0)" d="M737.712 100.777C759.464 97.9746 786.694 119.634 799.24 136.223C786.493 148.196 790.479 164.877 793.983 179.972C785.329 181.628 775.967 184.921 767.272 185.578C762.776 185.917 759.605 175.039 753.12 174.873C741.819 174.583 722.325 177.491 713.274 184.589C710.18 187.015 710.823 193.504 710.873 197.152C694.778 200.207 680.078 202.998 664.302 207.446C682.657 208.913 731.988 196.57 750.657 192.898C769.539 189.183 883.037 166.602 894.804 172.831C898.752 177.95 894.255 182.609 890.817 186.921C877.827 199.613 860.951 206.19 844.405 212.961C842.927 206.832 840.125 198.833 838.141 192.67C850.233 189.54 857.91 187.643 868.559 181.481C830.779 179.75 778.183 201.053 740.639 208.063C726.227 210.754 654.198 227.463 645.668 221.249C646.01 218.574 648.094 216.473 649.827 214.221C649.685 186.896 642.863 165.05 662.215 141.299C682.37 116.562 706.623 104.542 737.712 100.777Z"/><path fill="#E67856" transform="matrix(6.58132 0 0 6.58106 0.000976562 0)" d="M632.496 319.304C647.557 319.645 662.497 325.854 676.273 331.392C660.249 335.833 645.14 342.499 633.794 355.061C594.712 398.338 575.959 531.798 568.48 589.776C567.56 596.9 565.487 627.984 562.608 632.16C559.371 633.075 559.794 632.592 556.087 631.526C541.443 626.445 526.409 620.554 511.86 615.07C525.378 532.95 564.058 372.29 632.496 319.304Z"/><path fill="#F6F3E0" transform="matrix(6.58132 0 0 6.58106 0.000976562 0)" d="M828.869 199.353L831.369 199.098C837.944 201.884 838.352 214.343 838.435 220.542C838.517 226.607 836.841 230.893 834.826 236.472C839.621 252.853 845.175 257.814 856.952 269.346C847.469 274.814 848.548 273.269 838.004 275.798C843.333 279.788 841.512 288.871 838.275 293.541C833.789 294.805 819.661 289.739 813.991 288.327L813.315 289.591C816.857 296.785 836.087 295.636 839.283 300.95C838.772 304.002 835.945 306.304 833.816 309.006C835.523 311.907 836.763 314.109 836.426 317.594C834.667 335.781 819.825 335.419 805.947 330.74C786.771 324.276 762.96 314.863 752.217 296.688C748.607 290.58 751.411 263.945 747.372 259.83C740.6 267.541 744.341 285.12 746.343 294.046C751.229 312.199 757.702 320.932 769.144 335.582C742.542 319.66 724.355 311.958 695.933 300.325C710.766 293.723 717.659 284.509 731.384 277.663C733.154 276.779 737.843 281.801 742.125 276.379C739.045 272.483 730.994 271.616 727.32 266.703C721.164 258.916 714.893 240.691 721.217 231.627C734.312 212.862 750.088 249.348 764.165 245.34C780.658 240.643 786.678 219.797 800.544 210.174C810.835 203.033 816.871 201.427 828.869 199.353Z"/><path fill="#312726" transform="matrix(6.58132 0 0 6.58106 0.000976562 0)" d="M726.489 230.046C737.222 230.152 746.173 240.414 743.781 251.15C740.121 254.035 738.148 250.728 733.331 253.341C728.392 259.234 735.752 262.153 734.663 267.087L732.56 267.122C721.074 253.637 731.352 252.528 740.388 247.484C740.878 239.547 730.193 236.155 724.464 234.591L724.183 233.144L726.489 230.046Z"/><path fill="#312726" transform="matrix(6.58132 0 0 6.58106 0.000976562 0)" d="M814.773 216.218C821.594 216.118 831.592 216.652 834.251 224.321L833.116 225.837C830.049 227.05 827.25 225.852 823.995 224.969C818.15 223.775 807.814 224.027 802.983 220.884L803.403 219.522C807.594 217.304 810.063 217.076 814.773 216.218Z"/><path fill="#312726" transform="matrix(6.58132 0 0 6.58106 0.000976562 0)" d="M817.014 234.753C819.292 234.509 823.567 234.122 825.319 235.728C822.209 237.828 817.898 237.925 814.089 238.35C811.165 239.324 810.517 239.61 807.35 239.565L807.422 238.611C810.75 235.885 812.77 235.712 817.014 234.753Z"/><path fill="#312726" transform="matrix(6.58132 0 0 6.58106 0.000976562 0)" d="M817.394 240.438C819.143 239.626 821.221 240.34 822.101 242.056C822.982 243.771 822.35 245.876 820.671 246.824C819.525 247.471 818.115 247.439 817 246.74C815.884 246.04 815.24 244.786 815.322 243.471C815.405 242.157 816.2 240.992 817.394 240.438Z"/><path fill="#F6F3E0" transform="matrix(6.58132 0 0 6.58106 0.000976562 0)" d="M866.616 592.225C867.241 592.368 867.299 592.671 867.91 593.308C865.985 603.254 860.53 613.143 859.75 623.902C858.286 644.109 865.098 656.871 877.455 671.426C855.45 680.013 833.35 686.403 810.799 693.271C785.364 701.017 760.955 708.322 735.023 714.166C731.799 712.997 728.263 711.193 725.131 709.692C734.978 670.802 765.51 639.808 786.512 609.173C768.625 621.002 756.039 640.323 744.766 658.258C735.844 672.221 727.958 690.946 721.355 706.254C718.54 700.294 716.054 694.207 713.507 688.127C724.942 654.124 760.341 612.509 795.433 601.78C787.303 613.031 761.048 670.046 770.966 680.83C774.701 679.259 773.844 672.732 774.493 668.138C777.59 646.223 784.147 621.324 799.578 604.868C822.324 601.138 844.055 596.943 866.616 592.225Z"/><path fill="#E67856" transform="matrix(6.58132 0 0 6.58106 0.000976562 0)" d="M686.357 348.331C694.629 348.598 713.736 362.939 721.161 368.1C680.22 363.934 660.253 391.617 643.243 423.873C634.877 439.737 622.77 468.657 621.239 486.733C616.271 545.4 637.22 607.6 654.257 662.892C649.027 663.97 594.215 644.763 585.356 641.809C587.757 611.793 593.788 575.475 598.892 545.84C606.995 498.789 616.715 449.477 633.882 404.826C646.878 371.025 654.342 362.493 686.357 348.331Z"/><path fill="#F6F3E0" transform="matrix(6.58132 0 0 6.58106 0.000976562 0)" d="M1065.48 522.148C1067.62 521.801 1068.01 522.147 1070.11 522.977C1071.57 532.48 1011.51 547.172 1007.87 553.94C1018.21 563.511 1051.36 543.103 1058.38 543.657L1058.34 545.424C1050.28 556.838 1018.88 568.371 1002.98 580.639C1023.92 574.806 1034.41 568.475 1053.27 557.963C1042.48 579.079 1023.83 582.148 1006.21 597.585C1017.86 594.021 1022.71 591.905 1033.31 585.72C1037.82 582.469 1042.67 579.48 1047.37 576.484C1026.9 602.972 1002.15 608.542 972.473 619.858C961.828 623.916 950.568 629.475 939.53 633.779C922.697 616.293 924.263 596.037 934.424 575.486C958.666 568.516 956.813 554.886 974.578 539.783C988.945 539.529 1007.54 536.577 1021.42 532.904C1036.69 528.868 1049.59 523.65 1065.48 522.148Z"/><path fill="#312726" transform="matrix(6.58132 0 0 6.58106 0.000976562 0)" d="M989.587 549.765C995.044 552.708 994.602 555.697 995.421 561.477C990.189 559.947 990.193 554.334 989.587 549.765Z"/><path fill="#F6F3E0" transform="matrix(6.58132 0 0 6.58106 0.000976562 0)" d="M671.853 336.964L684.733 344.451C675.889 348.161 666.845 351.764 659.206 357.698C609.805 396.071 588.808 580.461 581.631 640.766C577.523 639.098 572.003 637.289 567.735 635.76C570.128 565.181 593.336 449.818 620.754 383.279C630.947 358.541 647.219 345.79 671.853 336.964Z"/><path fill="#F6F3E0" transform="matrix(6.58132 0 0 6.58106 0.000976562 0)" d="M926.121 575.15L927.284 575.132C928.476 576.761 922.813 603.879 923.485 610.731C924.542 621.525 930.164 641.144 944.814 639.862C946.015 638.642 946.41 638.031 948.054 637.494C948.7 640.952 945.411 645.629 942.45 647C925.772 654.724 907.972 660.794 890.668 667.089L881.813 670.15C858.327 641.901 859.079 621.032 875.603 589.691C892.719 585.198 909.305 580.666 926.121 575.15Z"/><path fill="#F6F3E0" transform="matrix(6.58132 0 0 6.58106 0.000976562 0)" d="M639.814 299.059C647.447 298.339 657.804 298.007 665.225 299.909C703.102 309.614 759.34 332.834 789.114 358.223C782.677 368.329 780.996 372.138 777.384 383.59C776.096 383.709 774.945 383.184 773.961 382.372C737.005 351.899 678.609 310.716 629.283 310.021C632.744 305.735 635.307 302.285 639.814 299.059Z"/><path fill="#F6F3E0" transform="matrix(6.58132 0 0 6.58106 0.000976562 0)" d="M511.206 618.937C559.031 639.524 607.608 652.149 656.371 669.802C658.133 674.072 663.86 686.795 661.758 690.484C610.061 674.989 556.677 659.278 508.315 635.11C509.205 629.715 510.223 624.318 511.206 618.937Z"/><path fill="#F6F3E0" transform="matrix(6.58132 0 0 6.58106 0.000976562 0)" d="M1259.46 406.018C1271.85 410.953 1297.34 424.442 1298.77 439.372C1300.43 456.624 1272.74 457.927 1260.81 458.855C1248.15 460.403 1232.11 458.266 1219.5 456.577C1236.02 438.652 1245.83 425.834 1259.46 406.018Z"/><path fill="#F6F3E0" transform="matrix(6.58132 0 0 6.58106 0.000976562 0)" d="M777.119 414.831C782.7 418.794 788.832 429.249 792.251 435.059C815.463 474.5 825.364 513.414 828.439 558.542C829.113 568.43 831.386 583.851 828.763 593.487L812.942 596.58C814.022 558.524 813.229 527.516 802.348 490.527C794.817 464.928 784.608 439.966 777.119 414.831Z"/><path fill="#F6F3E0" transform="matrix(6.58132 0 0 6.58106 0.000976562 0)" d="M706.272 377.014C721.745 375.872 735.693 383.206 748.213 391.297C741.297 389.994 735.703 388.936 728.77 388.621C694.219 387.246 670.949 411.19 660.327 441.692C654.407 458.69 654.027 471.151 653.67 488.768C653.688 499.034 654.993 508.008 656.474 518.137C650.395 510.386 642.639 500.165 640.222 490.53C634.469 467.596 648.027 434.704 658.942 415.091C669.443 396.225 685.45 382.666 706.272 377.014Z"/><path fill="#F6F3E0" transform="matrix(6.58132 0 0 6.58106 0.000976562 0)" d="M783.705 592.281C787.217 592.126 787.809 592.048 791.18 593.297L791.611 594.701C788.926 596.27 778.117 596.748 774.324 598.171C753.708 605.906 718.495 622.043 704.91 639.243C714.916 635.635 724.663 627.846 734.012 622.196C752.868 610.803 767.212 604.326 788.138 598.489C776.848 604.798 768.775 609.088 758.601 617.049C736.548 634.893 723.808 656.089 711.355 681.211C705.596 665.128 700.791 644.925 699.037 628.055C718.721 610.62 757.913 596.142 783.705 592.281Z"/><path fill="#E67856" transform="matrix(6.58132 0 0 6.58106 0.000976562 0)" d="M741.228 367.76C801.379 406.431 822.666 465.671 839.575 532.668C843.444 547.999 845.426 572.824 847.09 588.984L833.659 591.772C833.358 504.269 811.863 424.362 738.899 369.405L741.228 367.76Z"/><path fill="#E67856" transform="matrix(6.58132 0 0 6.58106 0.000976562 0)" d="M789.401 465.607C789.719 465.92 790.27 466.561 790.42 466.947C803.598 500.831 814.719 562.923 806.33 596.819L804.637 596.6C795.273 590.173 808.712 579.512 788.301 568.819C787.866 532.115 791.129 503.547 789.401 465.607Z"/><path fill="#F6F3E0" transform="matrix(6.58132 0 0 6.58106 0.000976562 0)" d="M760.925 100.585C788.858 99.9738 825.108 128.065 837.245 151.899C839.164 155.667 844.851 165.609 844.815 169.535L843.085 170.111C836.168 171.874 828.965 172.959 821.918 174.149C813.088 136.218 793.174 119.026 760.925 100.585Z"/><path fill="#F6F3E0" transform="matrix(6.58132 0 0 6.58106 0.000976562 0)" d="M831.402 702.212C838.84 705.782 822.101 718.892 848.637 724.056L848.554 739.717C831.863 735.917 815.712 732.001 799.124 727.77C792.525 726.261 786.643 724.648 780.133 722.787C787.337 720.267 795.103 716.916 802.228 714.007C809.423 715.41 813.062 716.496 820.417 715.598L820.773 714.512C818.139 712.407 814.821 711.77 811.542 710.834C818.159 708.131 824.845 705.098 831.402 702.212Z"/><path fill="#F6F3E0" transform="matrix(6.58132 0 0 6.58106 0.000976562 0)" d="M800.104 139.931C806.032 143.755 819.607 168.695 815.661 175.56L812.019 176.523L797.701 179.088C794.351 164.841 791.117 152.784 800.104 139.931Z"/><path fill="#F6F3E0" transform="matrix(6.58132 0 0 6.58106 0.000976562 0)" d="M747.588 179.129C752.223 179.316 756.439 179.415 758.598 183.937L757.619 185.787C751.131 190.266 734.702 192.224 725.938 194.168C721.846 194.968 718.317 195.764 714.611 193.691L714.2 192.117C717.911 182.276 738.347 179.941 747.588 179.129Z"/><path fill="#F6F3E0" transform="matrix(6.58132 0 0 6.58106 0.000976562 0)" d="M1029.4 515.597L1031.47 516.002L1031.58 517.604C1029.68 521.276 1025.35 525.333 1022.38 528.422C1014.29 530.184 1007.3 531.159 999.074 532.28C997.602 532.151 998.321 532.301 996.958 531.372C999.279 524.78 1022.69 517.495 1029.4 515.597Z"/><path fill="#F6F3E0" transform="matrix(6.58132 0 0 6.58106 0.000976562 0)" d="M738.899 369.405C721.063 356.117 694.207 343.103 680.001 331.922C705.421 341.656 719.511 351.797 741.228 367.76L738.899 369.405Z"/><path fill="#E67856" transform="matrix(6.58132 0 0 6.58106 0.000976562 0)" d="M845.675 695.781C847.711 695.871 849.868 696.208 850.892 698.042C849.474 701.341 847.128 700.665 845.345 703.675C847.109 705.265 848.723 706.749 850.426 708.414L850.36 710.221L849.129 711.148C845.297 710.986 844.231 708.225 839.574 707.161C838.576 709.824 839.363 710.832 840.026 714.036C842.94 714.648 847.762 715.524 848.71 718.773C839.693 720.314 834.172 712.766 837.317 704.432C839.553 698.506 840.094 698.758 845.675 695.781Z"/></svg>