<?xml version="1.0" encoding="UTF-8" standalone="no"?>
<!DOCTYPE svg PUBLIC "-//W3C//DTD SVG 1.1//EN" "http://www.w3.org/Graphics/SVG/1.1/DTD/svg11.dtd">
<svg width="100%" height="100%" viewBox="0 0 751 706" version="1.1" xmlns="http://www.w3.org/2000/svg" xmlns:xlink="http://www.w3.org/1999/xlink" xml:space="preserve" xmlns:serif="http://www.serif.com/" style="fill-rule:evenodd;clip-rule:evenodd;stroke-linejoin:round;stroke-miterlimit:2;">
    <g>
        <path d="M638.66,460.6C636.36,462.68 636.38,462.64 633.44,461.24C621.77,455.67 610.54,449.3 599.61,442.39C596.61,440.49 594,438.24 591.82,435.39C587.93,430.3 584.68,424.81 581.45,419.31C581.14,418.79 581.03,418.1 580.15,417.76C579.28,420.04 578.38,422.28 577.57,424.57C576.38,427.95 575.3,431.37 574.08,434.75C573.31,436.89 573.01,439.07 573.12,441.33C573.56,450.19 573.98,459.04 574.4,467.9C574.56,471.41 574.67,474.93 574.86,478.44C574.92,479.59 574.85,480.58 573.44,480.72C572.44,480.81 572.63,481.46 572.66,482.09C572.77,484.16 572.98,486.24 572.93,488.31C572.87,491.18 572.4,491.65 569.52,491.69C562.49,491.78 555.48,492.5 548.44,492.23C547.88,492.21 547.32,492.25 546.76,492.2C544.26,491.97 543.28,490.17 544.53,488C545.41,486.48 546.86,485.66 548.48,485.07C551.03,484.16 553.66,483.48 556.13,482.36C556.92,482 557.8,481.79 558.12,480.67C557.5,480.11 556.38,480.68 555.87,479.78C555.41,478.96 555.49,478.08 555.38,477.22C554.18,468.36 552.89,459.51 551.81,450.64C550.91,443.19 549.95,435.72 550.68,428.19C551.34,421.44 552.08,414.69 553.24,408C553.98,403.76 554.3,399.45 555.34,395.25C555.45,394.81 555.63,394.26 555.02,394.03C553.89,393.6 553.92,392.52 553.71,391.65C551.1,380.79 548.5,369.93 545.95,359.06C545.62,357.67 545.12,356.73 543.74,355.98C539.68,353.78 535.75,351.3 531.54,349.4C523.93,345.96 517.82,340.73 512.55,334.39C509.08,330.22 505.66,326 502.24,321.78C501.61,321 500.78,320.23 501.55,319.04C501.9,318.5 501.49,318.13 501.06,317.88C500.02,317.29 498.95,316.75 497.9,316.18C494.87,314.53 492,312.67 489.82,309.92C489.1,309.01 488.15,308.82 487.09,308.67C480.86,307.76 474.64,306.79 468.41,305.9C467.43,305.76 466.59,305.44 465.74,304.97C462.89,303.37 460.04,301.77 457.14,300.26C456.14,299.74 456.13,299.18 456.67,298.4C458.3,296.03 459.93,293.66 461.58,291.31C470.56,278.5 479.39,265.58 488.58,252.92C489.57,251.56 490.66,250.28 491.57,248.88C492.27,247.79 493,247.67 494.17,248.11C497,249.16 499.87,250.12 502.76,250.99C504.15,251.41 504.85,252.22 505.27,253.56C507.12,259.49 509.04,265.4 510.92,271.32C514.41,282.32 517.69,293.39 521.46,304.3C522.4,307.01 523.28,309.74 524.11,312.49C524.56,313.98 524.13,314.44 522.61,314.21C519.31,313.71 516.02,313.17 512.64,312.63C512.92,313.58 513.68,314.05 514.3,314.62C518.24,318.25 522.26,321.78 526.11,325.49C528.95,328.22 532.36,329.88 535.98,331.17C540.71,332.85 545.47,334.4 550.44,335.28C551.48,335.46 552.48,335.47 553.42,335.47C553.87,334.79 553.49,334.27 553.45,333.74C553.33,332.42 552.71,331.75 551.31,331.37C547.28,330.28 545.92,327.94 546.6,323.84C546.83,322.47 547.4,321.12 545.77,320.05C545.01,319.56 545.32,318.57 545.95,317.94C546.34,317.55 546.83,317.26 547.3,316.97C548.77,316.08 550.01,315.01 550.46,313.25C550.52,313.02 550.64,312.81 550.75,312.59C552.01,310.16 552.12,310.16 552.04,307.44C551.95,304.57 555.66,301.46 558.66,303.52C560.55,304.81 562.65,305.37 564.87,305.81C567.48,306.33 569.71,307.49 570.38,310.42C570.53,311.09 571.04,311.51 571.51,311.93C574.39,314.55 574.58,318.96 572.56,322.01C571.19,324.08 569.79,326.1 568.95,328.45C568.68,329.21 568.21,329.89 567.54,330.35C566.8,330.86 566.5,331.33 566.85,332.3C567.21,333.3 567.74,333.59 568.76,333.66C574.25,334.04 579.15,335.96 583.4,339.47C588.52,343.7 593.58,347.98 597.77,353.17C601.36,357.61 602.02,362.5 599.89,367.76C598.75,370.59 597.13,373.16 595.36,375.62C594.53,376.77 594.28,377.84 594.76,379.17C595.21,380.43 595.81,381.71 594.84,383.04C594.51,383.49 594.91,383.94 595.14,384.34C597.83,389.02 599.43,394.07 600.58,399.33C601.4,403.07 603.27,406.49 604.83,409.97C606.46,413.6 607.95,417.3 609.96,420.76C611.23,422.94 612.83,424.73 614.95,426.14C623.52,431.84 632.18,437.41 640.6,443.32C641.84,444.19 643.07,445.08 644.3,445.96C644.76,446.29 645.32,446.66 645.15,447.28C644.79,448.59 645.7,448.88 646.56,449.32C648.34,450.22 650.11,451.13 651.84,452.11C654,453.34 654.21,453.98 653.4,456.4C653.07,457.38 652.71,458.36 652.31,459.31C650.25,464.15 648.17,468.98 646.08,473.81C645.57,474.98 645.03,476.15 644.2,477.13C643.34,478.16 642.6,478.3 641.48,477.61C640.27,476.87 639.5,475.8 639.27,474.36C638.99,472.59 639.3,470.86 639.53,469.12C639.74,467.46 639.94,465.79 640.13,464.13C640.31,462.67 639.89,461.47 638.66,460.6Z" style="fill:rgb(3,3,3);fill-rule:nonzero;"/>
        <path d="M191.69,378.22C184.82,378.23 178,377.72 171.26,376.32C170.61,376.82 170.83,377.51 170.78,378.11C170.41,381.84 170.06,385.58 169.72,389.31C169.61,390.48 169.41,391.56 167.63,391.62C169.11,394.51 170.5,397.25 171.9,399.98C175.55,407.07 179.12,414.19 182.05,421.62C183.34,424.89 183.73,428.24 183.45,431.72C182.68,441.28 181.29,450.76 180.06,460.26C179.57,464.06 178.94,467.84 178.4,471.63C177.99,474.49 178.01,474.49 175.24,474.58C174.86,474.59 174.45,474.48 174.05,474.85C174.16,476.67 175.4,477.62 176.96,478.15C179.29,478.95 181.67,479.61 184.03,480.34C185.57,480.82 186.97,481.56 188.09,482.76C188.64,483.35 189.12,483.99 189.35,484.77C189.99,486.96 189.36,487.9 187.09,488.08C182.06,488.48 177.02,488.43 171.99,488.23C168.88,488.1 165.76,488.06 162.65,487.95C160.11,487.86 159.67,487.47 159.61,485.02C159.54,482.07 159.5,479.1 159.99,476.18C160.18,475.07 160.27,474.35 158.75,474.4C157.47,474.44 157.28,473.47 157.37,472.38C157.75,468 158.13,463.63 158.46,459.25C159.05,451.45 159.51,443.63 160.22,435.84C160.49,432.89 159.57,430.53 157.78,428.37C153.91,423.7 150.01,419.05 146.11,414.39C145.96,414.21 145.75,414.08 145.55,413.91C144.83,414.73 144.71,415.78 144.42,416.72C142.93,421.52 141.02,426.17 139.3,430.88C137.81,434.97 135.64,438.65 132.9,442.03C126.67,449.72 120.5,457.47 114.3,465.19C112.6,467.31 110.85,469.39 109.15,471.5C107.67,473.33 107.42,473.38 105.44,472.06C104.86,471.67 104.31,471.24 103.72,470.81C102.4,472.41 102.3,474.04 103.08,475.79C103.4,476.52 103.67,477.27 104.02,477.99C104.71,479.41 105.67,480.44 107.33,480.83C109.52,481.34 111.03,482.78 111.59,484.94C112.12,487 111.53,488.17 109.37,488.04C106.58,487.87 103.78,487.93 100.98,488.03C99.39,488.08 98.16,487.51 97.2,486.35C93.6,481.97 90.02,477.58 86.48,473.16C85.51,471.94 85.6,471.39 86.71,469.98C88.69,467.47 90.94,465.21 92.99,463.2C93.27,462.78 93.23,462.65 93.07,462.52C90.96,460.8 91.05,460.92 92.48,458.69C98.15,449.9 104.15,441.33 110.4,432.94C110.83,432.36 111.24,431.77 111.67,431.2C113.83,428.36 115.17,425.27 115.79,421.67C116.98,414.76 118.59,407.92 120.02,401.05C120.54,398.54 120.68,395.99 120.99,393.46C121.46,389.57 122.34,385.76 123.84,382.12C124.26,381.09 124.37,380.33 123.09,379.87C122.02,379.48 122.01,378.71 122.45,377.74C128.61,364.25 134.68,350.7 141.95,337.75C144.85,332.59 148.81,328.36 153.92,325.27C154.6,324.86 155.27,324.24 156.01,324.14C157.9,323.88 158.2,322.25 159,321.04C159.35,320.52 159,320.15 158.75,319.75C157.03,316.98 156.27,313.88 155.78,310.73C155.29,307.58 155.78,304.67 158.5,302.53C159.07,302.08 159.41,301.43 159.8,300.83C161.17,298.74 163.16,297.73 165.64,297.67C166.44,297.65 167.25,297.59 168.04,297.69C170.91,298.06 173.74,297.98 176.6,297.4C178.38,297.04 180.18,298.14 180.92,299.74C181.78,301.59 181.62,303.46 180.18,304.83C179.09,305.87 178.82,306.78 179.31,308.11C179.5,308.62 179.5,309.21 179.5,309.77C179.51,311.5 180.01,313.01 181.02,314.45C182.45,316.5 182.23,317.16 179.95,318.2C179.34,318.48 179.11,318.85 178.97,319.4C178.81,320.02 178.66,320.64 178.48,321.25C177.48,324.59 175.66,326 172.19,325.89C170.98,325.85 170.23,326.03 169.96,327.33C169.83,327.94 169.49,328.51 169.19,329.08C168.95,329.54 168.88,329.94 169.24,330.39C172.08,334 172.94,338.46 174.41,342.65C175.33,345.28 176.13,347.96 176.93,350.63C177.43,352.31 177.2,352.68 179.74,352.78C180.44,352.81 181.19,352.7 181.83,353.13C183.53,354.18 185.57,353.23 187.38,354.12C188.28,354.57 189.27,354.74 189.84,355.68C190.41,356.9 190.68,358.16 190.48,359.51C190.27,360.51 189.59,360.96 188.64,360.88C187.55,360.8 186.49,361.04 185.41,361.05C184.3,360.98 183.22,360.69 182.13,360.55C179.6,360.23 178.28,358.95 178.1,356.42C178.19,358.99 179.49,360.18 182.03,360.58C184.06,360.9 186.08,361.32 188.14,361.52C190.94,361.38 193.62,362.21 196.36,362.56C197.32,362.6 198.27,362.7 199.21,362.92C201.96,363.56 202,363.57 202.49,360.64C202.87,358.41 203.73,356.37 204.69,354.34C205.63,352.36 207.31,351.65 209.23,351.22C210.18,351 211.06,351.28 211.55,352.08C212.77,354.05 214,356.01 213.38,358.55C212.49,362.2 212.12,365.94 211.58,369.66C210.83,374.84 208.96,376.54 203.76,376.9C202.95,376.96 202.17,377.07 201.45,377.44C198.34,379.77 194.98,378.58 191.69,378.22Z" style="fill:rgb(2,3,2);fill-rule:nonzero;"/>
        <path d="M370.79,269.82C369.28,267.21 369.21,264.37 369.47,261.48C369.53,260.85 369.57,260.18 369.79,259.59C370.28,258.24 370.09,257.34 368.54,256.93C367.29,256.6 367.4,255.61 367.65,254.6C368.51,251.11 369.64,247.71 371.1,244.42C374.92,235.82 378.84,227.26 384.16,219.44C385.61,217.31 387.3,215.41 389.12,213.61C390.72,212.02 392.58,210.8 394.84,210.29C395.23,210.2 395.62,210.07 395.96,209.87C396.8,209.37 396.83,208.54 395.95,208.06C394.24,207.14 392.84,205.83 391.36,204.62C388.3,202.14 388.12,199.36 391.04,196.74C393.33,194.68 395.11,192.32 396.73,189.72C400.18,184.18 406.04,182.45 412.14,184.92C414.23,185.77 416.21,186.76 417.86,188.31C420.18,190.48 420.84,193.95 419.61,196.86C418.76,198.89 418.47,200.94 419.35,203.11C420.18,205.15 419.99,205.4 417.87,206.17C417.37,206.35 417.05,206.6 416.84,207.06C416.67,207.42 416.51,207.78 416.32,208.14C414.91,210.82 412.79,212.28 409.7,211.65C408.64,211.43 408.15,211.78 407.92,212.64C407.68,213.55 406.61,214.39 407.73,215.45C410.8,218.36 413.83,221.32 416.87,224.27C417.69,225.07 418.52,225.21 419.68,224.91C424.24,223.72 428.58,221.95 432.92,220.16C433.97,219.73 434.12,219.06 434.06,218.11C433.85,214.28 433.67,210.45 433.49,206.63C433.32,203.2 433.21,199.77 432.98,196.34C432.89,195.05 433.22,194.45 434.6,194.38C437.39,194.23 440.17,193.93 442.95,193.72C447.89,193.36 452.83,193.03 457.76,192.69C462.46,192.37 467.16,192.09 471.86,191.75C473.34,191.65 474.7,191.92 476.01,192.6C478.63,193.96 481.26,195.29 483.9,196.59C484.94,197.1 485.37,197.8 485.43,199C485.88,207.93 486.38,216.86 486.94,225.79C487.23,230.49 487.65,235.18 488.03,239.88C488.2,241.95 488.17,242.09 486.1,242.26C480.85,242.7 475.59,243.05 470.34,243.47C463.18,244.04 456.03,244.63 448.87,245.24C447.18,245.38 445.56,245.4 444.08,244.34C443.18,243.69 442.04,243.34 441.22,242.62C439.48,241.09 437.92,241.46 436.06,242.48C432.51,244.44 428.84,246.21 425.03,247.63C422.71,248.5 420.31,249.11 417.88,249.53C415.81,249.89 413.75,249.71 411.77,248.9C410.97,248.57 410.15,248.31 409.37,248.03C408.85,248.47 408.71,249 408.59,249.56C407.86,252.85 408.23,253.45 411.5,253.97C417.4,254.91 423.25,256.06 428.95,257.9C430.93,258.54 432.82,259.39 434.56,260.53C437.52,262.47 439.62,265.05 440.88,268.41C442.48,272.7 443.16,277.19 444.1,281.62C445.86,289.9 446.54,298.35 447.93,306.68C448.35,309.19 448.73,311.72 449.13,314.23C449.19,314.62 449.28,315.02 449.3,315.41C449.41,317.27 449.09,317.64 447.23,317.82C446.12,317.93 445,318.02 443.89,318.14C443.75,318.16 443.62,318.29 443.44,318.4C444.13,321.73 445.99,324.15 449.07,325.63C450.5,326.32 451.95,326.98 453.38,327.68C455.16,328.55 456.56,329.8 457.19,331.76C457.77,333.56 457.02,334.63 455.17,334.43C451.13,333.99 447.09,333.49 443.12,332.59C441.53,332.23 440.15,331.47 439.09,330.18C438.59,329.57 438.02,329.01 437.5,328.45C437.31,328.54 437.07,328.58 437.06,328.66C436.57,332.44 435.79,331.8 433.45,331.27C432.91,331.15 432.33,331.18 431.79,331.04C430.21,330.64 429.99,330.39 430.01,328.72C430.04,325.92 430.16,323.13 430.19,320.34C430.2,319.79 430.56,318.95 429.61,318.81C428.57,318.66 428.6,319.59 428.37,320.23C428.34,320.3 428.34,320.39 428.32,320.46C427.64,323.73 427.64,323.74 424.52,322.91C423.52,322.65 422.54,322.31 421.55,322C420.71,321.78 419.88,322.07 419.03,322.06C416.27,321.69 413.57,321.08 410.94,320.16C409.79,319.7 408.6,319.45 407.37,319.37C401.09,318.86 400.33,317.71 402.16,311.69C404.87,302.76 407.59,293.84 410.23,284.89C411.2,281.6 410.56,280.76 406.95,281.17C403.68,281.54 400.42,281.44 397.16,281.52C394.91,281.6 392.72,281.41 390.74,280.18C386.74,279.98 382.78,279.56 379,278.12C376.11,277.02 373.5,275.54 371.86,272.77C371.43,271.83 371.04,270.85 370.79,269.82Z" style="fill:rgb(3,3,3);fill-rule:nonzero;"/>
        <path d="M390.73,279.48C390.89,279.48 391.11,279.4 391.2,279.48C392.95,281.05 395.11,280.87 397.23,280.91C396.83,282.14 395.74,281.96 394.84,282.01C385.76,282.52 376.69,283.22 367.62,283.95C365,284.16 364.88,284.34 364.75,286.98C364.47,292.5 365.34,297.98 365.21,303.49C364.97,313.63 365.96,323.75 365.75,333.89C365.7,336.12 366.29,338.32 366.23,340.57C366.19,342.06 367.08,342.47 368.43,342.34C378.28,341.37 388.15,340.65 398.01,339.79C402.78,339.38 407.55,338.9 412.33,338.62C413.42,338.55 414.71,338.74 415.27,337.5C415.83,336.28 414.94,335.39 414.25,334.51C413.86,334.01 413.45,333.51 413.15,332.94C412.58,331.84 412.04,331.73 410.95,332.52C409.08,333.87 407.26,332.82 405.61,331.85C404.15,331 404.02,329.51 404.42,328.03C405.26,324.88 406.04,321.7 407.6,318.79C408.82,318.79 409.96,319.08 411.05,319.62C408.74,322.07 408.36,325.31 407.55,328.36C407.4,328.94 407.62,329.48 408.25,329.71C408.88,329.94 409.33,329.67 409.68,329.17C409.91,328.84 410.05,328.46 410.29,328.14C411.3,326.76 412.25,326.69 413.41,327.89C413.63,328.12 413.85,328.37 413.97,328.66C416.43,334.57 422.15,335.5 427.25,337.37C427.4,337.42 427.56,337.33 427.8,337.12C427.73,335.64 426.52,334.91 425.5,334.09C423.2,332.23 420.92,330.36 419.77,327.49C419,325.57 418.71,323.67 419.51,321.7C420.29,321.25 420.99,321.33 421.58,322.04C420.62,322.89 420.99,323.99 421.25,324.91C421.78,326.76 422.62,328.5 424.06,329.84C425.64,331.31 427.31,332.67 428.9,334.12C429.44,334.62 430.06,334.56 430.69,334.62C432.84,334.81 434.99,334.97 437.13,335.17C439.43,335.38 439.6,335.59 439.64,337.98C439.85,353.32 440.05,368.66 440.27,384C440.27,384.23 440.32,384.46 440.37,384.83C441.37,385.08 442.4,384.93 443.39,384.84C451.66,384.07 459.95,383.58 468.22,382.86C470.96,382.62 473.19,383.22 475.49,384.37C481.4,387.32 487.32,390.26 493.27,393.13C494.88,393.91 495.47,394.91 495.53,396.8C496,411.74 496.29,426.67 496.44,441.61C496.46,443.61 496.47,443.63 498.38,444.29C504.1,446.26 509.82,448.2 515.54,450.17C517.93,450.99 517.93,451.01 517.9,453.56C517.79,461.79 517.65,470.02 517.59,478.25C517.58,479.5 517.15,480.28 516.21,481.06C509.3,486.87 502.5,492.81 495.53,498.55C492.21,501.28 493.38,501.43 488.86,499.57C480.61,496.18 472.37,492.77 464.13,489.36C462.19,488.56 462.19,488.56 462.18,486.37C462.15,478.62 462.13,470.87 462.07,463.12C462.06,462.19 462.32,461.2 461.75,460.39C456.29,460.81 450.88,461.24 445.47,461.62C444.56,461.68 443.76,461.85 443.06,462.47C438.68,466.32 434.3,470.15 429.85,474.04C430.12,474.94 430.73,475.57 431.22,476.25C434.92,481.36 438.64,486.45 442.36,491.54C442.45,491.67 442.58,491.78 442.67,491.91C443.52,493.19 443.34,493.67 441.78,494.01C440.69,494.25 439.58,494.38 438.47,494.55C427.91,496.16 417.35,497.78 406.79,499.38C406,499.5 405.18,499.44 404.41,499.61C402.44,500.05 401.8,499.52 402.57,497.28C403.92,493.36 405.18,489.41 406.49,485.48C406.99,483.97 407.5,482.47 408.1,480.67C392.22,480.02 376.52,479.38 360.93,478.74C360.49,479.4 360.82,479.8 360.98,480.23C364.04,488.87 367.1,497.51 370.16,506.15C370.27,506.45 370.37,506.75 370.46,507.06C370.9,508.52 370.52,509.08 369.08,508.9C366.63,508.6 364.18,508.22 361.74,507.86C356.93,507.16 352.12,506.44 347.31,505.76C345.54,505.51 345.48,505.57 345.32,507.12C344.57,514.43 338.26,522.36 328.59,522.74C320.85,523.05 313.12,518.03 310.8,509.47C307.69,497.96 316.58,485.95 329.47,487.07C334.57,487.51 338.67,490.02 341.83,494.04C342.13,494.41 342.4,494.8 342.7,495.18C342.74,495.23 342.84,495.22 342.91,495.24C344.67,493.29 353.59,480.39 354.45,478.49C351.56,478.31 348.72,478.12 345.89,477.96C344.69,477.89 343.49,477.89 342.29,477.85C339.55,477.75 339.42,477.65 339.37,475C339.3,471.01 339.28,467.01 339.24,463.01C339.23,461.9 339.24,460.79 339.24,459.84C338.71,459.33 338.31,459.55 337.97,459.67C330.97,462.09 323.88,464.23 316.79,466.37C315.7,466.7 314.69,466.79 313.53,466.52C307.55,465.16 301.54,463.93 295.54,462.66C295,462.55 294.44,462.52 293.87,462.45C293.3,463.1 293.55,463.84 293.56,464.51C293.63,470.34 293.76,476.17 293.83,482.01C293.86,484.56 293.83,484.55 291.35,484.63C286.16,484.8 280.97,484.98 275.77,485.16C275.61,485.17 275.45,485.17 275.29,485.18C273.45,485.31 273.43,485.31 273.42,487.13C273.4,489.93 273.41,492.72 273.41,495.52C273.41,497.84 273.35,500.16 273.42,502.47C273.45,503.55 273.13,504.27 272.14,504.76C266.71,507.45 261.08,509.68 255.51,512.07C255.06,512.26 254.63,512.31 254.13,512.21C246.7,510.77 239.17,509.85 231.79,508.16C229.78,507.7 229.76,507.69 229.76,505.76C229.74,500.25 229.73,494.73 229.71,489.22C229.7,487.11 229.69,487.09 227.57,487.27C224.54,487.53 221.5,487.49 218.46,487.56C217.38,487.58 216.46,487.29 215.54,486.72C209.35,482.93 203.15,479.16 196.92,475.44C195.5,474.59 195.13,473.47 195.11,471.89C194.67,441.69 194.2,411.49 194.23,381.28L194.23,378.94C193.46,378.18 192.43,378.75 191.7,378.23C192.95,378.21 194.21,378.13 195.46,378.19C197.61,378.3 199.68,378.16 201.45,376.74C202.22,378.93 200.63,379.34 199.19,379.27C197.05,379.17 196.8,380.07 196.83,381.93C196.95,390 196.97,398.07 196.86,406.14C196.58,427.31 197.67,448.47 197.33,469.64C197.29,471.9 198.11,473.4 200.08,474.5C204.48,476.96 208.73,479.66 213.02,482.3C213.8,482.78 214.66,483.72 215.59,483.16C216.39,482.68 216.04,481.54 216.04,480.68C216.04,470.3 215.74,459.92 215.66,449.54C215.41,417.1 215.53,384.66 215.63,352.21C215.64,349.23 214.77,347.53 212,346.31C207.69,344.42 203.54,342.14 199.31,340.05C198.7,339.75 198.01,339.11 197.35,339.69C196.79,340.18 197.26,340.9 197.44,341.49C198.04,343.47 197.88,345.45 197.44,347.42C197.12,348.82 197.12,350.07 198.3,351.15C199.07,351.85 199.27,352.86 198.94,353.82C197.88,356.9 197.01,360.04 196.32,363.22C193.99,362.68 191.56,362.64 189.25,361.97C188.87,361.86 188.37,362.19 187.92,362.31C187.54,360.87 185.37,362.11 185.14,360.45C186.42,360.46 187.68,359.97 189,360.36C189.65,360.55 189.88,359.89 189.99,359.33C192.05,361.19 192.78,361.02 194.12,358.37C194.69,357.24 194.88,355.95 195.58,354.78C194.84,355.43 194.16,356.35 193.11,355.59C192.28,354.99 192.76,354.15 192.98,353.4C193.8,350.59 194.21,347.7 194.7,344.81C193.01,347.34 192.36,350.28 191.32,353.06C190.95,354.05 190.95,355.33 189.59,355.69C187.55,354.83 185.66,353.41 183.21,354.1C182.47,354.31 182.02,353.84 181.82,353.13C183.73,353.28 185.66,353.2 187.53,353.69C188.57,353.96 188.88,353.49 189.15,352.58C189.81,350.37 190.56,348.18 191.35,346.01C191.89,344.51 192.52,343.02 193.77,341.94C194.66,341.18 194.35,340.17 194.36,339.26C194.43,335.66 194.4,335.67 198.04,335.46C206.97,334.93 215.92,334.77 224.86,334.49C238.6,334.07 252.34,333.81 266.09,333.52C267.89,333.48 269.52,333.78 271.16,334.52C277.98,337.58 284.84,340.57 291.71,343.53C292.72,343.97 293.19,344.42 293.2,345.6C293.34,357.02 293.56,368.44 293.72,379.87C293.78,384.1 293.71,388.34 293.73,392.57C293.74,394.12 293.88,394.24 295.37,393.91C298.95,393.13 302.56,392.45 306.08,391.48C308.71,390.76 311.25,390.79 313.84,391.39C314.23,391.48 314.61,391.62 315.16,391.38C313.9,389.36 312.63,387.36 311.38,385.34C307.9,379.7 304.46,374.05 300.93,368.44C300.22,367.31 300.38,366.43 300.97,365.37C305.36,357.5 309.71,349.6 314.07,341.72C314.96,340.12 315.86,338.52 316.73,336.91C317.23,335.99 317.9,335.62 319,335.52C325.91,334.93 332.82,334.19 339.73,333.6C341.13,333.48 341.21,332.8 341.17,331.72C340.94,324.94 340.68,318.15 340.54,311.36C340.3,299.54 339.92,287.72 340.08,275.89C340.09,275.41 340.11,274.93 340.08,274.45C340,273.31 340.34,272.71 341.65,272.63C344.59,272.45 347.52,272.04 350.47,271.85C356.77,271.45 363.07,271.13 369.36,270.78C370.01,270.74 370.91,271.04 370.79,269.82C371.34,270.61 372.22,271.22 372.12,272.35C371.43,272.99 370.55,273.2 369.68,273.23C362.26,273.46 354.87,274.38 347.44,274.37C347.12,274.37 346.8,274.36 346.74,274.27C352.01,276.29 357.33,278.76 362.84,280.74C365.22,281.6 367.76,280.69 370.21,280.52C376.5,280.08 382.77,279.44 389.08,279.65C389.64,279.66 390.21,279.76 390.73,279.48Z" style="fill:rgb(17,16,17);fill-rule:nonzero;"/>
        <path d="M516.05,525.05C513.6,524.36 511.15,523.69 508.71,522.98C504.05,521.63 499.4,520.29 494.75,518.9C492.89,518.35 492.86,518.24 493.96,516.72C499.42,509.16 504.89,501.61 510.38,494.07C511.44,492.62 511.92,492.6 513.05,494.15C515.68,497.75 518.23,501.42 520.83,505.04C523.61,508.93 526.42,512.8 529.2,516.69C530.35,518.3 530.32,518.44 528.57,519.3C524.93,521.09 521.27,522.83 517.63,524.61C517.13,524.86 516.67,525.21 516.05,525.05Z" style="fill:rgb(20,19,19);fill-rule:nonzero;"/>
        <path d="M607.21,487.94C612.64,487.57 618.36,492.55 618.2,499.03C618.03,506.02 612.35,510.28 607.12,510.14C601.09,509.97 596.34,505.03 596.2,498.8C596.09,493.91 600.83,487.48 607.21,487.94Z" style="fill:rgb(23,21,23);fill-rule:nonzero;"/>
        <path d="M203.11,508.89C203.23,515.17 198.68,519.97 192.5,520.07C186.47,520.17 181.44,515.27 181.37,509.25C181.3,502.98 186.02,497.86 192.12,497.78C198.81,497.69 203.39,503.25 203.11,508.89Z" style="fill:rgb(22,21,22);fill-rule:nonzero;"/>
        <path d="M522.4,312.41C518.15,311.73 514.24,311.12 510.34,310.48C509.5,310.34 509.04,309.88 508.8,308.94C508.21,306.63 507.44,304.36 506.7,302.09C506.51,301.49 506.24,300.9 505.93,300.34C505.6,299.73 505.05,299.44 504.34,299.51C503.6,299.57 503.24,300.05 502.98,300.68C502.53,301.79 502.82,303 502.51,304.51C500.51,302.73 498.75,301.16 496.99,299.58C496.46,299.1 495.98,298.55 495.42,298.11C493.81,296.86 493.42,296.87 492.31,298.58C491.85,299.28 491.38,299.01 490.89,299.02C489.66,299.03 489.1,299.65 489.26,300.83C489.36,301.55 489.42,302.1 488.9,302.77C488.18,303.7 488.7,304.72 489.14,305.69C489.75,307.02 489.46,307.41 487.98,307.19C485.07,306.76 482.16,306.25 479.26,305.78C475.91,305.23 472.56,304.69 468.95,304.1C480.52,287.49 491.98,271.06 503.68,254.27C510.12,273.78 515.63,293.15 522.4,312.41Z" style="fill:rgb(254,254,253);fill-rule:nonzero;"/>
        <path d="M467.02,303.7C464.18,302.1 461.43,300.54 458.71,299C458.52,298.39 458.98,298.09 459.22,297.74C466.44,287.41 473.65,277.08 480.91,266.78C484.68,261.43 488.54,256.15 492.33,250.83C492.95,249.96 493.45,249.55 494.66,250.04C497.15,251.06 499.75,251.81 502.52,252.74C490.66,269.77 478.87,286.69 467.02,303.7Z" style="fill:rgb(254,254,253);fill-rule:nonzero;"/>
        <path d="M565.71,333.57C562,333.46 558.81,334.11 555.51,334.94C554.91,334.06 555.03,332.98 554.65,332.09C555.28,331.41 556.1,331.85 556.72,331.52C557.19,331.27 557.86,331.11 557.62,330.36C557.45,329.8 556.92,329.75 556.43,329.83C555.02,330.05 553.65,330.28 552.18,329.89C548.82,329.01 547.79,327.68 548.2,324.27C548.26,323.8 548.38,323.33 548.51,322.87C548.92,321.38 548.95,320.02 547.36,319.29C547.48,318.69 547.85,318.5 548.19,318.33C550.06,317.38 551.27,315.86 552.03,313.95C552.24,313.43 552.5,312.94 552.75,312.44C553.21,311.52 553.8,311.41 554.63,312.06C555.25,312.55 555.99,312.89 556.66,313.31C558.5,314.48 558.83,315.24 558.43,317.48C558.32,318.11 558.22,318.75 558.37,319.38C558.66,320.57 559.33,320.98 560.45,320.44C561.17,320.1 561.85,319.8 562.36,320.48C562.93,321.23 562.47,322 561.98,322.66C561.49,323.33 560.7,323.59 560,323.95C558.94,324.5 558.73,325.29 559.19,326.33C560.15,328.49 561.31,330.53 563.81,331.12C565.11,331.42 565.01,332.41 565.71,333.57Z" style="fill:rgb(254,253,253);fill-rule:nonzero;"/>
        <path d="M555.72,490.45C552.92,490.45 550.13,490.46 547.33,490.44C546.82,490.44 546.15,490.63 545.92,489.9C545.73,489.3 546.06,488.8 546.39,488.35C547.13,487.33 548.26,486.91 549.39,486.52C551.72,485.72 554.07,484.98 556.37,484.09C557.77,483.54 559.2,482.9 559.76,481.3C559.97,480.71 560.45,480.71 560.93,480.71C563.89,480.73 566.84,480.8 569.8,480.78C570.81,480.77 571.01,481.35 571.04,482.12C571.14,484.19 571.16,486.27 571.31,488.34C571.4,489.67 570.76,489.93 569.61,489.95C564.97,490.03 560.35,490.57 555.72,490.45Z" style="fill:rgb(253,253,252);fill-rule:nonzero;"/>
        <path d="M640.83,472.43C641.01,471.14 641.21,469.4 641.5,467.67C641.72,466.32 641.73,464.97 641.8,463.62C641.88,462.18 641.41,460.93 640.48,459.89C639.79,459.12 639.68,458.52 640.25,457.59C641.55,455.49 642.67,453.29 643.61,451C643.84,450.44 644.03,449.95 644.8,450.37C646.9,451.5 649.01,452.62 651.13,453.71C651.99,454.16 652.23,454.78 651.87,455.67C651.51,456.56 651.19,457.45 650.83,458.34C648.85,463.21 646.91,468.09 644.65,472.84C644.44,473.27 644.32,473.77 644.02,474.12C643.44,474.78 643.44,476.3 642.2,475.94C641.16,475.64 640.9,474.43 640.82,473.35C640.82,473.2 640.83,473.04 640.83,472.43Z" style="fill:rgb(253,252,251);fill-rule:nonzero;"/>
        <path d="M494.52,311.04C496.04,310.64 496.19,310.39 495.33,309.57C494.58,308.86 493.71,308.27 492.92,307.6C491.78,306.63 490.91,305.45 490.49,303.89C491.68,305 492.83,306.15 494.08,307.19C494.87,307.85 495.78,309.45 496.75,308.45C497.78,307.38 496.09,306.61 495.37,305.93C493.75,304.4 491.98,303.03 490.91,300.9C491.79,300.6 492.08,301.28 492.48,301.65C494.14,303.14 495.76,304.69 497.44,306.17C497.81,306.5 498.31,307.04 498.84,306.36C499.3,305.77 498.95,305.28 498.49,304.93C497.02,303.8 495.81,302.42 494.71,300.94C494.39,300.5 493.96,300.11 493.96,299.08C495.17,300.15 496.16,301.06 497.18,301.94C498.63,303.19 500.08,304.45 501.56,305.66C502.12,306.12 502.78,306.52 503.54,306.19C504.39,305.82 504.17,304.99 504.2,304.3C504.24,303.44 504.21,302.58 504.21,301.74C505.13,301.58 504.98,302.23 505.14,302.61C506.44,305.53 506.73,308.8 508.18,311.66C508.54,312.37 508.15,312.69 507.74,313.07C506.5,314.2 505.21,315.28 504.01,316.44C503.33,317.1 502.76,316.89 502.09,316.51C499.34,314.94 496.39,313.7 493.96,311.6C493.86,311.13 494,310.89 494.52,311.04Z" style="fill:rgb(250,250,249);fill-rule:nonzero;"/>
        <path d="M557.88,393.32C559.61,392.33 561,392.4 562.27,392.13C571.92,390.06 581.63,388.21 590.78,384.3C591.39,384.04 592.3,383.26 592.66,384.08C593.12,385.14 591.81,385.14 591.18,385.43C586.19,387.78 580.92,389.31 575.57,390.59C571.23,391.63 566.89,392.66 562.47,393.31C561.14,393.5 559.8,393.74 557.88,393.32Z" style="fill:rgb(235,236,233);fill-rule:nonzero;"/>
        <path d="M592.72,375.84C591.15,373.98 582.99,352.26 582.96,349.78C583.19,349.86 583.54,349.89 583.59,350.03C586.5,358.36 590.42,366.31 592.96,374.78C593.07,375.16 593.13,375.57 592.72,375.84Z" style="fill:rgb(229,228,223);fill-rule:nonzero;"/>
        <path d="M586.59,400.44C586.21,401.7 585.86,403.1 585.38,404.44C584.2,407.74 582.96,411.02 581.74,414.3C581.63,414.6 581.49,414.89 581.34,415.17C581.11,415.62 580.74,416.05 580.23,415.79C579.66,415.5 580.01,415.02 580.17,414.56C581.76,409.89 583.87,405.4 585.21,400.64C585.27,400.41 585.39,400.2 585.49,399.98C585.64,399.62 585.76,399.14 586.28,399.31C586.76,399.46 586.58,399.95 586.59,400.44Z" style="fill:rgb(226,225,222);fill-rule:nonzero;"/>
        <path d="M494.52,311.04C494.33,311.23 494.14,311.41 493.96,311.6C492.71,310.81 491.53,309.96 490.92,308.48C492.29,309.08 493.43,310.03 494.52,311.04Z" style="fill:rgb(180,183,182);fill-rule:nonzero;"/>
        <path d="M196.31,363.22C195.77,361.8 195.97,360.4 196.44,359.02C197.03,357.29 197.7,355.58 198.23,353.83C198.72,352.2 198.52,351.64 196.93,351.07C196.07,350.77 196,350.4 196.14,349.71C196.37,348.62 196.63,347.53 196.83,346.44C197.16,344.64 197.58,342.89 196.38,341.15C195.81,340.32 196.13,339.13 196.22,337.98C197.67,338.27 198.87,339.06 200.12,339.66C205.13,342.09 210.09,344.64 215.13,347.03C216.39,347.63 216.31,348.54 216.3,349.57C216.27,358.67 216.28,367.78 216.21,376.88C215.96,410.74 216.51,444.6 216.64,478.45C216.65,480.6 216.64,482.75 216.64,484.98C215.45,485.16 214.91,484.18 214.15,483.74C208.86,480.63 203.63,477.42 198.35,474.3C197.21,473.63 196.69,472.88 196.68,471.47C196.46,440.89 196.18,410.3 195.91,379.72L195.91,378.64C197.23,378.64 198.41,378.62 199.6,378.64C200.91,378.66 201.52,378.05 201.45,376.75C202.11,375.88 203.06,376.24 203.89,376.23C208.3,376.15 209.93,374.88 210.73,370.55C211.52,366.25 211.82,361.88 212.85,357.61C213.1,356.56 213.14,355.37 211.99,354.6C211.46,354.24 211.67,353.57 211.49,353.07C211.02,351.76 209.76,351.15 208.74,352.03C207.95,352.71 206.86,352.05 206.26,353.02C205.51,354.24 204.8,355.48 204.25,356.8C203.52,358.57 203.08,360.42 202.86,362.33C202.75,363.28 202.66,364.23 202.23,365.33C200.62,363.44 198.44,363.42 196.31,363.22Z" style="fill:rgb(254,253,253);fill-rule:nonzero;"/>
        <path d="M105.37,486.48C98.85,486.34 99.84,487.02 95.99,482.28C93.48,479.19 90.99,476.09 88.43,473.04C87.61,472.07 87.51,471.36 88.45,470.41C90.3,468.55 92.09,466.62 93.84,464.66C94.55,463.86 95.07,463.98 95.82,464.6C97.6,466.07 99.43,467.48 101.27,468.87C102.13,469.52 102.3,470.1 101.61,471.02C100.86,472.02 100.8,473.22 101,474.45C101.36,476.7 102.42,478.65 103.53,480.57C104.09,481.54 105.11,481.87 106.11,482.16C107.52,482.57 108.78,483.23 109.59,484.5C110.37,485.72 110.01,486.42 108.59,486.47C107.32,486.51 106.05,486.48 105.37,486.48Z" style="fill:rgb(253,252,252);fill-rule:nonzero;"/>
        <path d="M174.84,486.44C170.92,486.44 167.01,486.48 163.09,486.42C161.39,486.4 161.36,486.29 161.25,484.66C161.04,481.61 161.54,478.6 161.7,475.57C161.74,474.73 162.15,474.5 162.91,474.51C165.71,474.54 168.51,474.57 171.3,474.54C172.24,474.53 172.53,474.97 172.65,475.81C172.93,477.76 174.2,478.84 175.95,479.55C178.25,480.48 180.63,481.12 183,481.81C184.55,482.26 185.99,482.93 187.1,484.15C187.58,484.68 188.11,485.27 187.8,486.05C187.48,486.85 186.69,486.53 186.11,486.54C182.35,486.57 178.6,486.56 174.84,486.56L174.84,486.44Z" style="fill:rgb(253,253,252);fill-rule:nonzero;"/>
        <path d="M177.4,306.88C178.45,309.95 177.16,313.66 180.48,316.25C177.84,316.45 177.47,318.14 177.06,319.88C176.68,321.51 176.27,323.17 174.53,323.98C173.06,324.66 171.6,324.64 170.15,323.93C169.22,323.47 168.32,322.98 167.39,322.53C166.99,322.34 166.59,322.4 166.39,322.83C166.25,323.13 166.35,323.46 166.59,323.71C166.75,323.88 166.95,324.02 167.13,324.17C167.65,324.63 168.73,324.61 168.75,325.39C168.77,326.13 168.29,326.88 168.02,327.62C167.94,327.84 167.81,328.04 167.65,328.37C165.21,326.41 162.74,324.56 159.45,323.9C160.06,321.95 160.91,320.42 162.94,319.75C163.75,319.48 164.48,318.91 165.17,318.39C167.06,316.97 167.07,316.8 165.72,314.88C165.3,314.28 164.98,313.66 164.99,312.9C164.99,312.24 165.05,311.54 165.67,311.21C166.3,310.87 166.63,311.55 167.04,311.88C168.46,313.01 169.97,312.69 170.16,310.89C170.44,308.25 171.58,307.38 174.11,307.59C175.13,307.67 176.22,307.15 177.4,306.88Z" style="fill:rgb(253,253,252);fill-rule:nonzero;"/>
        <path d="M205.29,361.43C205.25,362.46 205.96,362.32 206.61,362.29C207.56,361.98 207.22,363.07 207.68,363.29C208.6,363.51 208.91,363.07 209.11,362.21C209.5,360.53 209.87,358.82 211.05,357.37C210.72,359.21 210.45,361.06 210.03,362.88C209.55,364.99 209.67,367.16 209.3,369.28C208.49,374.04 207.18,374.97 202.22,374.27C202.3,372.25 202.74,370.22 202.41,368.18C202.3,367.51 202.58,367.2 203.19,366.94C204.02,366.59 204.26,365.81 204.25,364.96C204.24,363.59 204.57,362.28 204.83,360.95C205.26,360.84 205.49,360.92 205.29,361.43Z" style="fill:rgb(250,249,248);fill-rule:nonzero;"/>
        <path d="M189.57,355.68C190.63,354.41 190.82,352.78 191.28,351.28C191.96,349.07 192.65,346.87 193.71,344.81C194.06,344.13 194.3,343.33 194.78,343.22C195.44,343.2 195.59,343.3 195.56,343.49C194.96,347.08 194.59,350.72 193.25,354.15C193.07,354.6 192.82,355.06 193.36,355.41C194,355.83 194.39,355.37 194.77,354.95C195.32,354.34 195.53,353.43 196.61,353.01C195.97,355.33 195.24,357.4 194.28,359.39C194.01,359.95 193.57,360.45 193.14,360.91C192.66,361.42 192.21,362.01 191.33,361.82C190.25,361.58 190.36,360.73 190.24,359.96C190.21,359.74 190.06,359.53 189.97,359.31C190.13,358.09 189.53,356.92 189.57,355.68Z" style="fill:rgb(245,244,243);fill-rule:nonzero;"/>
        <path d="M163.64,391.04C157.94,390.49 152.72,389.42 147.54,388.2C141.05,386.67 134.57,385.07 128.37,382.54C128,382.39 127.64,382.23 127.26,382.11C126.83,381.98 126.48,381.76 126.66,381.29C126.85,380.81 127.34,380.94 127.69,381.06C130.1,381.85 132.5,382.7 134.92,383.47C143.87,386.32 153.02,388.32 162.33,389.62C162.72,389.67 163.13,389.68 163.51,389.78C163.89,389.88 164.37,390.08 164.35,390.49C164.32,391.16 163.71,391.03 163.64,391.04Z" style="fill:rgb(238,239,236);fill-rule:nonzero;"/>
        <path d="M169.69,375.1C169.17,375.6 168.69,375.29 168.22,374.99C166.72,374.04 165.49,372.83 164.47,371.35C162.37,368.31 160.97,364.92 159.52,361.55C158.26,358.62 157.08,355.67 156.09,352.63C155.94,352.18 155.83,351.71 155.69,351.26C155.59,350.93 155.57,350.62 155.94,350.48C156.28,350.35 156.6,350.51 156.73,350.82C157.08,351.71 157.4,352.61 157.7,353.52C159.2,358.15 161.24,362.56 163.33,366.95C164.69,369.79 166.41,372.35 169.1,374.13C169.43,374.36 169.74,374.61 169.69,375.1Z" style="fill:rgb(231,231,227);fill-rule:nonzero;"/>
        <path d="M133.9,397.83C134.44,397.72 134.64,398.05 134.86,398.39C137.56,402.71 140.79,406.63 143.97,410.6C144.22,410.91 144.5,411.2 144.69,411.55C144.78,411.71 144.75,412.04 144.63,412.18C144.44,412.41 144.12,412.58 143.82,412.3C143.47,411.98 143.1,411.67 142.81,411.31C139.94,407.71 136.94,404.21 134.67,400.18C134.24,399.44 133.6,398.77 133.9,397.83Z" style="fill:rgb(230,229,226);fill-rule:nonzero;"/>
        <path d="M185.12,360.45C185.69,361 186.45,360.79 187.12,360.95C187.86,361.13 188.2,361.54 187.9,362.31C185.24,361.83 182.59,361.32 179.98,360.61C179.03,360.35 178.45,359.98 178.17,358.99C177.83,357.77 177.32,356.59 176.91,355.39C176.8,355.08 176.82,354.73 177.2,354.62C177.53,354.52 177.83,354.63 177.96,355C178.3,355.97 178.68,356.94 178.96,357.93C179.22,358.85 179.65,359.45 180.68,359.62C182.17,359.88 183.58,360.5 185.12,360.45Z" style="fill:rgb(222,224,221);fill-rule:nonzero;"/>
        <path d="M207.69,363.28C207,363.31 207.16,362.42 206.62,362.28C207.46,359.3 207.97,356.19 210.06,353.15C210.51,354.69 209.88,355.49 209.49,356.21C208.6,357.85 208.31,359.67 207.74,361.4C207.54,362 207.4,362.65 207.69,363.28Z" style="fill:rgb(186,183,180);fill-rule:nonzero;"/>
        <path d="M205.29,361.43C205.13,361.27 204.98,361.11 204.82,360.95C205.2,358.02 205.56,357.06 207.27,354.64C207.33,356.12 206.52,357.03 206.23,358.06C205.91,359.18 206.01,360.42 205.29,361.43Z" style="fill:rgb(160,159,159);fill-rule:nonzero;"/>
        <path d="M407.59,318.77C407.91,319.51 407.55,320.16 407.33,320.84C406.54,323.35 405.73,325.85 405.03,328.39C404.44,330.55 404.7,330.92 406.88,331.71C407.03,331.76 407.18,331.82 407.33,331.88C410.16,333.02 410.29,333.51 411.82,329.94C412.57,329.93 412.63,330.61 412.88,331.05C413.67,332.43 414.29,333.93 415.67,334.88C416.1,335.18 416.19,335.62 416.26,336.12C416.59,338.62 416.34,339.02 413.83,339.25C409.46,339.65 405.07,339.94 400.7,340.31C393.94,340.89 387.19,341.52 380.43,342.09C375.51,342.5 370.59,342.85 365.57,343.23C365.24,341.95 365.4,340.76 365.36,339.58C364.7,321.77 364.38,303.96 364.06,286.14C364.05,285.74 364.09,285.34 364.04,284.94C363.89,283.81 364.38,283.36 365.49,283.28C369.95,282.98 374.41,282.6 378.87,282.3C384.61,281.91 390.35,281.57 396.08,281.19C396.47,281.16 396.84,281 397.22,280.9C399.93,280.81 402.64,280.82 405.34,280.61C407.51,280.44 409.62,280.66 411.86,280.87C412.09,281.92 411.61,282.79 411.35,283.65C408.4,293.56 405.39,303.45 402.42,313.36C401.16,317.58 401.18,317.6 405.46,318.51C406.16,318.66 406.88,318.69 407.59,318.77Z" style="fill:rgb(254,254,253);fill-rule:nonzero;"/>
        <path d="M446.05,224.38C445.91,222.62 445.77,221.05 445.67,219.48C445.34,214.14 445.01,208.8 444.7,203.46C444.6,201.78 444.64,201.79 446.29,201.68C456.16,200.98 466.04,200.36 475.89,199.42C478.11,199.21 480.36,199.35 482.58,198.99C483.49,198.85 483.89,199.27 483.92,200.19C484,202.34 484.13,204.5 484.25,206.65C484.64,213.75 485.01,220.84 485.44,227.94C485.66,231.53 486.02,235.1 486.3,238.68C486.44,240.54 486.41,240.51 484.68,240.65C477.6,241.22 470.53,241.84 463.45,242.4C458.6,242.78 453.74,243.13 448.88,243.42C447.05,243.53 446.97,243.68 446.95,241.73C446.94,240.46 446.8,239.18 446.62,237.91C446.45,236.78 446.68,236.23 447.97,236.02C450.32,235.62 452.64,234.94 454.77,233.83C456.32,233.02 458.38,232.47 457.68,229.89C457.62,229.66 458.09,229.27 458.34,228.97C458.71,228.53 459.11,228.01 458.82,227.46C458.42,226.7 458.66,226.23 459.07,225.56C459.79,224.39 459.5,223.82 458.1,223.26C457.68,223.09 457.27,223.14 456.98,222.57C456.03,220.67 455.65,220.53 453.74,221.24C452.33,221.77 450.96,222.43 449.56,223C448.47,223.46 447.36,223.87 446.05,224.38Z" style="fill:rgb(254,253,253);fill-rule:nonzero;"/>
        <path d="M390.73,279.48C387.94,280.25 385.05,280.05 382.21,280.32C376.5,280.86 370.77,281.26 365.05,281.71C364.26,281.77 363.45,281.92 362.68,281.6C356.98,279.22 351.28,276.83 345.58,274.24C354.41,273.21 363.27,272.97 372.1,272.35C374.93,276.3 379.12,277.87 383.62,278.77C385.96,279.23 388.34,279.57 390.73,279.48Z" style="fill:rgb(254,253,253);fill-rule:nonzero;"/>
        <path d="M434.72,196.78C437.4,198.36 439.7,199.75 442.05,201.07C442.72,201.45 442.89,201.97 442.92,202.63C443.22,207.8 443.52,212.98 443.82,218.16C443.84,218.57 443.84,219.02 443.47,219.24C441.97,220.14 441.63,221.79 440.89,223.17C440.21,224.43 439.53,225.7 438.66,226.84C438.39,227.2 438.1,227.7 437.51,227.35C437.06,227.09 436.39,227.05 436.34,226.32C436.31,225.84 436.21,225.37 436.18,224.89C435.77,217.24 435.37,209.6 434.97,201.95C434.9,200.37 434.82,198.78 434.72,196.78Z" style="fill:rgb(253,252,251);fill-rule:nonzero;"/>
        <path d="M481.26,197.46C476.42,197.78 471.96,198.05 467.52,198.39C460.21,198.95 452.91,199.57 445.6,200.16C444.9,200.22 444.21,200.4 443.52,199.98C441.43,198.71 439.32,197.5 436.77,196.01C438.29,195.82 439.3,195.64 440.31,195.57C448.66,195.01 457.02,194.48 465.37,193.93C465.93,193.89 466.48,193.81 467.03,193.71C472.16,192.8 476.73,194.13 481.26,197.46Z" style="fill:rgb(251,250,249);fill-rule:nonzero;"/>
        <path d="M419.51,321.67C419.15,326.1 420.89,329.56 424.32,332.28C425.5,333.22 426.64,334.23 427.72,335.29C428.52,336.07 429.13,337 428.84,338.22C428.23,338.57 427.75,338.24 427.23,338.07C424.58,337.22 422.04,336.1 419.46,335.07C417.06,334.11 415.22,332.61 414.23,330.16C413.93,329.43 413.48,328.75 412.99,328.13C412.21,327.14 411.38,327.21 410.73,328.26C410.57,328.53 410.5,328.85 410.38,329.15C409.61,330.97 409.11,331.12 407.39,330.24C406.67,329.87 406.51,329.37 406.71,328.69C407.55,325.87 408.4,323.05 409.24,320.23C409.55,319.17 410.41,319.74 411.03,319.61C413.86,320.29 416.69,320.98 419.51,321.67Z" style="fill:rgb(253,252,251);fill-rule:nonzero;"/>
        <path d="M455.77,332.5C454.65,332.85 453.69,332.7 452.78,332.57C450.1,332.18 447.44,331.63 444.76,331.28C442.65,331 441.03,330.01 439.68,328.44C439.06,327.71 438.46,326.95 437.76,326.3C436.79,325.42 436.01,325.66 435.64,326.89C435.55,327.19 435.56,327.52 435.51,327.84C435.17,329.88 434.83,330.1 432.9,329.71C431.96,329.52 431.6,329.04 431.64,328.06C431.75,325.43 431.78,322.79 431.81,320.16C431.82,319.23 432.02,318.65 433.14,318.69C435.54,318.77 437.93,318.59 440.3,318.28C441.31,318.15 441.97,318.35 442.2,319.49C443.02,323.54 445.65,325.99 449.35,327.51C450.67,328.05 451.95,328.73 453.19,329.44C454.39,330.1 455.3,331.05 455.77,332.5Z" style="fill:rgb(253,252,252);fill-rule:nonzero;"/>
        <path d="M417.19,194.31C417.39,195.82 417.35,197.38 417.23,198.94C417.11,200.45 416.8,201.95 417.62,203.39C417.87,203.83 417.81,204.43 417.19,204.51C416.01,204.66 415.69,205.55 415.3,206.43C415.11,206.87 414.84,207.27 414.63,207.7C413.38,210.23 410.6,211.11 407.74,209.23C407.14,208.84 406.62,208.33 406.06,207.89C405.82,207.7 405.57,207.46 405.24,207.74C404.91,208.02 404.72,208.36 404.93,208.78C405.03,208.99 405.21,209.16 405.35,209.35C405.76,209.92 406.78,210.13 406.69,210.9C406.58,211.82 406.21,212.74 405.54,213.62C403.41,211.66 400.55,211.14 397.96,209.82C398.94,209 399.52,209.8 400.17,209.88C402.57,210.19 403.78,209.41 404.35,207.04C404.59,206.03 404.7,205 404.82,203.97C404.98,202.65 405.07,201.48 403.8,200.59C402.9,199.96 403.2,199.01 403.47,198.18C403.7,197.46 404.28,197.15 404.99,197.52C409.22,199.75 412.43,197.4 415.67,195.17C416.1,194.89 416.25,194.19 417.19,194.31Z" style="fill:rgb(252,252,251);fill-rule:nonzero;"/>
        <path d="M451.78,233.25C448.5,234.53 444.95,234.57 441.51,235.67C440.82,233.67 440.06,231.84 439.16,230.08C438.97,229.72 438.8,229.39 439.13,229C440.99,226.88 442.07,224.29 443.44,221.88C443.51,221.76 443.7,221.71 444,221.52C443.96,222.27 443.92,222.92 443.89,223.57C443.78,225.77 444.42,226.31 446.54,225.82C448.72,225.31 450.71,224.3 452.79,223.5C453.49,223.23 454.14,222.6 455.19,222.93C453.7,224.44 451.77,224.92 450.08,225.82C449.4,226.18 447.96,226.19 448.54,227.41C448.91,228.2 449.97,227.62 450.69,227.32C452.45,226.59 454.21,225.84 455.96,225.09C456.39,224.91 456.8,224.61 457.46,224.91C456.97,225.68 456.2,225.99 455.46,226.32C454.01,226.96 452.52,227.53 451.11,228.25C450.51,228.56 449.19,228.52 449.62,229.67C450.11,230.97 451.12,230.02 451.84,229.79C453.05,229.41 454.21,228.87 455.39,228.41C455.74,228.27 456.1,228.16 456.52,228.2C455.62,229.5 454.15,229.83 452.88,230.46C452.17,230.81 451.32,230.98 450.75,231.48C450.26,231.91 449.79,232.81 451.21,232.82C451.64,232.62 451.82,232.79 451.78,233.25Z" style="fill:rgb(250,250,249);fill-rule:nonzero;"/>
        <path d="M427.96,317.59C428.34,313.41 429.32,309.8 429.94,306.14C431.61,296.23 433.38,286.34 433.25,276.22C433.17,270.56 430.84,266.46 425.65,264.02C420.58,261.64 415.2,260.25 409.82,258.84C408.99,258.62 407.46,258.81 407.72,257.64C407.91,256.78 409.23,257.56 410.04,257.72C415.36,258.78 420.51,260.37 425.5,262.54C431.63,265.2 434.48,269.86 434.47,276.45C434.46,285.98 433.14,295.37 431.44,304.72C430.78,308.32 430.01,311.91 429.29,315.5C429.15,316.16 429.11,316.89 427.96,317.59Z" style="fill:rgb(235,234,232);fill-rule:nonzero;"/>
        <path d="M405.66,253.86C401.18,257.31 377.18,260.03 371.98,257.87C373.57,256.89 375.13,257.59 376.61,257.49C378.2,257.39 379.8,257.43 381.4,257.38C382.99,257.32 384.59,257.27 386.18,257.11C387.84,256.94 389.49,256.65 391.15,256.4C392.72,256.16 394.29,255.92 395.85,255.61C397.41,255.3 398.94,254.81 400.51,254.58C402.05,254.37 403.56,253.8 405.66,253.86Z" style="fill:rgb(232,235,232);fill-rule:nonzero;"/>
        <path d="M403.35,222.79C405,223.63 406.16,224.82 407.45,225.82C410.22,227.96 412.99,230.11 415.7,232.32C417.01,233.39 418.32,233.57 419.91,232.98C423.7,231.57 427.54,230.26 431.35,228.9C431.95,228.69 432.52,228.31 433.13,228.24C433.73,228.17 434.58,227.18 434.92,228.24C435.21,229.16 433.98,229.07 433.45,229.43C433,229.73 432.43,229.85 431.9,230.03C428.08,231.36 424.24,232.63 420.45,234.04C418.38,234.81 416.66,234.54 414.88,233.22C411.23,230.51 407.78,227.57 404.32,224.64C403.89,224.25 403.17,224 403.35,222.79Z" style="fill:rgb(231,232,229);fill-rule:nonzero;"/>
        <path d="M393.14,236.25C394.86,237.15 396.29,238.54 397.89,239.69C400.73,241.74 403.66,243.65 406.61,245.52C406.94,245.73 407.7,245.82 407.34,246.47C407.02,247.05 406.52,246.68 406.11,246.46C402.55,244.5 399.23,242.18 395.98,239.76C394.96,239 394,238.16 393.03,237.33C392.78,237.13 392.65,236.83 393.14,236.25Z" style="fill:rgb(225,225,218);fill-rule:nonzero;"/>
        <path d="M445.39,243.04C443.62,241.9 442,241.3 440.49,240.05C441.46,239.36 442.51,239.03 442.47,237.59C442.45,236.9 443.83,236.8 444.91,236.55C445.06,238.71 445.21,240.7 445.39,243.04Z" style="fill:rgb(236,234,233);fill-rule:nonzero;"/>
        <path d="M451.78,233.25C451.59,233.1 451.39,232.95 451.2,232.8C452.77,232.17 454.34,231.54 455.91,230.91C454.88,232.45 453.33,232.84 451.78,233.25Z" style="fill:rgb(175,184,187);fill-rule:nonzero;"/>
        <path d="M292.11,482.71C290.48,483.11 288.96,483.07 287.45,483.14C283.62,483.3 279.79,483.46 275.95,483.59C273,483.69 273.49,483.73 273.41,481.27C273.35,479.43 273.32,477.6 273.23,475.76C273.12,473.38 273.11,473.31 270.69,472.86C267.56,472.28 264.4,471.78 261.25,471.3C258.49,470.88 255.71,470.6 252.96,470.12C250.8,469.74 248.81,469.89 246.65,470.53C242.07,471.87 237.48,473.19 232.88,474.5C232.5,474.61 232.12,474.71 231.74,474.84C229.74,475.56 229.74,475.57 229.73,477.69C229.72,479.93 229.69,482.16 229.7,484.4C229.71,485.21 229.39,485.52 228.57,485.54C225.46,485.61 222.34,485.5 219.23,485.87C218.51,485.96 218.22,485.56 218.24,484.88C218.25,484.56 218.24,484.24 218.24,483.92C218.51,454.99 217.59,426.08 217.72,397.15C217.79,381.49 217.85,365.83 217.92,350.17C217.92,349.93 217.95,349.69 217.92,349.45C217.78,348.33 218.23,347.93 219.4,347.91C223.95,347.81 228.5,347.58 233.05,347.42C245.51,346.99 257.96,346.54 270.42,346.14C276.73,345.94 283.04,345.82 289.36,345.7C291.44,345.66 291.43,345.71 291.5,347.77C292.07,366.46 292.21,385.16 291.95,403.85C291.6,429.26 291.69,454.66 292.08,480.07C292.12,480.96 292.11,481.83 292.11,482.71Z" style="fill:rgb(254,253,253);fill-rule:nonzero;"/>
        <path d="M418.62,458.54C418.26,458.45 418.17,458.45 418.12,458.41C416.48,456.87 416.28,456.91 415.54,459.04C413.72,464.31 411.92,469.59 410.07,474.86C409.6,476.2 409.56,477.97 408.4,478.72C407.34,479.41 405.75,478.89 404.4,478.83C389.95,478.23 375.51,477.59 361.06,477.02C359.94,476.98 359.59,476.5 359.21,475.61C358.59,474.18 357.86,474.05 357.06,475.35C356.18,476.78 355.11,476.82 353.63,476.68C350.05,476.34 346.44,476.52 342.86,476.12C341.02,475.91 340.98,475.97 340.99,474.04C341.08,454.47 340.27,434.9 340.44,415.33C340.45,413.65 340.45,411.97 340.31,410.3C340.22,409.16 340.66,408.96 341.67,409C350.53,409.4 359.39,409.74 368.25,410.14C372.72,410.34 377.19,410.36 381.66,410.62C387.88,410.98 394.12,410.95 400.34,411.34C405.76,411.68 411.2,411.52 416.62,412.06C417.71,412.17 418.08,412.39 418.09,413.58C418.23,428.51 418.43,443.44 418.62,458.54Z" style="fill:rgb(254,253,253);fill-rule:nonzero;"/>
        <path d="M443.14,400.43C447.92,400.04 452.52,399.69 457.12,399.27C463.08,398.73 469.03,398.11 474.98,397.55C479.27,397.14 483.56,396.76 487.85,396.37C489.52,396.22 491.19,396.08 492.85,395.93C493.54,395.87 493.91,396.11 493.89,396.85C493.88,397.41 493.92,397.97 493.93,398.53C494.22,412.82 494.51,427.11 494.79,441.4C494.8,441.86 494.95,442.35 494.54,442.88C493.09,442.71 491.75,441.96 490.37,441.44C488.72,440.82 487.4,440.98 485.92,442.02C478.55,447.21 471.1,452.28 463.7,457.43C462.75,458.09 461.82,458.58 460.67,458.68C455.42,459.13 450.18,459.6 444.94,460.09C444.1,460.17 443.5,460.09 443.63,459.02C443.67,458.71 443.63,458.38 443.63,458.06C443.46,438.9 443.3,419.74 443.14,400.43Z" style="fill:rgb(253,253,252);fill-rule:nonzero;"/>
        <path d="M378.85,371.39C379.04,379.53 379.24,387.68 379.43,395.82C379.44,396.38 379.4,396.94 379.44,397.5C379.49,398.44 379,398.69 378.14,398.78C369.34,399.76 360.55,400.74 351.76,401.78C348.83,402.13 345.9,402.49 342.95,402.71C342.04,402.78 341.54,402.51 341.05,401.72C335.73,393.2 330.36,384.7 324.99,376.21C324.49,375.42 324.33,374.8 324.86,373.85C329.99,364.66 335.06,355.44 340.1,346.2C340.67,345.15 341.42,344.71 342.55,344.64C347.65,344.35 352.72,343.73 357.79,343.12C359.19,342.95 360.48,343.05 361.67,343.86C363.49,345.09 365.46,345.16 367.61,344.87C370.61,344.45 373.65,344.31 376.68,344.11C378.34,344 378.4,344.06 378.41,345.75C378.45,354.31 378.61,362.85 378.85,371.39Z" style="fill:rgb(253,253,252);fill-rule:nonzero;"/>
        <path d="M419.88,373.05C420,381.19 420.13,389.33 420.25,397.48C420.28,399.42 420.26,399.44 418.27,399.23C409.55,398.33 400.83,397.37 392.1,396.52C388.85,396.2 385.59,395.95 382.34,395.57C381.4,395.46 381.12,395.1 381.12,394.25C381.1,392.09 381.03,389.94 380.98,387.79C380.75,376.06 380.53,364.32 380.29,352.59C380.24,350.28 380.05,347.97 379.98,345.65C379.92,343.74 379.95,343.74 381.93,343.59C385.94,343.29 389.89,344.04 393.87,344.3C398.24,344.59 402.6,345.12 406.97,345.52C410.7,345.86 414.44,346.23 418.18,346.47C419.4,346.55 419.58,347.11 419.58,348.14C419.59,353.01 419.68,357.88 419.71,362.75C419.73,366.18 419.71,369.62 419.71,373.05L419.88,373.05Z" style="fill:rgb(254,253,253);fill-rule:nonzero;"/>
        <path d="M441.24,396.22C441.29,397.26 441.34,397.94 441.35,398.63C441.65,418.52 441.83,438.42 441.91,458.31C441.92,460.4 441.45,461.78 439.74,463.13C436.23,465.89 432.98,468.99 429.63,471.95C429.4,472.15 429.13,472.32 428.69,472.64C426.63,469.86 424.71,467.04 422.54,464.43C420.85,462.4 420.26,460.26 420.24,457.65C420.14,443.19 419.92,428.73 419.67,414.27C419.64,412.52 420.11,411.48 421.65,410.42C427.62,406.3 433.44,401.94 439.31,397.67C439.85,397.26 440.4,396.84 441.24,396.22Z" style="fill:rgb(253,253,253);fill-rule:nonzero;"/>
        <path d="M315.76,464.63C315.76,462.32 315.78,460.25 315.76,458.19C315.54,442.54 315.34,426.89 315.05,411.24C315.02,409.84 315.4,409.38 316.76,409.09C323.22,407.7 329.61,406.06 335.96,404.2C337.41,403.78 338.84,403.41 340.32,404.35C340.89,404.72 341.78,404.6 342.62,404.71C342.08,405.49 341.34,405.85 340.67,406.2C339.04,407.07 338.64,408.35 338.67,410.14C338.87,423.4 338.98,436.65 339.11,449.91C339.13,452.07 339.11,454.22 339.13,456.38C339.14,457.14 339.04,457.6 338.09,457.89C331.09,460.02 324.13,462.27 317.15,464.47C316.84,464.56 316.51,464.54 315.76,464.63Z" style="fill:rgb(254,253,253);fill-rule:nonzero;"/>
        <path d="M363.33,342.79C360,341.29 356.68,339.82 353.37,338.31C350.33,336.92 347.34,335.42 344.29,334.07C343.27,333.62 342.9,333.05 342.88,331.93C342.54,317.88 341.89,303.83 341.93,289.77C341.94,285.7 341.91,281.62 341.89,277.55L341.89,274.94C344.86,276.15 347.56,277.25 350.27,278.35C353.73,279.76 357.17,281.24 360.68,282.55C361.93,283.02 362.43,283.63 362.4,284.98C362.35,287.69 362.51,290.41 362.52,293.13C362.57,308.87 363.2,324.59 363.57,340.32C363.6,341.08 363.83,341.88 363.33,342.79Z" style="fill:rgb(254,253,253);fill-rule:nonzero;"/>
        <path d="M313.99,464.84C309.3,463.86 304.58,462.87 299.85,461.87C298.3,461.54 296.76,461.06 295.2,460.84C293.76,460.63 293.46,459.92 293.47,458.58C293.53,452.52 293.45,446.45 293.47,440.39C293.5,429.7 293.55,419.01 293.6,408.31C293.61,406.24 293.71,406.19 295.79,406.56C301.04,407.49 306.29,408.43 311.54,409.34C313.28,409.64 313.32,409.61 313.34,411.39C313.46,419.93 313.55,428.46 313.69,437C313.83,445.78 314.02,454.55 314.18,463.33C314.18,463.79 314.33,464.28 313.99,464.84Z" style="fill:rgb(253,253,252);fill-rule:nonzero;"/>
        <path d="M422.34,398.65C421.79,397.84 421.93,397.11 421.92,396.42C421.68,380.46 421.47,364.49 421.18,348.53C421.15,347.07 421.54,346.24 422.88,345.57C427.51,343.25 432.06,340.79 436.65,338.4C436.98,338.23 437.27,337.87 437.8,338.06C437.84,338.24 437.93,338.45 437.94,338.65C438.01,354.53 438.7,370.41 438.6,386.29C438.59,387.82 438.2,388.72 436.84,389.54C432.01,392.47 427.26,395.55 422.34,398.65Z" style="fill:rgb(254,253,253);fill-rule:nonzero;"/>
        <path d="M311.88,504.73C311.97,495.87 319.37,488.56 328.1,488.69C336.69,488.82 343.82,496.29 343.74,505.08C343.66,513.8 336.25,521.31 327.66,520.96C318.42,520.6 312.05,513.57 311.88,504.73Z" style="fill:rgb(254,254,253);fill-rule:nonzero;"/>
        <path d="M463.78,460.43C465.63,461.1 467.13,461.59 468.59,462.17C475.76,465.02 482.92,467.88 490.07,470.76C490.85,471.07 491.82,471.27 491.61,472.5C491.56,472.81 491.59,473.14 491.59,473.46L491.59,498.22C490.96,498.68 490.55,498.42 490.1,498.24C482.03,494.9 473.95,491.57 465.87,488.24C463.8,487.39 463.8,487.4 463.8,485.2C463.79,477.7 463.78,470.2 463.77,462.7C463.78,462.07 463.78,461.44 463.78,460.43Z" style="fill:rgb(254,254,253);fill-rule:nonzero;"/>
        <path d="M381.5,397.33C383.86,397.22 386.3,397.75 388.73,397.98C394.92,398.58 401.1,399.27 407.3,399.79C411.35,400.13 415.4,400.53 419.43,401.03C420.98,401.22 422.24,400.82 423.49,400.03C425.78,398.58 428.12,397.21 430.38,395.71C431.45,395 432.55,394.74 433.78,394.87C435.48,395.05 437.24,394.82 439.17,395.4C437.92,396.71 436.6,397.45 435.39,398.33C430.23,402.08 425.03,405.78 419.88,409.54C419.05,410.15 418.23,410.39 417.23,410.35C407.42,409.9 397.61,409.5 387.81,409.04C382.71,408.8 377.6,408.8 372.49,408.53C362.61,408.01 352.71,407.74 342.45,407.36C345.02,405.4 347.31,403.8 350.49,403.6C360.28,402.98 369.96,401.3 379.7,400.23C380.78,400.11 381.31,399.7 381.23,398.58C381.19,398.21 381.07,397.79 381.5,397.33Z" style="fill:rgb(254,253,252);fill-rule:nonzero;"/>
        <path d="M302.4,366.46C306.32,359.37 310.21,352.33 314.11,345.28C315.31,343.12 316.5,340.96 317.68,338.78C318.06,338.08 318.48,337.61 319.37,337.95C325.77,340.36 332.35,342.25 338.7,344.41C339.09,344.98 338.72,345.3 338.55,345.61C333.77,354.26 328.97,362.91 324.17,371.55C323.9,372.04 323.56,372.49 323.34,373C322.97,373.82 322.51,373.96 321.64,373.64C315.52,371.4 309.37,369.23 303.23,367.02C302.94,366.91 302.7,366.67 302.4,366.46Z" style="fill:rgb(253,253,252);fill-rule:nonzero;"/>
        <path d="M464.77,458.85C469.12,455.77 473.06,452.95 477.03,450.19C480.17,448 483.39,445.94 486.48,443.69C487.73,442.78 488.79,442.73 490.22,443.24C498.39,446.13 506.59,448.91 514.79,451.73C514.99,452.49 514.28,452.61 513.89,452.92C507.07,458.3 500.22,463.64 493.44,469.08C492.58,469.77 491.98,469.72 491.09,469.36C486.17,467.34 481.24,465.34 476.3,463.37C472.63,461.9 468.93,460.48 464.77,458.85Z" style="fill:rgb(253,253,253);fill-rule:nonzero;"/>
        <path d="M287.48,343.73C286.97,344.22 286.48,344.07 286.04,344.08C273.59,344.44 261.14,344.72 248.69,345.14C238.8,345.48 228.91,345.99 219.01,346.18C217.87,346.2 216.82,346.11 215.79,345.55C210.67,342.81 205.48,340.22 200.21,337.78C199.95,337.66 199.63,337.53 199.59,337.18C199.71,336.87 199.97,336.96 200.18,336.96C212.63,336.6 225.08,336.23 237.53,335.88C247.11,335.61 256.69,335.39 266.27,335.11C267.33,335.08 268.31,335.15 269.3,335.58C275.2,338.16 281.12,340.72 287.03,343.29C287.14,343.37 287.24,343.52 287.48,343.73Z" style="fill:rgb(253,252,251);fill-rule:nonzero;"/>
        <path d="M231.43,477.34C234.4,477.35 237.02,478.17 239.7,478.51C243.65,479.01 247.56,479.72 251.5,480.32C253.85,480.68 253.9,480.65 253.91,483.11C253.94,491.65 253.95,500.18 253.95,508.72C253.95,510.23 253.9,510.32 252.3,510.07C247.98,509.39 243.68,508.63 239.37,507.89C237.1,507.5 234.83,507.04 232.55,506.7C231.74,506.58 231.44,506.22 231.44,505.48C231.44,505.16 231.43,504.84 231.43,504.52L231.43,477.34Z" style="fill:rgb(254,253,253);fill-rule:nonzero;"/>
        <path d="M417.12,459.96C425.11,470.87 432.84,481.4 440.8,492.27C428.62,494.33 416.63,495.95 404.3,497.87C408.35,485.12 412.74,472.85 417.12,459.96Z" style="fill:rgb(254,253,252);fill-rule:nonzero;"/>
        <path d="M493.32,497.81C493.32,489.32 493.33,480.94 493.3,472.56C493.3,471.57 493.65,470.96 494.42,470.37C501.49,464.89 508.53,459.38 515.58,453.88C515.63,453.84 515.72,453.87 516.08,453.85L516.08,455.62C516.03,462.89 515.96,470.16 515.92,477.43C515.91,478.42 515.77,479.19 514.9,479.92C507.96,485.69 501.09,491.54 494.19,497.36C493.96,497.55 493.78,497.83 493.32,497.81Z" style="fill:rgb(254,253,253);fill-rule:nonzero;"/>
        <path d="M491.15,394.28C484.14,394.95 477.23,395.63 470.33,396.27C464.37,396.82 458.41,397.32 452.45,397.86C449.91,398.09 447.37,398.37 444.83,398.64C443.2,398.81 443.18,398.8 443.11,397.29C442.93,393.61 442.93,393.63 439.26,393.5C437.87,393.45 436.42,393.67 434.9,392.85C436.29,391.93 437.51,391.07 438.78,390.28C439.72,389.7 440.47,389.08 440.27,387.83C440.14,387.01 440.55,386.75 441.35,386.68C444.13,386.45 446.9,386.09 449.68,385.88C456.2,385.38 462.73,384.95 469.26,384.47C470.63,384.37 471.88,384.59 473.18,385.16C478.79,387.65 484.21,390.5 489.73,393.17C490.2,393.43 490.79,393.56 491.15,394.28Z" style="fill:rgb(253,253,252);fill-rule:nonzero;"/>
        <path d="M255.57,509.75L255.57,507.45C255.57,499.23 255.58,491.02 255.58,482.8C255.58,480.26 255.46,480.73 257.58,479.97C261.7,478.5 265.85,477.13 269.98,475.71C270.36,475.58 270.72,475.42 271.14,475.52C271.52,475.67 271.44,476.02 271.45,476.31C271.66,484.52 271.79,492.74 271.74,500.95C271.73,502.41 271.33,503.25 269.95,503.84C265.63,505.67 261.37,507.63 257.07,509.49C256.67,509.68 256.23,509.98 255.57,509.75Z" style="fill:rgb(254,253,253);fill-rule:nonzero;"/>
        <path d="M334.62,402.87C330.56,403.9 326.5,404.94 322.44,405.97C321.75,406.15 321.02,406.23 320.35,406.48C316.1,408.07 311.82,407.91 307.45,406.93C303.34,406.01 299.17,405.29 295.01,404.62C293.85,404.43 293.56,403.99 293.6,402.94C293.66,401.03 293.67,399.11 293.58,397.19C293.53,396.22 293.97,395.99 294.78,395.81C299.44,394.78 304.06,393.54 308.75,392.69C311.17,392.25 313.65,393.02 316.08,393.47C316.6,393.57 316.89,393.95 317.08,394.41C317.61,395.73 318.74,396.21 319.97,396.69C324.87,398.57 329.74,400.51 334.62,402.42C334.63,402.57 334.63,402.72 334.62,402.87Z" style="fill:rgb(254,254,253);fill-rule:nonzero;"/>
        <path d="M303.74,369C308.44,370.67 313.09,372.52 317.86,373.96C321.35,375.01 323.63,376.99 325.47,380.15C329.76,387.51 334.43,394.66 339.08,402.11C335.83,400.91 332.74,399.81 329.68,398.63C326.56,397.43 323.49,396.12 320.37,394.95C319.22,394.52 318.61,393.67 318.02,392.71C313.62,385.6 309.21,378.49 304.8,371.38C304.38,370.71 303.94,370.05 303.51,369.39C303.59,369.26 303.67,369.13 303.74,369Z" style="fill:rgb(254,253,253);fill-rule:nonzero;"/>
        <path d="M368.59,507.16C361.05,506.03 353.97,504.95 346.88,503.93C345.86,503.78 345.3,503.55 345.25,502.38C345.19,501.03 344.81,499.7 344.26,498.46C343.93,497.73 343.95,497.15 344.42,496.48C348.74,490.35 353.03,484.2 357.35,478.06C357.47,477.88 357.7,477.78 358.02,477.54C361.52,487.34 364.99,497.05 368.59,507.16Z" style="fill:rgb(254,254,253);fill-rule:nonzero;"/>
        <path d="M355.54,341.62C351.03,342.11 346.52,342.6 342.01,343.08C341.22,343.16 340.44,343.19 339.65,342.93C334,341.06 328.35,339.22 322.69,337.36C322.64,337.34 322.61,337.23 322.49,336.99C327.25,336.5 331.93,336.01 336.62,335.53C337.17,335.47 337.77,335.58 338.29,335.42C341.29,334.5 343.84,335.58 346.44,336.93C349.44,338.5 352.57,339.83 355.64,341.27C355.6,341.38 355.57,341.5 355.54,341.62Z" style="fill:rgb(253,252,252);fill-rule:nonzero;"/>
        <path d="M234.68,475.78C239.75,474.31 244.24,473.02 248.73,471.7C249.85,471.37 250.96,471.6 252.05,471.76C257.47,472.53 262.89,473.35 268.77,474.22C264.11,475.85 259.86,477.34 255.61,478.82C254.59,479.17 253.55,478.95 252.53,478.79C247.58,478.03 242.64,477.25 237.7,476.45C236.84,476.31 236,476.08 234.68,475.78Z" style="fill:rgb(252,251,251);fill-rule:nonzero;"/>
        <path d="M417.76,336.33C421.45,337.64 424.84,339.18 428.91,340.36C425.85,342 423.28,343.67 420.49,344.77C418.84,345.42 416.86,344.69 415.04,344.51C409.72,344 404.41,343.43 399.07,343.1C398.07,343.04 397.03,343.1 395.8,342.41C398.55,342.17 400.97,341.95 403.39,341.75C407.68,341.4 411.98,341.05 416.27,340.75C417.39,340.67 417.85,340.22 417.76,339.1C417.71,338.26 417.76,337.39 417.76,336.33Z" style="fill:rgb(250,250,250);fill-rule:nonzero;"/>
        <path d="M435.22,337.02C433.74,338.19 432.15,338.84 430.47,339.75L430.47,336.47C431.98,336.47 433.53,336.34 435.22,337.02Z" style="fill:rgb(223,223,223);fill-rule:nonzero;"/>
        <path d="M515.32,523.1C508.6,521.14 502.22,519.29 495.52,517.34C500.69,510.26 505.76,503.31 511.06,496.05C512.51,505.28 513.89,514.04 515.32,523.1Z" style="fill:rgb(254,253,253);fill-rule:nonzero;"/>
        <path d="M527.81,517.78C524.18,519.55 520.77,521.22 517.08,523.02C515.75,514.6 514.45,506.34 513.15,498.09C513.28,498.04 513.41,497.99 513.54,497.94C518.27,504.5 522.99,511.07 527.81,517.78Z" style="fill:rgb(253,252,251);fill-rule:nonzero;"/>
        <path d="M607.48,489.73C613.07,489.7 616.61,494.41 616.56,499.15C616.51,504.14 611.96,508.63 607.18,508.49C602.01,508.34 598,503.99 598.04,498.74C598.07,494.48 601.53,489.43 607.48,489.73Z" style="fill:rgb(253,253,253);fill-rule:nonzero;"/>
        <path d="M183.14,508.72C183.23,503.62 187.44,499.47 192.48,499.51C197.62,499.55 201.55,503.84 201.44,509.27C201.34,514.38 197.3,518.35 192.26,518.29C186.98,518.24 183.05,514.11 183.14,508.72Z" style="fill:rgb(253,253,252);fill-rule:nonzero;"/>
    </g>
</svg>
