<?xml version="1.0" encoding="UTF-8" standalone="no"?>
<!DOCTYPE svg PUBLIC "-//W3C//DTD SVG 1.1//EN" "http://www.w3.org/Graphics/SVG/1.1/DTD/svg11.dtd">
<svg width="100%" height="100%" viewBox="0 0 679 571" version="1.1" xmlns="http://www.w3.org/2000/svg" xmlns:xlink="http://www.w3.org/1999/xlink" xml:space="preserve" xmlns:serif="http://www.serif.com/" style="fill-rule:evenodd;clip-rule:evenodd;stroke-linejoin:round;stroke-miterlimit:2;">
    <g>
        <path d="M412.29,351.5C412.32,352.87 411.7,353.43 410.47,353.79C402.45,356.14 394.44,358.55 386.44,360.95C381.86,362.32 377.27,363.67 372.72,365.11C371.2,365.59 369.84,365.5 368.34,364.95C363.79,363.26 359.19,361.7 354.61,360.09C352.64,359.4 352.64,359.4 352.63,357.28C352.62,355.44 352.63,353.6 352.63,351.76L352.62,351.76C352.62,349.93 352.61,348.09 352.62,346.25C352.63,344.36 352.64,344.35 354.42,343.84C360.08,342.22 365.75,340.62 371.4,338.99C378.66,336.89 385.93,334.79 393.17,332.63C394.3,332.29 395.26,332.21 396.4,332.61C401.13,334.25 405.88,335.84 410.66,337.33C411.89,337.71 412.32,338.3 412.3,339.51C412.26,343.51 412.24,347.5 412.29,351.5Z" style="fill:rgb(251,250,249);fill-rule:nonzero;"/>
        <path d="M414.41,352.53C414.41,348.63 414.42,344.99 414.4,341.35C414.4,340.2 415.38,340.18 416.05,339.97C419.09,339.03 422.15,338.18 425.21,337.29C431.31,335.52 437.42,333.75 443.52,331.97C444.98,331.54 446.39,331.22 447.93,331.8C453.2,333.78 458.5,335.7 464.32,337.84C447.47,342.8 431.12,347.61 414.41,352.53Z" style="fill:rgb(251,250,249);fill-rule:nonzero;"/>
        <path d="M456.7,305.43C456.68,307.45 456.72,307.47 454.89,308.21C446.99,311.4 439.08,314.59 431.17,317.76C426.74,319.53 422.28,321.26 417.85,323.06C416.84,323.47 415.95,323.54 414.88,323.12C410.06,321.24 405.21,319.42 400.35,317.66C399.01,317.18 398.55,316.39 398.51,315.01C398.42,311.98 398.18,308.95 398,305.92C397.87,303.66 397.88,303.63 395.58,302.93C388.72,300.85 381.85,298.81 374.99,296.74C369.2,294.98 363.4,293.24 357.64,291.39C355.4,290.67 353.58,289.19 351.91,287.56C343.78,279.65 335.66,271.72 327.54,263.8C327.31,263.59 327.08,263.38 326.65,262.97C318.62,270.65 310.61,278.29 302.66,285.88C303.08,286.71 303.7,286.62 304.23,286.73C307.51,287.35 310,289.33 312.38,291.49C313.38,292.41 314.34,293.38 315.4,294.21C316.82,295.34 317.98,296.58 318.27,298.45C318.39,299.23 318.83,299.68 319.66,299.82C320.83,300.03 321.99,300.32 323.15,300.61C324.16,300.87 325.28,301.12 325.85,302.02C326.62,303.23 327.77,303.57 329,303.88C331.86,304.6 333.57,306.3 333.87,309.34C334.01,310.68 334.35,312 334.59,313.34C334.76,314.26 335.21,314.98 336.1,315.34C336.81,315.63 337.43,315.71 337.94,314.89C338.75,313.61 339.69,312.41 340.54,311.15C342.89,307.69 344.83,307.05 348.65,308.72C357.69,312.69 366.7,316.7 375.72,320.7C378.05,321.74 380.37,322.78 382.69,323.83C383.42,324.16 384.12,324.52 384.72,325.08C386.34,326.58 386.24,328.93 384.49,330.27C383.64,330.92 382.65,331.16 381.58,331.21C375.36,331.52 369.14,331.89 362.91,332.17C353.5,332.59 344.08,333.14 334.65,333.29C333.69,333.3 332.72,333.34 331.78,333.22C329.27,332.92 328.03,330.61 329.08,328.27C329.64,327.03 330.45,325.93 331.23,324.82C332,323.71 332.89,322.68 333.5,321.26C329.83,320.53 328.35,318.01 327.96,314.61C327.87,313.9 327.74,313.2 327.65,312.49C327.31,309.68 326.69,309.3 324.15,310.33C322.58,310.97 321.01,310.76 319.47,310.29C318.32,309.94 317.58,309.96 317.25,311.43C316.84,313.31 315.52,314.61 313.82,315.44C313.67,316.29 314.29,316.66 314.66,317.12C319.03,322.52 323.33,327.98 327.84,333.26C332.21,338.38 333.94,344.19 333.25,350.79C332.38,359.21 331.5,367.63 330.6,376.04C330.12,380.55 330.1,380.55 334.4,381.93C337.5,382.94 340.59,384 343.72,384.92C345.03,385.3 345.47,385.97 345.44,387.31C345.36,390.58 345.36,393.86 345.44,397.13C345.47,398.31 344.99,398.91 343.97,399.25C342.32,399.82 340.67,400.39 338.92,400.99C340.4,401.84 341.94,402.23 343.44,402.73C344.5,403.09 344.92,403.71 344.9,404.86C344.83,408.37 344.81,411.89 344.9,415.4C344.95,417.2 344.87,418.76 342.41,419.14C342.99,419.4 343.27,419.55 343.56,419.67C347.09,421.13 346.71,420.1 346.71,424.41C346.71,428.33 346.6,432.25 346.71,436.16C346.76,437.71 346.16,438.49 344.81,438.99C341.82,440.1 338.85,441.24 335.88,442.38C322.19,447.64 308.51,452.9 294.84,458.16C293.63,458.63 292.53,458.84 291.17,458.34C278.78,453.74 266.35,449.24 253.94,444.71C253.56,444.57 253.18,444.45 252.82,444.28C250.88,443.42 250.87,444.04 250.85,441.36C250.82,438.17 250.87,434.97 250.8,431.78C250.78,430.59 251.03,429.89 252.33,429.54C253.93,429.12 255.43,428.31 257.03,427.83C258.08,427.52 258.48,426.98 258.36,425.95C258.35,425.87 258.36,425.79 258.36,425.71C258.46,422.87 258.44,422.92 255.76,421.83C254.15,421.18 251.89,421.18 251.1,419.72C250.39,418.41 250.86,416.45 250.85,414.77C250.83,412.62 250.92,410.45 250.81,408.3C250.74,406.92 251.25,406.31 252.58,406C254.04,405.66 255.44,405.05 257.19,404.44C255.04,403.79 254.73,402.38 254.81,400.6C254.93,397.81 254.85,395.01 254.87,392.21C254.89,390 254.89,389.97 256.9,389.39C261.41,388.08 265.91,386.77 270.43,385.51C278.17,383.35 285.91,381.23 293.65,379.08C295.7,378.51 295.68,378.5 295.85,376.36C296.41,369.2 296.93,362.03 297.57,354.87C297.69,353.47 297.39,352.46 296.39,351.48C291.82,347.01 287.32,342.47 282.76,337.99C277.81,333.12 272.81,328.29 267.83,323.45C267.44,323.07 267.01,322.74 266.29,322.14C266.11,326.21 265.96,329.87 265.8,333.54C265.62,337.69 265.52,341.84 265.23,345.99C264.9,350.88 262.92,355.13 259.38,358.49C254.33,363.27 249.14,367.89 244,372.57C234.02,381.66 224.02,390.72 214.07,399.85C213.13,400.71 212.45,400.96 211.46,400.1C210.96,399.65 210.37,399.29 209.42,398.6C210.6,402.14 211.63,405.22 212.65,408.31C212.88,409.01 213.37,409.27 214.05,409.43C215.3,409.7 216.53,410.02 217.75,410.4C221.78,411.62 223.89,414.18 224.23,418.34C224.34,419.6 224.24,420.89 224.2,422.17C224.16,423.29 223.69,423.89 222.42,423.87C216.51,423.82 210.59,423.96 204.68,423.77C201.33,423.67 198.56,422.07 196.67,419.2C194.26,415.53 192.29,411.6 190.08,407.81C189.8,407.33 189.5,406.84 189.3,406.33C188.81,405.08 187.95,404.54 186.72,405.13C185.3,405.81 184.54,405.18 183.8,404.06C181.95,401.26 180.09,398.47 178.15,395.74C177.55,394.9 177.71,394.38 178.3,393.68C180.04,391.59 181.8,389.53 183.77,387.65C184.92,386.54 186.07,385.43 187.21,384.31C189.3,382.24 189.29,382.23 187.4,379.93C188.38,378.38 189.72,377.12 191,375.82C202.6,364.03 214.2,352.24 225.85,340.49C226.9,339.44 227.29,338.52 227.09,336.95C225.54,325.08 224.12,313.19 222.69,301.31C221.56,291.9 223.27,283.04 228.02,274.81C229.34,272.52 231.06,270.51 232.6,268.37C234.66,265.49 234.63,265.49 232.09,263.18C230.8,261.99 229.57,260.72 228.26,259.55C221.33,253.38 220.56,240.65 229.05,233.72C233.13,230.38 237.24,227.08 241.38,223.84C249.24,217.69 257.05,211.48 264.92,205.34C269.95,201.43 275.65,199.55 282.08,199.86C284.91,200 287.56,200.76 290.21,201.67C296.23,203.73 302.19,205.97 308.13,208.28C309.27,208.72 310.01,208.81 310.94,207.67C312.82,205.39 314.95,203.33 317,201.21C318.19,199.98 318.86,198.69 318.26,196.91C317.96,196.02 317.92,195.03 317.78,194.09C317.29,190.95 318.33,188.39 320.9,186.58C321.69,186.03 322.21,185.49 322.39,184.58C322.47,184.19 322.63,183.82 322.79,183.45C323.29,182.29 324.23,181.11 324.18,179.97C324.14,178.88 322.49,178.46 321.69,177.58C321.08,176.92 320.81,176.32 321.36,175.48C321.8,174.81 322.09,174.06 322.49,173.37C323.05,172.43 323.8,171.76 325.01,171.94C326.26,172.12 327.06,171.58 327.81,170.56C333.27,163.11 340.64,159.84 349.83,160.78C350.9,160.89 351.87,160.45 352.92,160.59C358.91,161.44 363.86,163.92 366.92,169.42C367.22,169.97 367.48,170.57 367.86,171.07C372.79,177.8 373.49,185.23 370.93,192.91C369.96,195.83 369.78,198.2 371.76,200.61C372.2,201.15 372.41,201.89 372.73,202.53C373.28,203.65 372.77,204.54 372.07,205.36C371.41,206.14 370.59,206.2 369.68,205.81C368.21,205.19 366.71,204.66 365.26,204C363.69,203.27 363.7,203.21 362.89,204.81C361.17,208.24 359.26,211.55 357.26,214.82C355.25,218.09 353.08,221.25 350.39,224.01C347.01,227.5 342.97,229.47 337.99,229.12C337.67,229.1 337.35,229.11 337.03,229.13C336.99,229.13 336.95,229.25 336.83,229.45C338.69,231.32 340.63,233.17 342.46,235.11C350.14,243.25 357.28,251.85 364.71,260.2C366.83,262.59 368.97,264.96 371.04,267.39C371.7,268.18 372.53,268.57 373.44,268.87C384.78,272.58 396.13,276.29 407.47,279.99C407.7,280.07 407.92,280.15 408.14,280.24C409.75,280.86 409.74,280.86 409.34,282.67C409.28,282.97 409.29,283.29 409.26,283.72C413.41,283.88 417.48,284.02 421.54,284.18C425.53,284.33 429.05,285.61 432.24,287.81C433.2,288.47 433.94,288.58 434.82,288.07C437.6,286.49 440.27,286.7 443.21,287.93C446.87,289.47 450.71,290.58 454.5,291.77C455.67,292.14 456.2,292.67 456.24,293.94C456.35,297.77 456.74,301.59 456.7,305.43Z" style="fill:rgb(251,250,249);fill-rule:nonzero;"/>
        <path d="M484.21,389.93C479.18,391.47 474.16,393.03 469.14,394.59C467.96,394.96 466.59,395.12 466.76,396.96C466.84,397.76 466,397.89 465.4,398.06C464.47,398.31 464.2,398.88 464.24,399.81C464.31,401.57 464.34,403.33 464.24,405.08C464.16,406.24 464.6,406.94 465.61,407.3C466.88,407.74 467.2,408.62 467.16,409.89C467.09,412.77 467.12,415.65 467.17,418.52C467.19,419.8 466.87,420.72 465.47,420.96C464.37,421.15 464.17,421.9 464.2,422.9C464.26,425.13 464.1,427.38 464.27,429.6C464.39,431.27 463.69,432.05 462.25,432.62C458.32,434.16 454.4,435.74 450.52,437.38C435.55,443.71 420.55,449.92 405.49,456.04C403.06,457.03 400.63,458.03 398.24,459.11C397.22,459.57 396.33,459.55 395.29,459.17C383.1,454.7 370.9,450.27 358.7,445.85C354.58,444.36 354.57,444.39 354.56,440.06C354.56,437.5 354.61,434.95 354.54,432.39C354.51,431.34 354.87,430.83 355.86,430.48C357.74,429.83 359.53,428.91 361.43,428.35C362.85,427.93 362.98,427.12 363.01,425.86C363.05,424.52 362.6,423.79 361.35,423.39C359.68,422.85 358.06,422.15 356.38,421.67C355,421.27 354.37,420.53 354.57,419.08C354.72,417.99 354.59,417.03 353.3,416.64C352.65,416.44 352.62,415.84 352.62,415.25L352.62,399.67C356.11,400.87 359.39,401.99 362.69,403.12C363.02,400.92 363.02,400.93 361.24,400.32C358.75,399.47 356.27,398.61 353.79,397.75C353.1,397.51 352.57,397.26 352.59,396.3C352.64,391.27 352.61,386.24 352.61,381.14C354.21,381.03 355.54,381.66 356.83,382.15C358.46,382.77 359.85,382.64 361.52,381.57C359.19,380.49 356.97,379.76 354.69,379.2C352.62,378.69 352.61,378.69 352.61,376.58L352.61,361.92C355.48,362.86 358.17,363.73 360.85,364.62C363.41,365.48 365.98,366.32 368.52,367.24C369.85,367.73 371.07,367.8 372.47,367.37C379.77,365.16 387.12,363.06 394.44,360.89C395.13,360.69 395.78,360.39 396.55,360.56C396.95,361.7 396.53,362.93 396.86,364.13C398.23,364.47 398.63,363.82 398.68,362.55C398.81,359.48 398.86,359.54 401.73,358.69C414.01,355.04 426.28,351.36 438.55,347.7C439.84,347.32 441.14,346.97 442.76,346.51L442.76,353.02C442.76,353.66 442.84,354.31 442.75,354.94C442.55,356.39 443.24,356.96 444.82,356.99C444.82,353.97 444.8,350.94 444.82,347.92C444.84,345.81 444.87,345.8 446.73,345.25C459.92,341.34 473.12,337.43 486.31,333.5C486.77,333.36 487.2,333.15 487.84,333.37C487.84,338.5 487.81,343.68 487.86,348.87C487.87,349.89 487.19,350.03 486.53,350.23C482.03,351.59 477.53,352.91 473.03,354.27C466.96,356.1 460.9,357.94 454.59,359.85C456.11,360.61 457.35,361.26 458.99,360.74C462.17,359.72 465.4,358.87 468.61,357.92C469.23,357.73 469.82,357.55 470.63,357.62C470.63,362.73 470.62,367.84 470.64,372.94C470.64,373.67 470.46,374.32 469.69,374.34C467.62,374.41 466.69,376.53 464.81,376.93C464.35,377.03 464.31,377.52 464.4,377.92C464.54,378.52 465.01,378.33 465.36,378.22C467.11,377.69 468.84,377.1 470.59,376.56C475.76,374.98 480.94,373.41 486.11,371.82C486.65,371.65 487.16,371.47 487.9,371.71C487.9,376.12 487.89,380.59 487.9,385.05C487.91,388.82 487.91,388.8 484.21,389.93Z" style="fill:rgb(251,250,249);fill-rule:nonzero;"/>
        <path d="M509.48,361.22C509.49,362.33 509.01,362.68 508.02,362.97C501.68,364.82 495.37,366.74 489.05,368.65C483.81,370.24 478.58,371.86 473.34,373.46C472.74,372.85 472.96,372.18 472.95,371.6C472.88,367.21 472.92,362.82 472.76,358.43C472.7,356.97 473.35,356.53 474.54,356.18C481.93,353.97 489.31,351.72 496.69,349.47C500.86,348.2 505.02,346.93 509.46,345.57C509.46,351.01 509.44,356.12 509.48,361.22Z" style="fill:rgb(251,250,249);fill-rule:nonzero;"/>
        <path d="M506.89,325.08C502.4,326.47 497.89,327.76 493.39,329.09C485.38,331.45 477.36,333.78 469.36,336.19C468.23,336.53 467.25,336.55 466.13,336.13C461.22,334.29 456.29,332.48 451.33,330.76C449.95,330.28 449.54,329.56 449.57,328.15C449.66,324.48 449.63,320.8 449.56,317.13C449.53,315.8 449.91,315.23 451.3,314.84C464.23,311.21 477.14,307.48 490.04,303.74C491.33,303.36 492.48,303.35 493.76,303.81C498.47,305.51 503.2,307.15 507.96,308.73C509.04,309.08 509.53,309.53 509.47,310.72C509.39,312.71 509.45,314.71 509.45,316.71L509.48,316.71C509.48,318.38 509.5,320.06 509.47,321.74C509.42,324.53 509.97,324.13 506.89,325.08Z" style="fill:rgb(251,250,249);fill-rule:nonzero;"/>
        <path d="M509.57,342.19C509.58,342.97 509.25,343.39 508.57,343.59C502.49,345.41 496.41,347.22 490.59,348.96C489.98,348.87 489.96,348.59 489.96,348.37C489.93,343.59 489.95,338.8 489.89,334.01C489.87,332.86 490.24,332.34 491.37,332.01C496.87,330.4 502.33,328.7 507.81,327.06C508.26,326.93 508.75,326.95 509.56,326.86C509.56,332.15 509.54,337.17 509.57,342.19Z" style="fill:rgb(251,250,249);fill-rule:nonzero;"/>
        <path d="M509.58,380.84C509.59,381.94 509.06,382.39 508.1,382.66C506.03,383.24 503.98,383.88 501.93,384.52C498.51,385.58 495.09,386.65 491.67,387.71C491.3,387.82 490.9,387.85 490.6,387.9C490.07,387.6 490.16,387.17 490.15,386.8C490.13,381.93 490.12,377.06 490.07,372.2C490.06,371.21 490.25,370.57 491.32,370.25C497.26,368.48 503.18,366.66 509.56,364.72C509.56,370.32 509.54,375.58 509.58,380.84Z" style="fill:rgb(251,250,249);fill-rule:nonzero;"/>
        <path d="M456.7,305.43C456.68,307.45 456.72,307.47 454.89,308.21C446.99,311.4 439.08,314.59 431.17,317.76C426.74,319.53 422.28,321.26 417.85,323.06C416.84,323.47 415.95,323.54 414.88,323.12C410.06,321.24 405.21,319.42 400.35,317.66C399.01,317.18 398.55,316.39 398.51,315.01C398.42,311.98 398.18,308.95 398,305.92C397.87,303.66 397.88,303.63 395.58,302.93C388.72,300.85 381.85,298.81 374.99,296.74C369.2,294.98 363.4,293.24 357.64,291.39C355.4,290.67 353.58,289.19 351.91,287.56C343.78,279.65 335.66,271.72 327.54,263.8C327.31,263.59 327.08,263.38 326.65,262.97C318.62,270.65 310.61,278.29 302.66,285.88C303.08,286.71 303.7,286.62 304.23,286.73C307.51,287.35 310,289.33 312.38,291.49C313.38,292.41 314.34,293.38 315.4,294.21C316.82,295.34 317.98,296.58 318.27,298.45C318.39,299.23 318.83,299.68 319.66,299.82C320.83,300.03 321.99,300.32 323.15,300.61C324.16,300.87 325.28,301.12 325.85,302.02C326.62,303.23 327.77,303.57 329,303.88C331.86,304.6 333.57,306.3 333.87,309.34C334.01,310.68 334.35,312 334.59,313.34C334.76,314.26 335.21,314.98 336.1,315.34C336.81,315.63 337.43,315.71 337.94,314.89C338.75,313.61 339.69,312.41 340.54,311.15C342.89,307.69 344.83,307.05 348.65,308.72C357.69,312.69 366.7,316.7 375.72,320.7C378.05,321.74 380.37,322.78 382.69,323.83C383.42,324.16 384.12,324.52 384.72,325.08C386.34,326.58 386.24,328.93 384.49,330.27C383.64,330.92 382.65,331.16 381.58,331.21C375.36,331.52 369.14,331.89 362.91,332.17C353.5,332.59 344.08,333.14 334.65,333.29C333.69,333.3 332.72,333.34 331.78,333.22C329.27,332.92 328.03,330.61 329.08,328.27C329.64,327.03 330.45,325.93 331.23,324.82C332,323.71 332.89,322.68 333.5,321.26C329.83,320.53 328.35,318.01 327.96,314.61C327.87,313.9 327.74,313.2 327.65,312.49C327.31,309.68 326.69,309.3 324.15,310.33C322.58,310.97 321.01,310.76 319.47,310.29C318.32,309.94 317.58,309.96 317.25,311.43C316.84,313.31 315.52,314.61 313.82,315.44C313.67,316.29 314.29,316.66 314.66,317.12C319.03,322.52 323.33,327.98 327.84,333.26C332.21,338.38 333.94,344.19 333.25,350.79C332.38,359.21 331.5,367.63 330.6,376.04C330.12,380.55 330.1,380.55 334.4,381.93C337.5,382.94 340.59,384 343.72,384.92C345.03,385.3 345.47,385.97 345.44,387.31C345.36,390.58 345.36,393.86 345.44,397.13C345.47,398.31 344.99,398.91 343.97,399.25C342.32,399.82 340.67,400.39 338.92,400.99C340.4,401.84 341.94,402.23 343.44,402.73C344.5,403.09 344.92,403.71 344.9,404.86C344.83,408.37 344.81,411.89 344.9,415.4C344.95,417.2 344.87,418.76 342.41,419.14C342.99,419.4 343.27,419.55 343.56,419.67C347.09,421.13 346.71,420.1 346.71,424.41C346.71,428.33 346.6,432.25 346.71,436.16C346.76,437.71 346.16,438.49 344.81,438.99C341.82,440.1 338.85,441.24 335.88,442.38C322.19,447.64 308.51,452.9 294.84,458.16C293.63,458.63 292.53,458.84 291.17,458.34C278.78,453.74 266.35,449.24 253.94,444.71C253.56,444.57 253.18,444.45 252.82,444.28C250.88,443.42 250.87,444.04 250.85,441.36C250.82,438.17 250.87,434.97 250.8,431.78C250.78,430.59 251.03,429.89 252.33,429.54C253.93,429.12 255.43,428.31 257.03,427.83C258.08,427.52 258.48,426.98 258.36,425.95C258.35,425.87 258.36,425.79 258.36,425.71C258.46,422.87 258.44,422.92 255.76,421.83C254.15,421.18 251.89,421.18 251.1,419.72C250.39,418.41 250.86,416.45 250.85,414.77C250.83,412.62 250.92,410.45 250.81,408.3C250.74,406.92 251.25,406.31 252.58,406C254.04,405.66 255.44,405.05 257.19,404.44C255.04,403.79 254.73,402.38 254.81,400.6C254.93,397.81 254.85,395.01 254.87,392.21C254.89,390 254.89,389.97 256.9,389.39C261.41,388.08 265.91,386.77 270.43,385.51C278.17,383.35 285.91,381.23 293.65,379.08C295.7,378.51 295.68,378.5 295.85,376.36C296.41,369.2 296.93,362.03 297.57,354.87C297.69,353.47 297.39,352.46 296.39,351.48C291.82,347.01 287.32,342.47 282.76,337.99C277.81,333.12 272.81,328.29 267.83,323.45C267.44,323.07 267.01,322.74 266.29,322.14C266.11,326.21 265.96,329.87 265.8,333.54C265.62,337.69 265.52,341.84 265.23,345.99C264.9,350.88 262.92,355.13 259.38,358.49C254.33,363.27 249.14,367.89 244,372.57C234.02,381.66 224.02,390.72 214.07,399.85C213.13,400.71 212.45,400.96 211.46,400.1C210.96,399.65 210.37,399.29 209.42,398.6C210.6,402.14 211.63,405.22 212.65,408.31C212.88,409.01 213.37,409.27 214.05,409.43C215.3,409.7 216.53,410.02 217.75,410.4C221.78,411.62 223.89,414.18 224.23,418.34C224.34,419.6 224.24,420.89 224.2,422.17C224.16,423.29 223.69,423.89 222.42,423.87C216.51,423.82 210.59,423.96 204.68,423.77C201.33,423.67 198.56,422.07 196.67,419.2C194.26,415.53 192.29,411.6 190.08,407.81C189.8,407.33 189.5,406.84 189.3,406.33C188.81,405.08 187.95,404.54 186.72,405.13C185.3,405.81 184.54,405.18 183.8,404.06C181.95,401.26 180.09,398.47 178.15,395.74C177.55,394.9 177.71,394.38 178.3,393.68C180.04,391.59 181.8,389.53 183.77,387.65C184.92,386.54 186.07,385.43 187.21,384.31C189.3,382.24 189.29,382.23 187.4,379.93C188.38,378.38 189.72,377.12 191,375.82C202.6,364.03 214.2,352.24 225.85,340.49C226.9,339.44 227.29,338.52 227.09,336.95C225.54,325.08 224.12,313.19 222.69,301.31C221.56,291.9 223.27,283.04 228.02,274.81C229.34,272.52 231.06,270.51 232.6,268.37C234.66,265.49 234.63,265.49 232.09,263.18C230.8,261.99 229.57,260.72 228.26,259.55C221.33,253.38 220.56,240.65 229.05,233.72C233.13,230.38 237.24,227.08 241.38,223.84C249.24,217.69 257.05,211.48 264.92,205.34C269.95,201.43 275.65,199.55 282.08,199.86C284.91,200 287.56,200.76 290.21,201.67C296.23,203.73 302.19,205.97 308.13,208.28C309.27,208.72 310.01,208.81 310.94,207.67C312.82,205.39 314.95,203.33 317,201.21C318.19,199.98 318.86,198.69 318.26,196.91C317.96,196.02 317.92,195.03 317.78,194.09C317.29,190.95 318.33,188.39 320.9,186.58C321.69,186.03 322.21,185.49 322.39,184.58C322.47,184.19 322.63,183.82 322.79,183.45C323.29,182.29 324.23,181.11 324.18,179.97C324.14,178.88 322.49,178.46 321.69,177.58C321.08,176.92 320.81,176.32 321.36,175.48C321.8,174.81 322.09,174.06 322.49,173.37C323.05,172.43 323.8,171.76 325.01,171.94C326.26,172.12 327.06,171.58 327.81,170.56C333.27,163.11 340.64,159.84 349.83,160.78C350.9,160.89 351.87,160.45 352.92,160.59C358.91,161.44 363.86,163.92 366.92,169.42C367.22,169.97 367.48,170.57 367.86,171.07C372.79,177.8 373.49,185.23 370.93,192.91C369.96,195.83 369.78,198.2 371.76,200.61C372.2,201.15 372.41,201.89 372.73,202.53C373.28,203.65 372.77,204.54 372.07,205.36C371.41,206.14 370.59,206.2 369.68,205.81C368.21,205.19 366.71,204.66 365.26,204C363.69,203.27 363.7,203.21 362.89,204.81C361.17,208.24 359.26,211.55 357.26,214.82C355.25,218.09 353.08,221.25 350.39,224.01C347.01,227.5 342.97,229.47 337.99,229.12C337.67,229.1 337.35,229.11 337.03,229.13C336.99,229.13 336.95,229.25 336.83,229.45C338.69,231.32 340.63,233.17 342.46,235.11C350.14,243.25 357.28,251.85 364.71,260.2C366.83,262.59 368.97,264.96 371.04,267.39C371.7,268.18 372.53,268.57 373.44,268.87C384.78,272.58 396.13,276.29 407.47,279.99C407.7,280.07 407.92,280.15 408.14,280.24C409.75,280.86 409.74,280.86 409.34,282.67C409.28,282.97 409.29,283.29 409.26,283.72C413.41,283.88 417.48,284.02 421.54,284.18C425.53,284.33 429.05,285.61 432.24,287.81C433.2,288.47 433.94,288.58 434.82,288.07C437.6,286.49 440.27,286.7 443.21,287.93C446.87,289.47 450.71,290.58 454.5,291.77C455.67,292.14 456.2,292.67 456.24,293.94C456.35,297.77 456.74,301.59 456.7,305.43Z" style="fill:rgb(4,4,4);fill-rule:nonzero;"/>
        <path d="M484.21,389.93C479.18,391.47 474.16,393.03 469.14,394.59C467.96,394.96 466.59,395.12 466.76,396.96C466.84,397.76 466,397.89 465.4,398.06C464.47,398.31 464.2,398.88 464.24,399.81C464.31,401.57 464.34,403.33 464.24,405.08C464.16,406.24 464.6,406.94 465.61,407.3C466.88,407.74 467.2,408.62 467.16,409.89C467.09,412.77 467.12,415.65 467.17,418.52C467.19,419.8 466.87,420.72 465.47,420.96C464.37,421.15 464.17,421.9 464.2,422.9C464.26,425.13 464.1,427.38 464.27,429.6C464.39,431.27 463.69,432.05 462.25,432.62C458.32,434.16 454.4,435.74 450.52,437.38C435.55,443.71 420.55,449.92 405.49,456.04C403.06,457.03 400.63,458.03 398.24,459.11C397.22,459.57 396.33,459.55 395.29,459.17C383.1,454.7 370.9,450.27 358.7,445.85C354.58,444.36 354.57,444.39 354.56,440.06C354.56,437.5 354.61,434.95 354.54,432.39C354.51,431.34 354.87,430.83 355.86,430.48C357.74,429.83 359.53,428.91 361.43,428.35C362.85,427.93 362.98,427.12 363.01,425.86C363.05,424.52 362.6,423.79 361.35,423.39C359.68,422.85 358.06,422.15 356.38,421.67C355,421.27 354.37,420.53 354.57,419.08C354.72,417.99 354.59,417.03 353.3,416.64C352.65,416.44 352.62,415.84 352.62,415.25L352.62,399.67C356.11,400.87 359.39,401.99 362.69,403.12C363.02,400.92 363.02,400.93 361.24,400.32C358.75,399.47 356.27,398.61 353.79,397.75C353.1,397.51 352.57,397.26 352.59,396.3C352.64,391.27 352.61,386.24 352.61,381.14C354.21,381.03 355.54,381.66 356.83,382.15C358.46,382.77 359.85,382.64 361.52,381.57C359.19,380.49 356.97,379.76 354.69,379.2C352.62,378.69 352.61,378.69 352.61,376.58L352.61,361.92C355.48,362.86 358.17,363.73 360.85,364.62C363.41,365.48 365.98,366.32 368.52,367.24C369.85,367.73 371.07,367.8 372.47,367.37C379.77,365.16 387.12,363.06 394.44,360.89C395.13,360.69 395.78,360.39 396.55,360.56C396.95,361.7 396.53,362.93 396.86,364.13C398.23,364.47 398.63,363.82 398.68,362.55C398.81,359.48 398.86,359.54 401.73,358.69C414.01,355.04 426.28,351.36 438.55,347.7C439.84,347.32 441.14,346.97 442.76,346.51L442.76,353.02C442.76,353.66 442.84,354.31 442.75,354.94C442.55,356.39 443.24,356.96 444.82,356.99C444.82,353.97 444.8,350.94 444.82,347.92C444.84,345.81 444.87,345.8 446.73,345.25C459.92,341.34 473.12,337.43 486.31,333.5C486.77,333.36 487.2,333.15 487.84,333.37C487.84,338.5 487.81,343.68 487.86,348.87C487.87,349.89 487.19,350.03 486.53,350.23C482.03,351.59 477.53,352.91 473.03,354.27C466.96,356.1 460.9,357.94 454.59,359.85C456.11,360.61 457.35,361.26 458.99,360.74C462.17,359.72 465.4,358.87 468.61,357.92C469.23,357.73 469.82,357.55 470.63,357.62C470.63,362.73 470.62,367.84 470.64,372.94C470.64,373.67 470.46,374.32 469.69,374.34C467.62,374.41 466.69,376.53 464.81,376.93C464.35,377.03 464.31,377.52 464.4,377.92C464.54,378.52 465.01,378.33 465.36,378.22C467.11,377.69 468.84,377.1 470.59,376.56C475.76,374.98 480.94,373.41 486.11,371.82C486.65,371.65 487.16,371.47 487.9,371.71C487.9,376.12 487.89,380.59 487.9,385.05C487.91,388.82 487.91,388.8 484.21,389.93Z" style="fill:rgb(3,3,3);fill-rule:nonzero;"/>
        <path d="M506.89,325.08C502.4,326.47 497.89,327.76 493.39,329.09C485.38,331.45 477.36,333.78 469.36,336.19C468.23,336.53 467.25,336.55 466.13,336.13C461.22,334.29 456.29,332.48 451.33,330.76C449.95,330.28 449.54,329.56 449.57,328.15C449.66,324.48 449.63,320.8 449.56,317.13C449.53,315.8 449.91,315.23 451.3,314.84C464.23,311.21 477.14,307.48 490.04,303.74C491.33,303.36 492.48,303.35 493.76,303.81C498.47,305.51 503.2,307.15 507.96,308.73C509.04,309.08 509.53,309.53 509.47,310.72C509.39,312.71 509.45,314.71 509.45,316.71L509.48,316.71C509.48,318.38 509.5,320.06 509.47,321.74C509.42,324.53 509.97,324.13 506.89,325.08Z" style="fill:rgb(4,4,5);fill-rule:nonzero;"/>
        <path d="M412.29,351.5C412.32,352.87 411.7,353.43 410.47,353.79C402.45,356.14 394.44,358.55 386.44,360.95C381.86,362.32 377.27,363.67 372.72,365.11C371.2,365.59 369.84,365.5 368.34,364.95C363.79,363.26 359.19,361.7 354.61,360.09C352.64,359.4 352.64,359.4 352.63,357.28C352.62,355.44 352.63,353.6 352.63,351.76L352.62,351.76C352.62,349.93 352.61,348.09 352.62,346.25C352.63,344.36 352.64,344.35 354.42,343.84C360.08,342.22 365.75,340.62 371.4,338.99C378.66,336.89 385.93,334.79 393.17,332.63C394.3,332.29 395.26,332.21 396.4,332.61C401.13,334.25 405.88,335.84 410.66,337.33C411.89,337.71 412.32,338.3 412.3,339.51C412.26,343.51 412.24,347.5 412.29,351.5Z" style="fill:rgb(3,3,3);fill-rule:nonzero;"/>
        <path d="M509.48,361.22C509.49,362.33 509.01,362.68 508.02,362.97C501.68,364.82 495.37,366.74 489.05,368.65C483.81,370.24 478.58,371.86 473.34,373.46C472.74,372.85 472.96,372.18 472.95,371.6C472.88,367.21 472.92,362.82 472.76,358.43C472.7,356.97 473.35,356.53 474.54,356.18C481.93,353.97 489.31,351.72 496.69,349.47C500.86,348.2 505.02,346.93 509.46,345.57C509.46,351.01 509.44,356.12 509.48,361.22Z" style="fill:rgb(3,4,4);fill-rule:nonzero;"/>
        <path d="M414.41,352.53C414.41,348.63 414.42,344.99 414.4,341.35C414.4,340.2 415.38,340.18 416.05,339.97C419.09,339.03 422.15,338.18 425.21,337.29C431.31,335.52 437.42,333.75 443.52,331.97C444.98,331.54 446.39,331.22 447.93,331.8C453.2,333.78 458.5,335.7 464.32,337.84C447.47,342.8 431.12,347.61 414.41,352.53Z" style="fill:rgb(4,5,5);fill-rule:nonzero;"/>
        <path d="M509.58,380.84C509.59,381.94 509.06,382.39 508.1,382.66C506.03,383.24 503.98,383.88 501.93,384.52C498.51,385.58 495.09,386.65 491.67,387.71C491.3,387.82 490.9,387.85 490.6,387.9C490.07,387.6 490.16,387.17 490.15,386.8C490.13,381.93 490.12,377.06 490.07,372.2C490.06,371.21 490.25,370.57 491.32,370.25C497.26,368.48 503.18,366.66 509.56,364.72C509.56,370.32 509.54,375.58 509.58,380.84Z" style="fill:rgb(4,4,4);fill-rule:nonzero;"/>
        <path d="M509.57,342.19C509.58,342.97 509.25,343.39 508.57,343.59C502.49,345.41 496.41,347.22 490.59,348.96C489.98,348.87 489.96,348.59 489.96,348.37C489.93,343.59 489.95,338.8 489.89,334.01C489.87,332.86 490.24,332.34 491.37,332.01C496.87,330.4 502.33,328.7 507.81,327.06C508.26,326.93 508.75,326.95 509.56,326.86C509.56,332.15 509.54,337.17 509.57,342.19Z" style="fill:rgb(5,6,6);fill-rule:nonzero;"/>
        <path d="M289.26,281.28C284.03,287.03 279.19,292.34 274.22,297.79C273.02,296.71 271.86,295.66 270.7,294.62C257.14,282.48 243.7,270.2 230.28,257.91C224.54,252.65 224.66,245.32 226.85,240.62C227.85,238.47 229.39,236.77 231.22,235.31C242.58,226.27 253.94,217.22 265.31,208.18C271.56,203.22 278.58,201.39 286.41,203.2C289.83,203.99 293.02,205.49 296.34,206.6C297.24,206.9 297.02,207.56 297,208.15C296.82,211.84 296.03,215.43 294.75,218.88C291.7,227.08 286.67,234.04 280.87,240.48C280.29,241.13 279.6,241.69 278.78,242.05C276.27,243.16 269.74,243.47 266.57,242.54C268.01,241.37 269.31,240.26 270.66,239.22C273.82,236.78 277,234.37 280.17,231.95C280.42,231.76 280.69,231.58 280.93,231.37C281.65,230.78 282.33,230.11 281.58,229.17C280.79,228.18 280.06,228.87 279.34,229.42C271.98,235.03 264.61,240.62 257.25,246.24C255.61,247.49 255.64,247.53 253.98,246.15C253.18,245.49 252.4,244.81 251.63,244.11C251.2,243.72 250.72,243.47 250.18,243.31C249.73,243.18 249.35,243.36 249.09,243.64C248.75,244.01 248.67,244.55 249,244.96C249.39,245.46 249.86,245.9 250.33,246.32C262.87,257.68 275.41,269.04 287.95,280.4C288.32,280.72 288.76,280.95 289.26,281.28Z" style="fill:rgb(253,253,252);fill-rule:nonzero;"/>
        <path d="M317.41,267.93C319.16,263.74 321.5,259.97 323.85,256.21C327.45,250.46 330.73,244.55 333.13,238.18C333.91,236.09 334.18,233.87 334.87,231.64C337.31,233.28 339.27,235.26 341.12,237.33C346.54,243.4 351.91,249.52 357.28,255.62C361.23,260.11 365.21,264.58 369.07,269.15C370.25,270.55 371.78,271.03 373.36,271.54C382.89,274.66 392.42,277.75 401.95,280.88C403.45,281.37 405,281.75 406.44,282.54C403.91,288.46 401.4,294.3 398.94,300.17C398.56,301.07 398.16,301.11 397.31,300.85C387.74,297.89 378.16,294.98 368.58,292.04C365.54,291.11 362.52,290.11 359.48,289.21C357.52,288.63 355.82,287.65 354.38,286.24C346.26,278.32 338.17,270.39 330.03,262.49C328.52,261.02 328.76,261.08 330.11,259.74C331.3,258.56 332.57,257.45 333.75,256.27C334.34,255.67 335.17,255.05 334.37,254.05C333.77,253.3 332.99,253.38 331.93,254.36C328.83,257.24 325.75,260.14 322.66,263.03C320.92,264.68 319.16,266.31 317.41,267.93Z" style="fill:rgb(254,253,253);fill-rule:nonzero;"/>
        <path d="M358.94,206.51C355.79,212.45 352.59,218.34 347.65,223.01C343.76,226.68 339.2,227.68 334.15,225.79C327.54,223.32 323.37,218.85 322.81,211.54C322.73,210.5 322.71,209.3 321.31,209.23C320.34,209.18 319.96,210.06 320.26,211.91C321.08,217.03 321.42,222.22 322.41,227.32C322.59,228.26 322.31,228.61 321.34,228.66C318.79,228.8 316.64,227.87 314.75,226.3C310.34,222.62 309.37,217.85 310.49,212.46C310.66,211.65 311.23,211.08 311.79,210.49C315.2,206.9 318.6,203.3 321.98,199.68C323.69,197.84 323.67,197.82 321.85,196.17C319.6,194.13 319.84,190.48 322.26,188.75C324.76,186.97 326.73,188.78 327.13,190.76C327.24,191.3 327.13,191.88 327.2,192.43C327.41,194.1 328.49,194.53 329.83,193.48C331.58,192.1 333.3,190.67 335.03,189.26C336.48,188.09 336.5,188.06 338.12,189.11C345.28,193.76 352.66,198.03 360.3,201.84C360.86,202.12 361.33,202.32 360.88,203.04C360.53,203.61 360.44,204.4 359.35,203.99C357.79,203.41 356.15,203.04 354.55,202.58C354.24,202.49 353.94,202.39 353.63,202.34C352.89,202.23 352.13,202.18 351.89,203.12C351.61,204.17 352.28,204.55 353.14,204.76C353.76,204.91 354.37,205.07 354.99,205.21C356.29,205.46 357.62,205.68 358.94,206.51Z" style="fill:rgb(253,253,253);fill-rule:nonzero;"/>
        <path d="M356.21,164.36C362.25,165.93 365.2,169.47 365.38,175.07C365.45,177.23 365.26,179.37 364.66,181.46C364.53,181.92 364.4,182.39 364.37,182.86C364.32,183.6 364.75,184.04 365.43,184.26C366.27,184.53 366.63,183.96 366.83,183.34C367.48,181.36 367.83,179.32 368.05,176.95C370.14,181.17 370.08,185.31 369.2,189.49C368.78,191.51 368.27,193.54 367.31,195.39C366.8,196.38 366.91,197.19 367.44,198.08C368.4,199.71 369.33,201.36 370.4,203.25C368.74,203.01 367.5,202.28 366.25,201.71C356.14,197.13 346.52,191.68 337.33,185.47C333.77,183.06 330.24,180.6 326.7,178.15C326.11,177.74 325.55,177.29 325,176.84C324.59,176.5 323.96,176.24 324.28,175.52C324.52,174.99 324.94,174.63 325.54,174.52C325.62,174.51 325.7,174.48 325.78,174.5C327.94,175 328.87,173.49 329.95,172.06C334.5,166.04 340.47,163.01 348.13,163.36C353.18,163.59 355.16,165.32 355.5,170.42C355.64,172.57 355.68,174.73 355.11,176.85C354.96,177.39 354.95,177.96 354.8,178.49C354.56,179.34 354.83,179.89 355.66,180.16C356.61,180.46 356.97,179.77 357.24,179.1C357.5,178.44 357.67,177.73 357.8,177.02C358.55,172.76 358.53,168.59 356.21,164.36Z" style="fill:rgb(255,254,253);fill-rule:nonzero;"/>
        <path d="M306.44,314.32C304.79,315.31 303.36,314.74 302,313.82C300.94,313.09 300.16,312.06 299.28,311.14C298.74,310.58 298.17,309.8 297.29,310.58C296.44,311.34 296.82,312.12 297.38,312.89C297.88,313.58 298.73,314.02 299.02,315.12C297.59,315.63 296.39,315.27 295.38,314.28C294.59,313.5 293.92,312.6 293.16,311.78C292.61,311.19 291.98,310.99 291.27,311.58C290.56,312.17 290.64,312.77 291.16,313.45C291.49,313.88 291.99,314.21 292.11,314.9C290.25,314.95 288.93,314.06 287.84,312.7C285.92,310.31 284.69,307.55 283.62,304.7C282.59,301.96 281.85,299.05 279.74,296.84C279.11,296.19 279.69,295.81 280,295.44C281.08,294.17 282.22,292.93 283.34,291.7C285.32,289.52 287.3,287.35 289.38,285.07C292.38,287.98 296.26,288.03 299.91,288.52C304.27,289.11 308.07,290.48 311.04,293.86C311.93,294.87 313.07,295.65 314.07,296.56C314.69,297.13 315.5,297.59 315.61,298.71C312.74,298.59 310.11,297.64 307.43,297C306.85,296.86 306.63,296.28 306.34,295.8C305.99,295.23 305.46,294.81 304.75,295.13C303.93,295.5 303.89,296.25 304.13,296.97C304.77,298.85 305.41,300.74 306.18,302.57C306.74,303.88 307.41,305.16 308.33,306.28C309.69,307.93 311.27,309.15 313.54,309.29C314.74,309.37 315.02,309.91 314.67,311C314.12,312.75 312.03,313.77 310.23,313.17C308.43,312.57 307.08,311.34 305.82,309.99C305.39,309.52 305,309.01 304.55,308.57C303.93,307.96 303.26,308.05 302.65,308.61C302.06,309.15 302.13,309.77 302.61,310.3C303.86,311.63 305.14,312.94 306.44,314.32Z" style="fill:rgb(253,253,252);fill-rule:nonzero;"/>
        <path d="M339.98,316.62C341.03,315.02 341.88,313.68 342.77,312.37C344.25,310.2 345.15,309.92 347.57,310.98C351.51,312.71 355.42,314.49 359.35,316.23C366.69,319.49 374.05,322.74 381.38,326.03C382.12,326.36 383.37,326.44 383.21,327.57C383.04,328.79 381.74,328.69 380.87,328.74C377.37,328.95 373.85,329.11 370.35,329.24C360.78,329.57 351.23,330.34 341.65,330.44C339.1,330.47 336.55,330.67 334,330.78C333.52,330.8 333.03,330.83 332.57,330.74C331.51,330.55 331.11,329.93 331.67,329.04C333.15,326.68 334.76,324.39 336.31,322.07C336.75,321.41 337.39,321.51 338.03,321.56C341.29,321.79 344.56,322.02 347.82,322.26C348.3,322.29 348.77,322.39 349.25,322.39C349.96,322.38 350.51,322.07 350.59,321.31C350.67,320.62 350.15,320.37 349.59,320.17C346.45,319.01 343.33,317.85 339.98,316.62Z" style="fill:rgb(253,252,252);fill-rule:nonzero;"/>
        <path d="M305.85,210.54C306.87,210.47 307.46,210.92 308.29,211.14C307.14,214.67 307.17,218.2 308.49,221.63C309.91,225.31 312.21,228.33 315.87,230.04C319.53,231.75 323.12,231.71 326.44,229.1C326.6,228.97 326.82,228.92 327.18,228.75C326.62,231.23 325.88,233.49 324.88,235.65C322.63,240.52 319.68,244.96 316.47,249.23C315.83,250.08 315.32,250.51 314.16,249.81C308.38,246.3 302.54,242.88 296.71,239.46C295.79,238.92 295.84,238.47 296.36,237.6C299.91,231.63 303.12,225.51 304.75,218.68C305.38,216.03 305.76,213.36 305.85,210.54Z" style="fill:rgb(253,252,252);fill-rule:nonzero;"/>
        <path d="M257.52,392.78C260.77,393.94 263.69,394.95 266.59,396.02C273.6,398.61 280.61,401.22 287.61,403.84C289.61,404.59 289.61,404.62 289.62,406.71C289.63,408.95 289.62,411.18 289.62,413.42C289.14,413.83 288.71,413.42 288.32,413.28C278.49,409.62 268.66,405.93 258.83,402.28C257.98,401.96 257.49,401.62 257.52,400.61C257.56,398.14 257.52,395.68 257.52,392.78Z" style="fill:rgb(253,252,252);fill-rule:nonzero;"/>
        <path d="M260.77,390.88C265.31,389.66 269.81,388.47 274.29,387.21C275.1,386.98 275.76,387.02 276.58,387.27C281,388.63 285.2,390.56 289.52,392.15C294.37,393.94 299.21,395.77 304.06,397.59C303.81,398.27 303.21,398.23 302.71,398.4C299.39,399.49 296.06,400.56 292.76,401.71C291.5,402.15 290.35,402.15 289.1,401.67C283.38,399.48 277.65,397.34 271.91,395.2C268.63,393.98 265.33,392.81 262.04,391.63C261.59,391.49 261.13,391.37 260.77,390.88Z" style="fill:rgb(253,252,252);fill-rule:nonzero;"/>
        <path d="M260.99,423.88C264.1,424.98 267.02,425.99 269.93,427.03C276.75,429.47 283.56,431.95 290.4,434.34C291.65,434.77 292.18,435.32 292.09,436.71C291.95,438.92 292.05,441.15 292.05,443.27C291.08,443.79 290.45,443.23 289.82,443C280.76,439.76 271.72,436.47 262.67,433.23C261.48,432.81 260.86,432.29 260.95,430.86C261.1,428.64 260.99,426.4 260.99,423.88Z" style="fill:rgb(253,252,251);fill-rule:nonzero;"/>
        <path d="M296.64,391.94C306.49,388.88 316.11,385.9 325.72,382.87C326.59,382.59 327.41,382.38 328.28,382.66C331.86,383.83 335.44,385.03 339.54,386.4C336.4,387.47 333.74,388.41 331.07,389.28C324.42,391.44 317.74,393.51 311.11,395.74C309.36,396.33 307.89,396.45 306.14,395.62C303.63,394.44 300.95,393.63 298.34,392.65C297.81,392.46 297.32,392.23 296.64,391.94Z" style="fill:rgb(251,250,250);fill-rule:nonzero;"/>
        <path d="M279.82,385.63C287.44,383.45 294.69,381.37 301.93,379.29C304.14,378.65 306.38,378.08 308.55,377.34C309.68,376.96 310.69,377.03 311.77,377.38C315.32,378.54 318.89,379.65 322.5,380.8C322.48,381.26 322.03,381.35 321.76,381.44C312.58,384.28 303.39,387.06 294.23,389.93C292.92,390.34 291.82,390.28 290.56,389.77C287.14,388.38 283.65,387.1 279.82,385.63Z" style="fill:rgb(252,252,251);fill-rule:nonzero;"/>
        <path d="M408.14,298.11C406.28,299.1 404.21,299.6 402.23,300.34C401.71,299.72 402.22,299.24 402.41,298.78C403.96,295.02 405.57,291.29 407.1,287.53C407.52,286.51 408.05,286.07 409.24,286.14C413.54,286.4 417.86,286.49 422.16,286.73C425.08,286.89 427.7,287.93 430.28,289.75C429.08,290.21 428.07,290.57 427.08,290.98C425.38,291.68 423.72,292.5 422.33,290.38C421.95,289.79 421.15,289.8 420.61,290.25C419.91,290.82 420.09,291.54 420.61,292.15C421.43,293.13 422.27,294.09 423.15,295.01C424.52,296.46 425.99,297.82 427.16,299.45C427.48,299.9 427.79,300.37 428.05,300.86C428.42,301.58 428.75,302.41 428.09,303.07C427.31,303.85 426.47,303.38 425.7,302.92C423.83,301.81 422.25,300.34 420.78,298.76C419.67,297.58 418.49,296.98 416.78,297.22C413.94,297.61 411.19,297.26 408.93,295.23C408.62,294.95 408.26,294.81 407.85,294.81C407.35,294.81 406.91,294.88 406.62,295.37C406.32,295.87 406.54,296.28 406.77,296.7C407.07,297.28 407.86,297.36 408.14,298.11Z" style="fill:rgb(252,252,251);fill-rule:nonzero;"/>
        <path d="M339.41,404.19C331.13,407.04 323.4,409.67 315.7,412.35C308.87,414.73 302.06,417.13 295.27,419.62C293.54,420.25 292.06,420.34 290.28,419.63C286.23,418 282.07,416.65 277.96,415.19C277.66,415.08 277.34,415.01 277.23,414.65C280.19,413 280.19,412.99 283.21,414.12C285.3,414.9 287.41,415.63 289.45,416.52C290.56,417.01 291.57,416.98 292.66,416.61C305.92,412.15 319.21,407.77 332.43,403.2C334.95,402.31 336.79,403.32 339.41,404.19Z" style="fill:rgb(249,248,247);fill-rule:nonzero;"/>
        <path d="M271.33,424.53C269.42,424.26 267.95,423.48 266.41,422.91C262.47,421.46 258.54,419.97 254.58,418.59C253.63,418.26 253.36,417.78 253.38,416.87C253.42,414.48 253.39,412.1 253.39,409.71C254.18,409.32 254.84,409.8 255.45,410.01C260.25,411.67 265,413.47 269.8,415.11C271,415.52 271.4,416.12 271.36,417.34C271.28,419.69 271.33,422.06 271.33,424.53Z" style="fill:rgb(252,251,251);fill-rule:nonzero;"/>
        <path d="M273.88,440.27C275.9,440.93 277.65,441.45 279.36,442.06C282.8,443.29 286.23,444.54 289.65,445.82C291.61,446.56 291.48,446.03 291.48,448.5L291.48,455.41C290.13,455.55 289.28,454.86 288.35,454.52C284.02,452.96 279.73,451.28 275.39,449.77C274.19,449.35 273.81,448.77 273.86,447.55C273.95,445.24 273.88,442.94 273.88,440.27Z" style="fill:rgb(252,251,250);fill-rule:nonzero;"/>
        <path d="M271.29,448.32C265.52,446.16 260.18,444.12 254.81,442.19C253.7,441.79 253.34,441.24 253.37,440.12C253.44,437.81 253.39,435.5 253.39,433.1C254.41,432.85 255.25,433.38 256.09,433.68C260.66,435.31 265.19,437.04 269.77,438.64C270.97,439.06 271.35,439.69 271.31,440.9C271.23,443.26 271.29,445.65 271.29,448.32Z" style="fill:rgb(252,252,251);fill-rule:nonzero;"/>
        <path d="M291.42,432.05C285.66,429.9 280.25,427.85 274.8,425.89C274.01,425.6 273.88,425.23 273.88,424.52C273.9,421.97 273.89,419.42 273.89,416.71C276.86,417.42 279.53,418.61 282.29,419.52C284.93,420.4 287.51,421.46 290.15,422.33C291.07,422.63 291.44,423.07 291.42,424.02C291.39,426.58 291.42,429.12 291.42,432.05Z" style="fill:rgb(253,252,251);fill-rule:nonzero;"/>
        <path d="M426.22,294.07C429.88,292.68 433.48,291.39 437.02,289.95C438.38,289.4 439.57,289.38 440.93,289.88C444.06,291.02 447.24,292.02 450.39,293.07C450.28,294.05 449.47,294.03 448.96,294.23C443.58,296.42 438.19,298.57 432.8,300.72C431.27,301.33 431.23,301.33 430.54,299.88C429.74,298.19 428.46,296.87 427.26,295.49C426.89,295.08 426.34,294.81 426.22,294.07Z" style="fill:rgb(252,252,251);fill-rule:nonzero;"/>
        <path d="M400.55,304.82C405.07,306.37 409.42,307.86 413.76,309.35C414.4,309.57 414.79,309.94 414.78,310.73C414.74,313.83 414.76,316.93 414.76,320.22C410.58,318.65 406.38,317.05 402.15,315.5C401.42,315.23 401.14,314.76 401.1,314.09C400.91,311.08 400.74,308.07 400.55,304.82Z" style="fill:rgb(252,251,251);fill-rule:nonzero;"/>
        <path d="M341.25,422.04C325.52,427.37 310.29,432.54 295.01,437.72C294.66,435.38 294.66,435.38 296.25,434.84C309.5,430.36 322.75,425.9 335.98,421.35C337.72,420.75 339.17,420.94 341.25,422.04Z" style="fill:rgb(244,244,242);fill-rule:nonzero;"/>
        <path d="M403.05,302.79C404.48,302.27 405.6,301.87 406.72,301.45C409.37,300.46 411.92,299.67 414.95,299.83C417.5,299.97 419.27,300.52 420.79,302.44C421.37,303.17 422.16,303.73 423.08,304.57C420.72,305.48 418.57,306.32 416.4,307.16C416.01,307.31 415.63,307.26 415.24,307.12C411.29,305.71 407.34,304.31 403.05,302.79Z" style="fill:rgb(251,250,249);fill-rule:nonzero;"/>
        <path d="M256.78,407.25C257.98,406.86 259.14,406.48 260.31,406.12C260.85,405.96 261.42,405.87 261.96,406.08C266.76,407.94 271.55,409.8 276.7,411.81C274.48,412.89 272.7,413.55 270.5,412.68C266.59,411.14 262.59,409.84 258.65,408.38C258.03,408.14 257.21,408.12 256.78,407.25Z" style="fill:rgb(245,245,244);fill-rule:nonzero;"/>
        <path d="M336.33,318.55C333.08,319.35 331.44,318.44 330.76,315.38C330.47,314.06 330.16,312.72 330.05,311.38C329.86,309.04 328.66,307.75 326.4,307.34C325.72,307.22 324.68,307.19 324.86,306.3C325.1,305.11 326.17,305.87 326.86,305.92C327.48,305.96 328.09,306.22 328.71,306.4C330.23,306.85 331.14,307.82 331.37,309.43C331.56,310.77 331.85,312.1 332.05,313.44C332.39,315.76 333.45,317.48 335.85,318.14C336.05,318.18 336.32,318.24 336.33,318.55Z" style="fill:rgb(236,235,234);fill-rule:nonzero;"/>
        <path d="M256.58,430.79C257.18,430.53 257.68,429.78 258.4,430.34C258.68,430.55 258.7,431.22 258.37,431.39C257.67,431.77 257.06,431.45 256.58,430.79Z" style="fill:rgb(191,197,196);fill-rule:nonzero;"/>
        <path d="M364.55,378.25C367.42,378.85 369.98,379.91 372.58,380.83C379.55,383.3 386.48,385.87 393.42,388.4C396.58,389.55 396.59,389.54 396.59,392.8L396.59,398.23C396.02,398.57 395.57,398.39 395.12,398.23C385.59,394.72 376.05,391.23 366.53,387.66C364.36,386.85 364.55,387.42 364.54,384.82C364.55,382.67 364.55,380.53 364.55,378.25Z" style="fill:rgb(253,252,252);fill-rule:nonzero;"/>
        <path d="M410.92,382.81C407.21,384.1 403.59,385.29 400.03,386.64C398.59,387.19 397.35,387.15 395.92,386.62C387.64,383.56 379.33,380.57 371.04,377.56C370.08,377.21 369.13,376.85 368.19,376.5C368.23,375.63 368.89,375.9 369.24,375.79C372.87,374.62 376.53,373.52 380.16,372.33C381.11,372.02 381.95,371.9 382.93,372.25C392.11,375.63 401.3,378.97 410.49,382.34C410.63,382.4 410.71,382.57 410.92,382.81Z" style="fill:rgb(252,251,251);fill-rule:nonzero;"/>
        <path d="M365.54,425.21C368.04,425.61 370.15,426.56 372.31,427.31C379.74,429.89 387.12,432.62 394.55,435.21C395.72,435.62 396.19,436.12 396.13,437.39C396.02,439.68 396.1,441.98 396.1,444.6C393.49,443.67 391.27,442.88 389.06,442.08C381.74,439.45 374.44,436.79 367.1,434.21C365.92,433.8 365.48,433.2 365.52,431.97C365.59,429.75 365.54,427.54 365.54,425.21Z" style="fill:rgb(253,252,251);fill-rule:nonzero;"/>
        <path d="M365.56,401.54C368.92,402.67 371.94,403.65 374.94,404.7C381.18,406.88 387.4,409.11 393.64,411.31C395.74,412.05 395.75,412.05 395.74,414.35L395.74,420.96C391.88,419.61 388.21,418.35 384.56,417.04C378.65,414.93 372.74,412.79 366.84,410.65C366.21,410.42 365.49,410.34 365.53,409.29C365.61,406.84 365.56,404.37 365.56,401.54Z" style="fill:rgb(253,252,252);fill-rule:nonzero;"/>
        <path d="M443.76,371.27C435.38,374.24 427,377.21 418.62,380.19C417.87,380.46 417.13,380.76 416.39,381.03C415.78,381.25 415.15,381.36 414.52,381.12C410.58,379.66 406.64,378.19 402.37,376.61C408.29,374.58 413.88,372.66 419.47,370.73C423.08,369.49 426.7,368.25 430.29,366.96C431.02,366.7 431.66,366.67 432.37,366.91C436.18,368.22 439.99,369.51 443.8,370.8C443.79,370.96 443.77,371.11 443.76,371.27Z" style="fill:rgb(252,251,250);fill-rule:nonzero;"/>
        <path d="M419.93,359.75C423.91,358.47 427.47,357.35 431,356.17C431.9,355.87 432.73,356.01 433.55,356.27C440.07,358.34 446.58,360.43 453.09,362.51C455.66,363.33 458.22,364.16 461.17,365.11C457.56,366.38 454.25,367.44 451.03,368.73C449.05,369.52 447.31,369.39 445.34,368.68C437.65,365.89 429.91,363.26 422.18,360.57C421.59,360.36 421,360.14 419.93,359.75Z" style="fill:rgb(253,252,251);fill-rule:nonzero;"/>
        <path d="M386.13,370.71C389.04,369.5 391.66,368.88 394.22,368.06C400.74,365.99 407.27,363.93 413.76,361.79C415.21,361.31 416.48,361.27 417.92,361.84C420.83,363 423.81,364 426.95,365.13C425.31,366.24 423.56,366.52 421.94,367.09C414.66,369.65 407.33,372.06 400.05,374.6C398.83,375.02 397.81,374.98 396.62,374.51C393.29,373.22 389.9,372.07 386.13,370.71Z" style="fill:rgb(251,250,250);fill-rule:nonzero;"/>
        <path d="M443.27,406.44L443.27,415.59C445.56,415.23 447.48,414.24 449.47,413.5C453.2,412.11 456.89,410.6 460.59,409.15C460.81,409.06 461.05,409.01 461.27,408.93C462.1,408.62 463.17,408.17 463.52,409.28C463.84,410.31 462.71,410.6 461.91,410.91C458.27,412.31 454.64,413.73 451,415.12C441.35,418.82 431.7,422.53 422.03,426.19C421.06,426.56 420.64,427 420.69,428.07C420.78,430.14 420.66,432.23 420.76,434.3C420.83,435.71 420.33,436.42 418.75,436.43L418.75,427.54C411.98,429.78 405.72,432.73 399.13,434.74C398.52,432.96 398.51,432.93 400.02,432.35C407.82,429.35 415.63,426.36 423.44,423.39C428.65,421.41 433.88,419.47 439.09,417.51C441.18,416.72 441.18,416.71 441.17,414.38C441.16,412.46 441.14,410.55 441.14,408.63C441.16,407.04 441.17,407.04 443.27,406.44Z" style="fill:rgb(245,244,242);fill-rule:nonzero;"/>
        <path d="M418.66,412.85L418.66,403.66C415.96,404.58 413.58,405.36 411.23,406.2C407.63,407.48 404.06,408.82 400.46,410.1C399.86,410.31 399.06,410.93 398.61,410.01C398.09,408.95 398.83,408.39 399.74,408.06C405.13,406.12 410.53,404.18 415.93,402.25C423.8,399.44 431.66,396.61 439.55,393.86C440.72,393.45 441.23,392.91 441.16,391.66C441.07,390.23 441.12,388.78 441.17,387.35C441.22,385.74 441.25,385.74 443.29,385.48L443.29,392.23C445.35,391.79 447.12,391.08 448.9,390.44C452.8,389.04 456.69,387.62 460.58,386.22C461.03,386.06 461.49,385.93 461.96,385.83C462.55,385.7 463.09,385.79 463.31,386.47C463.53,387.16 463.12,387.54 462.56,387.76C461.23,388.29 459.89,388.79 458.54,389.28C447.69,393.19 436.85,397.09 426,401C424.65,401.49 423.33,402.05 421.95,402.44C420.89,402.74 420.64,403.31 420.68,404.34C420.76,406.57 420.75,408.81 420.73,411.05C420.7,412.41 420.67,412.41 418.66,412.85Z" style="fill:rgb(245,245,242);fill-rule:nonzero;"/>
        <path d="M377.64,440.88C382.38,442.57 386.72,444.07 391.03,445.67C392.42,446.19 394.37,446.14 395.03,447.48C395.6,448.65 395.22,450.29 395.24,451.72C395.26,453.21 395.24,454.71 395.24,456.4C393.54,455.74 392,455.12 390.45,454.55C386.72,453.19 382.98,451.85 379.24,450.53C378.17,450.16 377.55,449.66 377.62,448.36C377.73,445.99 377.64,443.61 377.64,440.88Z" style="fill:rgb(252,251,251);fill-rule:nonzero;"/>
        <path d="M357.22,410.23C362.89,412.25 368.25,414.19 373.63,416.06C374.67,416.42 375.18,416.88 375.13,418.08C375.03,420.46 375.1,422.85 375.1,425.22C374.18,425.51 373.49,425.02 372.78,424.76C368.01,423.06 363.26,421.26 358.47,419.63C357.51,419.3 357.21,418.87 357.21,417.98C357.23,415.52 357.22,413.06 357.22,410.23Z" style="fill:rgb(252,251,251);fill-rule:nonzero;"/>
        <path d="M377.64,417.41C379.84,418.2 381.62,418.85 383.41,419.48C386.94,420.71 390.47,421.94 394.01,423.13C394.74,423.37 395.3,423.56 395.28,424.52C395.23,427.14 395.26,429.77 395.26,432.34C394.16,432.77 393.4,432.11 392.62,431.84C388.19,430.29 383.82,428.59 379.39,427.06C378.01,426.59 377.52,425.9 377.6,424.46C377.73,422.24 377.64,420 377.64,417.41Z" style="fill:rgb(252,251,251);fill-rule:nonzero;"/>
        <path d="M375.06,448.62C374.18,448.94 373.62,448.58 373.03,448.36C368.26,446.57 363.51,444.76 358.71,443.05C357.64,442.67 357.16,442.21 357.19,441.04C357.27,438.67 357.21,436.29 357.21,433.89C358.49,433.87 359.4,434.4 360.36,434.75C364.63,436.28 368.89,437.82 373.14,439.4C375.08,440.12 375.06,440.15 375.05,442.3C375.06,444.43 375.06,446.56 375.06,448.62Z" style="fill:rgb(252,251,251);fill-rule:nonzero;"/>
        <path d="M375.11,401.84C373.83,401.8 372.85,401.22 371.82,400.86C367.41,399.31 363.01,397.71 358.57,396.22C357.58,395.89 357.15,395.48 357.17,394.42C357.23,391.97 357.19,389.52 357.19,386.92C358.18,387.18 359,387.26 359.69,387.6C364.14,389.74 368.81,391.28 373.42,393.01C374.79,393.52 375.2,394.24 375.13,395.62C375.03,397.66 375.11,399.73 375.11,401.84Z" style="fill:rgb(253,252,251);fill-rule:nonzero;"/>
        <path d="M395.28,409.08C393.3,408.84 391.71,407.88 390,407.3C386.31,406.05 382.69,404.64 379,403.38C378,403.04 377.62,402.54 377.65,401.49C377.72,399.27 377.67,397.05 377.67,394.58C379.77,395.34 381.69,396.04 383.62,396.73C386.99,397.93 390.34,399.17 393.73,400.31C394.89,400.7 395.36,401.29 395.31,402.54C395.2,404.69 395.28,406.84 395.28,409.08Z" style="fill:rgb(251,251,250);fill-rule:nonzero;"/>
        <path d="M441.19,438.5C441.19,436.11 441.27,433.96 441.16,431.82C441.09,430.45 441.55,429.74 443.1,429.63C443.44,432.11 443.23,434.62 443.22,437.11C443.22,438.16 442.29,438.24 441.19,438.5Z" style="fill:rgb(237,236,235);fill-rule:nonzero;"/>
        <path d="M362.96,430.75C363.16,431.45 363.24,432.14 362.86,432.94C362.06,432.47 361.02,432.58 360.34,431.74C361.15,431.19 361.97,430.78 362.96,430.75Z" style="fill:rgb(195,197,196);fill-rule:nonzero;"/>
        <path d="M362.89,409.49C361.92,408.97 360.99,408.97 360.28,408.17C360.73,408.01 361.07,407.89 361.42,407.78C363.09,407.23 363.09,407.24 362.89,409.49Z" style="fill:rgb(206,208,208);fill-rule:nonzero;"/>
        <path d="M362.08,384.91C361.95,385.36 361.63,385.48 361.22,385.42C360.86,385.37 360.67,385.09 360.74,384.79C360.82,384.47 361.17,384.4 361.47,384.45C361.74,384.48 362.1,384.48 362.08,384.91Z" style="fill:rgb(180,184,182);fill-rule:nonzero;"/>
        <path d="M503.8,310.05C500.78,310.98 498.31,311.76 495.83,312.49C487.38,314.98 478.9,317.42 470.47,319.98C468.71,320.51 467.18,320.53 465.47,319.82C463.13,318.84 460.68,318.15 458.3,317.25C457.68,317.01 456.83,317.06 456.45,316.14C463.93,313.99 471.38,311.87 478.83,309.72C482.65,308.62 486.46,307.48 490.27,306.35C491.02,306.13 491.7,305.86 492.57,306.17C496.1,307.45 499.69,308.64 503.8,310.05Z" style="fill:rgb(252,252,251);fill-rule:nonzero;"/>
        <path d="M406.45,338.7C406.01,339.57 405.36,339.46 404.86,339.61C394.21,342.82 383.54,345.99 372.9,349.23C371.53,349.65 370.3,349.65 368.96,349.14C365.7,347.89 362.4,346.75 358.84,345.47C361.09,344.41 363.26,344.06 365.33,343.45C374.24,340.79 383.18,338.23 392.08,335.54C394.01,334.96 395.76,334.94 397.64,335.65C400.53,336.73 403.47,337.67 406.45,338.7Z" style="fill:rgb(252,251,250);fill-rule:nonzero;"/>
        <path d="M345.41,212.91C346.08,210.47 346.72,208.11 347.37,205.76C347.58,204.99 347.79,204.23 348.02,203.47C348.22,202.81 348.72,202.62 349.33,202.77C350,202.93 350.16,203.44 350.09,204.06C350.07,204.22 350.02,204.37 349.98,204.53C349.17,207.61 348.4,210.7 347.54,213.76C347.13,215.23 346.66,215.5 345.32,215.01C343.75,214.44 342.23,213.75 340.71,213.07C340.1,212.8 339.59,212.34 339.95,211.58C340.29,210.84 340.85,210.87 341.54,211.2C342.74,211.77 343.98,212.28 345.41,212.91Z" style="fill:rgb(26,25,26);fill-rule:nonzero;"/>
        <path d="M333.35,212.39C333.89,212.36 334.25,212.72 334.55,213.06C336.54,215.38 338.96,217.13 341.61,218.6C342.21,218.93 342.67,219.41 342.25,220.14C341.85,220.84 341.14,220.75 340.56,220.47C337.52,219.03 334.8,217.14 332.65,214.52C332.3,214.1 332.02,213.57 332.37,212.99C332.59,212.64 332.91,212.42 333.35,212.39Z" style="fill:rgb(24,24,24);fill-rule:nonzero;"/>
        <path d="M346.59,199.43C346.66,200.24 345.61,200.99 344.95,200.67C344.67,200.54 344.45,200.29 344.21,200.08C342.3,198.4 340.43,196.67 338.29,195.29C337.44,194.74 337.22,194.11 337.82,193.33C338.41,192.56 339.15,192.55 339.88,193.19C341.91,194.97 343.95,196.74 345.96,198.54C346.24,198.8 346.41,199.18 346.59,199.43Z" style="fill:rgb(26,26,26);fill-rule:nonzero;"/>
        <path d="M355.93,208.59C355.99,209.65 355.34,210.4 354.29,210.48C353.01,210.58 352.15,209.81 352.14,208.57C352.13,207.56 352.85,206.81 353.9,206.74C354.96,206.68 355.87,207.51 355.93,208.59Z" style="fill:rgb(43,40,40);fill-rule:nonzero;"/>
        <path d="M339.96,199.28C341.02,199.33 341.83,200.08 341.86,201.03C341.89,202.02 340.88,203 339.86,202.97C338.76,202.95 338,202.07 338.07,200.9C338.14,199.77 338.77,199.22 339.96,199.28Z" style="fill:rgb(29,29,29);fill-rule:nonzero;"/>
    </g>
</svg>
