<?xml version="1.0" encoding="UTF-8" standalone="no"?>
<!DOCTYPE svg PUBLIC "-//W3C//DTD SVG 1.1//EN" "http://www.w3.org/Graphics/SVG/1.1/DTD/svg11.dtd">
<svg width="100%" height="100%" viewBox="0 0 525 641" version="1.1" xmlns="http://www.w3.org/2000/svg" xmlns:xlink="http://www.w3.org/1999/xlink" xml:space="preserve" xmlns:serif="http://www.serif.com/" style="fill-rule:evenodd;clip-rule:evenodd;stroke-linejoin:round;stroke-miterlimit:2;">
    <g>
        <path d="M267.39,162.1C267.03,159.65 266.74,157.19 266.28,154.77C265.68,151.61 267.41,150.21 269.47,149.84C271.52,149.47 273.53,151.1 273.97,153.55C274.69,157.56 275.29,161.58 275.97,165.59C276.79,170.43 277.64,175.27 278.49,180.17C283.65,177.42 287.62,173.75 289.98,168.42C291.5,165 293.26,161.68 294.95,158.33C295.59,157.06 295.81,155.89 295.26,154.46C294.58,152.68 294.21,150.78 293.8,148.92C293.62,148.1 293.81,147.26 294.7,146.92C295.54,146.6 296.24,146.91 296.77,147.66C297.08,148.1 297.19,148.72 297.94,148.99C298.53,147.21 299.09,145.41 299.73,143.64C300.51,141.5 300.55,141.48 302.86,142.1C303.3,142.22 303.39,141.97 303.63,141.84C305.31,140.92 305.54,140.98 306.22,142.66C306.31,142.87 306.31,143.3 306.38,143.3C308.39,143.46 308.43,144.77 308.35,146.33C308.33,146.81 309.48,146.76 309.58,147.6C309.7,148.62 309.4,149.49 308.93,150.34C307.46,153 306.06,155.7 304.06,158.01C302.96,159.27 302.55,160.8 302.06,162.31C301.2,164.97 300.3,167.61 299.6,170.31C298.09,176.17 295.03,181.14 291.1,185.65C290.14,186.74 288.8,187.68 289.17,189.53C289.25,189.91 288.63,190.45 288.3,190.9C286.67,193.09 284.64,194.91 282.77,196.87C281.84,197.85 281.64,198.83 281.88,200.12C283.84,210.71 285.77,221.31 287.65,231.91C287.93,233.49 288.51,234.67 289.93,235.56C293.99,238.1 295.11,241.73 293.84,246.31C293.33,248.15 292.71,249.96 292.17,251.8C291.84,252.91 291.79,253.98 292.01,255.1C295.73,274.28 299.18,293.52 303.08,312.67C305.43,324.24 307.74,335.82 310.01,347.41C310.26,348.69 310.7,349.56 311.94,350.14C313.96,351.07 315.45,352.63 316.34,354.69C316.98,356.18 317.84,356.96 319.61,357.45C322.65,358.29 325.53,359.74 328.54,360.79C330.94,361.63 333.36,362.46 335.69,363.48C337.03,364.07 338.11,363.91 339.28,363.2C342.62,361.17 346,359.2 349.31,357.14C351.47,355.8 353.45,354.14 355.83,353.16C356.62,352.83 356.67,352.43 356.42,351.69C355.92,350.24 355.34,349.17 353.64,348.57C349.87,347.24 349.03,345.33 350.02,341.49C350.2,340.8 350.44,340.12 350.68,339.44C350.96,338.67 351.02,338.03 350.53,337.21C349.67,335.76 350.03,334.56 351.65,333.95C353.46,333.26 354.39,332 355.27,330.4C358.01,325.42 362.52,323.41 368.21,325.13C370.31,325.76 372.15,326.79 373.88,328.11C376.75,330.31 377.74,333.25 377.57,336.74C377.35,341.25 374.97,344.5 371.61,347.21C371.3,347.46 370.97,347.69 370.66,347.93C369.12,349.12 369.04,349.52 370.55,350.55C376.96,354.91 379.75,361.33 381.11,368.62C381.92,372.96 382,377.36 382.34,381.73C382.73,386.75 383.59,391.71 384.16,396.7C384.41,398.83 384.98,400.96 384.27,403.1C384.07,403.71 384.39,404.2 384.63,404.68C386.69,408.7 387.07,413.07 387.32,417.46C387.59,422.32 387.42,427.21 388.25,432.04C389.01,436.44 389.84,440.83 390.7,445.21C390.99,446.7 391.72,448.06 392.37,449.43C396.28,457.63 400.19,465.84 404.09,474.05C404.59,475.1 405.36,476.1 404.63,477.4C404.28,478.03 404.96,478.39 405.3,478.79C406.59,480.32 407.69,481.99 408.69,483.71C410.06,486.05 409.94,487.15 407.92,488.95C406.77,489.97 405.94,491.77 403.83,491.26C403.65,491.21 403.27,491.77 403.05,492.08C401.6,494.16 399.5,495.5 397.46,496.89C396.94,497.24 396.33,497.55 395.72,497.65C393.27,498.03 390.81,498.32 388.32,498.18C386.08,498.05 385.18,496.87 385.62,494.67C385.91,493.2 386.51,491.76 388.04,491.36C391.09,490.57 392.13,488.02 393.42,485.67C393.72,485.13 393.8,484.47 393.95,483.96C393.55,483.32 393.03,483.5 392.59,483.52C391.5,483.56 390.79,483.03 390.27,482.13C385.57,473.98 380.85,465.83 376.16,457.67C374.41,454.62 372.88,451.47 371.89,448.08C371.79,447.73 371.56,447.41 371.22,446.72C370.9,449.14 370.78,451.16 370.86,453.2C371.25,463.26 371.71,473.31 371.69,483.38C371.69,484.29 371.99,485.29 370.98,485.99C370.37,486.41 370.84,487.03 370.96,487.53C371.4,489.4 371.67,491.29 371.83,493.2C371.91,494.16 371.87,495.11 371.7,496.06C371.5,497.13 370.91,497.77 369.86,498C368.28,498.34 366.68,498.24 365.08,498.2C364.92,498.2 364.68,498.19 364.63,498.1C363.65,496.32 362.45,497.38 361.34,497.86C360.14,498.38 358.85,498.49 357.59,498.57C354.16,498.78 350.72,498.88 347.3,498.31C345.48,498.01 344.95,497.42 345,495.64C345.05,493.74 346,492.51 347.78,491.88C349.35,491.32 350.94,490.79 352.49,490.17C354.57,489.34 356.52,488.26 358.33,486.47C357.36,486.07 356.57,485.66 356.47,484.45C355.5,473.07 353.48,461.81 352.77,450.41C352.33,443.39 352.66,436.36 352.99,429.33C353.31,422.47 353.53,415.6 353.8,408.74C353.83,407.92 353.68,407.26 353.14,406.55C351.92,404.94 352.15,402.9 351.88,401.03C351.6,399.07 351.55,397.08 351.39,394.9C347.42,396.68 343.63,398.33 339.7,399.64C336.75,400.62 333.86,401.75 330.81,402.43C330.2,402.57 329.55,402.97 328.98,402.48C327.95,401.61 327.1,402.06 326.22,402.71C325.84,402.99 325.38,403.17 324.96,403.4C322.6,404.68 322.59,404.69 323.2,407.43C327.35,426.2 331.49,444.96 335.64,463.73C337.74,473.23 339.85,482.73 341.96,492.23C342.01,492.46 342.11,492.69 342.15,492.92C342.61,495.55 341.61,497.55 339.55,498.17C337.34,498.83 334.91,497.51 334.12,495.03C333.52,493.13 333.15,491.16 332.7,489.22C332.08,486.58 331.38,483.95 330.92,481.28C330.7,479.99 330.11,479.8 329,479.81C324.04,479.87 319.09,479.88 314.13,479.9C304.94,479.94 295.74,479.97 286.55,480.02C285.77,480.02 284.95,479.82 284.06,480.32C284.66,483.49 285.28,486.69 285.88,489.9C286.14,491.31 286.49,492.71 286.59,494.13C286.76,496.61 285.66,498.13 283.56,498.62C281.67,499.06 279.29,497.77 278.57,495.76C278.09,494.42 277.8,492.99 277.54,491.58C274.93,477.62 272.36,463.65 269.74,449.69C266.69,433.45 263.6,417.23 260.53,401C259.15,393.71 257.78,386.42 256.38,379.13C256.22,378.31 256.44,377.06 255.47,376.85C254.34,376.61 252.83,376.81 252.15,377.72C251.26,378.92 250,379.33 248.87,379.99C244.94,382.27 240.77,384.09 236.7,386.12C231.79,388.56 226.78,388.86 221.58,387.4C220.45,387.08 219.13,386.26 218.21,386.83C217.44,387.31 217.28,388.77 216.82,389.77C215.7,392.18 215.77,394.75 215.83,397.29C215.9,400.64 216.46,403.96 216.15,407.33C216.05,408.41 216.4,409.54 216.59,410.64C218,419.17 218.45,427.78 218.94,436.39C219.54,446.78 218.79,457.15 218.53,467.53C218.42,471.92 218.36,476.32 218.25,480.71C218.24,481.34 218.35,482.15 218.02,482.57C216.84,484.06 217.77,485.14 218.6,486.17C220.65,488.74 223.36,490.37 226.42,491.47C227.32,491.79 228.21,492.12 229.11,492.46C230.01,492.8 230.51,493.49 230.79,494.37C231.47,496.47 230.8,497.52 228.57,497.81C227.54,497.95 226.51,498.09 225.48,498.17C221.27,498.48 217.19,498.09 213.59,495.49C212.82,497.95 212.5,498.16 210.18,498C206.97,497.77 206.93,497.77 206.58,494.53C206.28,491.66 206.18,488.79 206.88,485.95C207.08,485.14 207.48,484.26 206.24,483.75C205.63,483.5 205.61,482.7 205.52,482.07C204.7,475.98 203.89,469.88 203.04,463.8C202.68,461.17 202.63,458.54 202.86,455.91C203.29,450.89 202.33,446.06 200.89,441.29C200.8,441.01 200.63,440.75 200.43,440.33C199.08,444.43 198.07,448.47 196.32,452.23C191.89,461.78 187.97,471.55 183.99,481.29C183.71,481.97 183.46,482.66 182.73,482.95C181.83,483.31 181.81,483.97 182.08,484.71C183.27,488.02 184.92,490.96 188.34,492.48C189.07,492.8 189.81,493.12 190.48,493.54C191.66,494.28 192.23,495.41 192.03,496.8C191.88,497.8 191.38,498.63 190.21,498.67C187.73,498.75 185.25,498.86 182.78,498.57C181.92,498.47 181.04,498.24 180.3,497.74C178.93,496.81 177.75,495.98 176.08,497.56C175.37,498.23 173.79,498.07 172.6,498.14C167.17,498.43 161.73,498.38 156.3,498.11C151.99,497.89 151.58,497.33 151.54,493.03C151.53,492.07 151.58,491.11 151.62,490.16C151.66,489.14 151.86,488.14 150.87,487.32C150.41,486.94 150.45,486.15 150.4,485.5C149.51,475.15 148.65,464.81 148.44,454.42C148.36,450.39 147.47,446.51 146.4,442.66C146.31,442.34 146.15,442.08 145.73,441.97C144.26,448.15 142.89,454.36 140.74,460.35C137.85,468.38 135.07,476.44 132.55,484.59C132.39,485.12 132.22,485.66 131.98,486.16C131.16,487.93 131.15,487.97 132.81,488.97C134.59,490.05 136.6,490.62 138.51,491.4C140.31,492.14 141.67,493.25 141.84,495.37C142.02,497.58 141.35,498.47 139.1,498.68C136.55,498.92 133.97,498.83 131.44,498.58C126.99,498.15 122.63,497.19 118.34,495.91C116.03,495.22 115.69,494.67 116.01,492.27C116.16,491.16 116.39,490.07 116.62,488.98C116.92,487.55 117.65,486.22 116.68,484.66C116.23,483.93 116.83,482.81 117,481.87C118.98,470.7 122.29,459.86 125.11,448.9C125.93,445.7 126.15,442.44 126.35,439.18C126.72,433.28 126.82,427.37 126.83,421.45C126.83,417.28 127.22,413.16 128.24,409.11C128.39,408.51 128.72,407.85 128.38,407.24C127,404.73 127.57,402.08 127.92,399.5C128.64,394.27 129.05,389.04 128.91,383.74C128.76,377.75 128.83,371.75 130.2,365.86C131.36,360.87 133.54,356.4 137.13,352.68C138.66,351.1 138.59,350.44 136.98,349.01C135.49,347.69 134.02,346.33 132.62,344.9C129.66,341.89 128.75,338.19 129.28,334.09C129.42,332.97 129.9,331.95 130.47,330.98C132.96,326.8 140.09,323.43 144.94,324.11C146.43,324.32 147.46,325.03 148.51,326.18C150.46,328.32 152.19,330.56 153.61,333.07C154.08,333.9 154.95,334.13 155.71,334.57C157.57,335.64 157.84,336.43 156.93,338.42C156.62,339.11 156.75,339.63 156.97,340.23C157.46,341.57 157.94,342.92 158.42,344.27C159.45,347.14 158.45,349.28 155.56,350.35C155.04,350.54 154.5,350.77 153.96,350.82C152.69,350.95 152.05,351.5 151.84,352.86C151.65,354.14 151.91,354.95 152.99,355.67C158.58,359.37 164.2,363.01 169.97,366.42C171.09,367.08 172.28,367.28 173.64,367.06C176.78,366.57 179.92,366.09 183.28,365.3C182.08,364.39 181.45,363.31 180.96,362.12C180.65,361.36 180.14,360.78 179.48,360.28C177.25,358.61 176.56,356.33 177.18,353.7C177.55,352.12 177.67,350.63 177.3,349C176.78,346.69 177.28,344.56 179.19,342.93C180.33,341.96 180.91,340.71 181.13,339.2C181.48,336.82 183.03,335.34 185.29,334.79C186.47,334.5 187.3,333.95 187.99,333.02C189.54,330.93 191.63,330.19 194.1,330.96C195.03,331.25 195.81,331.01 196.64,330.84C199.76,330.21 201.46,331.26 202.27,334.35C202.35,334.65 202.36,335.08 202.56,335.22C204.33,336.41 205.28,338.34 206.77,339.77C207.3,340.27 208.03,340.4 208.72,340.63C210.58,341.23 211,341.93 210.41,343.81C210.12,344.74 210.48,345.4 210.85,346.05C213.45,350.66 212.43,353.35 207.68,355.28C206.01,355.96 206.94,357.32 206.53,358.42C207.83,358.94 208.98,358.32 210.14,358.35C211.33,358.38 212.54,358.33 213.73,358.17C217.21,357.71 220.71,357.5 224.19,356.99C226.31,356.68 227.98,355.8 229.48,354.48C233.68,350.79 237.8,347.02 242,343.33C243.46,342.05 244.3,340.6 244.51,338.63C244.75,336.34 245.04,334 246.88,332.26C247.58,331.6 247.28,330.77 247.14,330C245.15,319.33 243.11,308.67 241.18,297.99C238.97,285.82 236.88,273.63 234.71,261.45C233.08,252.34 231.37,243.24 229.77,234.12C228.01,224.14 226.33,214.14 224.63,204.15C224.34,202.46 224.02,200.88 222.21,200.05C221.37,199.67 221.08,198.76 220.81,197.9C220.01,195.27 219.96,192.59 220.33,189.89C220.37,189.58 220.44,189.18 220.65,189.01C222,187.95 221.49,186.62 221.27,185.31C219.56,175.4 217.85,165.49 216.14,155.58C216.05,155.03 215.98,154.47 215.96,153.91C215.85,151.75 217.12,150.13 219.14,149.8C220.87,149.52 222.88,150.75 223.32,152.63C223.9,155.11 224.25,157.65 224.7,160.16C225.11,162.44 225.56,164.71 225.93,166.99C226.08,167.94 226.46,168.32 227.48,168.32C234.6,168.28 241.71,168.29 248.83,168.33C249.74,168.33 250.33,167.98 250.82,167.29C252.11,165.46 253.89,164.29 256,163.61C256.94,163.31 257.69,162.72 258.5,162.23C261.6,160.35 264.28,160.62 266.98,163.08C268.25,164.12 267.41,165.87 268.25,167.15C267.46,165.49 267.76,163.74 267.39,162.1Z" style="fill:rgb(7,7,7);fill-rule:nonzero;"/>
        <path d="M267.39,162.1C268.07,163.87 268.25,165.71 268.37,167.72C267.34,166.73 267.33,166.73 267.29,165.85C267.25,164.92 267.39,163.96 266.91,163.09C267.32,162.88 267.2,162.41 267.39,162.1Z" style="fill:rgb(253,252,251);fill-rule:nonzero;"/>
        <path d="M187.59,407.01C196.18,410.26 204.94,410.85 213.99,408.79C214.75,412.15 215.03,415.73 215.42,419.28C216.46,428.57 217.15,437.89 217,447.24C216.86,455.7 216.48,464.16 216.22,472.62C216.14,475.17 216.07,477.73 216.07,480.28C216.07,481.33 215.74,481.8 214.64,482.03C212.89,482.4 211.16,482.38 209.4,482.42C208.04,482.45 207.58,481.8 207.5,480.56C207.25,476.57 206.63,472.62 205.91,468.7C204.95,463.48 204.71,458.24 205.01,452.96C205.22,449.14 204.34,445.49 203.25,441.91C202.08,438.07 201.69,434.38 203.38,430.56C204.27,428.54 204.68,426.3 205.31,424.16C205.45,423.69 205.55,423.22 205.31,422.77C204.96,422.12 203.98,422.19 203.59,422.96C203.2,423.74 202.94,424.59 202.68,425.42C200.18,433.49 197.85,441.61 194.93,449.54C193.36,453.81 191.14,457.8 189.42,462.01C187.1,467.69 184.78,473.37 182.47,479.05C181.66,481.05 181.69,480.99 179.64,480.63C178.13,480.36 176.75,479.78 175.34,479.24C174.33,478.85 174.01,478.36 174.23,477.27C176.01,468.21 177.2,458.99 181.15,450.48C182.83,446.87 183.54,443.08 183.5,439.1C183.45,434.23 183.51,429.36 183.57,424.49C183.64,418.94 184.39,413.52 186.74,408.41C186.95,407.91 187.1,407.36 187.59,407.01Z" style="fill:rgb(253,253,252);fill-rule:nonzero;"/>
        <path d="M356.78,354.96C357.91,356.67 359.39,356.88 361.21,356.43C363.77,355.8 365.95,354.49 367.87,352.81C368.91,351.9 369.47,352.05 370.42,352.85C374.49,356.27 376.83,360.71 378.17,365.75C379.28,369.94 379.71,374.24 379.86,378.55C380.09,385.36 381.38,392.03 382.26,398.75C382.7,402.14 382.47,402.82 379.25,403.96C372.15,406.47 364.83,407.33 357.35,406.34C354.65,405.98 354.39,405.56 354.14,402.78C353.92,400.32 353.72,397.85 353.51,395.38C353.44,394.48 353.53,393.78 354.47,393.18C359.58,389.92 363.56,385.43 367.46,380.88C368.6,379.55 369.67,378.15 370.74,376.76C371.07,376.33 371.44,375.76 370.95,375.25C370.41,374.69 369.74,374.86 369.25,375.35C368.57,376.02 367.95,376.76 367.36,377.51C364.59,381.03 361.58,384.32 358.33,387.41C355.86,389.75 353.13,391.65 350.07,393.05C343.98,395.82 337.79,398.32 331.32,400.09C329.99,400.45 329.39,400.21 329,398.98C328.57,397.61 328.07,396.27 327.65,394.89C327.05,392.9 327.07,392.89 328.89,392.02C334.51,389.37 340.12,386.69 345.77,384.1C347.96,383.1 349.57,381.53 350.97,379.65C353.74,375.93 356.21,372.03 358.63,368.08C359.59,366.51 360.52,364.93 361.49,363.38C361.84,362.83 361.92,362.38 361.34,361.94C360.72,361.47 360.23,361.82 359.92,362.28C358.48,364.38 357.08,366.52 355.68,368.65C354.95,369.75 354.25,370.87 353.25,372.43C353.09,370.71 353.25,369.57 353.43,368.43C353.58,367.4 353.72,366.37 353.84,365.34C353.89,364.93 353.84,364.51 353.36,364.38C352.81,364.23 352.45,364.51 352.25,365.01C351.53,366.81 351.21,368.71 351.08,370.61C350.98,372.07 350.35,372.74 349.03,373.39C341.91,376.85 334.97,376.83 328,372.97C324.66,371.12 321.16,369.58 317.74,367.87C316.11,367.05 316.11,367.01 316.7,365.39C317.25,363.9 317.85,362.42 318.4,360.93C318.76,359.97 319.17,359.58 320.34,360.04C325.16,361.93 330.06,363.59 334.86,365.53C336.83,366.33 338.51,366.25 340.28,365.21C344.75,362.58 349.25,360.02 353.52,357.07C354.57,356.35 355.66,355.68 356.78,354.96Z" style="fill:rgb(253,253,252);fill-rule:nonzero;"/>
        <path d="M156.77,374.45C155.07,372.23 153.4,370.02 151.7,367.83C150.87,366.76 150,365.72 149.09,364.71C148.75,364.33 148.22,364.27 147.78,364.59C147.27,364.96 147.49,365.44 147.75,365.85C148.09,366.39 148.46,366.91 148.83,367.43C151.97,371.86 155.44,376.03 158.76,380.33C160.33,382.36 162.21,383.39 164.78,383.71C170.25,384.39 175.71,385.04 181.22,385.21C183.18,385.27 183.21,385.35 183.2,387.33C183.19,388.77 183.09,390.2 183.03,391.64C183,392.37 182.74,392.8 181.9,392.86C174.49,393.38 167.09,393.98 159.69,392.84C157.47,392.5 155.67,391.37 153.96,390.04C149.67,386.68 145.87,382.81 142.29,378.72C141.87,378.24 141.48,377.72 141.02,377.29C140.58,376.88 140.14,376.23 139.41,376.79C138.67,377.36 139.14,377.91 139.51,378.44C139.65,378.64 139.8,378.82 139.95,379.01C143.39,383.34 147.22,387.29 151.48,390.81C153.51,392.49 155.58,394.15 158.25,394.7C159.04,394.86 159.29,395.38 159.33,396.06C159.52,399.33 159.49,402.6 159.38,405.88C159.35,406.88 158.81,407.39 157.82,407.7C155.88,408.3 153.87,408.26 151.9,408.47C144.91,409.23 138.05,408.3 131.27,406.63C130,406.32 129.74,405.4 129.7,404.28C129.63,402.11 130.02,399.98 130.3,397.85C130.81,393.96 131.02,390.07 131.01,386.15C131,380.72 130.84,375.29 131.6,369.89C132.35,364.5 134.15,359.56 137.58,355.23C138.48,354.1 139.18,354.03 140.36,354.69C143.2,356.29 146.25,357.09 149.54,356.85C150.35,356.79 151.04,356.83 151.52,357.76C154.09,362.76 156.06,367.95 157.04,373.5C157.06,373.75 157.16,374.07 156.77,374.45Z" style="fill:rgb(253,253,252);fill-rule:nonzero;"/>
        <path d="M161.43,395.42C168.43,395.89 175.34,395.56 182.26,395.08C183.07,395.02 183.86,394.84 184.45,394.26C184.89,393.83 185.32,393.67 185.94,393.73C188.11,393.95 188.51,394.29 187.99,396.4C187.12,399.87 186.39,403.44 184.99,406.71C182.55,412.4 181.39,418.26 181.36,424.4C181.33,429.83 181.46,435.26 181.2,440.69C181.05,443.86 180.3,446.86 179.01,449.71C175.73,456.99 174.16,464.71 172.88,472.52C172.61,474.17 172.22,475.81 172,477.47C171.89,478.31 171.41,479.24 172.06,480.01C172.71,480.77 172.24,481.31 171.92,481.94C170.84,484.06 169.5,486.08 169.37,488.58C168.37,488.73 167.59,488.25 166.82,487.94C165.37,487.36 165.37,487.21 165.9,485.45C166.01,485.08 165.95,484.66 165.96,484.26C166.08,472.44 166.21,460.61 166.32,448.79C166.36,444.46 165.58,440.2 164.95,435.95C163.67,427.43 162.27,418.92 160.93,410.41C160.86,409.94 160.72,409.43 160.83,408.98C161.84,404.8 161.38,400.57 161.35,396.36C161.33,396.05 161.39,395.74 161.43,395.42Z" style="fill:rgb(253,252,252);fill-rule:nonzero;"/>
        <path d="M274.55,271.54C275.21,268.32 275.8,265.03 276.56,261.78C277.43,258.05 278.46,254.36 279.4,250.65C279.65,249.65 279.91,248.76 281.28,249.16C281.81,249.31 282.25,249.09 282.31,248.49C282.39,247.79 281.96,247.55 281.31,247.44C278.88,247.02 276.46,246.51 274.02,246.1C269.47,245.34 264.83,244.94 260.59,242.91C260.31,242.78 259.98,242.71 259.67,242.69C259.36,242.67 259.02,242.72 258.87,243.07C258.73,243.4 258.86,243.72 259.08,243.95C259.88,244.76 260.88,245.32 261.95,245.61C263.39,246 263.68,246.83 263.6,248.23C263.12,257 262.69,265.77 261.75,274.51C260.95,281.97 260.4,289.46 259.75,296.94C259.56,299.05 259.56,298.99 257.33,299.46C255.82,299.78 254.31,299.69 252.8,299.75C251.74,299.79 251.19,299.43 251.14,298.27C250.88,291.49 250.17,284.71 250.8,277.92C251.46,270.88 251.05,263.89 250.24,256.89C249.69,252.13 249.04,247.38 248.88,242.59C248.83,240.99 248.87,239.4 248.85,237.8C248.83,236.84 249.14,236.42 250.23,236.38C255.68,236.17 260.99,235.1 266.23,233.63C268.84,232.9 271.42,232.04 273.84,230.8C274.68,230.37 275.42,230.25 276.31,230.68C280.03,232.5 283.89,234.04 287.34,236.38C288.26,237.01 289.17,237.67 290.03,238.39C291.69,239.77 292.44,241.5 292.06,243.7C291.81,245.2 291.59,246.7 291.1,248.14C288.68,255.32 286.52,262.59 283.58,269.59C282.6,271.91 282.63,271.94 280.13,271.93C278.45,271.92 276.77,271.9 275.1,271.86C274.95,271.83 274.82,271.69 274.55,271.54Z" style="fill:rgb(254,254,253);fill-rule:nonzero;"/>
        <path d="M328.79,472.12C327.96,472.49 327.31,472.37 326.68,472.38C312.71,472.49 298.75,472.6 284.78,472.7C282.73,472.72 282.69,472.72 282.36,471.01C281.23,465.15 280.13,459.28 279.02,453.45C279.49,452.9 280.08,453.08 280.61,453.08C294.34,452.96 308.07,452.86 321.79,452.76C322.19,452.76 322.6,452.82 322.99,452.75C324.22,452.56 324.67,453.19 324.89,454.3C325.68,458.2 326.54,462.09 327.38,465.97C327.82,467.98 328.3,469.99 328.79,472.12Z" style="fill:rgb(253,253,252);fill-rule:nonzero;"/>
        <path d="M274.02,426.08C274.71,425.78 275.35,425.9 275.99,425.89C289.41,425.84 302.84,425.8 316.26,425.76L316.5,425.76C318.57,425.77 318.59,425.77 319.02,427.68C319.89,431.57 320.73,435.46 321.59,439.36C322.02,441.3 322.45,443.25 322.87,445.16C322.36,445.69 321.78,445.49 321.26,445.49C307.6,445.55 293.93,445.61 280.27,445.66C279.87,445.66 279.47,445.62 279.07,445.66C277.92,445.78 277.38,445.34 277.18,444.15C276.52,440.22 275.72,436.31 275.03,432.39C274.65,430.28 273.99,428.22 274.02,426.08Z" style="fill:rgb(253,253,252);fill-rule:nonzero;"/>
        <path d="M252.89,316.57L255.56,316.57C268.02,316.56 280.49,316.53 292.95,316.53C295.41,316.53 295.22,316.03 295.79,318.88C296.98,324.81 298.22,330.73 299.44,336.64C298.81,337.17 298.15,336.96 297.55,336.96C285.65,337.02 273.74,337.07 261.84,337.11C259.76,337.12 259.86,336.93 259.08,335C258.43,333.38 258.2,331.25 255.9,330.76C255.47,330.67 255.42,330.17 255.35,329.78C254.55,325.47 253.75,321.17 252.89,316.57Z" style="fill:rgb(254,254,253);fill-rule:nonzero;"/>
        <path d="M310.95,391.22C310.34,391.26 309.95,391.31 309.55,391.31C296.21,391.39 282.87,391.46 269.52,391.53C269.04,391.53 268.56,391.52 268.08,391.52C267.29,391.52 267.01,391.09 266.87,390.35C265.95,385.25 264.96,380.17 264.04,375.07C263.61,372.69 264.5,371.63 266.87,371.62C279.49,371.59 292.12,371.58 304.74,371.54C305.85,371.54 306.65,371.53 306.95,372.97C308.2,378.98 309.57,384.97 310.95,391.22Z" style="fill:rgb(253,253,252);fill-rule:nonzero;"/>
        <path d="M268.81,399.08C269.31,398.74 269.89,398.88 270.43,398.88C282.24,398.77 294.05,398.67 305.86,398.57C306.42,398.57 306.98,398.56 307.54,398.57C307.95,398.58 308.38,398.63 308.46,399.13C308.97,402.26 311.45,403.92 313.51,405.89C313.84,406.21 314.31,406.35 314.43,406.9C315.26,410.61 316.11,414.32 316.94,417.94C316.33,418.35 315.84,418.26 315.37,418.26C301.8,418.38 288.24,418.49 274.67,418.6L273.23,418.6C272.69,418.6 272.33,418.38 272.22,417.81C271.05,411.63 269.88,405.46 268.72,399.28C268.71,399.23 268.77,399.15 268.81,399.08Z" style="fill:rgb(253,253,251);fill-rule:nonzero;"/>
        <path d="M258.31,344.56C259,344.27 259.73,344.39 260.44,344.39C272.98,344.35 285.52,344.33 298.06,344.3C298.62,344.3 299.18,344.36 299.74,344.3C300.68,344.19 300.96,344.67 301.1,345.51C301.32,346.76 301.6,348.02 301.97,349.23C302.32,350.38 302.59,351.36 301.03,351.83C300.6,351.96 300.29,352.52 300.29,353C300.28,355.24 299.65,357.64 300.51,359.67C301.09,361.04 301.21,362.71 302.54,363.72C301.96,364.3 301.38,364.07 300.87,364.07C289.53,364.14 278.19,364.19 266.85,364.24C265.34,364.25 263.71,364.53 263.22,362.45C263.19,362.32 263.03,362.14 262.9,362.12C261.06,361.76 261.07,360.21 260.8,358.86C259.96,354.64 259.14,350.42 258.33,346.19C258.22,345.66 258,345.11 258.31,344.56Z" style="fill:rgb(254,253,252);fill-rule:nonzero;"/>
        <path d="M293.72,308.98C292.93,309.35 292.11,309.19 291.33,309.19C283.26,309.2 275.19,309.2 267.12,309.19C265.19,309.19 265.17,309.17 264.84,307.29C264.65,306.21 264.1,305.37 263.28,304.68C262.61,304.11 261.89,303.6 261.27,302.98C260.52,302.22 259.77,301.4 261.15,300.48C261.7,300.12 261.57,299.48 261.62,298.94C261.92,296.16 262.25,293.39 262.51,290.61C262.69,288.66 262.65,288.64 264.53,288.63C272.44,288.61 280.35,288.63 288.26,288.56C289.55,288.55 290.04,288.97 290.27,290.22C291.22,295.4 292.28,300.55 293.26,305.72C293.48,306.8 294.03,307.84 293.72,308.98Z" style="fill:rgb(254,254,253);fill-rule:nonzero;"/>
        <path d="M261.81,375.01C263.16,382.06 264.47,388.87 265.78,395.68C267.68,405.55 269.59,415.42 271.47,425.29C274.39,440.65 277.28,456.01 280.19,471.37C281.51,478.34 282.81,485.32 284.12,492.3C284.25,493 284.37,493.72 284.42,494.43C284.49,495.31 284.13,496.02 283.27,496.32C282.37,496.63 281.55,496.44 280.89,495.69C280.21,494.92 280.13,493.94 279.96,493.02C276.46,473.47 272.73,453.97 268.99,434.47C265.97,418.73 263.08,402.96 260.12,387.21C259.53,384.08 258.92,380.94 258.24,377.83C257.97,376.6 258.23,375.88 259.53,375.64C260.21,375.52 260.88,375.27 261.81,375.01Z" style="fill:rgb(250,249,247);fill-rule:nonzero;"/>
        <path d="M227.46,175.82C228.32,175.48 229.05,175.6 229.76,175.6C235.66,175.58 241.57,175.57 247.47,175.55C248.36,175.55 249.18,175.47 249.51,176.64C250.38,179.72 252.66,181.73 255.06,183.61C255.8,184.2 256.69,184.64 256.95,185.67C257.18,186.61 257.21,187.26 256,187.67C254.2,188.27 252.51,189.2 250.75,189.93C247.72,191.18 245.29,193.16 243.39,195.8C242.92,196.45 242.43,196.72 241.63,196.7C239,196.65 236.36,196.63 233.73,196.69C232.63,196.72 232.35,196.27 232.41,195.28C232.46,194.41 232.43,193.52 232.37,192.65C232.27,191.27 231.92,189.84 230.79,189.05C229.64,188.25 229.41,187.25 229.21,186.05C228.67,182.69 228.06,179.32 227.46,175.82Z" style="fill:rgb(254,254,253);fill-rule:nonzero;"/>
        <path d="M228.42,210.17C229.31,213.24 230.22,216.31 232.45,218.75C233.09,219.45 233.15,220.34 233.31,221.19C236.35,238.08 239.36,254.97 242.44,271.86C245.35,287.8 248.34,303.72 251.3,319.64C251.95,323.17 252.56,326.71 253.28,330.23C253.51,331.35 253.29,332.09 252.22,332.54C251.84,331.41 251.52,330.23 249.87,330.4C249.24,330.46 249.24,329.81 249.16,329.35C248.36,325.04 247.54,320.73 246.75,316.41C244.72,305.35 242.68,294.29 240.69,283.22C238.21,269.4 235.76,255.57 233.32,241.75C231.61,232.09 229.93,222.42 228.25,212.75C228.13,212.04 228.07,211.33 227.98,210.61C227.78,210.12 227.99,210.03 228.42,210.17Z" style="fill:rgb(250,249,248);fill-rule:nonzero;"/>
        <path d="M314.97,368.85C317.99,370.38 320.97,371.89 323.94,373.42C326.64,374.81 329.45,375.93 332.27,377.03C336.47,378.67 340.66,378.72 344.88,377.19C346.79,376.5 348.71,375.84 350.8,375.37C349.6,378.02 348.04,380.31 345.48,381.79C343.54,382.91 341.48,383.76 339.46,384.69C334.83,386.82 330.13,388.81 325.69,391.32C324.89,391.77 324.36,391.59 323.72,391.23C322.66,390.62 322.07,389.37 321.05,388.86C318.37,387.5 318.08,385.05 317.6,382.54C316.88,378.78 315.97,375.06 315.12,371.33C314.95,370.55 314.7,369.79 314.97,368.85Z" style="fill:rgb(253,252,252);fill-rule:nonzero;"/>
        <path d="M320.43,405.68C321.44,408.59 321.82,411.6 322.47,414.54C325.95,430.11 329.38,445.68 332.85,461.25C335.12,471.45 337.42,481.64 339.7,491.84C339.86,492.54 339.97,493.25 340.05,493.97C340.16,494.95 339.79,495.71 338.83,496.06C337.75,496.45 336.95,495.95 336.4,495.08C336.11,494.62 335.97,494.06 335.84,493.52C334.88,489.32 333.96,485.12 332.97,480.93C332.76,480.06 332.94,479.52 333.55,478.83C335.29,476.85 334.89,474.18 332.54,473C331.25,472.35 330.9,471.5 330.63,470.28C329.46,464.91 328.22,459.55 326.99,454.18C326.79,453.3 326.73,452.64 327.47,451.82C329.31,449.79 328.88,447.37 326.49,446.03C325.5,445.47 325.01,444.87 324.78,443.75C323.62,438.21 322.35,432.7 321.12,427.17C320.95,426.39 320.96,425.75 321.61,425.01C323.37,422.97 322.86,420.17 320.45,419C319.4,418.49 319.05,417.84 318.84,416.89C318.18,413.93 317.57,410.97 316.86,408.02C316.6,406.92 316.81,406.36 318.01,406.24C318.79,406.13 319.55,405.88 320.43,405.68Z" style="fill:rgb(249,248,246);fill-rule:nonzero;"/>
        <path d="M250.28,347.65C251.14,352.19 251.89,356.17 252.66,360.14C252.75,360.61 252.97,361.12 252.56,361.49C250.9,363.03 250.45,365.2 249.58,367.14C248.92,368.6 248.01,369.5 246.4,370.01C241.11,371.69 235.92,373.7 230.56,375.21C228.6,375.76 226.83,375.71 225.04,374.74C223.23,373.76 221.35,372.9 219.37,371.92C220.36,371.19 221.43,371 222.43,370.68C224.85,369.9 227.27,369.14 229.69,368.35C232.23,367.52 234.44,366.14 236.31,364.22C240.6,359.83 244.71,355.28 248.48,350.43C249.04,349.71 249.48,348.89 250.28,347.65Z" style="fill:rgb(252,252,251);fill-rule:nonzero;"/>
        <path d="M306.16,352.04C304.86,352.06 304.49,351.52 304.36,350.58C304.2,349.4 303.94,348.23 303.65,347.07C303.25,345.51 302.92,344.15 304.36,342.73C305.58,341.53 305.05,338.75 303.38,337.91C301.72,337.07 301.51,335.82 301.22,334.33C300.16,328.85 299.07,323.38 297.9,317.93C297.7,316.97 297.77,316.38 298.45,315.6C300.21,313.58 299.81,311.07 297.45,309.78C296.3,309.15 295.94,308.34 295.73,307.2C294.67,301.48 293.57,295.76 292.45,290.05C292.26,289.07 292.23,288.36 293.07,287.5C294.54,285.99 294.55,283.53 293.03,282.35C291.78,281.38 291.56,280.14 290.98,278.87C289.46,275.54 289.34,271.93 288.38,268.5C287.68,265.99 287.94,263.64 288.98,261.31C289.43,260.3 289.75,259.24 290.27,257.78C291.15,262.34 291.95,266.48 292.75,270.63C295.23,283.55 297.66,296.48 300.18,309.4C302.47,321.14 304.84,332.86 307.18,344.59C307.34,345.37 307.5,346.15 307.68,346.93C307.88,347.79 308.04,348.47 306.9,348.98C305.67,349.53 306.07,350.88 306.16,352.04Z" style="fill:rgb(249,248,247);fill-rule:nonzero;"/>
        <path d="M155.29,359.97C159.38,362.6 163.54,364.98 167.52,367.62C169.83,369.15 172.14,369.48 174.78,369C179.09,368.22 183.42,367.58 187.75,366.89C187.97,366.86 188.2,366.95 188.54,366.99C188.09,369.2 187.55,371.34 187.68,373.57C187.73,374.35 187.27,374.74 186.59,374.92C181.97,376.12 177.4,377.51 172.68,378.29C170.5,378.65 168.38,378.09 166.35,377.35C164.41,376.64 162.52,375.78 160.62,374.97C159.95,374.69 159.41,374.32 159.23,373.49C158.25,368.91 157,364.4 155.29,359.97Z" style="fill:rgb(252,252,251);fill-rule:nonzero;"/>
        <path d="M353.44,342.32C353.6,342.32 353.93,342.36 354.24,342.31C354.65,342.25 355.03,342.06 355.03,341.58C355.03,341.18 354.66,341.12 354.35,341.06C354.19,341.03 354.03,341.03 353.88,340.99C352.38,340.56 352.34,340.51 352.74,339.07C352.86,338.62 353.13,338.23 353,337.7C352.84,337.04 351.95,336.55 352.45,335.76C352.86,335.12 353.69,335.07 354.28,334.68C355.17,334.08 355.77,333.26 356.18,332.27C356.83,330.69 357.93,329.42 359.12,328.23C359.67,327.68 360.23,327.5 361.05,327.83C364.19,329.08 365.19,330.88 364.43,334.15C364.18,335.24 363.92,336.33 363.81,337.43C363.67,338.79 364.13,339.18 365.45,338.99C365.68,338.96 365.9,338.85 366.13,338.76C366.8,338.49 367.4,338.58 367.81,339.21C368.24,339.87 368.28,340.59 367.84,341.24C367.14,342.27 366.23,342.91 364.89,343.01C363.54,343.12 363.52,343.42 364.33,344.6C365.26,345.96 365.97,347.45 367.12,348.68C367.79,349.4 367.71,350.25 366.91,351C365.12,352.67 363.09,353.88 360.69,354.39C359.58,354.62 358.81,354.31 358.74,353.01C358.72,352.62 358.57,352.23 358.48,351.84C357.92,349.45 357.14,347.33 354.25,346.76C353.03,346.52 351.91,345.74 351.58,344.28C351.21,342.71 351.63,342.21 353.44,342.32Z" style="fill:rgb(253,252,251);fill-rule:nonzero;"/>
        <path d="M301.03,147.39C301.05,147.89 300.69,148.49 301.36,148.82C301.9,149.08 302.21,148.74 302.43,148.29C303.62,148.16 302.69,149.45 303.35,149.67C303.64,149.66 303.93,149.65 304.22,149.64C304.45,149.44 304.66,149.45 304.85,149.7C304.81,150.16 304.65,150.7 305.21,150.95C305.65,151.15 305.93,150.77 306.2,150.48C306.46,150.21 306.59,149.8 307.39,149.65C306.3,151.44 305.57,153.24 304.33,154.57C301.42,157.68 300.35,161.58 299.07,165.42C298.16,168.14 297.24,170.85 296.33,173.57C294.74,178.31 291.36,181.86 288.28,185.84C287.04,183.78 286.07,181.79 284.69,180.08C284.26,179.55 284.27,179.11 284.82,178.67C289.54,174.97 291.75,169.63 294.15,164.42C295.08,162.4 296.03,160.38 296.94,158.34C297.51,157.06 297.54,155.8 297.02,154.42C296.36,152.66 295.97,150.8 295.41,148.78C296.3,149.17 296.38,149.87 296.76,150.33C297.84,151.67 298.73,151.59 299.34,150.01C299.8,148.82 300.14,147.59 300.53,146.38C301.45,146.34 301.09,146.95 301.03,147.39Z" style="fill:rgb(251,251,249);fill-rule:nonzero;"/>
        <path d="M238.31,207.11C239.87,209.18 241.53,210.9 243.32,212.7C241.89,214.54 240.25,216.12 238.33,217.36C236.21,218.73 234.39,218.32 233.01,216.23C232.03,214.76 231.44,213.1 230.9,211.44C229.94,208.49 228.96,205.54 228.07,202.57C227.72,201.41 227.15,200.59 225.96,200.22C225.51,200.08 225.13,199.7 224.68,199.59C222.47,199.08 223.19,196.86 222.29,195.6C223.94,195.17 221.61,193.36 223.23,192.85C223.41,192.79 223.11,192.3 222.92,192.05C222.56,191.56 221.94,191.17 222.32,190.14C223.51,191.21 224.81,191.98 226.22,192.55C228.58,193.51 229.07,193.3 229.76,190.79C230.9,191.75 231.09,193.02 230.8,194.27C230.03,197.63 231.01,200.54 232.83,203.3C233.44,204.23 233.92,205.24 234.47,206.22C234.92,207.03 235.64,207.78 234.75,208.77C234.56,208.98 234.62,209.38 234.89,209.64C235.26,209.99 235.69,209.88 235.96,209.61C236.75,208.83 237.48,207.99 238.31,207.11Z" style="fill:rgb(251,250,248);fill-rule:nonzero;"/>
        <path d="M274.58,260.44C274.06,263.1 273.53,265.57 273.09,268.06C272.75,269.97 271.97,271.88 273.06,273.83C273.21,274.1 273.01,274.61 272.91,274.98C272.45,276.59 272.07,278.22 272.09,279.9C272.1,280.74 271.9,281.25 270.91,281.23C268.76,281.2 266.61,281.21 264.46,281.25C263.58,281.27 263.39,280.86 263.46,280.08C263.69,277.63 263.84,275.16 264.09,272.71C264.46,269.07 264.86,265.43 264.95,261.77C264.97,260.99 265,260.4 266.07,260.42C268.85,260.47 271.63,260.44 274.58,260.44Z" style="fill:rgb(253,253,252);fill-rule:nonzero;"/>
        <path d="M237.72,232.15C239.97,232.15 242.27,232.16 244.57,232.14C245.35,232.13 245.76,232.37 245.69,233.23C245.59,234.5 245.58,235.75 246.66,236.75C246.87,236.94 246.77,237.51 246.76,237.9C246.62,242.45 246.93,246.98 247.57,251.48C247.81,253.17 247.75,253.21 246.07,253.22C244.56,253.23 242.73,253.67 241.62,252.99C240.43,252.26 240.82,250.21 240.52,248.75C239.54,243.92 238.7,239.05 237.81,234.2C237.71,233.58 237.47,232.98 237.72,232.15Z" style="fill:rgb(253,252,251);fill-rule:nonzero;"/>
        <path d="M200.59,336.51C201.96,336.86 202.72,337.61 203.27,338.46C204.62,340.54 206.28,342.15 209.15,342.55C207.63,344.25 208.58,345.58 209.16,346.84C208.48,347.92 206.96,347.45 206.31,348.6C207.59,349.75 208.73,348.48 209.88,348.48C210.61,351.03 210.59,351.85 208.34,352.73C205.36,353.89 204.63,355.75 204.73,358.72C204.83,361.63 204.32,361.84 201.3,361.62C200.73,361.58 200.18,361.52 199.79,361.02C199.81,360.4 200.39,360.14 200.69,359.69C201.64,358.25 201.97,356.73 201.09,355.18C200.53,354.21 200.51,353.29 200.71,352.24C200.98,350.77 200.68,349.38 199.54,348.28C199.37,348.11 199.19,347.95 199.04,347.76C198.11,346.59 199.23,345.32 198.84,344.08C198.5,343 197.95,341.89 199.26,340.84C200.52,339.83 200.66,338.24 200.59,336.51Z" style="fill:rgb(251,250,249);fill-rule:nonzero;"/>
        <path d="M252.55,314.33C252.39,313.54 252.21,312.7 252.02,311.78C252.75,311.34 253.49,311.48 254.16,311.48C267.59,311.41 281.02,311.36 294.44,311.31C294.99,311.31 295.57,311.32 296.1,311.44C296.9,311.62 297.3,312.23 297.32,313.01C297.34,313.89 296.75,314.28 295.97,314.41C295.5,314.49 295.01,314.47 294.54,314.47C281.03,314.5 267.52,314.53 254.01,314.56C253.55,314.57 253.06,314.63 252.55,314.33Z" style="fill:rgb(243,242,240);fill-rule:nonzero;"/>
        <path d="M296.37,423.84C289.34,423.84 282.31,423.85 275.28,423.82C274.49,423.82 273.47,424.2 273.12,422.93C272.62,421.12 272.9,420.72 274.87,420.71C288.93,420.66 302.99,420.62 317.06,420.58C317.62,420.58 318.18,420.54 318.74,420.6C319.84,420.72 320.66,421.57 320.5,422.44C320.31,423.45 319.53,423.55 318.67,423.55C315.71,423.54 312.76,423.55 309.8,423.56L296.38,423.56C296.37,423.65 296.37,423.74 296.37,423.84Z" style="fill:rgb(244,244,242);fill-rule:nonzero;"/>
        <path d="M277.98,448.11C278.65,447.76 279.3,447.88 279.93,447.88C293.67,447.77 307.41,447.67 321.15,447.59C322.42,447.58 323.7,447.66 324.97,447.75C325.93,447.82 326.4,448.43 326.37,449.36C326.33,450.35 325.68,450.72 324.76,450.73L323.56,450.73C309.5,450.77 295.44,450.82 281.38,450.86C280.98,450.86 280.57,450.81 280.18,450.87C278.89,451.06 278.25,450.51 278.15,449.23C278.14,448.86 278.04,448.47 277.98,448.11Z" style="fill:rgb(249,248,247);fill-rule:nonzero;"/>
        <path d="M307.5,477.74C300.16,477.74 292.82,477.75 285.48,477.73C284.81,477.73 283.96,478.08 283.52,477.28C283.18,476.66 282.94,475.9 283.26,475.21C283.55,474.59 284.25,474.86 284.77,474.85C299.77,474.78 314.77,474.73 329.77,474.67C330.01,474.67 330.25,474.66 330.49,474.68C331.68,474.79 332.51,475.48 332.41,476.36C332.29,477.52 331.44,477.61 330.48,477.6C322.82,477.58 315.16,477.59 307.5,477.59L307.5,477.74Z" style="fill:rgb(248,248,246);fill-rule:nonzero;"/>
        <path d="M227.84,191.11C225.21,190.39 223.99,189.2 223.58,186.67C221.86,175.97 219.89,165.31 218.02,154.64C217.98,154.4 217.95,154.17 217.93,153.93C217.85,152.92 218.21,152.19 219.29,152.04C220.31,151.9 221.06,152.37 221.28,153.34C221.64,154.89 221.87,156.47 222.15,158.04C223.87,167.85 225.6,177.67 227.31,187.49C227.5,188.57 227.63,189.66 227.84,191.11Z" style="fill:rgb(249,248,246);fill-rule:nonzero;"/>
        <path d="M134.35,496.7C129.37,496.51 124.61,495.16 119.8,494.13C118.04,493.75 117.87,493.43 118.21,491.69C118.47,490.37 118.85,489.06 119.1,487.74C119.26,486.87 119.62,486.47 120.55,486.71C122.79,487.29 125.07,487.63 127.4,487.57C127.89,487.56 128.34,487.65 128.65,488.1C130.27,490.48 132.84,491.41 135.34,492.45C136.44,492.9 137.54,493.37 138.6,493.91C139.33,494.29 139.97,494.9 139.7,495.82C139.47,496.63 138.65,496.68 137.93,496.69C136.74,496.71 135.55,496.7 134.35,496.7Z" style="fill:rgb(251,250,249);fill-rule:nonzero;"/>
        <path d="M259.38,342.3C260.16,339.36 260.16,339.35 262.84,339.33C274.97,339.24 287.1,339.16 299.24,339.08C300.03,339.07 300.86,339.03 301.61,339.23C302.32,339.42 302.85,340.02 302.78,340.84C302.7,341.69 302.12,342.05 301.28,342.04C300.88,342.03 300.48,342.06 300.08,342.06C287.15,342.14 274.22,342.22 261.29,342.31C260.66,342.3 260.03,342.3 259.38,342.3Z" style="fill:rgb(246,246,245);fill-rule:nonzero;"/>
        <path d="M264.94,366.61C265.53,366.27 266.19,366.42 266.81,366.42C279.49,366.38 292.17,366.34 304.85,366.31C305.65,366.31 306.46,366.28 307.23,366.42C308.17,366.58 308.49,367.38 308.5,368.21C308.51,369.17 307.77,369.31 307,369.31L305.8,369.31C293.04,369.33 280.28,369.36 267.52,369.38C265.11,369.38 265.11,369.38 264.94,366.61Z" style="fill:rgb(249,249,248);fill-rule:nonzero;"/>
        <path d="M314.28,394.72C312.87,394.72 311.71,394.73 310.55,394.72C309.8,394.71 308.93,394.78 308.64,395.46C308.08,396.74 307.06,396.57 306.06,396.57C294.24,396.62 282.43,396.67 270.61,396.71C267.98,396.72 267.98,396.7 267.89,393.92C268.81,393.57 269.78,393.74 270.72,393.73C281.58,393.68 292.44,393.66 303.29,393.6C306.08,393.59 308.88,393.46 311.67,393.45C312.55,393.43 313.59,393.26 314.28,394.72Z" style="fill:rgb(248,248,246);fill-rule:nonzero;"/>
        <path d="M176.06,495.07C175.51,495.58 174.83,495.73 174.11,495.81C167.89,496.52 161.67,496.33 155.44,495.91C154.21,495.83 153.73,495.26 153.7,494.13C153.69,493.81 153.66,493.49 153.67,493.17C153.71,491.73 153.32,490.05 153.94,488.92C154.68,487.58 156.58,488.79 157.91,488.28C158.49,488.06 159.21,488.26 159.8,488.06C161.59,487.45 163.06,487.45 164.49,489.06C165.21,489.87 166.59,490.13 167.69,490.58C168.41,490.88 168.97,491.17 168.7,492.13C168.49,492.88 169.05,493.34 169.58,493.68C170.52,494.28 171.56,494.69 172.64,495.01C173.34,495.22 173.8,495.05 174.31,494.5C175.15,493.59 175.21,493.64 176.06,495.07Z" style="fill:rgb(249,249,248);fill-rule:nonzero;"/>
        <path d="M308.07,354.07C309.43,354.43 309.68,355.53 309.89,356.63C311.74,366.67 314.12,376.6 316.24,386.58C316.62,388.37 317.09,390.15 317.58,391.91C317.78,392.63 317.7,393.2 317.05,393.55C316.32,393.94 316.14,393.18 315.77,392.82C315.48,392.54 315.24,392.1 314.9,392.02C313.08,391.55 312.89,390.07 312.57,388.58C311.51,383.59 310.38,378.62 309.29,373.63C309,372.31 308.79,371.18 310.13,370.02C311.54,368.8 310.92,366.19 309.04,364.84C308.21,364.24 308.29,363.94 308.39,362.93C308.63,360.71 308.82,358.38 308.21,356.15C308.01,355.46 307.96,354.79 308.07,354.07Z" style="fill:rgb(247,246,245);fill-rule:nonzero;"/>
        <path d="M255.75,364.85C255.11,361.44 254.5,358.24 253.92,355.03C252.84,349.07 251.8,343.1 250.71,337.15C250.53,336.16 250.5,335.27 251.45,334.49C252.04,335.15 252.29,335.8 252.43,336.74C252.75,338.81 253.91,340.62 254.97,342.4C255.44,343.18 255.73,343.93 255.9,344.81C256.88,349.9 257.86,354.99 258.89,360.06C259.64,363.74 259.67,363.74 255.75,364.85Z" style="fill:rgb(248,247,246);fill-rule:nonzero;"/>
        <path d="M193.43,379.44C193.35,381.09 192.57,381.67 191.94,382.35C191.56,382.76 191.13,383.14 191.36,383.8C191.62,384.55 192.24,384.66 192.9,384.65C194.66,384.64 196.41,384.59 198.17,384.59C198.94,384.59 199.75,384.32 200.48,384.78C200.6,385.51 200.06,385.52 199.6,385.61C198.11,385.88 196.62,386.13 195.09,386.15C194.59,386.15 194.08,386.29 194.07,386.9C194.05,387.59 194.64,387.57 195.1,387.55C196.85,387.5 198.61,387.57 200.32,387.04C200.69,386.93 201.09,386.81 201.55,387.17C200.92,388.32 199.71,388.2 198.72,388.37C197.71,388.55 196.65,388.47 195.62,388.51C194.98,388.53 194.2,388.47 194.25,389.39C194.29,390.17 195.02,390.05 195.55,390.04C197.05,390 198.55,389.92 200.33,389.84C198.27,391.79 195.47,390.05 193.3,391.75C194.73,392.81 196.32,392.18 197.76,393.06C194.97,393.49 192.55,393.11 190.14,392.69C188.81,392.46 187.51,392.07 186.18,391.81C185.43,391.66 185.03,391.31 185.17,390.5C185.18,390.42 185.18,390.34 185.18,390.26C185.24,388.75 184.88,387.03 185.49,385.79C186.05,384.64 187.65,384.01 188.78,383.13C190.19,382.02 191.61,380.89 193.43,379.44Z" style="fill:rgb(253,252,251);fill-rule:nonzero;"/>
        <path d="M273.12,183.81C272.67,181.19 272.23,178.52 271.76,175.87C271.65,175.26 272.08,175.06 272.41,174.72C274.11,172.97 274.07,170.44 272.06,169.21C270.84,168.46 270.53,167.53 270.32,166.35C269.66,162.5 269,158.65 268.36,154.8C268.07,153.07 268.4,152.29 269.44,152.02C270.72,151.7 271.67,152.44 271.98,154.19C272.69,158.19 273.33,162.21 273.99,166.22C274.7,170.55 275.39,174.88 276.11,179.2C276.65,182.43 276.83,181.6 274.3,183.35C273.99,183.59 273.69,183.85 273.12,183.81Z" style="fill:rgb(248,247,245);fill-rule:nonzero;"/>
        <path d="M316.78,401.88C316.93,401.61 317.09,401.34 317.25,401.07C317.63,400.42 317.52,399.96 316.7,399.98C315.59,400.01 314.47,400.09 313.36,400.21C312.49,400.3 311.64,400.41 310.41,399.46C311.43,399.46 311.99,399.47 312.55,399.46C313.43,399.43 314.32,399.47 315.18,399.33C315.85,399.22 316.78,399.1 316.67,398.14C316.56,397.19 315.68,397.6 315.11,397.58C313.68,397.54 312.24,397.57 310.81,397.55C310.61,397.55 310.41,397.38 310.07,397.22C310.64,396.31 311.5,396.56 312.19,396.58C314,396.65 315.69,396.2 317.3,395.51C319.58,394.55 320.01,393.61 319.51,391.18C319.45,390.88 319.36,390.58 319.19,389.91C321.07,391.67 322.64,393.27 324.89,393.83C325.23,393.91 325.35,394.24 325.43,394.56C325.86,396.18 326.23,397.81 326.97,399.33C327.2,399.8 326.93,400.11 326.56,400.29C322.98,402.12 319.59,404.44 315.23,404.55C315.91,403.96 316.6,403.8 317.33,403.74C317.94,403.69 318.48,403.43 318.47,402.76C318.47,402 317.79,402.01 317.24,401.94C317.08,401.92 316.93,401.88 316.77,401.85L316.78,401.88Z" style="fill:rgb(253,252,251);fill-rule:nonzero;"/>
        <path d="M155.75,336.58C154.83,338.14 153.93,339.09 152.79,339.86C152.14,340.3 151.57,340.88 151.04,341.48C149.63,343.08 149.18,343.2 147.56,341.79C145.81,340.26 144.25,338.55 143.8,336.13C143.67,335.42 143.32,334.79 143,334.15C142.18,332.48 142.31,332.02 143.76,330.96C144.6,330.35 145.43,329.73 146.26,329.11C147.46,328.21 148.39,328.32 149.27,329.48C149.36,329.6 149.41,329.77 149.48,329.91C150.96,332.63 152.28,335.5 155.75,336.58Z" style="fill:rgb(253,252,251);fill-rule:nonzero;"/>
        <path d="M263.07,371.91C261.16,373.37 259.13,374.2 256.9,374.56C256.43,374.64 255.96,374.72 255.48,374.77C254.23,374.92 252.81,375.87 251.83,375.28C250.77,374.65 250.61,372.97 249.98,371.79C249.56,371.01 249.55,370.42 250.15,369.66C251.53,367.92 252,365.65 253.21,363.64C253.87,366.73 254.54,367.04 257.44,366.17C259.09,365.68 260.22,364.37 261.74,363.72C262.37,364.45 261.7,364.79 261.37,365.13C260.87,365.64 260.25,366.02 259.72,366.5C259.5,366.7 259.36,367.02 259.57,367.35C259.78,367.69 260.07,367.64 260.39,367.54C261.37,367.24 262.05,366.46 263.17,365.63C262.75,367.24 261.64,367.63 260.84,368.3C260.47,368.61 260.02,368.95 260.39,369.47C260.73,369.95 261.24,369.79 261.66,369.51C262.19,369.16 262.7,368.77 263.22,368.4C263.76,368.98 263.16,369.25 262.86,369.51C262.38,369.92 261.82,370.23 261.31,370.62C260.99,370.86 260.65,371.14 260.85,371.6C261.11,372.19 261.55,372.09 262.04,371.86C262.29,371.76 262.55,371.46 263.07,371.91Z" style="fill:rgb(249,249,248);fill-rule:nonzero;"/>
        <path d="M187.6,376.83C187.74,378.15 187.93,379.32 187.99,380.49C188.05,381.71 185.82,383.77 184.58,383.52C181.75,382.94 178.88,383.06 176.04,382.83C172.31,382.53 168.6,382.06 164.88,381.69C162.33,381.44 160.76,380.01 159.91,377.34C161.51,377.49 162.69,378.19 163.86,378.72C167.79,380.5 171.77,380.73 175.97,379.84C179.85,379.01 183.68,377.99 187.6,376.83Z" style="fill:rgb(248,247,246);fill-rule:nonzero;"/>
        <path d="M279.6,201.29C281.95,211.62 283.74,221.96 285.63,232.47C284.87,232.5 284.43,232.03 283.9,231.83C282.95,231.48 282.86,231.05 283.22,230.07C284.04,227.88 283.47,226.51 281.38,225.29C280.71,224.9 280.36,224.55 280.22,223.72C279.57,219.88 278.61,216.08 278.11,212.22C277.63,208.5 278.31,204.82 279.6,201.29Z" style="fill:rgb(247,246,245);fill-rule:nonzero;"/>
        <path d="M242.62,260.46C244.4,260.46 245.91,260.51 247.42,260.44C248.64,260.39 248.56,261.15 248.66,261.98C249.37,267.95 248.95,273.92 248.63,279.88C248.59,280.7 248.49,281.25 247.47,281.24C246.57,281.23 246.3,280.88 246.15,280C245.27,274.82 244.31,269.65 243.38,264.48C243.13,263.24 242.9,261.99 242.62,260.46Z" style="fill:rgb(249,248,246);fill-rule:nonzero;"/>
        <path d="M263,286.23C263,285.52 263.01,284.96 263,284.4C262.98,283.67 263.39,283.44 264.05,283.46C264.53,283.48 265.01,283.46 265.48,283.46C273.21,283.45 280.94,283.45 288.67,283.44C289.31,283.44 289.96,283.41 290.57,283.54C291.32,283.7 291.87,284.17 291.79,285.05C291.71,285.87 291.25,286.35 290.39,286.36C290.15,286.36 289.91,286.37 289.67,286.37C281.06,286.37 272.45,286.37 263.85,286.36C263.63,286.36 263.4,286.29 263,286.23Z" style="fill:rgb(247,248,248);fill-rule:nonzero;"/>
        <path d="M235.38,220.29C238.65,220.35 240.71,218.38 242.76,216.33C243.85,215.24 244.68,213.75 246.68,213.6C246.43,217.14 246.19,220.66 245.95,224.17C245.91,224.79 245.5,224.92 244.97,224.92C242.34,224.91 239.71,224.9 237.08,224.92C236.34,224.93 236.17,224.53 236.07,223.91C235.89,222.75 235.63,221.6 235.38,220.29Z" style="fill:rgb(249,248,247);fill-rule:nonzero;"/>
        <path d="M142.93,344.67C142.66,344.05 142.05,344.07 141.53,343.92C140.63,343.65 140.06,343.02 139.69,342.18C139.21,341.1 139.41,340.06 140.17,339.63C140.83,339.26 142.13,339.63 142.67,340.47C143.09,341.13 143.36,341.9 143.64,342.64C144.17,344.05 144.58,345.51 145.17,346.9C145.93,348.69 147.03,350.3 148.97,350.94C149.84,351.23 150.39,351.29 150.11,352.44C149.62,354.48 149.41,354.91 148.06,354.78C145.6,354.54 143.21,353.97 141,352.79C140.33,352.43 139.89,352.08 140.09,351.14C140.46,349.37 141.38,347.73 141.38,345.86C141.38,344.91 142.77,345.53 142.93,344.67Z" style="fill:rgb(253,252,251);fill-rule:nonzero;"/>
        <path d="M226.65,170.46L248.99,170.46C249,173.81 249.17,173.44 246.26,173.45C240.77,173.48 235.27,173.48 229.78,173.49C226.9,173.5 226.9,173.51 226.65,170.46Z" style="fill:rgb(253,252,251);fill-rule:nonzero;"/>
        <path d="M266.67,168.58C268.15,171.87 269.86,174.72 270.19,178.13C270.37,180 269.74,181.44 268.09,182.3C267.02,182.86 266.21,183.47 266.39,184.83C266.47,185.43 266.11,185.66 265.56,185.74C263.52,186.02 261.49,186.32 259.45,186.61C259.19,186.65 258.97,186.49 258.91,186.26C258.82,185.88 259.08,185.68 259.42,185.61C260.28,185.44 261.13,185.27 262,185.13C263.66,184.86 264.74,183.98 265.12,182.31C265.29,181.54 265.39,180.75 265.6,179.98C265.78,179.31 266.46,178.75 266.23,178C265.98,177.19 265.1,177.66 264.58,177.34C264.02,177 263.61,176.52 263.35,175.92C263.09,175.34 262.76,174.72 263.28,174.15C263.72,173.67 264.26,173.92 264.82,174.04C266.35,174.37 266.55,174.17 266.12,172.7C265.71,171.35 265.9,170.12 266.67,168.58Z" style="fill:rgb(246,245,243);fill-rule:nonzero;"/>
        <path d="M265.44,253.01C265.6,250.99 265.76,249.04 265.93,246.9C269.88,247.59 273.68,248.25 277.04,248.83C277.62,249.12 277.63,249.25 277.58,249.44C276.56,253.22 276.56,253.23 272.63,253.22C270.48,253.22 268.34,253.21 266.19,253.2C266.04,253.2 265.89,253.13 265.44,253.01Z" style="fill:rgb(251,250,249);fill-rule:nonzero;"/>
        <path d="M307.98,350.52C310.67,351.09 312.43,352.4 313.77,354.34C314.76,355.77 315.13,357.59 316.51,358.8C316.66,358.93 316.79,359.28 316.72,359.45C316.14,361.01 315.65,362.64 314.83,364.07C314.44,364.75 313.6,364.16 313.43,363.52C313.03,361.98 312.76,360.4 312.46,358.84C312.28,357.9 312.1,356.96 312.01,356.01C311.89,354.7 311.22,353.77 310.17,353.08C309.33,352.51 308.46,351.99 307.98,350.52Z" style="fill:rgb(253,252,251);fill-rule:nonzero;"/>
        <path d="M250.26,331.96C249.94,333.88 248.41,334.68 248.58,336.14C248.72,337.4 249,338.66 249.09,339.92C249.2,341.48 248.99,343.05 249.74,344.54C250.28,345.6 249.28,346.18 248.62,346.62C247.87,347.11 247.6,346.17 247.17,345.78C246.99,345.62 246.89,345.38 246.71,345.23C245.21,344.03 244.81,342.63 245.77,340.89C246.28,339.97 246.43,338.91 246.42,337.88C246.41,335.27 247.97,333.71 250.26,331.96Z" style="fill:rgb(242,241,240);fill-rule:nonzero;"/>
        <path d="M275.79,255.29C275.79,255.68 275.82,255.84 275.79,255.99C275.26,258.36 275.26,258.37 272.9,258.39C270.91,258.41 268.93,258.42 266.94,258.42C265.12,258.41 265.12,258.4 265.29,256.54C265.33,256.15 265.4,255.76 265.47,255.29L275.79,255.29Z" style="fill:rgb(253,252,251);fill-rule:nonzero;"/>
        <path d="M241.23,227.02C242.18,227.02 243.14,227.01 244.09,227.02C245.61,227.05 246.36,228.3 245.7,229.67C245.49,230.11 245.11,230.15 244.72,230.15C242.49,230.16 240.27,230.18 238.04,230.13C237.2,230.11 236.67,229.05 236.73,227.77C236.78,226.72 237.57,227.04 238.13,227.01C239.16,226.98 240.2,227.01 241.23,227.02C241.23,227.01 241.23,227.02 241.23,227.02Z" style="fill:rgb(253,252,251);fill-rule:nonzero;"/>
        <path d="M241.99,255.21C243.72,255.21 245.45,255.19 247.18,255.22C248.47,255.24 248.06,256.29 248.18,256.98C248.32,257.77 248.16,258.42 247.14,258.41C246.35,258.41 245.55,258.43 244.76,258.44C241.89,258.47 241.89,258.47 241.99,255.21Z" style="fill:rgb(253,252,251);fill-rule:nonzero;"/>
        <path d="M240.81,199.2C239,201.85 237.65,202.42 234.76,201.83C233.36,201.54 233.62,200.08 232.7,199.4C234.49,198.7 238.35,198.65 240.81,199.2Z" style="fill:rgb(253,252,251);fill-rule:nonzero;"/>
        <path d="M283.47,273.94C285.04,272.84 285.1,270.81 286.38,269.16C286.75,271.7 287.53,273.85 287.58,276.29C285.72,276.24 284.58,275.24 283.47,273.94Z" style="fill:rgb(233,232,230);fill-rule:nonzero;"/>
        <path d="M278.93,226.98C279.38,227.03 279.87,227.04 280.33,227.15C281.28,227.4 281.76,228.52 281.33,229.4C280.95,230.19 279.84,230.11 278.12,229.31C277.22,228.89 276.89,228.27 277.23,227.42C277.53,226.63 278.33,227.07 278.93,226.98Z" style="fill:rgb(253,252,251);fill-rule:nonzero;"/>
        <path d="M270.58,182.86C271.12,183.43 271.12,184.15 271.17,184.86C270.72,185.47 270.01,185.19 269.44,185.38C269,185.52 268.41,185.81 268.15,185.31C267.87,184.77 268.21,184.25 268.74,183.93C269.34,183.56 269.96,183.22 270.58,182.86Z" style="fill:rgb(253,252,251);fill-rule:nonzero;"/>
        <path d="M303.36,149.67C302.51,149.57 303.01,148.57 302.44,148.29C302.76,146.42 303.61,144.77 304.6,142.85C304.95,144.38 304.24,145.39 303.98,146.49C303.72,147.54 303.01,148.51 303.36,149.67Z" style="fill:rgb(183,182,179);fill-rule:nonzero;"/>
        <path d="M277.08,220.38C278.21,221.7 277.98,223.07 278.43,224.21C278.54,224.48 278.29,224.81 277.93,224.89C277.45,224.99 277.12,224.73 277.1,224.3C277.04,223.12 277.08,221.94 277.08,220.38Z" style="fill:rgb(253,252,251);fill-rule:nonzero;"/>
        <path d="M248.64,285.02C248.64,285.26 248.65,285.49 248.64,285.73C248.63,286.07 248.52,286.35 248.13,286.38C247.72,286.41 247.33,286.36 247.2,285.89C247.07,285.44 246.95,284.98 246.86,284.52C246.78,284.08 246.57,283.56 247.3,283.45C248,283.34 248.58,283.43 248.61,284.32C248.62,284.56 248.61,284.79 248.61,285.03C248.63,285.02 248.63,285.02 248.64,285.02Z" style="fill:rgb(253,252,251);fill-rule:nonzero;"/>
        <path d="M306.39,359.79C305.01,360.29 303.67,360.46 302.46,359.33C303.68,358.58 303.83,358.59 306.39,359.79Z" style="fill:rgb(253,252,251);fill-rule:nonzero;"/>
        <path d="M306.24,357.1C304.75,357.29 303.17,357.74 301.72,355.95C303.53,356.19 304.98,356.12 306.24,357.1Z" style="fill:rgb(253,252,251);fill-rule:nonzero;"/>
        <path d="M257.43,334.8C256.56,336.45 256.56,336.45 254.52,337.08C254.53,335.78 254.68,335.66 257.43,334.8Z" style="fill:rgb(253,252,251);fill-rule:nonzero;"/>
        <path d="M304.85,149.7C304.64,149.68 304.43,149.66 304.22,149.64C305,148.08 305.5,146.37 306.92,145.17C306.49,146.81 305.98,148.39 304.85,149.7Z" style="fill:rgb(184,185,181);fill-rule:nonzero;"/>
        <path d="M248.72,293.34C247.97,292.2 248.11,290.71 247.75,289.34C247.67,289.02 247.81,288.7 248.21,288.69C248.62,288.68 248.72,289 248.72,289.33L248.72,293.34Z" style="fill:rgb(253,252,251);fill-rule:nonzero;"/>
        <path d="M302.07,353.72C303.93,353.12 304.95,353.73 306.42,354.55C304.58,355.08 303.58,354.39 302.07,353.72Z" style="fill:rgb(253,252,251);fill-rule:nonzero;"/>
        <path d="M301.03,147.39C300.83,147.07 300.94,146.6 300.53,146.39C300.64,145.3 301,144.3 301.73,143.39C301.87,144.78 301.67,146.12 301.03,147.39Z" style="fill:rgb(169,168,165);fill-rule:nonzero;"/>
        <path d="M269.62,170.48C271.49,170.91 271.49,170.91 271.41,172.82C270.32,172.38 270.01,171.48 269.62,170.48Z" style="fill:rgb(253,252,251);fill-rule:nonzero;"/>
        <path d="M253.58,334.28C254.14,333.26 254.82,332.9 255.51,332.56C255.73,332.45 255.97,332.49 256.11,332.73C256.23,332.94 256.25,333.15 256.04,333.33C255.4,333.88 254.74,334.38 253.58,334.28Z" style="fill:rgb(253,252,251);fill-rule:nonzero;"/>
        <path d="M228.42,210.17C228.27,210.32 228.12,210.46 227.97,210.61C227.16,209.44 227.34,208.06 227.17,206.74C227.97,207.75 228.25,208.94 228.42,210.17Z" style="fill:rgb(253,252,251);fill-rule:nonzero;"/>
        <path d="M235.28,203.9C235.88,203.87 236.18,203.83 236.49,203.84C237.34,203.86 237.16,204.52 237.19,205.03C237.21,205.33 237.24,205.69 236.9,205.82C236.27,206.07 236.13,205.48 235.9,205.13C235.69,204.82 235.55,204.45 235.28,203.9Z" style="fill:rgb(253,252,251);fill-rule:nonzero;"/>
        <path d="M255.45,338.92C256.28,338.26 256.99,337.38 258.42,337.53C257.58,338.78 256.64,339.17 255.45,338.92Z" style="fill:rgb(253,252,251);fill-rule:nonzero;"/>
        <path d="M316.76,401.85C315.54,402.68 314.17,402.65 312.35,402.76C314.02,401.8 315.4,401.8 316.79,401.88C316.78,401.88 316.76,401.85 316.76,401.85Z" style="fill:rgb(118,118,118);fill-rule:nonzero;"/>
        <path d="M153.96,343.16C153.98,343.03 153.97,342.92 154.02,342.88C154.6,342.35 155.22,341.95 156.02,342.4C156.08,342.43 156.08,342.74 156.01,342.82C155.41,343.4 154.73,343.59 153.96,343.16Z" style="fill:rgb(253,252,251);fill-rule:nonzero;"/>
        <path d="M258.25,340.14C257.84,341.12 257.25,341.51 256.38,341.43C256.29,341.42 256.12,341.19 256.14,341.13C256.56,340.24 257.33,340.2 258.25,340.14Z" style="fill:rgb(253,252,251);fill-rule:nonzero;"/>
        <path d="M357.57,331.65C359.66,331.36 360.72,331.9 360.92,333.21C360.98,333.59 360.99,334.02 360.52,334.2C360.19,334.32 359.88,334.18 359.66,333.94C359.02,333.27 358.41,332.57 357.57,331.65Z" style="fill:rgb(33,31,31);fill-rule:nonzero;"/>
        <path d="M357.64,335.28C357.15,335.22 356.85,334.97 356.87,334.52C356.9,333.99 357.24,333.61 357.77,333.62C358.21,333.62 358.46,333.97 358.47,334.41C358.5,335 358.15,335.25 357.64,335.28Z" style="fill:rgb(36,35,34);fill-rule:nonzero;"/>
        <path d="M201.09,342.54C200.97,342.46 200.79,342.41 200.73,342.3C200.37,341.57 200.64,340.95 201.11,340.38C201.52,339.89 201.96,339.44 202.68,339.61C202.9,339.66 203.12,339.93 203,340.14C202.54,340.93 202.04,341.69 201.52,342.44C201.46,342.53 201.24,342.51 201.09,342.54Z" style="fill:rgb(68,65,62);fill-rule:nonzero;"/>
        <path d="M203.5,343.35C203.08,343.28 202.62,343.02 202.68,342.33C202.72,341.84 203.15,341.74 203.55,341.78C204.05,341.84 204.48,342.06 204.45,342.65C204.42,343.1 204.16,343.38 203.5,343.35Z" style="fill:rgb(71,69,68);fill-rule:nonzero;"/>
        <path d="M149.83,332.35C149.16,333.09 148.44,333.99 147.59,334.76C147.31,335.01 146.84,334.66 146.77,334.21C146.59,333.19 148.13,331.39 149.15,331.41C149.6,331.43 149.85,331.69 149.83,332.35Z" style="fill:rgb(37,38,38);fill-rule:nonzero;"/>
        <path d="M150.01,334.25C150.61,334.31 150.81,334.69 150.77,335.23C150.74,335.66 150.54,336.03 150.06,335.98C149.42,335.92 149.06,335.5 149.15,334.84C149.2,334.4 149.55,334.21 150.01,334.25Z" style="fill:rgb(55,57,60);fill-rule:nonzero;"/>
    </g>
</svg>
