<?xml version="1.0" encoding="UTF-8" standalone="no"?>
<!DOCTYPE svg PUBLIC "-//W3C//DTD SVG 1.1//EN" "http://www.w3.org/Graphics/SVG/1.1/DTD/svg11.dtd">
<svg width="100%" height="100%" viewBox="0 0 880 880" version="1.1" xmlns="http://www.w3.org/2000/svg" xmlns:xlink="http://www.w3.org/1999/xlink" xml:space="preserve" xmlns:serif="http://www.serif.com/" style="fill-rule:evenodd;clip-rule:evenodd;stroke-linejoin:round;stroke-miterlimit:2;">
    <g id="_1" serif:id="1">
        <g id="group-MC0">
            <g id="path3" transform="matrix(1.333333,0,0,-1.333333,542.806,533.8776)">
                <path d="M0,0L10.422,10.882C33.601,35.089 27.175,68.004 14.088,85.797C5.391,97.622 5.678,119.979 14.685,131.149C20.647,138.543 21.754,152.941 16.908,162.392C5.514,184.613 15.133,204.071 22.454,223.403C17.398,202.837 12.164,181.529 26.452,165.557C33.233,157.977 38.494,147.86 33.614,133.478C27.048,114.124 34.607,99.579 44.436,90.796C59.818,77.052 64.388,44.304 54.226,20.644L43.348,-4.682L0,0Z" style="fill:rgb(8,99,32);"/>
            </g>
            <g id="path5" transform="matrix(1.333333,0,0,-1.333333,598.2448,445.4076)">
                <path d="M0,0C-7.316,16.242 -5.987,35.837 5.192,51.312C16.371,66.788 34.558,74.206 52.274,72.363C59.59,56.123 58.26,36.527 47.081,21.053C35.901,5.576 17.716,-1.843 0,0" style="fill:rgb(8,99,32);"/>
            </g>
            <g id="path7" transform="matrix(1.333333,0,0,-1.333333,560.92707,381.2532)">
                <path d="M0,0C6.105,13.556 4.996,29.91 -4.335,42.825C-13.665,55.742 -28.845,61.934 -43.632,60.397C-49.737,46.841 -48.628,30.487 -39.297,17.57C-29.967,4.653 -14.788,-1.539 0,0" style="fill:rgb(8,99,32);"/>
            </g>
            <g id="path9" transform="matrix(1.333333,0,0,-1.333333,574.5976,321.01427)">
                <path d="M0,0C11.502,-4.722 25.144,-3.331 35.677,4.832C46.21,12.996 50.957,25.859 49.254,38.177C37.75,42.898 24.111,41.509 13.577,33.345C3.043,25.18 -1.704,12.317 0,0" style="fill:rgb(8,99,32);"/>
            </g>
            <g id="path11" transform="matrix(1.333333,0,0,-1.333333,563.29813,268.2572)">
                <path d="M0,0C10.45,3.457 18.816,12.251 21.188,23.808C23.562,35.364 19.338,46.743 11.096,54.039C0.645,50.581 -7.721,41.787 -10.093,30.231C-12.466,18.674 -8.242,7.294 0,0" style="fill:rgb(8,99,32);"/>
            </g>
            <g id="path13" transform="matrix(1.333333,0,0,-1.333333,575.8112,501.54947)">
                <path d="M0,0C-16.583,-3.849 -34.71,1.031 -47.148,14.382C-59.586,27.732 -63.171,46.158 -58.159,62.429C-41.574,66.278 -23.447,61.399 -11.01,48.049C1.429,34.697 5.014,16.271 0,0" style="fill:rgb(8,99,32);"/>
            </g>
            <g id="path15" transform="matrix(1.333333,0,0,-1.333333,303.39387,541.9688)">
                <path d="M0,0L9.837,10.273C31.718,33.119 25.652,64.189 13.298,80.985C5.089,92.144 5.36,113.249 13.862,123.792C19.49,130.771 20.535,144.364 15.961,153.282C5.205,174.259 14.285,192.626 21.195,210.873C16.423,191.46 11.483,171.348 24.969,156.271C31.371,149.114 36.335,139.565 31.73,125.991C25.532,107.722 32.667,93.993 41.946,85.703C56.464,72.73 60.778,41.818 51.186,19.486L40.917,-4.42L0,0Z" style="fill:rgb(8,99,32);"/>
            </g>
            <g id="path17" transform="matrix(1.333333,0,0,-1.333333,355.724,458.4596)">
                <path d="M0,0C-6.905,15.328 -5.651,33.826 4.901,48.433C15.454,63.04 32.618,70.043 49.343,68.304C56.248,52.972 54.993,34.476 44.441,19.869C33.889,5.264 16.722,-1.739 0,0" style="fill:rgb(8,99,32);"/>
            </g>
            <g id="path19" transform="matrix(1.333333,0,0,-1.333333,320.498,397.90693)">
                <path d="M0,0C5.764,12.797 4.716,28.234 -4.091,40.424C-12.898,52.617 -27.225,58.461 -41.183,57.009C-46.947,44.215 -45.899,28.778 -37.092,16.585C-28.285,4.394 -13.957,-1.451 0,0" style="fill:rgb(8,99,32);"/>
            </g>
            <g id="path21" transform="matrix(1.333333,0,0,-1.333333,333.40293,341.0456)">
                <path d="M0,0C10.858,-4.456 23.734,-3.145 33.675,4.562C43.619,12.269 48.099,24.41 46.492,36.036C35.633,40.493 22.759,39.182 12.816,31.475C2.873,23.768 -1.608,11.627 0,0" style="fill:rgb(8,99,32);"/>
            </g>
            <g id="path23" transform="matrix(1.333333,0,0,-1.333333,322.73827,291.24613)">
                <path d="M0,0C9.865,3.263 17.76,11.564 19.999,22.472C22.24,33.38 18.253,44.121 10.473,51.007C0.608,47.744 -7.287,39.442 -9.527,28.534C-11.767,17.626 -7.78,6.886 0,0" style="fill:rgb(8,99,32);"/>
            </g>
            <g id="path25" transform="matrix(1.333333,0,0,-1.333333,334.5508,511.4544)">
                <path d="M0,0C-15.654,-3.632 -32.764,0.973 -44.504,13.575C-56.245,26.177 -59.628,43.57 -54.898,58.928C-39.244,62.56 -22.134,57.955 -10.393,45.354C1.348,32.751 4.731,15.357 0,0" style="fill:rgb(8,99,32);"/>
            </g>
            <g id="path27" transform="matrix(1.333333,0,0,-1.333333,267.00453,614.414)">
                <path d="M0,0L-23.483,-1.175L-85.213,8.675L-118.717,30.074L-121.476,35.707C-126.496,45.961 -136.581,52.095 -147.717,51.667L-149.032,51.615L-143.611,29.267C-141.961,22.464 -139.032,16.926 -134.291,11.643L-109.313,-16.191C-104.006,-22.104 -98.018,-25.903 -90.499,-28.135L-25.687,-47.357L0,-50.496L0,0Z" style="fill:rgb(214,117,69);"/>
            </g>
            <g id="path29" transform="matrix(1.333333,0,0,-1.333333,309.9232,617.8464)">
                <path d="M0,0L-23.483,-1.082L-85.214,7.998L-118.718,27.724L-121.476,32.917C-126.496,42.368 -136.582,48.023 -147.717,47.627L-149.032,47.582L-143.612,26.98C-141.961,20.709 -139.033,15.605 -134.291,10.733L-109.313,-14.925C-104.006,-20.374 -98.02,-23.879 -90.499,-25.934L-25.687,-43.654L0,-46.548L0,0Z" style="fill:rgb(214,117,69);"/>
            </g>
            <g id="path31" transform="matrix(1.333333,0,0,-1.333333,348.72467,627.25133)">
                <path d="M0,0L-23.481,-1.084L-85.213,7.996L-118.716,27.722L-121.474,32.915C-126.496,42.366 -136.581,48.021 -147.716,47.627L-149.031,47.58L-143.61,26.978C-141.96,20.707 -139.031,15.603 -134.291,10.732L-109.312,-14.925C-104.005,-20.376 -98.018,-23.879 -90.499,-25.935L-25.687,-43.655L0,-46.549L0,0Z" style="fill:rgb(214,117,69);"/>
            </g>
            <g id="path33" transform="matrix(1.333333,0,0,-1.333333,612.84507,614.414)">
                <path d="M0,0L23.481,-1.175L85.213,8.675L118.716,30.074L121.475,35.707C126.495,45.961 136.581,52.095 147.717,51.667L149.031,51.615L143.609,29.267C141.96,22.464 139.031,16.926 134.29,11.643L109.31,-16.191C104.005,-22.104 98.018,-25.903 90.499,-28.135L25.686,-47.357L0,-50.496L0,0Z" style="fill:rgb(214,117,69);"/>
            </g>
            <g id="path35" transform="matrix(1.333333,0,0,-1.333333,569.92573,617.8464)">
                <path d="M0,0L23.483,-1.082L85.213,7.998L118.717,27.724L121.475,32.917C126.497,42.368 136.581,48.023 147.717,47.627L149.032,47.582L143.611,26.98C141.96,20.709 139.032,15.605 134.291,10.733L109.313,-14.925C104.005,-20.374 98.02,-23.879 90.499,-25.934L25.687,-43.654L0,-46.548L0,0Z" style="fill:rgb(214,117,69);"/>
            </g>
            <g id="path37" transform="matrix(1.333333,0,0,-1.333333,531.12373,627.25133)">
                <path d="M0,0L23.481,-1.084L85.214,7.996L118.716,27.722L121.476,32.915C126.495,42.366 136.582,48.021 147.716,47.627L149.031,47.58L143.61,26.978C141.96,20.707 139.031,15.603 134.29,10.732L109.311,-14.925C104.005,-20.376 98.018,-23.879 90.5,-25.935L25.686,-43.655L0,-46.549L0,0Z" style="fill:rgb(214,117,69);"/>
            </g>
            <g id="path39" transform="matrix(1.333333,0,0,-1.333333,439.92453,490.70827)">
                <path d="M0,0C127.796,0 231.395,-47.018 231.395,-105.018C231.395,-111.75 229.981,-118.334 227.312,-124.714L-227.313,-124.714C-229.982,-118.334 -231.395,-111.75 -231.395,-105.018C-231.395,-47.018 -127.796,0 0,0" style="fill:rgb(24,150,58);"/>
            </g>
            <g id="path41" transform="matrix(1.333333,0,0,-1.333333,443.23173,880)">
                <path d="M0,0L0,164.59C0,181.513 -6.035,196.078 -18,208.045L-38.819,228.862C-48.786,238.829 -60.299,244.446 -74.287,246.165L-127.696,252.732C-139.737,254.214 -149.894,256.372 -161.496,259.914C-170.455,262.648 -179.071,263.382 -188.693,262.277L-189.401,262.196C-193.872,261.682 -197.352,258.484 -198.244,254.074C-199.135,249.664 -197.169,245.365 -193.248,243.157C-185.091,238.561 -176.733,235.907 -167.537,235.006C-153.85,233.663 -142.383,229.992 -130.46,223.137L-123.215,218.971C-119.547,216.861 -117.737,212.803 -118.619,208.664C-119.5,204.525 -122.808,201.557 -127.017,201.126L-170.645,196.658L-232.376,203.271L-265.879,222.916L-268.638,228.404C-273.659,238.394 -283.744,244 -294.879,242.987L-296.194,242.867L-290.773,220.804C-289.124,214.087 -286.195,208.702 -281.454,203.668L-256.475,177.144C-251.168,171.51 -245.182,168.022 -237.662,166.186L-172.85,150.36L-118.011,145.395C-104.687,144.19 -94.362,133.418 -94.362,120.041L-94.362,0L0,0Z" style="fill:rgb(242,157,114);"/>
            </g>
            <g id="path43" transform="matrix(1.333333,0,0,-1.333333,436.61853,880)">
                <path d="M0,0L0,164.59C0,181.513 6.032,196.078 17.999,208.045L38.818,228.862C48.783,238.829 60.296,244.446 74.286,246.165L127.695,252.732C139.735,254.214 149.892,256.372 161.494,259.914C170.454,262.648 179.07,263.382 188.691,262.277L189.4,262.196C193.872,261.682 197.351,258.484 198.242,254.074C199.134,249.664 197.166,245.365 193.246,243.157C185.089,238.561 176.731,235.907 167.536,235.006C153.848,233.663 142.382,229.992 130.459,223.137L123.214,218.971C119.546,216.861 117.735,212.803 118.617,208.664C119.499,204.525 122.806,201.557 127.016,201.126L170.642,196.658L232.375,203.271L265.879,222.916L268.636,228.404C273.656,238.394 283.743,244 294.878,242.987L296.192,242.867L290.772,220.804C289.121,214.087 286.192,208.702 281.453,203.668L256.474,177.144C251.166,171.51 245.179,168.022 237.661,166.186L172.848,150.36L118.009,145.395C104.684,144.19 94.36,133.418 94.36,120.041L94.36,0L0,0Z" style="fill:rgb(237,142,95);"/>
            </g>
            <g id="path45" transform="matrix(1.333333,0,0,-1.333333,408.75787,509.28907)">
                <path d="M0,0L12.354,12.898C39.83,41.589 32.213,80.604 16.701,101.695C6.391,115.711 6.731,142.209 17.408,155.449C24.474,164.212 25.785,181.281 20.042,192.481C6.535,218.821 17.939,241.884 26.615,264.799C20.624,240.421 14.419,215.165 31.355,196.234C39.393,187.247 45.629,175.256 39.845,158.211C32.061,135.27 41.021,118.03 52.674,107.619C70.903,91.33 76.32,52.513 64.276,24.469L51.382,-5.55L0,0Z" style="fill:rgb(24,150,58);"/>
            </g>
            <g id="path47" transform="matrix(1.333333,0,0,-1.333333,474.47,404.42507)">
                <path d="M0,0C-8.672,19.25 -7.096,42.477 6.156,60.82C19.407,79.163 40.962,87.956 61.962,85.771C70.632,66.521 69.057,43.294 55.807,24.952C42.556,6.609 21,-2.184 0,0" style="fill:rgb(24,150,58);"/>
            </g>
            <g id="path49" transform="matrix(1.333333,0,0,-1.333333,430.23573,328.38613)">
                <path d="M0,0C7.239,16.067 5.924,35.453 -5.136,50.763C-16.196,66.073 -34.187,73.412 -51.714,71.589C-58.952,55.522 -57.637,36.135 -46.577,20.827C-35.518,5.518 -17.526,-1.821 0,0" style="fill:rgb(24,150,58);"/>
            </g>
            <g id="path51" transform="matrix(1.333333,0,0,-1.333333,446.44013,256.9844)">
                <path d="M0,0C13.637,-5.596 29.804,-3.949 42.29,5.728C54.774,15.406 60.401,30.652 58.383,45.252C44.748,50.849 28.579,49.201 16.095,39.524C3.609,29.846 -2.019,14.6 0,0" style="fill:rgb(24,150,58);"/>
            </g>
            <g id="path53" transform="matrix(1.333333,0,0,-1.333333,433.0488,194.45053)">
                <path d="M0,0C12.387,4.098 22.303,14.521 25.116,28.219C27.928,41.917 22.921,55.405 13.152,64.051C0.765,59.954 -9.15,49.529 -11.962,35.832C-14.776,22.134 -9.77,8.647 0,0" style="fill:rgb(24,150,58);"/>
            </g>
            <g id="path55" transform="matrix(1.333333,0,0,-1.333333,447.8828,470.9688)">
                <path d="M0,0C-19.658,-4.562 -41.142,1.22 -55.884,17.045C-70.628,32.869 -74.877,54.71 -68.936,73.995C-49.28,78.557 -27.792,72.775 -13.05,56.95C1.692,41.125 5.94,19.284 0,0" style="fill:rgb(24,150,58);"/>
            </g>
        </g>
    </g>
</svg>
