<?xml version="1.0" encoding="UTF-8" standalone="no"?>
<!DOCTYPE svg PUBLIC "-//W3C//DTD SVG 1.1//EN" "http://www.w3.org/Graphics/SVG/1.1/DTD/svg11.dtd">
<svg width="100%" height="100%" viewBox="0 0 468 479" version="1.1" xmlns="http://www.w3.org/2000/svg" xmlns:xlink="http://www.w3.org/1999/xlink" xml:space="preserve" xmlns:serif="http://www.serif.com/" style="fill-rule:evenodd;clip-rule:evenodd;stroke-linejoin:round;stroke-miterlimit:2;">
    <g>
        <path d="M127.79,288.61C123.76,289.07 120.6,291.18 118.04,294.13C109.31,304.2 110.44,317.3 117.88,326.91C120.34,330.08 123.33,332.71 126.58,335.09C136.27,342.17 146.54,348.26 157.34,353.48C157.97,353.79 158.57,354.16 159.51,354.68C157.54,355.19 155.85,355.11 154.17,355.06C148.1,354.86 142.1,353.96 136.11,353.03C130.61,352.17 125.19,352.22 119.85,354.24C111.38,357.45 108.67,364.83 109.33,371.67C110.09,379.6 114.93,385.04 123,387.35C128.4,388.9 133.89,388.82 139.39,388.14C147.39,387.14 155.4,386.23 163.46,385.88C168.06,385.68 172.25,384.4 176.41,382.21C180.24,380.19 184.19,378.23 188.34,376.81C189.24,376.5 189.77,376.69 190.37,377.38C191.04,378.16 191.83,378.86 192.63,379.51C193.9,380.53 195.2,380.8 196.84,380.08C200.33,378.53 203.92,377.2 207.44,375.72C208.4,375.32 209.17,375.3 210.15,375.73C213,376.97 215.93,378 218.8,379.2C221.03,380.13 222.91,379.68 224.33,377.81C225.03,376.88 225.63,376.92 226.53,377.33C227.83,377.93 229.15,378.49 230.51,378.95C232.11,379.49 233.55,380.07 234.44,381.72C235.05,382.85 236.31,383.44 237.49,383.94C239.24,384.69 241.02,385.4 242.81,386.07C246.12,387.32 249.14,389.09 252.05,391.05C256.39,393.96 261.3,394.82 266.37,394.93C269.56,395 270.96,393.71 271.59,390.49C272.26,387.03 272.36,383.51 272.39,379.99C272.42,377.23 272.4,374.46 272.4,371.45C275.93,372.65 279.19,373.64 282.57,374.15C295.42,376.08 307.22,373.91 317.19,365.02C322.1,360.64 325.05,355.06 326.45,348.64C326.86,345.54 327.31,342.44 327.88,339.36C328.2,337.64 327.12,336.13 327.05,334.47C325.97,329.81 323.35,325.85 321.19,321.69C317.84,315.24 313.73,309.26 309.72,303.21C309.4,302.56 309.2,301.84 308.71,301.28C305.73,298.98 303.66,295.81 300.76,293.39C291.28,285.48 278.4,284.23 267.75,290.5C266.72,291.11 265.59,291.53 264.58,292.16C262.74,295.24 259.55,296.71 256.67,298.42C255.06,299.38 253.31,300.17 251.72,301.22C248.78,303.53 245.32,304.26 241.73,304.81C237.23,305.49 232.72,306.13 228.29,307.13C220.2,308.97 212.14,308.42 204.03,307.37C188.05,305.32 172.03,303.55 156.03,301.73C152.15,301.29 148.24,301.04 144.42,300.17C143.21,300.04 142.39,299.61 142.45,298.15C142.49,297.21 142.05,296.35 141.61,295.52C141.4,295.22 141.13,295.01 140.81,294.86C140.36,294.6 139.83,294.6 139.59,293.91C138.71,291.33 137.63,290.53 134.86,290.94C132.98,291.22 131.66,290.78 130.51,289.36C129.78,288.54 128.94,287.97 127.79,288.61Z" style="fill:rgb(3,3,3);fill-rule:nonzero;"/>
        <path d="M308.63,301.61C308.55,302.32 308.82,302.94 309.15,303.54C312.16,304.47 315.28,304.72 318.35,304.47C320.98,304.25 323.62,304.33 326.24,304.04C327.66,303.88 328.09,304.59 328.2,305.8C328.4,308.04 328.14,310.27 327.96,312.49C327.83,314.11 327.92,315.68 328.22,317.25C330.07,326.68 330.08,326.68 328.24,336.22C327.64,335.41 327.64,334.19 326.44,334.02C326.39,334.66 326.21,335.36 326.57,335.9C327.93,337.97 326.57,340.27 327.16,342.39C325.84,344.35 326.51,346.55 326.41,348.66C327.33,346.75 327.35,344.65 327.68,342.62C327.82,341.72 327.96,340.99 328.77,340.4C330.21,339.34 330.64,337.65 331.05,336.03C331.87,332.78 332.21,329.43 332.55,326.1C332.77,323.93 332.44,321.79 331.66,319.75C330.57,316.92 330.3,314.03 330.74,311.05C331.08,308.75 331.22,306.44 330.78,304.14C330.53,302.83 331.02,302.32 332.24,301.98C336.29,300.87 339.41,298.55 341.11,294.61C341.94,292.7 342.43,290.7 342.73,288.64C343.44,283.61 343.04,278.6 342.47,273.6C341.54,265.36 340.07,257.2 338.17,249.13C337.9,247.98 338.23,247.52 339.12,247.09C342.26,245.56 342.34,245.43 341.24,241.93C337.62,230.46 333.57,219.14 328.56,208.2C327.47,205.81 326.18,203.51 324.9,201.22C321.03,194.32 315.52,189.3 308.22,186.07C300.33,182.59 292.13,180.14 283.84,177.89C282,177.39 280.13,176.97 278.31,176.39C275.9,175.63 274.3,173.85 273.02,171.78C270.73,168.08 269.3,164.03 268.41,159.79C267.92,157.46 267.48,155.1 267.45,152.56C272.43,151.72 275.25,148.57 276.25,143.79C276.94,140.5 276.67,137.22 274.53,134.45C273.83,133.54 273.92,132.77 274.17,131.85C272.26,131.44 270.37,132.02 268.45,131.91C267.82,131.87 267.33,132.41 267.27,133.14C267.52,133.62 268,133.71 268.46,133.84C271.9,134.79 273.61,136.71 273.87,140.24C274.08,143.15 273.16,145.77 271.18,147.94C269.86,149.39 268.16,149.83 266.18,149.66C263.96,149.46 263.42,150.32 264.32,152.32C265.13,154.11 264.98,156.07 265.32,157.94C266.12,162.45 267.33,166.8 269.43,170.89C270.73,173.42 272.32,175.71 274.61,177.38C276.04,178.42 276.08,179.41 275.3,180.82C270.81,188.99 264.05,194.14 254.96,196.21C253.39,196.57 251.78,196.5 250.19,196.24C246.82,195.68 244.98,193.9 244.24,190.55C244.07,189.77 244,188.97 243.8,188.08C243.87,188.22 243.9,188.25 243.9,188.28C244.2,189.49 244.28,191.2 246.04,190.79C247.78,190.39 247.18,188.82 246.9,187.58C246.5,185.79 245.2,183.98 245.65,182.3C246.14,180.48 248.61,180.45 250.1,179.44C255.73,175.65 260.17,170.88 262.93,164.62C263.09,164.25 263.27,163.89 263.36,163.5C263.6,162.51 263.65,161.48 262.57,161.01C261.35,160.48 260.84,161.49 260.46,162.37C258.57,166.69 255.8,170.34 252.35,173.52C248.8,176.8 244.79,179.13 239.89,179.6C234.76,180.08 231.03,177.38 227.76,173.94C222.68,168.6 219.67,162.12 217.97,155.01C217.18,151.67 216.37,148.34 215.67,144.98C215.12,142.33 215.95,141.12 218.66,140.69C219.53,140.55 220.42,140.64 221.29,140.55C222.21,140.45 223.08,140.22 223.13,139.08C223.18,137.99 222.39,137.57 221.51,137.29C219.64,136.68 217.8,137.07 216.16,137.91C214.37,138.83 214.03,138.13 213.83,136.52C213.54,134.15 213.32,131.78 213.24,129.4C212.46,128.97 212.06,129.41 211.77,130.07C211.58,130.51 211.52,131.01 211.29,131.42C210.69,132.48 211.09,134.04 210.18,134.74C209.17,135.52 208.27,133.86 207.14,133.96C206.9,133.98 206.68,134.05 206.5,134.23C206.97,136.12 208.19,137.27 210.06,137.67C211.19,137.91 211.52,138.57 211.74,139.63C213.05,145.95 214.4,152.28 216.13,158.5C218.29,166.3 222.35,172.96 228.5,178.31C231.73,181.12 235.39,182.55 239.7,182.21C240.34,182.16 240.98,182.19 241.62,182.13C242.21,182.08 242.48,182.38 242.67,182.87C242.9,183.47 242.55,183.79 242.1,184C241.02,184.52 239.93,184.99 238.84,185.48C234.1,187.58 229.61,190.14 225.1,192.69C218.03,196.69 213.35,202.54 210.74,210.21C207.78,218.9 205.76,227.84 203.64,236.75C202.88,239.93 202.13,243.11 201.39,246.3C200.68,249.36 200.82,249.71 203.38,251.47C203.84,251.79 204.3,252.1 204.79,252.37C205.35,252.67 205.61,253.08 205.49,253.72C204.81,257.37 204.24,261.05 202.85,264.67C201.65,261.7 200.44,258.72 199.26,255.75C196.99,250.05 194.7,244.36 192.5,238.64C191.16,235.15 188.7,233.62 185.01,233.45C179.19,233.18 173.38,232.65 167.57,232.25C161.68,231.85 155.78,231.5 149.88,231.09C143.83,230.68 137.78,230.23 131.73,229.8C127.03,229.47 122.33,229.12 117.63,228.86C113.94,228.66 112.04,231.42 113.46,234.87C117.54,244.83 121.64,254.78 125.73,264.74C126.5,266.61 126.49,266.61 124.88,267.94C122.4,270 121.97,272.59 123.85,275.08C124.33,275.73 124.54,276.22 124.32,277C123.78,278.94 124.27,280.65 125.84,281.95C126.4,282.42 126.48,282.95 126.51,283.62C126.59,285.09 127.03,286.44 128.26,287.4C129.44,288.32 127.88,288.17 127.8,288.6C128.87,288.52 129.55,289.06 130.16,289.9C131.18,291.32 132.36,292.19 134.35,291.58C135.51,291.23 136.88,291.28 138.03,292.04C138.63,292.44 139.2,292.81 138.96,293.74C138.53,295.4 139.7,295.33 140.78,295.3C140.68,293.6 141.09,292.16 142.14,290.69C143.36,288.98 143.21,286.43 142.98,284.72C142.53,281.45 143.52,277.28 139.5,275.19C139.07,274.97 138.77,274.54 138.64,274.07C137.85,271.12 135.6,269.85 132.89,269.3C130.83,268.88 129.81,267.68 129.07,265.81C124.98,255.49 120.77,245.22 116.55,234.95C115.5,232.39 115.88,231.68 118.61,231.77C124.67,231.98 130.71,232.47 136.76,232.89C142.57,233.29 148.38,233.69 154.19,234.11C162.86,234.73 171.55,235.08 180.21,235.93C181.81,236.09 183.4,235.99 185,236.12C187.37,236.32 189.01,237.41 189.91,239.69C197.97,259.95 206.22,280.14 214.12,300.46C215.21,303.27 214.78,303.74 211.85,303.43C191.84,301.3 171.85,299 151.87,296.67C148.7,296.3 145.5,296.18 142.37,295.5C141.97,295.41 141.58,295.49 141.24,295.76C141.37,296.9 142,297.9 141.85,299.15C141.74,300.03 142.5,300.71 143.59,300.6C144.22,299.46 145.26,299.58 146.32,299.69C157.52,300.8 168.69,302.25 179.88,303.44C190.44,304.56 200.97,305.94 211.53,306.98C216.51,307.47 221.41,306.69 226.29,305.85C234.71,304.39 243.17,303.23 251.55,301.54C251.87,301.48 252.18,301.46 252.5,301.55C253.76,300.5 255.04,299.53 256.73,299.16C258.15,298.85 259.09,297.62 260.26,296.83C261.04,296.3 261.75,295.66 262.64,295.3C264,294.76 264.56,293.74 264.54,292.33C262.87,290.46 260.61,290.49 258.65,291.17C253.37,293 248.51,292.35 243.66,289.8C240.49,288.14 237.33,288.84 234.3,290.55C231.39,292.19 228.93,294.59 225.67,295.62C225.65,297.59 226.68,298.32 228.43,297.24C230.21,296.14 231.93,296.02 233.91,296.36C235.68,296.66 237.09,297.31 238.05,298.85C240.63,299.73 243.07,298.79 245.53,298.23C246.29,298.06 246.72,297.44 246.65,296.6C246.58,295.75 245.98,295.37 245.26,295.15C243.18,294.54 241.01,294.51 238.88,294.21C237.94,294.08 236.97,294.12 236.04,293.85C238.33,292.11 239.76,291.89 242.26,292.89C243.3,293.3 244.28,293.85 245.31,294.27C249.52,295.99 253.78,296.5 258.14,294.86C258.74,294.64 259.35,294.44 259.99,294.36C260.22,294.33 260.46,294.31 260.74,294.59C258.87,296.07 256.98,297.29 254.51,297.69C243.25,299.53 232,301.43 220.72,303.21C220.18,303.3 219.63,303.48 218.96,303.19C219.62,302.33 221.06,302.88 221.46,301.75C220.81,300.6 219.54,300.76 218.53,300.43C216.87,299.89 216.15,298.7 215.83,297.1C215.51,295.45 216.42,294.58 217.75,293.95C218.74,292.7 219.65,291.38 220.57,290.08C223.73,285.63 227.81,282.52 233.1,280.95C234.41,280.56 236.65,280.31 235.82,278.19C235.09,276.32 233.34,277.57 232.04,277.9C225.47,279.55 220.83,283.74 217.11,289.18C216.58,289.95 216.03,291.58 214.99,290.85C214.1,290.22 215.36,289.03 215.88,288.2C218.84,283.39 222.54,279.43 228.18,277.75C229.01,277.5 229.84,277.15 230.58,276.67C231.28,276.22 231.93,275.68 231.55,274.73C231.2,273.86 230.4,273.68 229.55,273.78C228.49,273.9 227.63,274.55 226.65,274.88C221.1,276.72 216.87,280.16 213.89,285.18C213.68,285.54 213.52,286.07 212.66,286.1C214.81,282.46 216.99,279.1 220.54,276.88C221.22,276.46 221.95,276.13 222.66,275.76C228.5,272.67 234.41,271.67 240.82,274.29C244.8,275.92 249.01,276.99 253.16,278.16C257.1,279.26 261.02,279.69 265.21,279.36C271.01,278.91 276.84,278.75 282.64,278.25C289.96,277.62 297.24,276.72 304.56,276.11C308.79,275.76 313.01,275.71 317.24,275.88C317.64,275.9 318.04,275.95 318.43,275.98C319.4,276.05 320.25,275.8 320.44,274.73C320.63,273.64 319.85,273.08 318.95,272.88C317,272.46 315.02,272.01 313.02,272.15C310.99,272.29 309.92,271.51 309.45,269.51C308.76,266.56 307.8,263.67 307.01,260.74C306.4,258.48 306.59,258.14 308.98,257.74C317.46,256.32 325.62,253.87 333.53,250.52C334.99,249.9 335.74,250.14 336.08,251.76C338.56,263.58 340.77,275.42 340.12,287.59C339.76,294.25 336.2,298.39 329.73,299.88C323.89,301.22 317.97,300.81 312.07,300.9C310.87,300.93 309.6,300.6 308.63,301.61Z" style="fill:rgb(16,15,15);fill-rule:nonzero;"/>
        <path d="M267.38,133.23C267.75,132.49 268.47,132.06 269.14,132.36C270.95,133.15 272.52,132.31 274.15,131.86C275.62,128.97 276.13,125.97 274.87,122.91C274.49,122 274.92,121.61 275.31,121.04C276.7,119.02 277.12,116.83 276.51,114.44C276.05,112.64 275,111.26 273.39,110.4C272.38,109.87 272.12,109.29 272.31,108.16C273.26,102.48 269.24,98.6 265.43,97.6C264.32,97.31 263.2,97.23 262.11,97.45C260.9,97.7 260.47,97.32 260.11,96.15C259.1,92.88 256.81,90.77 253.59,89.68C250.48,88.62 247.63,89.31 244.97,91.09C244.52,91.39 244.08,91.71 243.57,92.06C241.4,89.58 238.74,88.08 235.54,87.62C230.28,86.85 224.44,89.33 221.74,94.59C221.49,95.09 221.19,95.57 221,96.09C220.75,96.75 220.46,96.91 219.76,96.6C218.44,96.01 217.02,95.83 215.57,95.8C209.31,95.67 205.9,101.06 206.24,105.66C206.27,106.13 206.35,106.61 206.43,107.25C203.54,108 201.19,109.44 200.22,112.48C199.25,115.53 200.21,118.1 202.15,120.43C201.61,121.39 200.91,122.15 200.51,123.12C198.88,127.09 200.55,131.23 204.55,132.71C205.44,133.04 206.13,133.36 206.49,134.24C207.59,134.33 208.33,135.1 209.22,135.61C210.52,136.35 211.28,136.02 211.18,134.52C211.06,132.82 212.33,131.59 212.34,129.98C212.34,129.55 212.9,129.5 213.31,129.53C215.26,130.25 216.34,128.81 217.3,127.66C218.3,126.47 219.11,126.07 220.73,126.46C225.01,127.5 228.59,125.82 231.29,121.68C231.97,120.64 232.46,120.1 233.7,120.91C237.58,123.45 241.39,123.03 245.12,120.51C245.38,120.34 245.62,120.11 246.01,120.24C246.48,120.62 246.46,121.22 246.55,121.74C247.05,124.73 248.63,127 251.43,128.09C254.79,129.4 256.12,131.96 256.61,135.23C256.81,136.57 256.99,137.92 257.39,139.22C257.84,140.68 258.67,141.84 260.37,141.89C261.99,141.94 262.99,140.92 263.25,139.5C263.76,136.79 265.91,135.26 267.38,133.23Z" style="fill:rgb(3,3,3);fill-rule:nonzero;"/>
        <path d="M140.28,166.56C140.09,165.54 139.97,164.26 139.58,163.05C139.25,162.03 139.56,161.39 140.28,160.75C141.11,160 141.89,159.2 142.68,158.4C143.12,157.95 143.75,157.5 143.5,156.8C143.22,156.04 142.42,155.95 141.7,155.88C140.75,155.79 139.79,155.73 138.84,155.64C137.8,155.54 137.11,155.09 136.74,154.02C136.35,152.9 135.81,151.81 135.23,150.78C134.41,149.32 133.66,149.33 132.91,150.78C132.36,151.84 131.87,152.94 131.46,154.06C131.12,154.99 130.55,155.48 129.56,155.58C128.37,155.7 127.17,155.82 126.02,156.09C124.19,156.52 124.02,157.13 125.3,158.44C126.14,159.29 127.02,160.11 127.92,160.89C128.6,161.48 128.79,162.11 128.54,163C128.21,164.23 127.96,165.49 127.82,166.75C127.67,168.15 128.27,168.6 129.48,168.02C131.05,167.26 132.48,165.66 134.1,165.73C135.6,165.79 137.03,167.2 138.53,167.94C139.8,168.57 140.27,168.22 140.28,166.56Z" style="fill:rgb(19,18,18);fill-rule:nonzero;"/>
        <path d="M153.86,139.51C153.98,140.03 154.27,140.35 154.79,140.47C155.8,140.7 156.79,140.99 157.8,141.2C160.02,141.67 161.22,143.07 161.62,145.25C161.82,146.35 162.09,147.43 162.31,148.52C162.43,149.12 162.69,149.6 163.39,149.55C163.95,149.5 164.15,149.06 164.27,148.57C164.54,147.41 164.88,146.26 165.11,145.09C165.54,142.88 166.93,141.62 169.02,141.05C169.86,140.82 170.72,140.63 171.57,140.47C172.18,140.36 172.68,140.1 172.73,139.47C172.8,138.76 172.22,138.61 171.64,138.48C170.63,138.25 169.65,137.93 168.64,137.71C166.71,137.29 165.6,136.08 165.18,134.2C164.89,132.88 164.6,131.56 164.33,130.23C164.22,129.68 164.2,129.02 163.47,129.01C162.63,128.99 162.52,129.69 162.38,130.33C162.09,131.65 161.76,132.96 161.49,134.29C161.11,136.12 160,137.22 158.19,137.66C157.03,137.94 155.89,138.27 154.73,138.54C154.18,138.66 153.93,138.99 153.86,139.51Z" style="fill:rgb(19,18,18);fill-rule:nonzero;"/>
        <path d="M176.97,186.42C175.55,183.99 177.04,182.3 178.97,180.61C180.01,179.7 179.71,178.81 178.3,178.74C175.63,178.61 173.95,177.64 173.2,174.88C172.79,173.35 171.44,173.31 170.94,174.79C170.07,177.34 168.67,178.69 165.84,178.72C164.39,178.74 164.2,179.71 165.17,180.84C165.22,180.9 165.27,180.98 165.33,181.02C167.53,182.3 168.01,184.13 167.18,186.46C166.98,187.03 166.84,187.78 167.47,188.23C168.09,188.68 168.68,188.32 169.23,187.96C169.3,187.92 169.38,187.9 169.44,187.85C171.13,186.38 172.83,186.43 174.56,187.79C174.68,187.89 174.85,187.93 174.99,187.99C176.47,188.67 177.1,188.26 176.97,186.42Z" style="fill:rgb(20,19,19);fill-rule:nonzero;"/>
        <path d="M145.7,207.91C146.3,207.87 146.79,207.46 146.81,206.91C146.91,203.58 148.62,201.86 151.88,201.49C152.34,201.44 152.74,201.04 152.69,200.46C152.64,199.9 152.19,199.67 151.73,199.53C151.43,199.44 151.1,199.47 150.78,199.41C148.58,199 147.25,197.76 146.97,195.47C146.86,194.55 146.93,193.26 145.76,193.17C144.39,193.07 144.6,194.48 144.49,195.33C144.19,197.71 142.97,199.08 140.55,199.32C140.24,199.35 139.91,199.39 139.62,199.5C139.15,199.68 138.8,200 138.77,200.55C138.75,201.13 139.19,201.37 139.63,201.56C139.92,201.68 140.23,201.81 140.54,201.82C143.24,201.9 144.23,203.61 144.58,205.96C144.64,206.35 144.67,206.75 144.79,207.13C144.9,207.51 145.37,207.87 145.7,207.91Z" style="fill:rgb(20,19,19);fill-rule:nonzero;"/>
        <path d="M138.73,127.95C140.15,127.93 141.27,126.72 141.19,125.3C141.11,123.99 139.98,122.84 138.76,122.81C137.41,122.78 136.19,123.99 136.16,125.4C136.12,126.79 137.32,127.97 138.73,127.95Z" style="fill:rgb(26,25,25);fill-rule:nonzero;"/>
        <path d="M121.16,188.91C122.64,188.95 123.83,187.82 123.79,186.41C123.75,185.11 122.6,183.95 121.33,183.92C119.93,183.89 118.72,185.08 118.72,186.49C118.72,187.84 119.76,188.87 121.16,188.91Z" style="fill:rgb(27,26,25);fill-rule:nonzero;"/>
        <path d="M182.83,156.67C183.78,156.68 184.79,155.64 184.79,154.64C184.79,153.63 184,152.86 182.96,152.85C181.78,152.83 181.02,153.61 181.05,154.79C181.08,155.79 181.89,156.66 182.83,156.67Z" style="fill:rgb(36,36,36);fill-rule:nonzero;"/>
        <path d="M151.48,172.97C151.53,173.96 152.59,174.93 153.54,174.86C154.52,174.78 155.38,173.73 155.29,172.7C155.21,171.69 154.43,171 153.38,171.01C152.28,171.01 151.43,171.89 151.48,172.97Z" style="fill:rgb(33,32,32);fill-rule:nonzero;"/>
        <path d="M141.24,295.77C143.83,297.04 146.69,296.86 149.43,297.17C156.24,297.93 163.06,298.72 169.86,299.54C174.85,300.14 179.85,300.6 184.84,301.16C191.17,301.88 197.5,302.65 203.83,303.38C206.92,303.74 210.01,304.08 213.1,304.38C215.41,304.61 216.18,303.56 215.31,301.36C213.08,295.73 210.81,290.11 208.56,284.49C202.58,269.54 196.55,254.62 190.66,239.64C189.57,236.88 187.84,235.59 184.97,235.44C179.55,235.15 174.13,234.77 168.72,234.4C160.28,233.83 151.83,233.24 143.39,232.68C137.58,232.29 131.76,231.92 125.94,231.55C123.15,231.37 120.36,231.29 117.58,230.98C115.54,230.75 114.51,232.09 115.35,234.12C120.02,245.38 124.61,256.67 129.2,267.96C129.59,268.91 130.03,269.48 131.19,269.64C132.43,269.8 133.68,270.15 134.86,270.68C136.64,271.49 138.07,272.53 137.92,274.74C137.87,275.48 138.26,275.58 138.83,275.83C141.7,277.07 142.09,277.86 141.41,280.99C141.28,281.57 141.47,281.86 141.79,282.23C142.97,283.56 143.02,284.97 141.9,286.32C141.46,286.85 141.53,287.24 141.8,287.77C142.53,289.22 141.93,290.39 140.89,291.41C139.5,292.77 139.48,292.76 140.33,294.5C140.47,294.78 140.61,295.06 140.75,295.35C141.03,295.36 141.18,295.52 141.24,295.77Z" style="fill:rgb(255,255,253);fill-rule:nonzero;"/>
        <path d="M225.68,295.73C227.06,296.15 228.15,295.55 229.22,294.78C231.15,293.37 233.06,291.96 235.19,290.84C238.16,289.28 241.07,289.14 244.07,290.72C246.69,292.11 249.43,293.13 252.47,293.08C253.99,293.06 255.55,293.05 256.92,292.4C259.48,291.19 261.99,291.44 264.53,292.34C265.68,292.63 266.5,291.91 267.38,291.41C272.18,288.69 277.25,287.04 282.84,287.18C288.5,287.32 293.63,289.01 298.22,292.32C301.21,294.48 303.89,296.99 306.14,299.91C306.81,300.77 307.53,301.42 308.62,301.6C311.81,301.62 315.01,301.65 318.2,301.65C321.88,301.66 325.52,301.37 329.14,300.68C337.22,299.12 339.96,295.02 340.75,287.38C341.3,282.11 340.88,276.84 340.17,271.61C339.21,264.5 338.04,257.41 336.42,250.41C336.3,249.87 336.26,249.29 335.74,248.88C326.18,253.11 316.23,256.12 305.97,257.55C305.6,257.77 305.63,258.04 305.69,258.24C306.95,262.77 308.24,267.28 309.47,271.82C309.71,272.72 310.19,272.95 311.01,272.89C313.25,272.74 315.48,272.99 317.7,273.27C318.02,273.31 318.35,273.29 318.65,273.37C319.39,273.56 320.45,273.58 320.21,274.72C319.99,275.83 319.1,275.51 318.28,275.37C313.98,274.66 309.67,274.96 305.37,275.33C299.89,275.8 294.43,276.49 288.95,277.02C280.61,277.82 272.25,278.41 263.88,278.81C259.89,279 256.13,278.37 252.36,277.25C246.64,275.55 241,273.58 235.2,272.15C233.35,271.69 231.58,271.69 229.8,272.32C228.15,272.9 226.54,273.65 224.86,274.11C218.76,275.81 215.27,280.42 212.09,285.38C211.4,286.46 211.46,286.5 212.58,288.16C213.57,286.76 214.56,285.43 215.47,284.04C217.81,280.47 220.82,277.76 224.92,276.31C226.49,275.76 227.97,274.94 229.51,274.3C230.1,274.06 230.84,273.89 231.19,274.65C231.62,275.57 230.91,275.88 230.2,276.19C228.15,277.08 226.14,278.04 224.08,278.89C222.03,279.74 220.42,281.09 219.01,282.78C217.21,284.93 215.7,287.28 214.16,289.6C214.03,289.8 213.91,290.01 213.8,290.22C213.31,291.13 213.78,291.79 214.47,292.26C215.17,292.73 215.65,292.2 216.05,291.66C217.66,289.48 219.34,287.36 221.05,285.26C223.19,282.63 225.77,280.8 228.98,279.76C230.64,279.22 232.27,278.59 233.91,277.97C234.6,277.71 235.2,277.72 235.52,278.45C235.9,279.31 235.16,279.62 234.59,279.82C232.41,280.58 230.24,281.34 228.11,282.25C226.54,282.92 225.2,283.81 224.01,285.05C222.07,287.07 220.32,289.24 218.65,291.49C218.13,292.19 217.6,292.91 217.6,293.85C218.47,295.47 219.62,294.71 220.55,294.05C221.96,293.03 223.46,292.02 224.56,290.69C228,286.53 233.2,285.99 237.69,283.97C237.46,284.91 236.64,285.02 235.99,285.3C232.09,286.96 228.94,289.59 226.28,292.82C225.68,293.55 224.24,294.42 225.68,295.73Z" style="fill:rgb(254,253,252);fill-rule:nonzero;"/>
        <path d="M171.68,381.73C169.14,381.76 167.13,380.12 164.71,379.92C164.12,379.87 163.7,379.43 163.82,378.73C163.93,378.05 164.41,377.82 165.04,377.87C165.51,377.91 165.98,378.05 166.45,378.12C168.4,378.39 169.81,377.73 170.43,375.88C171.71,372.02 171.5,368.16 169.69,364.5C168.84,362.79 167.57,362.39 165.66,362.95C164.9,363.17 164.2,363.6 163.37,363.49C162.92,363.44 162.66,363.12 162.57,362.72C162.49,362.4 162.67,362.09 162.93,361.89C163.12,361.75 163.33,361.58 163.55,361.55C166.22,361.15 167.09,358.92 168.43,356.84C166,356.84 163.71,356.66 161.47,356.88C156.18,357.39 150.95,356.91 145.71,356.37C143.1,356.1 140.51,355.58 137.9,355.32C131.83,354.7 126.26,356.07 121.75,360.3C115.93,365.76 116.09,375.16 121.96,380.58C126.55,384.82 132.12,386.45 138.24,386.09C142.29,385.85 146.33,385.3 150.37,384.87C154.1,384.47 157.83,384.21 161.58,383.99C164.67,383.81 167.8,383.77 170.76,382.64C171.11,382.5 171.54,382.5 171.68,381.73Z" style="fill:rgb(254,253,253);fill-rule:nonzero;"/>
        <path d="M259.11,391.58C255.22,389.29 252.31,386.25 250.8,381.99C248.17,374.62 249.99,364.37 260.09,360.12C260.61,359.9 261.27,359.85 261.14,359.1C261.02,358.37 260.47,358.08 259.74,358.12C257.89,358.23 256.07,358 254.28,357.6C253.53,357.43 252.89,357.67 252.21,357.95C248.02,359.68 243.74,361.22 239.62,363.11C236.11,364.71 233.68,367.29 233.68,371.54C233.68,374.04 233.82,376.48 234.91,378.78C235.65,380.36 236.72,381.6 238.42,382.17C244.27,384.14 249.67,387 254.85,390.34C256.08,391.13 257.48,391.76 259.11,391.58Z" style="fill:rgb(252,251,251);fill-rule:nonzero;"/>
        <path d="M326.44,334.02C327.29,335.09 327.4,336.5 328.11,337.72C329.19,336.11 329.38,334.27 329.7,332.49C330.03,330.61 330.22,328.71 330.5,326.82C330.79,324.89 330.65,322.93 329.96,321.17C328.43,317.25 328.33,313.26 328.89,309.2C329.12,307.52 328.83,305.87 328.8,304.2C328.79,303.25 328.41,302.92 327.49,303.07C321.39,304.01 315.26,303.73 309.14,303.54C309.32,304.35 309.91,304.92 310.38,305.56C316.46,313.91 321.4,322.92 325.83,332.22C326.1,332.78 326.24,333.41 326.44,334.02Z" style="fill:rgb(254,254,253);fill-rule:nonzero;"/>
        <path d="M252.51,301.56C252,300.34 251,301.08 250.33,301.17C247.18,301.6 244.06,302.21 240.92,302.72C233.62,303.93 226.33,305.16 219.02,306.3C216.25,306.73 213.44,306.51 210.66,306.21C203.85,305.48 197.05,304.69 190.25,303.9C182.5,303 174.76,302.06 167.01,301.19C160.52,300.46 154.03,299.77 147.54,299.11C146.13,298.97 144.73,298.46 143.3,298.77C142.92,299.48 143.48,300.01 143.58,300.61C144.7,301.31 146.01,301.35 147.25,301.5C155.47,302.49 163.69,303.44 171.91,304.38C180.93,305.41 189.95,306.39 198.97,307.43C203.63,307.97 208.29,308.55 212.95,309.17C217.62,309.79 222.16,308.89 226.71,308.14C232.75,307.14 238.77,305.97 244.82,305.04C246.93,304.72 248.81,304.12 250.49,302.81C251.12,302.33 251.84,301.97 252.51,301.56Z" style="fill:rgb(250,249,249);fill-rule:nonzero;"/>
        <path d="M187.96,374.76C185.78,371.84 184,368.85 182.76,365.56C181.77,362.95 180.96,360.3 180.57,357.52C180.36,356.01 180.32,355.96 178.98,356.45C176.21,357.47 173.42,358.35 170.46,358.61C169.25,358.72 169.06,359.74 168.43,360.65C172.11,362.57 172.8,366.07 173.15,369.66C173.49,373.2 173.06,376.61 170.3,379.62C173.78,379.97 176.85,380.13 179.79,378.43C182.31,376.97 185.04,375.86 187.96,374.76Z" style="fill:rgb(253,253,252);fill-rule:nonzero;"/>
        <path d="M263.02,392.62C263.59,392.9 264.46,392.97 265.34,392.97C268.8,392.98 269.32,392.49 269.81,389.13C270.18,386.6 270.34,384.05 270.35,381.5C270.38,374.56 270.66,367.61 269.82,360.69C269.54,358.38 269.32,358.15 267.02,358.1C265.75,358.08 264.49,358.1 263.27,358.1C264.12,369.69 264.39,381.1 263.02,392.62Z" style="fill:rgb(252,251,250);fill-rule:nonzero;"/>
        <path d="M201.87,335.42C197.26,338.7 192.43,341.66 187.69,344.76C186.35,345.63 185.04,346.54 183.72,347.43C183.59,347.52 183.44,347.58 183.31,347.68C182.77,348.12 181.94,348.55 182.54,349.38C183.03,350.06 183.68,349.59 184.23,349.25C184.5,349.08 184.76,348.89 185.03,348.72C203.33,336.9 221.22,324.47 239.31,312.34C239.77,312.03 240.22,311.7 240.68,311.38C241.21,311.02 241.92,310.63 241.52,309.9C241.08,309.09 240.4,309.64 239.88,309.94C238.92,310.5 237.97,311.1 237.05,311.73C226.61,318.8 216.18,325.9 205.73,332.96C203.45,334.5 204.32,334.54 201.9,332.88C190.52,325.07 179.29,317.02 167.21,310.29C165.19,309.17 163.09,308.19 161.04,307.13C160.5,306.85 159.94,306.62 159.57,307.23C159.13,307.96 159.66,308.4 160.25,308.75C160.52,308.91 160.8,309.08 161.08,309.22C171.28,314.07 180.5,320.51 189.85,326.75C193.43,329.14 196.94,331.65 200.49,334.1C200.99,334.45 201.6,334.71 201.87,335.42Z" style="fill:rgb(249,249,249);fill-rule:nonzero;"/>
        <path d="M261.58,361.63C256.53,363.74 253.23,366.95 252.2,372.02C250.85,378.64 252.91,384.74 258.03,388.34C258.81,388.89 259.64,389.35 260.49,389.78C261,390.04 261.41,389.86 261.51,389.23C261.56,388.92 261.6,388.6 261.62,388.28C262.1,379.53 262.02,370.78 261.58,361.63Z" style="fill:rgb(252,251,251);fill-rule:nonzero;"/>
        <path d="M124.69,385.32C118.8,381.69 115.21,376.69 115.51,369.6C115.81,362.65 119.62,357.94 125.84,355.01C116.41,356.04 111.15,361.57 111.22,370.17C111.27,377.96 117.1,384.6 124.69,385.32Z" style="fill:rgb(249,248,248);fill-rule:nonzero;"/>
        <path d="M288.81,335.61C287.86,335.63 287.26,336.34 286.61,336.89C282.02,340.76 277.03,344.06 271.87,347.1C268.09,349.33 264.14,351.22 260.19,353.12C259.46,353.47 258.1,353.69 258.49,354.73C259.01,356.08 260.16,355.09 260.92,354.75C270.88,350.3 280.11,344.68 288.46,337.64C288.82,337.34 289.23,337.03 289.44,336.63C289.72,336.11 289.41,335.74 288.81,335.61Z" style="fill:rgb(246,246,246);fill-rule:nonzero;"/>
        <path d="M233.14,365.55C230.29,366.7 227.96,367.67 225.6,368.56C224.85,368.84 224.76,369.39 224.54,369.99C223.16,373.84 223.14,373.85 226.76,375.38C228.43,376.09 230.13,376.71 232.13,377.5C231.51,373.44 231.27,369.67 233.14,365.55Z" style="fill:rgb(249,248,248);fill-rule:nonzero;"/>
        <path d="M241.46,186.75C240.64,186.68 240.17,187 239.68,187.24C234.78,189.57 230.04,192.18 225.36,194.93C219.55,198.35 215.55,203.21 213.18,209.5C210.52,216.53 208.82,223.83 207.05,231.1C205.78,236.29 204.62,241.5 203.41,246.7C202.95,248.66 202.91,248.7 204.61,249.79C209.76,253.08 215.36,255.27 221.34,256.53C223.06,256.89 224.8,257.07 226.68,257.24C226.88,255.19 226.31,253.27 225.97,251.36C224.59,243.67 223.14,235.99 221.72,228.31C221.68,228.07 221.58,227.85 221.56,227.61C221.5,227.01 221.6,226.47 222.31,226.33C223.01,226.2 223.32,226.69 223.52,227.24C223.65,227.61 223.7,228.01 223.78,228.41C226.19,241.43 228.82,254.41 230.55,267.55C230.59,267.87 230.68,268.18 230.71,268.49C230.81,269.47 231.04,270.06 232.32,269.9C234.83,269.58 237.19,270.48 239.56,271.18C245.28,272.88 251,274.56 256.7,276.29C258.03,276.69 259.37,276.76 260.72,276.77C268.79,276.8 276.83,276.14 284.85,275.33C292.15,274.59 299.46,273.94 306.77,273.24C307.01,273.22 307.24,273.15 307.64,273.06C306.64,269.44 305.66,265.84 304.66,262.24C304.49,261.63 304.3,261.02 304.12,260.41C303.5,258.21 303.5,258.18 301.26,257.98C299.96,257.86 299.3,257.26 299.02,255.95C297.8,250.1 296.48,244.26 295.24,238.41C294.68,235.76 294.23,233.08 293.74,230.42C293.67,230.03 293.59,229.63 293.54,229.24C293.46,228.6 293.7,228.1 294.36,227.99C295.05,227.88 295.33,228.41 295.53,228.95C295.64,229.24 295.63,229.58 295.69,229.89C297.18,237.8 298.8,245.69 300.56,253.55C300.63,253.86 300.73,254.16 300.81,254.47C301.25,256.11 301.28,256.14 302.85,255.95C313.27,254.69 323.3,252.01 332.95,247.88C335,247 336.99,246.01 338.95,244.94C339.68,244.54 339.91,244.11 339.61,243.21C335.28,230.37 331.01,217.51 324.85,205.39C322.86,201.47 320.55,197.75 317.39,194.61C314.69,191.92 311.55,189.97 308.12,188.36C300.09,184.58 291.64,182.03 283.08,179.79C281.85,179.47 280.49,178.72 279.42,179.02C278.27,179.34 278.26,181.12 277.65,182.21C272.73,190.95 265.51,196.68 255.64,198.8C253.24,199.32 250.72,199.33 248.29,198.57C244.2,197.31 241.77,194.29 241.5,190.01C241.4,188.92 241.46,187.82 241.46,186.75Z" style="fill:rgb(254,253,253);fill-rule:nonzero;"/>
        <path d="M267.38,133.23C264.76,134.27 263.4,136.28 262.85,138.96C262.64,139.96 262.44,141.04 261.22,141.39C259.79,141.8 258.58,141.18 258.07,139.58C257.71,138.45 257.55,137.25 257.33,136.08C257.14,135.06 257.06,134.01 256.79,133.02C256.23,130.97 255.38,129.1 253.15,128.32C248.82,126.8 246.93,123.61 246.85,119.16C246.85,119.01 246.78,118.85 246.67,118.44C241.94,122.92 237.05,123.32 232.14,119C231.46,119.57 231.41,120.35 231.09,120.98C229.22,124.63 224.66,127.42 219.76,125.55C218.6,125.11 218.14,125.26 217.54,126.31C216.62,127.93 215.25,129.15 213.31,129.52C212.47,129.92 212.61,130.68 212.65,131.39C212.82,134.16 213.3,136.88 213.85,139.76C215.36,138.9 216.71,138.07 218.31,137.81C219.42,137.63 220.52,137.56 221.62,137.9C222.24,138.09 222.92,138.21 222.82,139.09C222.72,139.95 222.08,139.99 221.4,139.96C220.6,139.92 219.81,139.9 219.01,139.9C217.39,139.91 216.18,140.83 214.97,141.75C214.41,142.18 214.43,142.69 214.58,143.24C216.64,150.91 217.53,158.93 221.39,166.07C223.66,170.26 226.55,173.93 230.19,177C234.26,180.44 238.84,181.23 243.83,179.43C251.8,176.55 257.07,170.82 260.65,163.34C260.89,162.84 261.05,162.29 261.33,161.82C261.57,161.43 261.91,161.02 262.49,161.31C262.97,161.55 263.23,161.95 263.07,162.48C262.86,163.16 262.63,163.85 262.32,164.49C258.57,172.38 252.87,178.22 244.43,181.42C245.07,183.61 245.7,185.79 246.34,187.98C246.47,188.44 246.63,188.89 246.7,189.36C246.8,190.03 246.45,190.45 245.81,190.54C245.25,190.62 244.97,190.23 244.8,189.74C244.41,188.65 244.3,187.46 243.46,186.14C243.46,187.65 243.34,188.82 243.48,189.96C244.01,194.33 246.73,196.8 251.12,197.05C254.3,197.23 257.31,196.57 260.19,195.32C267.51,192.16 273.01,187.09 276.43,179.84C276.96,178.73 276.99,178.07 275.71,177.43C273.26,176.2 271.72,174.02 270.46,171.68C267.51,166.19 265.98,160.28 265.47,154.09C265.39,153.17 265.57,152.25 264.44,151.67C263.82,151.35 264.11,150.41 264.82,150.26C265.2,150.18 265.62,150.19 266,150.28C268.7,150.86 270.69,149.64 272.23,147.64C274.59,144.58 275.15,141.11 273.84,137.47C272.79,134.49 270.57,133.07 267.38,133.23Z" style="fill:rgb(254,253,253);fill-rule:nonzero;"/>
        <path d="M207.54,254.13C206.6,258.59 206,263.17 204.57,267.55C204.33,268.29 204.54,268.95 204.82,269.63C206.7,274.27 208.57,278.91 210.5,283.72C211.73,282.15 212.91,280.68 214.06,279.19C216.2,276.42 218.79,274.28 222.12,273.08C223.98,272.41 225.78,271.55 227.63,270.85C228.52,270.51 228.82,270.06 228.65,269.07C228.18,266.25 227.82,263.4 227.46,260.56C227.35,259.7 226.97,259.37 226.09,259.28C223,258.96 219.97,258.33 216.97,257.52C214.36,256.81 211.81,255.96 209.39,254.73C208.86,254.44 208.34,253.99 207.54,254.13Z" style="fill:rgb(253,253,252);fill-rule:nonzero;"/>
        <path d="M225.68,295.73C225.19,294.81 225.82,294.22 226.33,293.64C229.51,290.03 232.94,286.76 237.67,285.25C237.97,285.15 238.25,285 238.54,284.87C239.13,284.59 239.41,284.15 239.06,283.54C238.81,283.09 238.41,282.85 237.87,283.11C233.88,284.97 229.32,285.62 225.85,288.61C224.04,290.17 222.31,291.81 220.54,293.41C219.66,294.2 218.74,294.78 217.6,293.86C215.44,294.11 215.11,294.45 215.08,296.44C215.04,299.02 216.22,300.49 218.79,301.16C219.64,301.38 220.48,301.61 221.36,301.61C222.07,302.31 222.96,302.22 223.83,302.09C228.07,301.44 232.28,300.65 236.5,299.88C237.17,299.76 237.97,299.72 238.14,298.79C238.19,297.26 237.39,296.44 235.95,296.17C234.49,295.89 233.03,295.57 231.55,295.36C230.28,295.18 229.32,295.88 228.35,296.64C227.01,297.71 226.4,297.46 225.68,295.73Z" style="fill:rgb(3,3,3);fill-rule:nonzero;"/>
        <path d="M238.16,298.78C232.6,299.93 227.03,300.96 221.39,301.6C220.87,302.1 220.2,301.98 219.58,302.05C217.89,302.24 217.89,302.23 217.55,304.42C219.94,304.06 222.27,303.74 224.59,303.36C232.21,302.13 239.83,300.88 247.45,299.63C250.36,299.15 253.26,298.68 256.16,298.18C256.54,298.11 256.94,297.98 257.26,297.77C259.06,296.62 260.83,295.44 262.76,294.17C261.18,293.38 259.87,293.39 258.48,293.98C254.19,295.81 249.93,295.5 245.71,293.72C244.68,293.29 243.64,292.87 242.65,292.37C240.37,291.21 238.19,291.42 236.07,292.73C235.36,293.17 234.5,293.42 233.81,294.31C236.83,294.67 239.65,295 242.46,295.35C243.49,295.48 244.51,295.63 245.54,295.79C246.07,295.87 246.41,296.19 246.38,296.76C246.35,297.3 246.01,297.64 245.48,297.72C243.03,298.05 240.64,298.71 238.16,298.78Z" style="fill:rgb(249,248,248);fill-rule:nonzero;"/>
        <path d="M126.45,276.87C126.2,279.95 126.63,280.54 129.1,281.19C130.6,281.59 132.12,281.46 133.63,281.38C135.22,281.29 136.8,281.01 138.37,280.73C139.1,280.6 139.76,280.21 139.78,279.33C139.8,278.47 139.16,278.13 138.46,277.83C137.85,277.57 137.21,277.55 136.58,277.55C133.24,277.5 129.88,277.95 126.45,276.87Z" style="fill:rgb(248,247,247);fill-rule:nonzero;"/>
        <path d="M127.2,268.96C126.4,269.19 125.98,269.69 125.56,270.16C124.34,271.53 124.47,273.35 126.05,274.24C128.96,275.88 132.11,276.01 135.3,275.2C136.03,275.02 136.07,274.47 135.76,273.89C135.4,273.22 134.77,272.85 134.08,272.62C132.87,272.23 131.66,271.71 130.42,271.58C128.7,271.4 127.42,270.88 127.2,268.96Z" style="fill:rgb(246,245,245);fill-rule:nonzero;"/>
        <path d="M128.79,283.39C129.04,285.58 129.77,286.44 131.81,286.67C134.47,286.98 137,286.24 139.49,285.44C140.02,285.27 140.6,284.97 140.55,284.32C140.5,283.53 139.93,283.04 139.19,282.86C138.74,282.76 138.23,282.77 137.77,282.86C134.81,283.5 131.81,283.54 128.79,283.39Z" style="fill:rgb(245,244,244);fill-rule:nonzero;"/>
        <path d="M131.86,288.88C132.28,290.55 133.19,291.04 134.42,291.13C136.13,291.26 137.76,291.03 139.23,290.08C139.79,289.72 140.25,289.31 139.93,288.53C139.61,287.74 139.05,287.8 138.36,287.98C136.3,288.52 134.18,288.7 131.86,288.88Z" style="fill:rgb(239,237,238);fill-rule:nonzero;"/>
        <path d="M220.66,118.32C223.43,118.27 226.12,115.33 225.85,112.75C225.81,112.35 225.69,111.94 225.19,111.94C224.82,111.94 224.68,112.27 224.58,112.58C224.51,112.81 224.5,113.05 224.43,113.28C223.47,116.52 222,117.3 218.81,116.22C218.34,116.06 217.85,115.78 217.56,116.28C217.28,116.76 217.69,117.15 218.08,117.46C218.87,118.09 219.84,118.12 220.66,118.32Z" style="fill:rgb(231,230,230);fill-rule:nonzero;"/>
        <path d="M235.1,95.29C233.09,95.22 231.59,95.98 230.54,97.56C230.32,97.88 230.19,98.34 230.56,98.65C230.94,98.98 231.24,98.72 231.56,98.44C234.27,96.04 234.84,95.98 237.78,97.69C238.19,97.93 238.62,98.35 238.99,97.76C239.31,97.24 238.86,96.86 238.5,96.56C237.49,95.72 236.35,95.18 235.1,95.29Z" style="fill:rgb(232,233,234);fill-rule:nonzero;"/>
        <path d="M249.58,99.58C249.26,99.6 248.94,99.6 248.63,99.66C248.14,99.75 247.66,99.95 247.76,100.55C247.86,101.16 248.39,101.09 248.88,101.11C251.65,101.22 252.11,101.58 252.95,104.37C253.08,104.81 253.23,105.15 253.68,105.09C254.25,105.01 254.39,104.56 254.37,104.03C254.26,102.07 252.51,100.06 250.53,99.69C250.22,99.62 249.9,99.61 249.58,99.58Z" style="fill:rgb(229,229,229);fill-rule:nonzero;"/>
        <path d="M257.68,120.38C257.79,120.37 258.12,120.41 258.42,120.32C259.09,120.13 260.14,119.97 260.03,119.2C259.86,118.03 258.9,118.85 258.29,118.9C256.52,119.06 255.16,118.53 254.36,116.85C254.16,116.44 253.87,115.88 253.3,116.22C252.82,116.5 252.95,117.05 253.13,117.52C253.78,119.16 255.61,120.37 257.68,120.38Z" style="fill:rgb(230,231,232);fill-rule:nonzero;"/>
        <path d="M214.24,106.62C214.28,106.84 214.28,107.09 214.37,107.31C214.53,107.71 214.52,108.36 215.18,108.26C215.82,108.17 215.74,107.61 215.68,107.15C215.48,105.56 216.12,104.38 217.46,103.58C217.95,103.29 218.21,102.82 217.97,102.42C217.6,101.79 217,102.12 216.53,102.42C214.99,103.38 214.41,104.88 214.24,106.62Z" style="fill:rgb(227,227,227);fill-rule:nonzero;"/>
        <path d="M265.63,110.12C265.62,107.89 263.87,105.86 261.96,105.79C261.63,105.78 261.28,105.83 261.16,106.14C261,106.56 261.17,106.94 261.62,107.06C263.25,107.5 264.26,108.41 264.22,110.23C264.21,110.71 264.34,111.29 264.91,111.29C265.7,111.3 265.58,110.59 265.63,110.12Z" style="fill:rgb(229,228,228);fill-rule:nonzero;"/>
        <path d="M210.11,114.31C210.13,114.48 210.13,114.72 210.18,114.95C210.3,115.45 210.19,116.18 211.05,116.05C211.74,115.95 211.57,115.42 211.51,114.95C211.3,113.3 212.01,112.22 213.59,111.73C214.03,111.59 214.3,111.36 214.19,110.9C214.04,110.31 213.59,110.26 213.08,110.39C211.42,110.81 210.13,112.48 210.11,114.31Z" style="fill:rgb(222,222,222);fill-rule:nonzero;"/>
        <path d="M206.93,122.49C207.15,123.24 207.77,123.36 208.4,123.35C208.68,123.35 209.03,123.27 209.03,122.84C209.02,122.22 208.18,121.67 207.47,121.82C207.1,121.9 207.01,122.18 206.93,122.49Z" style="fill:rgb(215,220,222);fill-rule:nonzero;"/>
        <path d="M140.26,157.67C136.96,157.91 134.83,156.73 134.33,153.19C133.06,154.44 133.13,156.05 132.06,156.85C130.94,157.68 129.48,157.48 128.15,157.82C128.15,158.65 128.85,159.03 129.36,159.42C130.77,160.51 131.01,161.84 130.46,163.43C130.28,163.95 130.09,164.49 130.29,165.12C131.69,164.87 132.62,163.47 134.08,163.47C135.46,163.47 136.35,164.84 137.81,164.98C137.92,163.55 136.96,162.24 137.49,160.93C137.98,159.68 139.38,159.09 140.26,157.67Z" style="fill:rgb(249,248,247);fill-rule:nonzero;"/>
        <path d="M163.53,135.04C162.53,137.13 161.57,138.74 159.08,139.32C161.2,140.42 162.6,141.62 163.42,144.05C164.03,141.55 165.4,140.35 167.33,139.37C165.37,138.53 164.04,137.35 163.53,135.04Z" style="fill:rgb(242,241,241);fill-rule:nonzero;"/>
        <path d="M172.12,177.49C171.22,179.28 170.32,180.64 167.78,180.2C169.36,181.81 170.32,183.3 169.37,185.66C171.18,184.27 172.68,183.83 174.59,185.49C173.75,183.05 174.71,181.67 176.42,180.3C174.05,180.45 172.65,179.65 172.12,177.49Z" style="fill:rgb(242,241,241);fill-rule:nonzero;"/>
        <path d="M147.68,200.67C147.02,200.07 146.39,199.49 145.68,198.84C145.11,199.37 144.45,199.99 143.75,200.64C144.59,201.06 145.12,201.75 145.75,202.37C146.3,201.7 146.85,201.06 147.68,200.67Z" style="fill:rgb(226,225,225);fill-rule:nonzero;"/>
        <path d="M185.36,239.07C185.41,239.16 185.49,239.48 185.68,239.71C186.86,241.07 187.4,242.76 188.05,244.38C195.04,261.99 202.01,279.61 208.98,297.24C209.45,298.42 209.87,299.63 210.35,300.81C210.62,301.47 210.93,302.29 211.85,301.96C212.74,301.64 212.57,300.86 212.3,300.14C211.3,297.54 210.34,294.93 209.31,292.34C202.77,275.85 196.21,259.36 189.65,242.87C189,241.25 188.48,239.54 187.07,238.36C186.72,238.07 186.33,237.71 185.81,238.08C185.54,238.27 185.33,238.49 185.36,239.07Z" style="fill:rgb(19,18,18);fill-rule:nonzero;"/>
        <path d="M139.52,370.44C139.69,365.57 137.53,361.39 133.62,358.03C133.26,357.72 132.88,357.43 132.48,357.17C132.06,356.9 131.59,356.72 131.22,357.24C130.91,357.67 130.89,358.19 131.25,358.57C131.79,359.15 132.42,359.65 133,360.2C137.89,364.87 139,372.01 135.72,377.73C134.8,379.34 133.54,380.68 132.15,381.89C131.73,382.26 131.31,382.63 130.94,383.05C130.65,383.38 130.67,383.78 130.96,384.13C131.24,384.48 131.6,384.63 132.01,384.44C132.37,384.27 132.7,384.04 133.01,383.8C137.2,380.67 139.48,376.12 139.52,370.44Z" style="fill:rgb(22,21,21);fill-rule:nonzero;"/>
        <path d="M144.35,362.56C143.8,362.64 143.41,362.98 143.4,363.49C143.39,364.03 143.57,364.58 143.69,365.11C144.59,369.14 144.53,373.14 143.33,377.11C143.07,377.96 142.31,379.12 143.7,379.51C144.83,379.83 145.03,378.58 145.26,377.79C146.61,373.28 146.87,368.74 145.55,364.16C145.35,363.49 145.16,362.79 144.35,362.56Z" style="fill:rgb(34,33,33);fill-rule:nonzero;"/>
        <path d="M157.27,362.4C156.54,362.32 156.06,362.98 156.32,363.89C156.67,365.12 157,366.34 157.21,367.6C157.77,370.97 157.54,374.27 156.58,377.53C156.49,377.84 156.35,378.13 156.29,378.44C156.18,378.96 156.35,379.41 156.84,379.63C157.48,379.91 157.91,379.58 158.19,379.02C158.85,377.72 159.06,376.28 159.26,374.88C159.76,371.21 159.65,367.56 158.5,364C158.09,362.75 157.83,362.46 157.27,362.4Z" style="fill:rgb(28,27,27);fill-rule:nonzero;"/>
        <path d="M152.77,371.07C152.88,369.06 152.63,367.16 152.21,365.29C152.04,364.52 151.73,363.78 151.41,363.06C151.25,362.69 150.89,362.42 150.44,362.6C150.05,362.76 149.77,363.07 149.8,363.51C149.83,363.98 149.9,364.46 150.02,364.92C151.16,369.11 151.1,373.28 149.91,377.44C149.82,377.75 149.71,378.05 149.67,378.37C149.6,378.9 149.82,379.33 150.32,379.53C150.88,379.76 151.27,379.39 151.47,378.95C151.76,378.3 152.03,377.62 152.17,376.93C152.56,374.97 152.94,373 152.77,371.07Z" style="fill:rgb(25,24,25);fill-rule:nonzero;"/>
        <path d="M239.58,373.58C239.5,375.72 239.93,377.73 240.44,379.73C240.63,380.48 241.02,380.87 241.78,380.66C242.48,380.47 242.47,379.85 242.39,379.29C242.25,378.35 242.05,377.42 241.87,376.5C241.24,373.29 241.61,370.19 242.79,367.16C242.9,366.86 243,366.56 243.13,366.27C243.38,365.71 243.09,365.34 242.68,365.07C242.2,364.75 241.74,364.93 241.46,365.38C241.13,365.92 240.8,366.48 240.63,367.08C240.03,369.22 239.49,371.37 239.58,373.58Z" style="fill:rgb(27,25,25);fill-rule:nonzero;"/>
        <path d="M244.43,374.75C244.51,376.6 244.68,378.33 245.15,380.02C245.28,380.47 245.46,380.92 245.7,381.32C245.93,381.7 246.35,381.74 246.76,381.65C247.23,381.54 247.37,381.15 247.36,380.75C247.35,380.36 247.22,379.97 247.12,379.59C246.14,375.7 246.38,371.88 247.77,368.13C247.82,367.98 247.91,367.84 247.98,367.7C248.28,367.07 248.4,366.41 247.68,366.05C246.77,365.59 246.43,366.36 246.12,367C244.9,369.47 244.62,372.15 244.43,374.75Z" style="fill:rgb(33,32,32);fill-rule:nonzero;"/>
        <path d="M293.65,213.79C293.63,214.25 293.71,214.73 294.3,214.85C294.96,214.99 295.39,214.64 295.57,214.04C295.77,213.35 295.87,212.64 296.05,211.95C297.36,207.01 299.6,202.59 303.23,198.93C304.77,197.39 306.52,196.17 308.48,195.23C309.08,194.95 309.76,194.66 309.41,193.86C309.04,193.01 308.33,193.14 307.59,193.47C304.77,194.73 302.4,196.6 300.42,198.93C297.06,202.89 294.96,207.5 293.81,212.56C293.73,212.94 293.71,213.34 293.65,213.79Z" style="fill:rgb(23,22,22);fill-rule:nonzero;"/>
        <path d="M235.24,171.2C241.06,171.14 245.57,166.22 246.65,161.39C247.01,159.77 246.07,159.12 244.3,159.84C242.16,160.71 240.02,161.55 237.81,162.23C234.83,163.14 231.8,163.77 228.69,164.02C228.29,164.05 227.88,164.05 227.5,164.16C226.4,164.47 226.04,165.19 226.72,166.14C228.83,169.11 231.38,171.41 235.24,171.2Z" style="fill:rgb(20,19,19);fill-rule:nonzero;"/>
        <path d="M230.95,159.25C231.81,159.15 232.7,159.26 233.51,158.81C234.05,158.51 234.48,158.17 234.29,157.52C234.09,156.85 233.56,156.75 232.95,157.03C232.12,157.4 231.24,157.39 230.37,157.32C228.76,157.2 228.09,156.45 228.22,154.82C228.34,153.31 228.6,151.82 228.79,150.32C229.05,148.26 229.11,146.19 228.78,144.14C228.68,143.53 228.6,142.88 228.12,142.38C227.59,141.84 226.83,141.95 226.63,142.66C226.55,142.95 226.54,143.3 226.61,143.6C227.37,147.11 226.76,150.57 226.24,154.03C225.73,157.48 227.41,159.32 230.95,159.25Z" style="fill:rgb(23,22,22);fill-rule:nonzero;"/>
        <path d="M233.74,135.92C233.76,136.56 234.11,136.97 234.77,136.92C235.15,136.89 235.52,136.68 235.87,136.49C239.07,134.8 242.41,134.76 245.82,135.7C246.12,135.78 246.42,135.91 246.72,136.01C247.33,136.2 247.87,136.09 248.11,135.47C248.36,134.84 248,134.48 247.44,134.16C244.15,132.33 237.27,132.73 234.41,134.95C234.08,135.2 233.81,135.48 233.74,135.92Z" style="fill:rgb(32,30,30);fill-rule:nonzero;"/>
        <path d="M236.86,144.33C236.86,144.97 237.63,145.51 238.21,145.21C238.55,145.03 238.79,144.68 239.08,144.41C240.63,142.95 242.42,142.69 244.37,143.38C244.89,143.56 245.36,143.91 245.89,144.04C246.26,144.13 246.66,143.92 246.86,143.51C247.02,143.18 246.97,142.86 246.73,142.63C245.32,141.27 243.57,140.76 241.69,141.04C239.78,141.32 237.99,142 236.98,143.88C236.91,144.01 236.9,144.18 236.86,144.33Z" style="fill:rgb(31,27,27);fill-rule:nonzero;"/>
        <path d="M264.97,142.77C265.02,143.32 265,143.73 265.09,144.11C265.22,144.64 265.63,144.88 266.17,144.83C266.61,144.79 266.87,144.49 266.93,144.05C266.97,143.74 266.92,143.41 266.97,143.1C267.29,141.04 268.05,139.28 270.16,138.43C270.66,138.23 271.25,137.95 270.95,137.21C270.69,136.58 270.1,136.59 269.53,136.6C269.02,136.6 268.61,136.83 268.22,137.11C266.21,138.52 265.17,140.48 264.97,142.77Z" style="fill:rgb(31,30,29);fill-rule:nonzero;"/>
        <path d="M222.11,145.65C219.8,145.64 218.3,146.21 217.32,147.77C216.94,148.37 216.56,149.08 217.38,149.64C218.12,150.15 218.51,149.57 218.9,149.04C220.01,147.53 221.49,147.45 223.13,147.93C223.86,148.15 224.8,148.63 225.12,147.52C225.4,146.52 224.39,146.19 223.69,145.93C223.03,145.69 222.29,145.68 222.11,145.65Z" style="fill:rgb(29,27,27);fill-rule:nonzero;"/>
        <path d="M229.2,165.94C233.59,172.21 241.9,168.52 244.33,162.15C239.35,163.88 234.57,165.66 229.2,165.94Z" style="fill:rgb(248,247,247);fill-rule:nonzero;"/>
    </g>
</svg>
