<?xml version="1.0" encoding="UTF-8" standalone="no"?>
<!-- Created with Inkscape (http://www.inkscape.org/) -->

<svg
   version="1.1"
   id="svg1"
   width="880"
   height="880"
   viewBox="0 0 880 880"
   sodipodi:docname="woman-watering-a-plant.svg"
   inkscape:version="1.3.2 (091e20e, 2023-11-25, custom)"
   xmlns:inkscape="http://www.inkscape.org/namespaces/inkscape"
   xmlns:sodipodi="http://sodipodi.sourceforge.net/DTD/sodipodi-0.dtd"
   xmlns="http://www.w3.org/2000/svg"
   xmlns:svg="http://www.w3.org/2000/svg">
  <defs
     id="defs1">
    <clipPath
       clipPathUnits="userSpaceOnUse"
       id="clipPath3">
      <path
         d="M 0,660 H 660 V 0 H 0 Z"
         transform="translate(-328.08641,-117.8389)"
         id="path3" />
    </clipPath>
    <clipPath
       clipPathUnits="userSpaceOnUse"
       id="clipPath5">
      <path
         d="M 0,660 H 660 V 0 H 0 Z"
         transform="translate(-285.22461,-584.91262)"
         id="path5" />
    </clipPath>
    <clipPath
       clipPathUnits="userSpaceOnUse"
       id="clipPath7">
      <path
         d="M 0,660 H 660 V 0 H 0 Z"
         transform="translate(-283.9663,-617.86232)"
         id="path7" />
    </clipPath>
    <clipPath
       clipPathUnits="userSpaceOnUse"
       id="clipPath9">
      <path
         d="M 0,660 H 660 V 0 H 0 Z"
         transform="translate(-246.86281,-435.15231)"
         id="path9" />
    </clipPath>
    <clipPath
       clipPathUnits="userSpaceOnUse"
       id="clipPath11">
      <path
         d="M 0,660 H 660 V 0 H 0 Z"
         transform="translate(-267.3784,-541.61911)"
         id="path11" />
    </clipPath>
    <clipPath
       clipPathUnits="userSpaceOnUse"
       id="clipPath13">
      <path
         d="M 0,660 H 660 V 0 H 0 Z"
         transform="translate(-370.99611,-460.60161)"
         id="path13" />
    </clipPath>
    <clipPath
       clipPathUnits="userSpaceOnUse"
       id="clipPath15">
      <path
         d="M 0,660 H 660 V 0 H 0 Z"
         transform="translate(-265.21,-442.96971)"
         id="path15" />
    </clipPath>
    <clipPath
       clipPathUnits="userSpaceOnUse"
       id="clipPath17">
      <path
         d="M 0,660 H 660 V 0 H 0 Z"
         transform="translate(-223.2388,-367.29051)"
         id="path17" />
    </clipPath>
    <clipPath
       clipPathUnits="userSpaceOnUse"
       id="clipPath19">
      <path
         d="M 0,660 H 660 V 0 H 0 Z"
         transform="translate(-246.9448,-412.42191)"
         id="path19" />
    </clipPath>
    <clipPath
       clipPathUnits="userSpaceOnUse"
       id="clipPath21">
      <path
         d="M 0,660 H 660 V 0 H 0 Z"
         transform="translate(-295.876,-381.95701)"
         id="path21" />
    </clipPath>
    <clipPath
       clipPathUnits="userSpaceOnUse"
       id="clipPath23">
      <path
         d="M 0,660 H 660 V 0 H 0 Z"
         transform="translate(-251.15971,-409.96781)"
         id="path23" />
    </clipPath>
    <clipPath
       clipPathUnits="userSpaceOnUse"
       id="clipPath25">
      <path
         d="M 0,660 H 660 V 0 H 0 Z"
         transform="translate(-282.86911,-353.89651)"
         id="path25" />
    </clipPath>
    <clipPath
       clipPathUnits="userSpaceOnUse"
       id="clipPath27">
      <path
         d="M 0,660 H 660 V 0 H 0 Z"
         transform="translate(-353.07911,-331.22751)"
         id="path27" />
    </clipPath>
    <clipPath
       clipPathUnits="userSpaceOnUse"
       id="clipPath29">
      <path
         d="M 0,660 H 660 V 0 H 0 Z"
         transform="translate(-351.30181,-457.67771)"
         id="path29" />
    </clipPath>
    <clipPath
       clipPathUnits="userSpaceOnUse"
       id="clipPath31">
      <path
         d="M 0,660 H 660 V 0 H 0 Z"
         transform="translate(-295.75201,-426.86821)"
         id="path31" />
    </clipPath>
    <clipPath
       clipPathUnits="userSpaceOnUse"
       id="clipPath33">
      <path
         d="M 0,660 H 660 V 0 H 0 Z"
         transform="translate(-316.43851,-600.27442)"
         id="path33" />
    </clipPath>
    <clipPath
       clipPathUnits="userSpaceOnUse"
       id="clipPath35">
      <path
         d="M 0,660 H 660 V 0 H 0 Z"
         transform="translate(-324.55861,-598.09471)"
         id="path35" />
    </clipPath>
    <clipPath
       clipPathUnits="userSpaceOnUse"
       id="clipPath37">
      <path
         d="M 0,660 H 660 V 0 H 0 Z"
         transform="translate(-305.62161,-614.52732)"
         id="path37" />
    </clipPath>
    <clipPath
       clipPathUnits="userSpaceOnUse"
       id="clipPath39">
      <path
         d="M 0,660 H 660 V 0 H 0 Z"
         transform="translate(-248.41891,-167.5908)"
         id="path39" />
    </clipPath>
    <clipPath
       clipPathUnits="userSpaceOnUse"
       id="clipPath41">
      <path
         d="M 0,660 H 660 V 0 H 0 Z"
         transform="translate(-382.22361,-165.1777)"
         id="path41" />
    </clipPath>
    <clipPath
       clipPathUnits="userSpaceOnUse"
       id="clipPath43">
      <path
         d="M 0,660 H 660 V 0 H 0 Z"
         transform="translate(-296.45121,-642.52732)"
         id="path43" />
    </clipPath>
    <clipPath
       clipPathUnits="userSpaceOnUse"
       id="clipPath45">
      <path
         d="M 0,660 H 660 V 0 H 0 Z"
         transform="translate(-291.73051,-621.22462)"
         id="path45" />
    </clipPath>
    <clipPath
       clipPathUnits="userSpaceOnUse"
       id="clipPath47">
      <path
         d="M 0,660 H 660 V 0 H 0 Z"
         transform="translate(-306.63331,-610.51952)"
         id="path47" />
    </clipPath>
    <clipPath
       clipPathUnits="userSpaceOnUse"
       id="clipPath49">
      <path
         d="M 0,660 H 660 V 0 H 0 Z"
         transform="translate(-318.38721,-584.70262)"
         id="path49" />
    </clipPath>
    <clipPath
       clipPathUnits="userSpaceOnUse"
       id="clipPath51">
      <path
         d="M 0,660 H 660 V 0 H 0 Z"
         transform="translate(-399.44921,-87.749005)"
         id="path51" />
    </clipPath>
    <clipPath
       clipPathUnits="userSpaceOnUse"
       id="clipPath53">
      <path
         d="M 0,660 H 660 V 0 H 0 Z"
         transform="translate(-364.85451,-130.51461)"
         id="path53" />
    </clipPath>
    <clipPath
       clipPathUnits="userSpaceOnUse"
       id="clipPath55">
      <path
         d="M 0,660 H 660 V 0 H 0 Z"
         transform="translate(-357.05081,-105.3799)"
         id="path55" />
    </clipPath>
    <clipPath
       clipPathUnits="userSpaceOnUse"
       id="clipPath57">
      <path
         d="M 0,660 H 660 V 0 H 0 Z"
         transform="translate(-397.77931,-123.2109)"
         id="path57" />
    </clipPath>
  </defs>
  <sodipodi:namedview
     id="namedview1"
     pagecolor="#ffffff"
     bordercolor="#000000"
     borderopacity="0.25"
     inkscape:showpageshadow="2"
     inkscape:pageopacity="0.0"
     inkscape:pagecheckerboard="0"
     inkscape:deskcolor="#d1d1d1"
     inkscape:zoom="0.69318182"
     inkscape:cx="439.27869"
     inkscape:cy="440"
     inkscape:window-width="1440"
     inkscape:window-height="830"
     inkscape:window-x="-6"
     inkscape:window-y="-6"
     inkscape:window-maximized="1"
     inkscape:current-layer="g1">
    <inkscape:page
       x="0"
       y="0"
       inkscape:label="1"
       id="page1"
       width="880"
       height="880"
       margin="116.99866 216.98801 10.561334 211.88266"
       bleed="0" />
  </sodipodi:namedview>
  <g
     id="g1"
     inkscape:groupmode="layer"
     inkscape:label="1">
    <g
       id="group-MC0">
      <path
         id="path2"
         d="M 0,0 C 93.177,0 169.172,21.746 169.172,48.41 169.172,75.074 93.177,96.819 0,96.819 -93.178,96.819 -169.174,75.074 -169.174,48.41 -169.174,21.746 -93.178,0 0,0"
         style="fill:#e0f5a1;fill-opacity:1;fill-rule:evenodd;stroke:none"
         transform="matrix(1.3333333,0,0,-1.3333333,437.44853,722.88147)"
         clip-path="url(#clipPath3)" />
      <path
         id="path4"
         d="m 0,0 c 7.919,0 14.377,6.458 14.377,14.377 0,7.92 -6.458,14.378 -14.377,14.378 -7.92,0 -14.378,-6.458 -14.378,-14.378 C -14.378,6.458 -7.92,0 0,0"
         style="fill:#313033;fill-opacity:1;fill-rule:evenodd;stroke:none"
         transform="matrix(1.3333333,0,0,-1.3333333,380.29947,100.11653)"
         clip-path="url(#clipPath5)" />
      <path
         id="path6"
         d="m 0,0 c 6.647,0 12.07,5.422 12.07,12.071 0,6.647 -5.423,12.07 -12.07,12.07 -6.649,0 -12.07,-5.423 -12.07,-12.07 C -12.07,5.422 -6.649,0 0,0"
         style="fill:#313033;fill-opacity:1;fill-rule:evenodd;stroke:none"
         transform="matrix(1.3333333,0,0,-1.3333333,378.62173,56.1836)"
         clip-path="url(#clipPath7)" />
      <path
         id="path8"
         d="m 0,0 c 3.497,0 6.348,4.408 6.348,9.812 0,5.405 -2.851,9.813 -6.348,9.813 -3.498,0 -6.35,-4.408 -6.35,-9.813 C -6.35,4.408 -3.498,0 0,0"
         style="fill:#fcc3a6;fill-opacity:1;fill-rule:evenodd;stroke:none"
         transform="matrix(1.3333333,0,0,-1.3333333,329.1504,299.79693)"
         clip-path="url(#clipPath9)" />
      <path
         id="path10"
         d="m 0,0 c -9.341,-28.076 -22.427,-56.86 -27.705,-92.563 3.777,-1.678 10.494,-0.209 13.013,1.049 6.098,34.86 22.539,52.351 31.903,82.279 C 11.474,-6.156 5.737,-3.079 0,0"
         style="fill:#f07c00;fill-opacity:1;fill-rule:evenodd;stroke:none"
         transform="matrix(1.3333333,0,0,-1.3333333,356.50453,157.8412)"
         clip-path="url(#clipPath11)" />
      <path
         id="path12"
         d="m 0,0 c 4.349,-46.909 -9.887,-106.112 -23.617,-148.786 -3.39,-10.529 -1.463,-21.138 5.408,-29.805 20.369,-25.69 31.74,-74.398 29.437,-116.833 -3.568,-0.14 -8.719,-0.141 -11.972,0.244 -15.672,45.336 -30.181,77.732 -45.852,123.069 -3.639,29.383 -6.858,67.165 -10.495,96.549 -3.105,-23.955 -14.109,-46.945 -25.865,-67.667 -6.923,-12.204 -9.495,-24.596 -8.002,-38.546 3.654,-34.149 -13.062,-81.463 -31.619,-111.236 -5.038,4.479 -2.52,2.24 -7.556,6.717 5.316,41.699 10.634,83.397 15.95,125.097 2.8,47.855 5.597,95.709 8.397,143.565 15.951,13.434 31.903,26.866 47.855,40.299 C -45.338,34.421 -5.878,33.582 0,0"
         style="fill:#4d4c50;fill-opacity:1;fill-rule:evenodd;stroke:none"
         transform="matrix(1.3333333,0,0,-1.3333333,494.66147,265.86453)"
         clip-path="url(#clipPath13)" />
      <path
         id="path14"
         d="m 0,0 c -1.271,-21.74 103.374,10.524 100.647,31.296 -3.052,4.551 -6.106,9.102 -9.158,13.652 -13.901,20.725 -14.667,36.888 -8.831,61.153 2.182,9.075 1.28,18.149 -2.707,27.056 C 75.053,144.106 64.959,154.782 53.202,157.16 38.041,160.228 22.277,150.77 9.06,136.711 -1.936,125.013 -11.693,97.714 -0.255,88.647 14.653,76.828 10.754,63.432 7.574,44.675 5.05,29.784 2.525,14.893 0,0"
         style="fill:#ff9100;fill-opacity:1;fill-rule:evenodd;stroke:none"
         transform="matrix(1.3333333,0,0,-1.3333333,353.61333,289.37373)"
         clip-path="url(#clipPath15)" />
      <path
         id="path16"
         d="M 0,0 20.845,41.601 80.356,7.283 60.219,-33.026 C 49.71,-54.06 -9.611,-19.181 0,0"
         style="fill:#497bad;fill-opacity:1;fill-rule:evenodd;stroke:none"
         transform="matrix(1.3333333,0,0,-1.3333333,297.65173,390.27933)"
         clip-path="url(#clipPath17)" />
      <path
         id="path18"
         d="M 0,0 C 7.863,5.594 26.491,1.243 41.605,-9.721 56.72,-20.685 62.596,-34.109 54.733,-39.707 46.869,-45.302 28.242,-40.951 13.128,-29.987 -1.987,-19.022 -7.864,-5.598 0,0"
         style="fill:#5f93c7;fill-opacity:1;fill-rule:evenodd;stroke:none"
         transform="matrix(1.3333333,0,0,-1.3333333,329.25973,330.10413)"
         clip-path="url(#clipPath19)" />
      <path
         id="path20"
         d="m 0,0 c -0.5,-1.561 -2.172,-2.418 -3.73,-1.918 -1.56,0.5 -2.418,2.171 -1.918,3.73 6.395,19.968 -0.244,36.822 -11.174,46.827 -5.923,5.421 -13.085,8.822 -20.074,9.596 -6.759,0.748 -13.354,-1 -18.42,-5.826 -8.518,-8.11 -12.979,-24.833 -7.572,-52.882 0.308,-1.611 -0.748,-3.167 -2.359,-3.474 -1.611,-0.308 -3.167,0.748 -3.474,2.359 -5.853,30.356 -0.54,48.914 9.314,58.297 6.439,6.13 14.723,8.363 23.161,7.429 8.208,-0.908 16.565,-4.854 23.422,-11.129 C -0.378,41.618 7.209,22.517 0,0"
         style="fill:#497bad;fill-opacity:1;fill-rule:evenodd;stroke:none"
         transform="matrix(1.3333333,0,0,-1.3333333,394.50133,370.724)"
         clip-path="url(#clipPath21)" />
      <path
         id="path22"
         d="m 0,0 c 4.481,3.189 15.096,0.71 23.709,-5.537 8.613,-6.249 11.962,-13.9 7.481,-17.088 -4.482,-3.189 -15.095,-0.709 -23.709,5.539 C -1.131,-10.84 -4.481,-3.189 0,0"
         style="fill:#2b5885;fill-opacity:1;fill-rule:evenodd;stroke:none"
         transform="matrix(1.3333333,0,0,-1.3333333,334.8796,333.37627)"
         clip-path="url(#clipPath23)" />
      <path
         id="path24"
         d="m 0,0 52.167,-3.893 15.441,9.628 -0.035,-10.777 2.742,-0.206 -0.21,-5.667 -2.55,-0.08 -0.036,-10.846 -16.204,10.329 -53.623,-1.711 z"
         style="fill:#497bad;fill-opacity:1;fill-rule:evenodd;stroke:none"
         transform="matrix(1.3333333,0,0,-1.3333333,377.1588,408.138)"
         clip-path="url(#clipPath25)" />
      <path
         id="path26"
         d="m 0,0 c 4.45,0 8.08,6.554 8.08,14.589 0,8.034 -3.63,14.587 -8.08,14.587 -4.451,0 -8.081,-6.553 -8.081,-14.587 C -8.081,6.554 -4.451,0 0,0"
         style="fill:#5f93c7;fill-opacity:1;fill-rule:evenodd;stroke:none"
         transform="matrix(1.3333333,0,0,-1.3333333,470.77213,438.36333)"
         clip-path="url(#clipPath27)" />
      <path
         id="path28"
         d="M 0,0 C 9.29,5.57 15.232,11.433 14.556,16.588 11.503,21.139 8.449,25.691 5.397,30.24 -7.98,50.185 -9.192,65.905 -4.064,88.686 -10.525,76.933 -14.295,62.816 -14.295,47.629 -14.295,29.491 -8.919,12.879 0,0"
         style="fill:#f07c00;fill-opacity:1;fill-rule:evenodd;stroke:none"
         transform="matrix(1.3333333,0,0,-1.3333333,468.4024,269.76307)"
         clip-path="url(#clipPath29)" />
      <path
         id="path30"
         d="m 0,0 c -5.789,-0.64 -10.141,-4.227 -9.723,-8.012 0.417,-3.785 5.448,-6.336 11.236,-5.696 5.787,0.639 10.141,4.225 9.723,8.009 C 10.817,-1.912 5.787,0.639 0,0"
         style="fill:#fcc3a6;fill-opacity:1;fill-rule:evenodd;stroke:none"
         transform="matrix(1.3333333,0,0,-1.3333333,394.336,310.8424)"
         clip-path="url(#clipPath31)" />
      <path
         id="path32"
         d="m 0,0 c 1.329,-0.083 2.643,-0.192 3.945,-0.33 17.077,-1.809 31.021,-10.473 40.202,-24.984 12.219,-19.311 10.535,-62.725 2.792,-83.766 -9.973,-27.098 -33.567,-50.236 -55.971,-71.943 -3.674,0.489 -6.822,4.128 -8.817,7.766 23.105,21.759 46.267,61.825 49.059,69.128 4.17,10.915 3.108,31.126 -0.363,50.435 C 20.093,-38.143 10.755,-15.552 0,0"
         style="fill:#ff9100;fill-opacity:1;fill-rule:evenodd;stroke:none"
         transform="matrix(1.3333333,0,0,-1.3333333,421.918,79.634133)"
         clip-path="url(#clipPath33)" />
      <path
         id="path34"
         d="m 0,0 c -1.078,0.497 -2.178,0.93 -3.296,1.289 -7.324,2.356 -12.659,7.399 -15.423,14.579 l -3.198,8.308 -15.375,-4.408 5.216,-14.839 c 1.397,-3.972 -0.016,-8.241 -3.507,-10.594 -1.304,-0.88 -2.597,-1.818 -3.876,-2.811 -1.71,-9.6 3.644,-16.937 13,-16.937 10.375,0 21.739,9.021 25.383,20.15 C -0.479,-3.442 -0.128,-1.678 0,0"
         style="fill:#fcc3a6;fill-opacity:1;fill-rule:evenodd;stroke:none"
         transform="matrix(1.3333333,0,0,-1.3333333,432.7448,82.5404)"
         clip-path="url(#clipPath35)" />
      <path
         id="path36"
         d="m 0,0 -2.98,7.744 -15.375,-4.409 5.216,-14.839 c 0.822,-2.338 0.67,-4.777 -0.304,-6.868 C -6.843,-15.747 -1.336,-8.541 0,0"
         style="fill:#f29d72;fill-opacity:1;fill-rule:evenodd;stroke:none"
         transform="matrix(1.3333333,0,0,-1.3333333,407.49547,60.630267)"
         clip-path="url(#clipPath37)" />
      <path
         id="path38"
         d="M 0,0 C -32.463,-5.851 -35.685,-3.802 -7.556,6.717 -3.835,7.351 -1.203,5.384 0,0"
         style="fill:#4d4c50;fill-opacity:1;fill-rule:evenodd;stroke:none"
         transform="matrix(1.3333333,0,0,-1.3333333,331.2252,656.5456)"
         clip-path="url(#clipPath39)" />
      <path
         id="path40"
         d="m 0,0 c -31.635,-19.238 -27.421,-11.374 -12.544,1.894 2.408,0.897 5.386,0.148 7.793,1.047 C -3.167,1.96 -1.584,0.98 0,0"
         style="fill:#4d4c50;fill-opacity:1;fill-rule:evenodd;stroke:none"
         transform="matrix(1.3333333,0,0,-1.3333333,509.63147,659.76307)"
         clip-path="url(#clipPath41)" />
      <path
         id="path42"
         d="m 0,0 c 8.926,0 14.945,-8.927 13.442,-19.939 -1.501,-11.013 -9.955,-19.94 -18.88,-19.94 -8.926,0 -14.945,8.927 -13.442,19.94 C -17.379,-8.927 -8.925,0 0,0"
         style="fill:#fcc3a6;fill-opacity:1;fill-rule:evenodd;stroke:none"
         transform="matrix(1.3333333,0,0,-1.3333333,395.26827,23.296933)"
         clip-path="url(#clipPath43)" />
      <path
         id="path44"
         d="m 0,0 c 8.496,0 15.427,6.929 15.427,15.426 0,8.497 -6.931,15.428 -15.427,15.428 -8.497,0 -15.426,-6.931 -15.426,-15.428 C -15.426,6.929 -8.497,0 0,0"
         style="fill:#313033;fill-opacity:1;fill-rule:evenodd;stroke:none"
         transform="matrix(1.3333333,0,0,-1.3333333,388.974,51.700533)"
         clip-path="url(#clipPath45)" />
      <path
         id="path46"
         d="M 0,0 C 9.652,0 17.526,7.873 17.526,17.526 17.526,27.18 9.652,35.052 0,35.052 -9.654,35.052 -17.527,27.18 -17.527,17.526 -17.527,7.873 -9.654,0 0,0"
         style="fill:#313033;fill-opacity:1;fill-rule:evenodd;stroke:none"
         transform="matrix(1.3333333,0,0,-1.3333333,408.8444,65.974)"
         clip-path="url(#clipPath47)" />
      <path
         id="path48"
         d="m 0,0 c 11.271,0 20.465,9.193 20.465,20.464 0,11.272 -9.194,20.465 -20.465,20.465 -11.272,0 -20.465,-9.193 -20.465,-20.465 C -20.465,9.193 -11.272,0 0,0"
         style="fill:#313033;fill-opacity:1;fill-rule:evenodd;stroke:none"
         transform="matrix(1.3333333,0,0,-1.3333333,424.51627,100.39653)"
         clip-path="url(#clipPath49)" />
      <path
         id="path50"
         d="M 0,0 C 37.456,0 68.005,10.276 68.005,22.88 68.005,35.479 37.456,45.758 0,45.758 -37.455,45.758 -68.006,35.479 -68.006,22.88 -68.006,10.276 -37.455,0 0,0"
         style="fill:#e0f5a1;fill-opacity:1;fill-rule:evenodd;stroke:none"
         transform="matrix(1.3333333,0,0,-1.3333333,532.59893,763.00133)"
         clip-path="url(#clipPath51)" />
      <path
         id="path52"
         d="m 0,0 12.816,8.255 c 4.996,3.219 8.458,8.338 9.581,14.173 1.123,5.835 -0.188,11.876 -3.632,16.718 -6.52,9.168 -7.518,21.163 -2.605,31.283 4.915,10.119 14.958,16.753 26.194,17.299 4.65,0.227 9.004,2.345 12.052,5.862 3.048,3.518 4.524,8.131 4.084,12.765 -1.117,11.77 5.042,23.036 15.552,28.452 10.51,5.415 23.258,3.89 32.194,-3.852 8.937,-7.741 12.265,-20.141 8.405,-31.314 C 110.779,88.465 100.508,80.762 88.698,80.189 74.208,79.483 59.734,78.445 45.29,77.077 35.199,76.12 27.72,67.281 28.445,57.173 29.169,47.064 37.835,39.382 47.957,39.875 53.351,40.138 58.728,39.101 63.639,36.855 72.573,32.767 78.596,24.16 79.373,14.365 80.149,4.569 75.563,-4.88 67.384,-10.327 59.205,-15.772 48.718,-16.363 39.98,-11.87 33.615,-8.597 26.19,-8.071 19.428,-10.412 12.666,-12.753 7.157,-17.76 4.18,-24.266 Z"
         style="fill:#94ab13;fill-opacity:1;fill-rule:evenodd;stroke:none"
         transform="matrix(1.3333333,0,0,-1.3333333,486.47267,705.98053)"
         clip-path="url(#clipPath53)" />
      <path
         id="path54"
         d="m 0,0 6.717,6.715 c 5.079,5.079 7.062,12.485 5.204,19.424 -1.859,6.938 -7.28,12.36 -14.22,14.218 -12.525,3.358 -21.235,14.708 -21.235,27.676 0,12.968 8.71,24.321 21.235,27.677 6.799,1.821 12.107,7.131 13.931,13.93 1.821,6.798 -0.123,14.05 -5.1,19.027 -11.007,11.008 -11.007,28.855 0,39.863 11.009,11.01 28.857,11.01 39.865,0 19.401,-19.4 19.401,-50.854 0,-70.256 L 20.237,72.114 C 15.893,67.77 15.01,61.052 18.079,55.731 c 3.072,-5.321 9.335,-7.915 15.269,-6.324 3.384,0.908 6.991,0.433 10.025,-1.32 3.035,-1.752 5.249,-4.637 6.157,-8.022 C 54.408,21.852 49.201,2.419 35.87,-10.913 Z"
         style="fill:#a7bf1c;fill-opacity:1;fill-rule:evenodd;stroke:none"
         transform="matrix(1.3333333,0,0,-1.3333333,476.06773,739.49347)"
         clip-path="url(#clipPath55)" />
      <path
         id="path56"
         d="m 0,0 -8.15,4.878 c -6.164,3.688 -9.894,10.385 -9.782,17.567 0.113,7.184 4.048,13.763 10.326,17.257 11.33,6.308 17.011,19.439 13.851,32.016 -3.161,12.579 -14.376,21.465 -27.343,21.667 -7.036,0.11 -13.479,3.966 -16.903,10.116 -3.424,6.149 -3.306,13.656 0.308,19.695 7.992,13.361 3.643,30.668 -9.714,38.662 -13.362,7.994 -30.671,3.643 -38.664,-9.714 -14.088,-23.545 -6.423,-54.05 17.122,-68.14 l 31.746,-18.995 c 5.271,-3.154 7.767,-9.456 6.087,-15.363 -1.685,-5.91 -7.125,-9.951 -13.266,-9.855 -3.505,0.055 -6.888,-1.284 -9.403,-3.723 -2.516,-2.439 -3.961,-5.777 -4.015,-9.282 -0.294,-18.852 9.492,-36.429 25.673,-46.111 z"
         style="fill:#bad526;fill-opacity:1;fill-rule:evenodd;stroke:none"
         transform="matrix(1.3333333,0,0,-1.3333333,530.3724,715.7188)"
         clip-path="url(#clipPath57)" />
    </g>
  </g>
</svg>
