<?xml version="1.0" encoding="UTF-8" standalone="no"?>
<!-- Created with Inkscape (http://www.inkscape.org/) -->

<svg
   version="1.1"
   id="svg1"
   width="880"
   height="880"
   viewBox="0 0 880 880"
   sodipodi:docname="green-tree-in-hand-eco-symbol.svg"
   inkscape:version="1.3.2 (091e20e, 2023-11-25, custom)"
   xmlns:inkscape="http://www.inkscape.org/namespaces/inkscape"
   xmlns:sodipodi="http://sodipodi.sourceforge.net/DTD/sodipodi-0.dtd"
   xmlns="http://www.w3.org/2000/svg"
   xmlns:svg="http://www.w3.org/2000/svg">
  <defs
     id="defs1">
    <clipPath
       clipPathUnits="userSpaceOnUse"
       id="clipPath4">
      <path
         d="M 0,660 H 660 V 0 H 0 Z"
         transform="translate(-407.10451,-259.59181)"
         id="path4" />
    </clipPath>
    <clipPath
       clipPathUnits="userSpaceOnUse"
       id="clipPath6">
      <path
         d="M 0,660 H 660 V 0 H 0 Z"
         transform="translate(-448.68361,-325.94431)"
         id="path6" />
    </clipPath>
    <clipPath
       clipPathUnits="userSpaceOnUse"
       id="clipPath8">
      <path
         d="M 0,660 H 660 V 0 H 0 Z"
         transform="translate(-420.69531,-374.06011)"
         id="path8" />
    </clipPath>
    <clipPath
       clipPathUnits="userSpaceOnUse"
       id="clipPath10">
      <path
         d="M 0,660 H 660 V 0 H 0 Z"
         transform="translate(-430.94821,-419.23931)"
         id="path10" />
    </clipPath>
    <clipPath
       clipPathUnits="userSpaceOnUse"
       id="clipPath12">
      <path
         d="M 0,660 H 660 V 0 H 0 Z"
         transform="translate(-422.47361,-458.80711)"
         id="path12" />
    </clipPath>
    <clipPath
       clipPathUnits="userSpaceOnUse"
       id="clipPath14">
      <path
         d="M 0,660 H 660 V 0 H 0 Z"
         transform="translate(-431.85841,-283.8379)"
         id="path14" />
    </clipPath>
    <clipPath
       clipPathUnits="userSpaceOnUse"
       id="clipPath16">
      <path
         d="M 0,660 H 660 V 0 H 0 Z"
         transform="translate(-227.54541,-253.52341)"
         id="path16" />
    </clipPath>
    <clipPath
       clipPathUnits="userSpaceOnUse"
       id="clipPath18">
      <path
         d="M 0,660 H 660 V 0 H 0 Z"
         transform="translate(-266.79301,-316.15531)"
         id="path18" />
    </clipPath>
    <clipPath
       clipPathUnits="userSpaceOnUse"
       id="clipPath20">
      <path
         d="M 0,660 H 660 V 0 H 0 Z"
         transform="translate(-240.37351,-361.56981)"
         id="path20" />
    </clipPath>
    <clipPath
       clipPathUnits="userSpaceOnUse"
       id="clipPath22">
      <path
         d="M 0,660 H 660 V 0 H 0 Z"
         transform="translate(-250.0522,-404.21581)"
         id="path22" />
    </clipPath>
    <clipPath
       clipPathUnits="userSpaceOnUse"
       id="clipPath24">
      <path
         d="M 0,660 H 660 V 0 H 0 Z"
         transform="translate(-242.05371,-441.56541)"
         id="path24" />
    </clipPath>
    <clipPath
       clipPathUnits="userSpaceOnUse"
       id="clipPath26">
      <path
         d="M 0,660 H 660 V 0 H 0 Z"
         transform="translate(-250.91311,-276.40921)"
         id="path26" />
    </clipPath>
    <clipPath
       clipPathUnits="userSpaceOnUse"
       id="clipPath28">
      <path
         d="M 0,660 H 660 V 0 H 0 Z"
         transform="translate(-200.2534,-199.1895)"
         id="path28" />
    </clipPath>
    <clipPath
       clipPathUnits="userSpaceOnUse"
       id="clipPath30">
      <path
         d="M 0,660 H 660 V 0 H 0 Z"
         transform="translate(-232.44241,-196.6152)"
         id="path30" />
    </clipPath>
    <clipPath
       clipPathUnits="userSpaceOnUse"
       id="clipPath32">
      <path
         d="M 0,660 H 660 V 0 H 0 Z"
         transform="translate(-261.54351,-189.56151)"
         id="path32" />
    </clipPath>
    <clipPath
       clipPathUnits="userSpaceOnUse"
       id="clipPath34">
      <path
         d="M 0,660 H 660 V 0 H 0 Z"
         transform="translate(-459.63381,-199.1895)"
         id="path34" />
    </clipPath>
    <clipPath
       clipPathUnits="userSpaceOnUse"
       id="clipPath36">
      <path
         d="M 0,660 H 660 V 0 H 0 Z"
         transform="translate(-427.44431,-196.6152)"
         id="path36" />
    </clipPath>
    <clipPath
       clipPathUnits="userSpaceOnUse"
       id="clipPath38">
      <path
         d="M 0,660 H 660 V 0 H 0 Z"
         transform="translate(-398.34281,-189.56151)"
         id="path38" />
    </clipPath>
    <clipPath
       clipPathUnits="userSpaceOnUse"
       id="clipPath40">
      <path
         d="M 0,660 H 660 V 0 H 0 Z"
         transform="translate(-329.94341,-291.9688)"
         id="path40" />
    </clipPath>
    <clipPath
       clipPathUnits="userSpaceOnUse"
       id="clipPath42">
      <path
         d="M 0,660 H 660 V 0 H 0 Z"
         transform="translate(-332.42381)"
         id="path42" />
    </clipPath>
    <clipPath
       clipPathUnits="userSpaceOnUse"
       id="clipPath44">
      <path
         d="M 0,660 H 660 V 0 H 0 Z"
         transform="translate(-327.46391)"
         id="path44" />
    </clipPath>
    <clipPath
       clipPathUnits="userSpaceOnUse"
       id="clipPath46">
      <path
         d="M 0,660 H 660 V 0 H 0 Z"
         transform="translate(-306.56841,-278.0332)"
         id="path46" />
    </clipPath>
    <clipPath
       clipPathUnits="userSpaceOnUse"
       id="clipPath48">
      <path
         d="M 0,660 H 660 V 0 H 0 Z"
         transform="translate(-355.85251,-356.68121)"
         id="path48" />
    </clipPath>
    <clipPath
       clipPathUnits="userSpaceOnUse"
       id="clipPath50">
      <path
         d="M 0,660 H 660 V 0 H 0 Z"
         transform="translate(-322.67681,-413.71041)"
         id="path50" />
    </clipPath>
    <clipPath
       clipPathUnits="userSpaceOnUse"
       id="clipPath52">
      <path
         d="M 0,660 H 660 V 0 H 0 Z"
         transform="translate(-334.83011,-467.26171)"
         id="path52" />
    </clipPath>
    <clipPath
       clipPathUnits="userSpaceOnUse"
       id="clipPath54">
      <path
         d="M 0,660 H 660 V 0 H 0 Z"
         transform="translate(-324.78661,-514.16212)"
         id="path54" />
    </clipPath>
    <clipPath
       clipPathUnits="userSpaceOnUse"
       id="clipPath56">
      <path
         d="M 0,660 H 660 V 0 H 0 Z"
         transform="translate(-335.91211,-306.77341)"
         id="path56" />
    </clipPath>
  </defs>
  <sodipodi:namedview
     id="namedview1"
     pagecolor="#ffffff"
     bordercolor="#000000"
     borderopacity="0.25"
     inkscape:showpageshadow="2"
     inkscape:pageopacity="0.0"
     inkscape:pagecheckerboard="0"
     inkscape:deskcolor="#d1d1d1"
     inkscape:zoom="0.69318182"
     inkscape:cx="439.27869"
     inkscape:cy="440"
     inkscape:window-width="1440"
     inkscape:window-height="830"
     inkscape:window-x="-6"
     inkscape:window-y="-6"
     inkscape:window-maximized="1"
     inkscape:current-layer="g1">
    <inkscape:page
       x="0"
       y="0"
       inkscape:label="1"
       id="page1"
       width="880"
       height="880"
       margin="0 0.075999998 0 0"
       bleed="0" />
  </sodipodi:namedview>
  <g
     id="g1"
     inkscape:groupmode="layer"
     inkscape:label="1">
    <g
       id="group-MC0">
      <path
         id="path2"
         d="M 0,0 H 659.943 V 660 H 0 Z"
         style="fill:#baf2c9;fill-opacity:1;fill-rule:nonzero;stroke:none"
         transform="matrix(1.3333333,0,0,-1.3333333,0,880)" />
      <path
         id="path3"
         d="m 0,0 10.422,10.882 c 23.179,24.207 16.753,57.122 3.666,74.915 -8.697,11.825 -8.41,34.182 0.597,45.352 5.962,7.394 7.069,21.792 2.223,31.243 -11.394,22.221 -1.775,41.679 5.546,61.011 -5.056,-20.566 -10.29,-41.874 3.998,-57.846 6.781,-7.58 12.042,-17.697 7.162,-32.079 C 27.048,114.124 34.607,99.579 44.436,90.796 59.818,77.052 64.388,44.304 54.226,20.644 L 43.348,-4.682 Z"
         style="fill:#086320;fill-opacity:1;fill-rule:evenodd;stroke:none"
         transform="matrix(1.3333333,0,0,-1.3333333,542.806,533.8776)"
         clip-path="url(#clipPath4)" />
      <path
         id="path5"
         d="M 0,0 C -7.316,16.242 -5.987,35.837 5.192,51.312 16.371,66.788 34.558,74.206 52.274,72.363 59.59,56.123 58.26,36.527 47.081,21.053 35.901,5.576 17.716,-1.843 0,0"
         style="fill:#086320;fill-opacity:1;fill-rule:evenodd;stroke:none"
         transform="matrix(1.3333333,0,0,-1.3333333,598.2448,445.4076)"
         clip-path="url(#clipPath6)" />
      <path
         id="path7"
         d="m 0,0 c 6.105,13.556 4.996,29.91 -4.335,42.825 -9.33,12.917 -24.51,19.109 -39.297,17.572 -6.105,-13.556 -4.996,-29.91 4.335,-42.827 C -29.967,4.653 -14.788,-1.539 0,0"
         style="fill:#086320;fill-opacity:1;fill-rule:evenodd;stroke:none"
         transform="matrix(1.3333333,0,0,-1.3333333,560.92707,381.2532)"
         clip-path="url(#clipPath8)" />
      <path
         id="path9"
         d="M 0,0 C 11.502,-4.722 25.144,-3.331 35.677,4.832 46.21,12.996 50.957,25.859 49.254,38.177 37.75,42.898 24.111,41.509 13.577,33.345 3.043,25.18 -1.704,12.317 0,0"
         style="fill:#086320;fill-opacity:1;fill-rule:evenodd;stroke:none"
         transform="matrix(1.3333333,0,0,-1.3333333,574.5976,321.01427)"
         clip-path="url(#clipPath10)" />
      <path
         id="path11"
         d="M 0,0 C 10.45,3.457 18.816,12.251 21.188,23.808 23.562,35.364 19.338,46.743 11.096,54.039 0.645,50.581 -7.721,41.787 -10.093,30.231 -12.466,18.674 -8.242,7.294 0,0"
         style="fill:#086320;fill-opacity:1;fill-rule:evenodd;stroke:none"
         transform="matrix(1.3333333,0,0,-1.3333333,563.29813,268.2572)"
         clip-path="url(#clipPath12)" />
      <path
         id="path13"
         d="m 0,0 c -16.583,-3.849 -34.71,1.031 -47.148,14.382 -12.438,13.35 -16.023,31.776 -11.011,48.047 16.585,3.849 34.712,-1.03 47.149,-14.38 C 1.429,34.697 5.014,16.271 0,0"
         style="fill:#086320;fill-opacity:1;fill-rule:evenodd;stroke:none"
         transform="matrix(1.3333333,0,0,-1.3333333,575.8112,501.54947)"
         clip-path="url(#clipPath14)" />
      <path
         id="path15"
         d="m 0,0 9.837,10.273 c 21.881,22.846 15.815,53.916 3.461,70.712 -8.209,11.159 -7.938,32.264 0.564,42.807 5.628,6.979 6.673,20.572 2.099,29.49 -10.756,20.977 -1.676,39.344 5.234,57.591 -4.772,-19.413 -9.712,-39.525 3.774,-54.602 6.402,-7.157 11.366,-16.706 6.761,-30.28 C 25.532,107.722 32.667,93.993 41.946,85.703 56.464,72.73 60.778,41.818 51.186,19.486 L 40.917,-4.42 Z"
         style="fill:#086320;fill-opacity:1;fill-rule:evenodd;stroke:none"
         transform="matrix(1.3333333,0,0,-1.3333333,303.39387,541.9688)"
         clip-path="url(#clipPath16)" />
      <path
         id="path17"
         d="M 0,0 C -6.905,15.328 -5.651,33.826 4.901,48.433 15.454,63.04 32.618,70.043 49.343,68.304 56.248,52.972 54.993,34.476 44.441,19.869 33.889,5.264 16.722,-1.739 0,0"
         style="fill:#086320;fill-opacity:1;fill-rule:evenodd;stroke:none"
         transform="matrix(1.3333333,0,0,-1.3333333,355.724,458.4596)"
         clip-path="url(#clipPath18)" />
      <path
         id="path19"
         d="M 0,0 C 5.764,12.797 4.716,28.234 -4.091,40.424 -12.898,52.617 -27.225,58.461 -41.183,57.009 -46.947,44.215 -45.899,28.778 -37.092,16.585 -28.285,4.394 -13.957,-1.451 0,0"
         style="fill:#086320;fill-opacity:1;fill-rule:evenodd;stroke:none"
         transform="matrix(1.3333333,0,0,-1.3333333,320.498,397.90693)"
         clip-path="url(#clipPath20)" />
      <path
         id="path21"
         d="M 0,0 C 10.858,-4.456 23.734,-3.145 33.675,4.562 43.619,12.269 48.099,24.41 46.492,36.036 35.633,40.493 22.759,39.182 12.816,31.475 2.873,23.768 -1.608,11.627 0,0"
         style="fill:#086320;fill-opacity:1;fill-rule:evenodd;stroke:none"
         transform="matrix(1.3333333,0,0,-1.3333333,333.40293,341.0456)"
         clip-path="url(#clipPath22)" />
      <path
         id="path23"
         d="M 0,0 C 9.865,3.263 17.76,11.564 19.999,22.472 22.24,33.38 18.253,44.121 10.473,51.007 0.608,47.744 -7.287,39.442 -9.527,28.534 -11.767,17.626 -7.78,6.886 0,0"
         style="fill:#086320;fill-opacity:1;fill-rule:evenodd;stroke:none"
         transform="matrix(1.3333333,0,0,-1.3333333,322.73827,291.24613)"
         clip-path="url(#clipPath24)" />
      <path
         id="path25"
         d="M 0,0 C -15.654,-3.632 -32.764,0.973 -44.504,13.575 -56.245,26.177 -59.628,43.57 -54.898,58.928 -39.244,62.56 -22.134,57.955 -10.393,45.354 1.348,32.751 4.731,15.357 0,0"
         style="fill:#086320;fill-opacity:1;fill-rule:evenodd;stroke:none"
         transform="matrix(1.3333333,0,0,-1.3333333,334.5508,511.4544)"
         clip-path="url(#clipPath26)" />
      <path
         id="path27"
         d="m 0,0 -23.483,-1.175 -61.73,9.85 -33.504,21.399 -2.759,5.633 c -5.02,10.254 -15.105,16.388 -26.241,15.96 l -1.315,-0.052 5.421,-22.348 c 1.65,-6.803 4.579,-12.341 9.32,-17.624 l 24.978,-27.834 c 5.307,-5.913 11.295,-9.712 18.814,-11.944 L -25.687,-47.357 0,-50.496 Z"
         style="fill:#d67545;fill-opacity:1;fill-rule:evenodd;stroke:none"
         transform="matrix(1.3333333,0,0,-1.3333333,267.00453,614.414)"
         clip-path="url(#clipPath28)" />
      <path
         id="path29"
         d="m 0,0 -23.483,-1.082 -61.731,9.08 -33.504,19.726 -2.758,5.193 c -5.02,9.451 -15.106,15.106 -26.241,14.71 l -1.315,-0.045 5.42,-20.602 c 1.651,-6.271 4.579,-11.375 9.321,-16.247 l 24.978,-25.658 c 5.307,-5.449 11.293,-8.954 18.814,-11.009 L -25.687,-43.654 0,-46.548 Z"
         style="fill:#d67545;fill-opacity:1;fill-rule:evenodd;stroke:none"
         transform="matrix(1.3333333,0,0,-1.3333333,309.9232,617.8464)"
         clip-path="url(#clipPath30)" />
      <path
         id="path31"
         d="m 0,0 -23.481,-1.084 -61.732,9.08 -33.503,19.726 -2.758,5.193 c -5.022,9.451 -15.107,15.106 -26.242,14.712 l -1.315,-0.047 5.421,-20.602 c 1.65,-6.271 4.579,-11.375 9.319,-16.246 l 24.979,-25.657 c 5.307,-5.451 11.294,-8.954 18.813,-11.01 L -25.687,-43.655 0,-46.549 Z"
         style="fill:#d67545;fill-opacity:1;fill-rule:evenodd;stroke:none"
         transform="matrix(1.3333333,0,0,-1.3333333,348.72467,627.25133)"
         clip-path="url(#clipPath32)" />
      <path
         id="path33"
         d="m 0,0 23.481,-1.175 61.732,9.85 33.503,21.399 2.759,5.633 c 5.02,10.254 15.106,16.388 26.242,15.96 l 1.314,-0.052 -5.422,-22.348 C 141.96,22.464 139.031,16.926 134.29,11.643 l -24.98,-27.834 c -5.305,-5.913 -11.292,-9.712 -18.811,-11.944 L 25.686,-47.357 0,-50.496 Z"
         style="fill:#d67545;fill-opacity:1;fill-rule:evenodd;stroke:none"
         transform="matrix(1.3333333,0,0,-1.3333333,612.84507,614.414)"
         clip-path="url(#clipPath34)" />
      <path
         id="path35"
         d="m 0,0 23.483,-1.082 61.73,9.08 33.504,19.726 2.758,5.193 c 5.022,9.451 15.106,15.106 26.242,14.71 l 1.315,-0.045 -5.421,-20.602 c -1.651,-6.271 -4.579,-11.375 -9.32,-16.247 L 109.313,-14.925 C 104.005,-20.374 98.02,-23.879 90.499,-25.934 L 25.687,-43.654 0,-46.548 Z"
         style="fill:#d67545;fill-opacity:1;fill-rule:evenodd;stroke:none"
         transform="matrix(1.3333333,0,0,-1.3333333,569.92573,617.8464)"
         clip-path="url(#clipPath36)" />
      <path
         id="path37"
         d="m 0,0 23.481,-1.084 61.733,9.08 33.502,19.726 2.76,5.193 c 5.019,9.451 15.106,15.106 26.24,14.712 l 1.315,-0.047 -5.421,-20.602 c -1.65,-6.271 -4.579,-11.375 -9.32,-16.246 L 109.311,-14.925 C 104.005,-20.376 98.018,-23.879 90.5,-25.935 L 25.686,-43.655 0,-46.549 Z"
         style="fill:#d67545;fill-opacity:1;fill-rule:evenodd;stroke:none"
         transform="matrix(1.3333333,0,0,-1.3333333,531.12373,627.25133)"
         clip-path="url(#clipPath38)" />
      <path
         id="path39"
         d="m 0,0 c 127.796,0 231.395,-47.018 231.395,-105.018 0,-6.732 -1.414,-13.316 -4.083,-19.696 h -454.625 c -2.669,6.38 -4.082,12.964 -4.082,19.696 C -231.395,-47.018 -127.796,0 0,0"
         style="fill:#18963a;fill-opacity:1;fill-rule:evenodd;stroke:none"
         transform="matrix(1.3333333,0,0,-1.3333333,439.92453,490.70827)"
         clip-path="url(#clipPath40)" />
      <path
         id="path41"
         d="m 0,0 v 164.59 c 0,16.923 -6.035,31.488 -18,43.455 l -20.819,20.817 c -9.967,9.967 -21.48,15.584 -35.468,17.303 l -53.409,6.567 c -12.041,1.482 -22.198,3.64 -33.8,7.182 -8.959,2.734 -17.575,3.468 -27.197,2.363 l -0.708,-0.081 c -4.471,-0.514 -7.951,-3.712 -8.843,-8.122 -0.891,-4.41 1.075,-8.709 4.996,-10.917 8.157,-4.596 16.515,-7.25 25.711,-8.151 13.687,-1.343 25.154,-5.014 37.077,-11.869 l 7.245,-4.166 c 3.668,-2.11 5.478,-6.168 4.596,-10.307 -0.881,-4.139 -4.189,-7.107 -8.398,-7.538 l -43.628,-4.468 -61.731,6.613 -33.503,19.645 -2.759,5.488 c -5.021,9.99 -15.106,15.596 -26.241,14.583 l -1.315,-0.12 5.421,-22.063 c 1.649,-6.717 4.578,-12.102 9.319,-17.136 l 24.979,-26.524 c 5.307,-5.634 11.293,-9.122 18.813,-10.958 l 64.812,-15.826 54.839,-4.965 c 13.324,-1.205 23.649,-11.977 23.649,-25.354 L -94.362,0 Z"
         style="fill:#f29d72;fill-opacity:1;fill-rule:evenodd;stroke:none"
         transform="matrix(1.3333333,0,0,-1.3333333,443.23173,880)"
         clip-path="url(#clipPath42)" />
      <path
         id="path43"
         d="m 0,0 v 164.59 c 0,16.923 6.032,31.488 17.999,43.455 l 20.819,20.817 c 9.965,9.967 21.478,15.584 35.468,17.303 l 53.409,6.567 c 12.04,1.482 22.197,3.64 33.799,7.182 8.96,2.734 17.576,3.468 27.197,2.363 l 0.709,-0.081 c 4.472,-0.514 7.951,-3.712 8.842,-8.122 0.892,-4.41 -1.076,-8.709 -4.996,-10.917 -8.157,-4.596 -16.515,-7.25 -25.71,-8.151 -13.688,-1.343 -25.154,-5.014 -37.077,-11.869 l -7.245,-4.166 c -3.668,-2.11 -5.479,-6.168 -4.597,-10.307 0.882,-4.139 4.189,-7.107 8.399,-7.538 l 43.626,-4.468 61.733,6.613 33.504,19.645 2.757,5.488 c 5.02,9.99 15.107,15.596 26.242,14.583 l 1.314,-0.12 -5.42,-22.063 c -1.651,-6.717 -4.58,-12.102 -9.319,-17.136 l -24.979,-26.524 c -5.308,-5.634 -11.295,-9.122 -18.813,-10.958 L 172.848,150.36 118.009,145.395 C 104.684,144.19 94.36,133.418 94.36,120.041 V 0 Z"
         style="fill:#ed8e5f;fill-opacity:1;fill-rule:evenodd;stroke:none"
         transform="matrix(1.3333333,0,0,-1.3333333,436.61853,880)"
         clip-path="url(#clipPath44)" />
      <path
         id="path45"
         d="m 0,0 12.354,12.898 c 27.476,28.691 19.859,67.706 4.347,88.797 -10.31,14.016 -9.97,40.514 0.707,53.754 7.066,8.763 8.377,25.832 2.634,37.032 -13.507,26.34 -2.103,49.403 6.573,72.318 -5.991,-24.378 -12.196,-49.634 4.74,-68.565 8.038,-8.987 14.274,-20.978 8.49,-38.023 C 32.061,135.27 41.021,118.03 52.674,107.619 70.903,91.33 76.32,52.513 64.276,24.469 L 51.382,-5.55 Z"
         style="fill:#18963a;fill-opacity:1;fill-rule:evenodd;stroke:none"
         transform="matrix(1.3333333,0,0,-1.3333333,408.75787,509.28907)"
         clip-path="url(#clipPath46)" />
      <path
         id="path47"
         d="M 0,0 C -8.672,19.25 -7.096,42.477 6.156,60.82 19.407,79.163 40.962,87.956 61.962,85.771 70.632,66.521 69.057,43.294 55.807,24.952 42.556,6.609 21,-2.184 0,0"
         style="fill:#18963a;fill-opacity:1;fill-rule:evenodd;stroke:none"
         transform="matrix(1.3333333,0,0,-1.3333333,474.47,404.42507)"
         clip-path="url(#clipPath48)" />
      <path
         id="path49"
         d="m 0,0 c 7.239,16.067 5.924,35.453 -5.136,50.763 -11.06,15.31 -29.051,22.649 -46.578,20.826 -7.238,-16.067 -5.923,-35.454 5.137,-50.762 C -35.518,5.518 -17.526,-1.821 0,0"
         style="fill:#18963a;fill-opacity:1;fill-rule:evenodd;stroke:none"
         transform="matrix(1.3333333,0,0,-1.3333333,430.23573,328.38613)"
         clip-path="url(#clipPath50)" />
      <path
         id="path51"
         d="M 0,0 C 13.637,-5.596 29.804,-3.949 42.29,5.728 54.774,15.406 60.401,30.652 58.383,45.252 44.748,50.849 28.579,49.201 16.095,39.524 3.609,29.846 -2.019,14.6 0,0"
         style="fill:#18963a;fill-opacity:1;fill-rule:evenodd;stroke:none"
         transform="matrix(1.3333333,0,0,-1.3333333,446.44013,256.9844)"
         clip-path="url(#clipPath52)" />
      <path
         id="path53"
         d="M 0,0 C 12.387,4.098 22.303,14.521 25.116,28.219 27.928,41.917 22.921,55.405 13.152,64.051 0.765,59.954 -9.15,49.529 -11.962,35.832 -14.776,22.134 -9.77,8.647 0,0"
         style="fill:#18963a;fill-opacity:1;fill-rule:evenodd;stroke:none"
         transform="matrix(1.3333333,0,0,-1.3333333,433.0488,194.45053)"
         clip-path="url(#clipPath54)" />
      <path
         id="path55"
         d="M 0,0 C -19.658,-4.562 -41.142,1.22 -55.884,17.045 -70.628,32.869 -74.877,54.71 -68.936,73.995 -49.28,78.557 -27.792,72.775 -13.05,56.95 1.692,41.125 5.94,19.284 0,0"
         style="fill:#18963a;fill-opacity:1;fill-rule:evenodd;stroke:none"
         transform="matrix(1.3333333,0,0,-1.3333333,447.8828,470.9688)"
         clip-path="url(#clipPath56)" />
    </g>
  </g>
</svg>
