<?xml version="1.0" encoding="UTF-8" standalone="no"?>
<!DOCTYPE svg PUBLIC "-//W3C//DTD SVG 1.1//EN" "http://www.w3.org/Graphics/SVG/1.1/DTD/svg11.dtd">
<svg width="100%" height="100%" viewBox="0 0 647 547" version="1.1" xmlns="http://www.w3.org/2000/svg" xmlns:xlink="http://www.w3.org/1999/xlink" xml:space="preserve" xmlns:serif="http://www.serif.com/" style="fill-rule:evenodd;clip-rule:evenodd;stroke-linejoin:round;stroke-miterlimit:2;">
    <g>
        <path d="M200.07,271.78C199.91,266.76 201.02,261.97 202.73,257.3C203.41,255.45 204.79,254.16 206.54,253.17C220.33,245.37 234.11,237.54 247.88,229.68C263.17,220.95 278.43,212.18 293.7,203.43C296.67,201.73 299.68,200.1 302.61,198.33C303.92,197.53 304.95,197.51 306.32,198.32C321.2,207.11 336.12,215.84 351.04,224.57C370.36,235.87 389.69,247.14 409.02,258.43C416.65,262.89 424.25,267.41 431.91,271.84C433.11,272.53 433.59,273.34 433.57,274.69C433.5,279.14 434.1,278.24 430.49,279.98C427.93,281.21 427.5,283.22 426.97,285.44C427.22,288.44 427.05,291.45 427.23,294.45C427.3,295.65 427.96,296.53 428.97,297.17C429.78,297.68 430.66,298.08 431.47,298.58C435.31,300.94 435.45,305.42 431.58,307.85C425.97,311.38 420.13,314.52 414.38,317.8C400.59,325.68 386.8,333.58 372.99,341.43C370.76,342.7 370.78,342.87 372.4,344.97C373.21,346.02 374.43,346.81 374.66,348.27C376.33,349.48 378,350.68 379.68,351.89C380.14,352.22 380.67,352.55 380.4,353.22C380.16,353.82 379.59,353.9 379,353.89C375.74,353.84 372.47,353.85 369.21,353.73C367.88,353.68 367.21,353.96 366.93,355.42C366.53,357.52 365.86,359.57 365.22,361.61C364.74,363.12 364.31,363.28 363.04,362.32C361.14,360.88 359.31,359.34 357.46,357.85C355.9,357.25 354.9,355.97 353.95,354.72C353.09,353.59 352.25,353.5 351.11,354.21C349.97,354.93 348.73,355.51 347.61,356.25C343.75,358.79 339.39,360.35 335.39,362.63C333.39,363.51 331.6,363.16 329.73,362.05C311.75,351.41 293.73,340.84 275.75,330.2C274.3,329.34 273.22,329.33 271.69,330.14C264.54,333.95 257.55,338.05 250.49,342.02C249.89,343.44 249.73,344.92 249.74,346.45C249.77,352.66 249.78,358.87 249.74,365.08C249.73,366.68 250.18,367.92 251.33,369.13C253.74,371.67 254.76,374.65 253.3,378.11C252.73,379.46 252.59,380.86 252.83,382.3C254.03,384.95 255.29,387.59 256.43,390.26C258.21,394.44 261.36,397.29 265.21,399.51C270.16,402.37 275.11,405.22 280.08,408.05C284.92,410.81 289.78,413.55 294.63,416.29C298.86,418.68 303.08,421.09 307.29,423.53C307.83,423.84 308.24,424.37 308.8,424.88C307.7,426.47 305.8,426.93 304.27,427.8C300.42,430 296.52,432.1 292.72,434.39C291.77,434.96 291.19,434.41 290.56,434.03C286.25,431.4 281.98,428.72 277.68,426.06C269.11,420.76 260.56,415.43 251.96,410.17C249.63,408.74 247.44,407.02 245.69,404.91C243.83,402.68 242.66,400.06 242,397.24C241.66,395.81 241.47,394.33 241.23,392.89C241.13,392.32 241.14,391.73 241.14,391.16C241.15,390.42 241.28,389.56 241.16,388.84C241.04,388.16 240.71,387.58 240.74,386.86C241.09,383.59 241.51,380.32 239.43,377.35C239.05,376.8 239.04,375.99 239.1,375.26C239.21,374.64 239.3,374.01 239.33,373.37C239.43,372.4 239.66,371.4 240.3,370.7C242.13,368.68 242.22,366.28 242.18,363.76C242.1,359.29 242.17,354.81 242.15,350.34C242.15,349.57 242.4,348.74 241.72,347.98C239.76,348.66 238.05,349.82 236.32,350.94C235.31,351.59 235.36,352.71 235.35,353.75C235.34,357.34 235.21,360.95 235.37,364.53C235.8,373.97 231.43,381.12 224.64,387.04C214.2,396.15 201.59,400.16 188.18,402.1C183.36,402.8 178.51,403.29 173.62,403.13C171.25,403.05 168.85,403.27 166.56,402.41C165.81,402.01 164.97,401.99 164.15,401.89C163.33,401.5 162.41,401.92 161.59,401.55C161,401.5 160.42,401.45 159.83,401.4C159.33,401.13 158.73,401.31 158.22,401.08C157.8,401.03 157.37,400.98 156.95,400.93C156.49,400.63 155.89,400.89 155.44,400.58C155.15,400.54 154.85,400.5 154.56,400.46C154.12,400.13 153.51,400.44 153.08,400.08C149.68,399.87 146.5,398.66 143.36,397.54C137.88,395.58 132.62,393.09 127.87,389.63C122.53,385.73 117.97,381.2 115.32,375.01C115.01,374.29 114.58,373.6 114.74,372.76C114.35,372.34 114.69,371.72 114.34,371.29C114.3,371.03 114.26,370.77 114.21,370.51C113.91,369.63 114.1,368.73 114.04,367.84C113.97,367.23 114.23,366.58 113.81,366.02C113.63,365.22 113.64,364.42 113.81,363.62C114.19,359.63 114.19,355.63 113.81,351.64C112.99,350.38 111.54,350 110.34,349.32C101.87,344.49 93.34,339.76 84.83,334.99C80.31,332.45 75.79,329.89 71.27,327.36C70.79,327.09 70.22,326.94 70.13,326.27C69.78,324.45 69.82,322.64 70.1,320.82C70.49,319.41 71.93,319.18 72.91,318.62C80.93,314.01 89.05,309.59 97.1,305.05C105.46,300.34 113.78,295.55 122.14,290.84C129.46,286.73 136.84,282.71 144.17,278.61C152.73,273.81 161.26,268.96 169.81,264.14C170.57,263.71 171.41,263.4 172.1,262.89C173.29,262.02 174.26,262.07 175.59,262.84C179.94,265.33 184.33,267.76 188.64,270.33C190.83,271.64 193.12,272.79 195.41,273.91C196.7,274.54 197.73,275.65 199.18,275.98C200.39,275.87 199.78,274.93 199.87,274.36C200.01,273.49 199.8,272.61 200.07,271.78Z" style="fill:rgb(15,16,16);fill-rule:nonzero;"/>
        <path d="M479.76,285.41C479.06,285.57 478.34,285.42 477.64,285.7C475.12,286.7 472.84,286.06 470.6,284.7C463.71,280.53 456.78,276.42 449.86,272.31C432.66,262.08 415.46,251.86 398.26,241.64C385.99,234.35 373.73,227.06 361.45,219.8C359.36,218.56 357.51,217.12 356.14,215.08C353.88,211.73 353.15,208.18 354.05,204.17C357.56,188.37 360.97,172.55 364.39,156.74C365.17,153.16 365.93,149.57 366.61,145.97C367.03,143.79 368.05,142.24 370.1,141.17C374.12,139.07 378.12,136.9 381.86,134.33C384.17,132.73 386.2,132.65 388.68,134.12C401.68,141.87 414.77,149.48 427.82,157.15C438.88,163.65 449.94,170.14 460.97,176.68C462.06,177.32 463.05,177.5 464.33,177.32C469.07,176.66 473.83,176.18 478.58,175.64C483.17,175.11 487.77,174.6 492.36,174.06C497.19,173.49 502.01,172.88 506.84,172.29C507.16,172.25 507.48,172.27 507.8,172.23C510.5,171.86 510.48,171.86 511.04,174.66C512.51,182.01 513.96,189.36 515.5,196.7C515.74,197.82 515.61,198.36 514.56,198.98C512.92,199.96 511.2,200.37 509.36,200.54C507.23,200.74 505.1,200.99 503.05,201.21C502.8,201.5 502.79,201.78 502.95,201.94C505.03,203.99 505.87,206.64 506.56,209.37C508.79,218.17 511.05,226.97 513.28,235.77C513.4,236.24 513.52,236.69 513.81,237.09C515.25,239.3 515.39,241.93 516.13,244.36C517.22,247.95 518.05,251.62 518.9,255.28C519.95,259.78 518.84,262.38 514.88,264.78C503.6,271.61 492.11,278.08 480.74,284.76C480.39,284.93 480.05,285.13 479.76,285.41Z" style="fill:rgb(19,21,19);fill-rule:nonzero;"/>
        <path d="M492.82,357.32C496.75,359.05 500.91,360.13 504.9,361.69C505.27,361.83 505.64,361.98 506.02,362.09C506.71,362.29 507.54,362.39 507.56,363.31C507.58,364.29 506.67,364.3 506.01,364.47C504.47,364.85 502.91,365.18 501.36,365.53C501.05,365.6 500.73,365.62 500.45,366.13C501.01,367.45 501.63,368.89 502.23,370.34C502.44,370.85 502.72,371.39 502.23,371.9C501.72,372.43 501.21,372.03 500.71,371.85C495.18,369.83 489.66,367.81 484.13,365.8C483.41,365.54 482.68,365.3 481.64,364.95C483.67,369.04 485.54,372.79 487.4,376.54C487.54,376.83 487.69,377.11 487.8,377.4C488.06,378.1 488.84,378.77 488.06,379.56C487.37,380.26 486.7,379.57 486.08,379.36C484.58,378.85 483.1,378.26 481.63,377.66C480.66,377.26 480,377.44 479.44,378.38C478.79,379.47 478.04,380.52 477.25,381.51C476.16,382.87 475.41,382.76 474.7,381.11C473.16,377.53 471.68,373.92 470.17,370.33C468.4,369.29 468.37,367.22 467.48,365.66C466.2,363.41 466.11,363.3 463.9,364.68C456.99,369 450.29,373.63 443.43,378.01C431.19,385.84 419.14,393.95 406.86,401.72C403.99,403.54 400.99,404.61 397.57,403.48C392.24,402.4 388.11,399.31 384.6,395.39C379.71,389.92 376.54,383.55 375.44,376.23C375.14,374.24 375.18,372.26 375.47,370.27C376.09,365.96 378.37,363.09 382.33,361.2C403.87,350.91 425.28,340.33 446.6,329.6C449.86,327.96 452.85,325.76 456.1,324.09C463.14,320.47 469.58,315.9 476.18,311.6C489.35,303.03 502.5,294.44 515.56,285.72C520,282.76 524.32,282.74 528.81,285.26C535.3,288.92 539.34,294.62 542.06,301.39C543.1,303.97 543.7,306.67 544.15,309.41C545.21,309.41 545.82,308.66 546.63,308.37C547.08,308.2 547.5,307.91 547.84,308.51C548.26,309.16 548.12,309.84 547.92,310.52L547.93,310.69C548.46,311.83 548.44,312.97 548.15,314.19C546.89,319.44 544.11,323.32 539.1,325.81C521.37,334.6 503.52,343.14 485.89,352.12C485.19,352.48 484.44,352.75 483.61,353.42C485.83,354.5 488.03,355.1 490.17,355.86C491.14,356.19 492.22,356.31 492.82,357.32Z" style="fill:rgb(17,17,16);fill-rule:nonzero;"/>
        <path d="M265.86,150.36C265.86,159.23 265.84,168.09 265.87,176.96C265.89,182.49 263.52,186.6 258.75,189.35C257.3,190.18 255.87,191.06 254.36,191.78C253.19,192.34 252.81,193.09 252.84,194.39C252.94,200.06 252.92,205.73 252.94,211.4C252.95,214.22 252.67,214.39 250.16,213.1C244.78,210.34 239.37,207.62 234.02,204.79C232.88,204.18 232.07,204.26 230.99,204.87C216.93,212.87 202.84,220.8 188.79,228.82C185.86,230.49 183.21,230.74 180.34,228.69C178.47,227.35 176.37,226.33 174.32,225.27C171.49,223.8 170.14,221.57 170.14,218.34C170.11,205.96 169.93,193.58 169.97,181.2C169.98,179.31 169.38,178.25 167.8,177.49C167.08,177.15 166.45,176.63 165.73,176.29C160.74,173.94 159.17,169.61 158.97,164.54C158.86,161.8 159.45,159.13 160.34,156.56C162.66,149.86 166.54,144.34 172.81,140.78C177.25,138.25 181.7,138.07 186.09,141.07C187.66,142.14 189.31,143.61 191.05,143.8C192.82,144 194.39,142.2 196.03,141.27C212.8,131.77 229.57,122.27 246.3,112.69C249.37,110.93 252.21,110.69 255.24,112.7C257.43,114.15 259.73,115.43 262.04,116.69C264.4,117.98 265.4,119.94 265.41,122.56C265.43,128.39 265.5,134.22 265.54,140.05C265.56,143.48 265.54,146.92 265.54,150.35C265.64,150.36 265.75,150.36 265.86,150.36Z" style="fill:rgb(16,19,16);fill-rule:nonzero;"/>
        <path d="M239.48,375.1C239.92,377.01 240.25,378.97 241.7,380.44C242.36,381.11 242,381.82 241.81,382.42C241.36,383.8 241.4,385.2 241.38,386.61C240.96,387.05 241.2,387.6 241.13,388.09C241.13,388.31 241.03,388.48 240.84,388.59C224.79,397.7 208.73,406.79 192.7,415.95C191.45,416.66 190.61,416.79 189.3,415.99C182.3,411.73 175.22,407.6 168.17,403.42C167.62,403.1 167.1,402.74 166.56,402.4C166.79,402.16 167.03,401.98 167.39,402.03C172.22,402.69 177.03,402.54 181.88,402.05C184.96,401.74 188.04,401.49 191.08,400.98C197.21,399.95 203.15,398.22 208.92,395.9C213.16,394.19 217.04,391.88 220.77,389.28C225.28,386.15 229.01,382.26 231.71,377.5C233.61,374.16 234.73,370.52 234.66,366.58C234.59,361.95 234.68,357.32 234.62,352.69C234.6,351.41 234.98,350.67 236.17,350.08C238.29,349.03 240.31,347.76 242.29,346.62C243,346.98 242.79,347.51 242.79,347.94C242.8,354.25 242.77,360.55 242.82,366.86C242.83,368.07 242.49,368.97 241.64,369.84C240.63,370.87 239.91,372.13 239.92,373.67C239.49,374.04 239.9,374.71 239.48,375.1Z" style="fill:rgb(41,39,38);fill-rule:nonzero;"/>
        <path d="M374.66,348.26C373.15,347.08 372.15,345.43 370.83,344.07C369.73,342.93 369.72,342.77 371.07,341.94C373.92,340.2 376.82,338.54 379.71,336.87C384.95,333.85 390.19,330.84 395.44,327.85C400.42,325.01 405.42,322.22 410.4,319.39C415.44,316.51 420.47,313.61 425.5,310.7C427.57,309.51 429.65,308.33 431.66,307.05C433.44,305.92 434.33,303.03 433.6,301.14C433.36,300.52 432.83,300.16 432.3,299.79C431.18,299.01 429.98,298.4 428.77,297.79C427.38,297.09 426.58,295.95 426.56,294.39C426.52,291.68 426.54,288.96 426.58,286.25C426.58,285.97 426.84,285.7 426.98,285.42C426.89,286.49 427.34,287.11 428.31,287.68C435.88,292.1 443.41,296.59 450.95,301.06C451.63,301.46 452.29,301.89 452.97,302.3C452.79,303.38 451.9,303.55 451.27,303.92C431.9,315.01 412.51,326.08 393.13,337.15C387.45,340.39 381.76,343.61 376.1,346.87C375.51,347.2 374.58,347.26 374.66,348.26Z" style="fill:rgb(50,50,48);fill-rule:nonzero;"/>
        <path d="M479.76,285.41C479.77,284.56 480.37,284.21 481.02,283.83C489.16,279.14 497.3,274.43 505.42,269.7C508.79,267.74 512.15,265.76 515.47,263.7C518.21,262 519.25,259.14 518.4,255.79C516.99,250.16 515.53,244.55 514.05,238.94C513.88,238.31 513.81,237.69 513.8,237.06C522.29,242.08 530.8,247.07 539.27,252.13C542.64,254.14 542.51,257.65 539.03,259.64C527.56,266.2 516.07,272.73 504.59,279.27C502.24,280.61 499.91,281.98 497.54,283.3C494.84,284.8 491.95,285.57 488.84,285.53C485.82,285.48 482.79,285.45 479.76,285.41Z" style="fill:rgb(50,49,47);fill-rule:nonzero;"/>
        <path d="M252.82,382.29C251.79,380.91 251.73,379.64 252.56,377.99C254.13,374.86 253.13,371.17 250.27,369.07C249.26,368.33 249.04,367.55 249.05,366.46C249.07,359.11 249.08,351.76 249.04,344.42C249.03,343.24 249.32,342.4 250.49,342.01C254.38,344.76 258.62,346.94 262.7,349.37C269.94,353.67 277.21,357.92 284.46,362.2C284.8,362.4 285.12,362.63 285.52,362.9C284.34,363.98 282.97,364.64 281.67,365.38C272.63,370.54 263.56,375.65 254.49,380.78C253.83,381.16 252.96,381.32 252.82,382.29Z" style="fill:rgb(41,39,38);fill-rule:nonzero;"/>
        <path d="M492.82,357.32C489.32,356.15 485.74,355.19 482.33,353.56C482.87,352.78 483.52,352.62 484.07,352.34C491.41,348.66 498.74,344.96 506.1,341.32C516.8,336.03 527.44,330.61 538.25,325.56C544.73,322.53 547.54,317.49 547.93,310.68C549.1,312.03 550.79,312.65 552.15,313.75C553.78,315.07 555.28,316.47 556.01,318.5C557.15,321.62 556.35,324.15 553.55,325.92C549.71,328.34 545.59,330.25 541.56,332.31C525.51,340.55 509.41,348.69 493.34,356.88C493.15,356.98 493,357.17 492.82,357.32Z" style="fill:rgb(50,50,47);fill-rule:nonzero;"/>
        <path d="M397.57,403.47C400.12,403.49 402.69,403.48 404.98,402.14C407.11,400.9 409.2,399.59 411.26,398.24C419.71,392.72 428.09,387.08 436.6,381.65C443.84,377.03 451.02,372.32 458.2,367.61C460.33,366.22 462.45,364.82 464.63,363.51C466.58,362.35 466.6,362.41 467.5,364.44C468.37,366.4 469.27,368.35 470.16,370.31C467.33,371.61 464.91,373.57 462.31,375.23C447.85,384.52 433.43,393.87 419.01,403.23C416.55,404.83 413.94,405.78 410.98,405.88C406.33,406.05 401.79,405.66 397.57,403.47Z" style="fill:rgb(50,49,48);fill-rule:nonzero;"/>
        <path d="M335.39,362.62C336.17,361.32 337.31,360.56 338.77,360.15C340.3,359.72 341.71,359.02 343.09,358.16C345.99,356.35 349.03,354.76 351.96,353C352.71,352.55 353.24,352.72 353.58,353.31C354.59,355.07 356.36,356.16 357.45,357.84C355.15,358.78 353.07,360.12 350.95,361.37C349.73,362.09 348.5,362.47 347.12,362.52C343.22,362.64 339.31,362.74 335.39,362.62Z" style="fill:rgb(51,51,49);fill-rule:nonzero;"/>
        <path d="M113.82,351.61C114.24,351.94 114.28,352.4 114.28,352.88L114.28,362.32C114.28,362.8 114.23,363.26 113.82,363.59C113.66,359.6 113.63,355.6 113.82,351.61Z" style="fill:rgb(22,22,21);fill-rule:nonzero;"/>
        <path d="M70.11,320.78C70.28,322.6 70.24,324.41 70.14,326.23C69.7,324.42 69.78,322.6 70.11,320.78Z" style="fill:rgb(41,39,38);fill-rule:nonzero;"/>
        <path d="M200.07,271.78C200.1,273.04 200.17,274.29 200.13,275.55C200.11,276.12 199.74,276.39 199.19,275.95C199.82,275.82 199.79,275.32 199.81,274.84C199.87,273.82 199.64,272.77 200.07,271.78Z" style="fill:rgb(41,39,38);fill-rule:nonzero;"/>
        <path d="M114.28,367.43C114.26,368.45 114.24,369.46 114.21,370.48C113.59,369.52 113.77,368.47 113.83,367.42C113.99,367.21 114.13,367.21 114.28,367.43Z" style="fill:rgb(41,39,38);fill-rule:nonzero;"/>
        <path d="M161.6,401.54C162.47,401.5 163.38,401.18 164.16,401.88C163.29,401.91 162.39,402.07 161.6,401.54Z" style="fill:rgb(41,39,38);fill-rule:nonzero;"/>
        <path d="M547.94,310.51C547.91,309.84 547.88,309.17 547.86,308.5C548.68,309.14 548.2,309.83 547.94,310.51Z" style="fill:rgb(50,50,47);fill-rule:nonzero;"/>
        <path d="M114.28,367.43L113.83,367.43C113.67,366.95 113.66,366.47 113.82,365.99C114.37,366.34 114.27,366.91 114.28,367.43Z" style="fill:rgb(22,22,21);fill-rule:nonzero;"/>
        <path d="M114.34,371.27C114.86,371.66 114.81,372.2 114.74,372.74C114.35,372.32 114.25,371.82 114.34,371.27Z" style="fill:rgb(41,39,38);fill-rule:nonzero;"/>
        <path d="M153.08,400.07C153.62,400 154.16,399.94 154.56,400.45C154.02,400.52 153.5,400.51 153.08,400.07Z" style="fill:rgb(41,39,38);fill-rule:nonzero;"/>
        <path d="M155.45,400.56C156,400.47 156.55,400.4 156.96,400.91C156.41,400.99 155.88,400.99 155.45,400.56Z" style="fill:rgb(41,39,38);fill-rule:nonzero;"/>
        <path d="M158.23,401.07C158.81,400.98 159.39,400.86 159.84,401.39C159.27,401.44 158.69,401.54 158.23,401.07Z" style="fill:rgb(41,39,38);fill-rule:nonzero;"/>
        <path d="M430.29,273.23C429.76,274.01 428.93,274.35 428.17,274.78C416.46,281.45 404.73,288.1 393.03,294.79C375.51,304.8 358,314.83 340.48,324.85C340.27,324.97 340.06,325.08 339.86,325.22C338.48,326.23 337.35,326.08 335.81,325.11C330.82,321.96 325.65,319.09 320.56,316.11C296.89,302.22 273.22,288.33 249.55,274.43C237.78,267.52 226.02,260.62 214.26,253.69C213.6,253.3 212.78,253.08 212.33,252.15C214.94,250.65 217.54,249.14 220.14,247.65C234.47,239.46 248.81,231.28 263.14,223.09C276.37,215.53 289.59,207.97 302.8,200.38C303.94,199.72 304.83,199.59 306.06,200.32C314.7,205.46 323.39,210.5 332.07,215.58C347.56,224.64 363.06,233.69 378.55,242.75C394.94,252.34 411.32,261.94 427.69,271.55C428.59,272.06 429.56,272.45 430.29,273.23Z" style="fill:rgb(110,126,141);fill-rule:nonzero;"/>
        <path d="M275.14,320.92C273.71,322.37 271.74,323.11 269.96,324.08C263.67,327.53 257.4,331.01 251.23,334.66C250.48,335.11 249.66,335.44 248.88,335.86C248.13,336.27 247.41,336.26 246.58,336C240.28,334.02 233.98,332 227.64,330.15C218.78,327.56 210.01,324.69 201.1,322.24C196.04,320.85 191.06,319.2 186.03,317.71C185.06,317.42 184.23,317.04 183.82,316.07C182.58,313.17 179.85,312.34 177.24,311.92C174.61,311.5 171.83,311.5 169.17,312.3C167.52,312.79 166.11,313.66 165.04,315.03C163.44,317.08 163.89,319.79 165.99,321.34C169.76,324.12 173.95,324.36 178.29,323.26C180.01,322.82 181.51,322.61 183.34,323.14C189.61,324.96 195.83,326.94 202.08,328.81C210.01,331.18 217.96,333.46 225.89,335.82C230.62,337.23 235.32,338.72 240.15,340.21C239.76,341.23 238.8,341.34 238.11,341.74C233.84,344.22 229.55,346.67 225.26,349.12C219.37,352.47 213.41,355.68 207.57,359.11C202.97,361.81 198.23,364.28 193.57,366.89C189.19,369.34 184.84,371.85 180.48,374.32C178.82,375.26 177.14,376.19 175.46,377.1C174.57,377.59 173.66,377.68 172.73,377.15C167.4,374.11 162.08,371.06 156.73,368.06C152,365.41 147.23,362.85 142.5,360.2C138.19,357.79 133.92,355.3 129.63,352.87C125.47,350.51 121.29,348.19 117.13,345.85C111.02,342.41 104.92,338.95 98.81,335.52C94.22,332.95 89.6,330.43 85.01,327.86C81.06,325.65 77.14,323.39 73,321.04C74.14,319.84 75.53,319.37 76.71,318.67C81.11,316.09 85.62,313.71 90.07,311.2C95.83,307.96 101.56,304.65 107.32,301.4C111.55,299.01 115.81,296.67 120.05,294.29C125.47,291.25 130.89,288.2 136.31,285.16C141.38,282.32 146.45,279.5 151.51,276.64C157.2,273.43 162.86,270.17 168.55,266.96C170.15,266.06 171.83,265.31 173.41,264.37C174.14,263.94 174.63,264.26 175.17,264.55C177.57,265.82 179.96,267.08 182.33,268.41C187.2,271.13 192.05,273.88 196.91,276.62C200.87,278.85 204.82,281.08 208.78,283.32C212.25,285.28 215.71,287.24 219.18,289.2C225.36,292.68 231.53,296.16 237.72,299.63C242.1,302.09 246.5,304.51 250.88,306.96C255.6,309.61 260.31,312.3 265.03,314.95C268.16,316.71 271.3,318.43 274.44,320.17C274.7,320.32 275.02,320.41 275.14,320.92Z" style="fill:rgb(41,39,38);fill-rule:nonzero;"/>
        <path d="M117.16,353.04C118.8,354.02 120.39,355.09 122.09,355.96C127.84,358.9 133.4,362.18 139.01,365.37C143.72,368.05 148.51,370.59 153.24,373.23C157.55,375.64 161.81,378.14 166.11,380.57C168.33,381.82 170.6,383 172.83,384.23C173.84,384.78 174.65,384.66 175.7,384.06C181.71,380.62 187.81,377.32 193.86,373.92C199.55,370.72 205.2,367.44 210.89,364.24C215.54,361.62 220.24,359.08 224.9,356.47C226.85,355.38 228.75,354.23 230.69,353.12C232.21,352.26 232.73,352.51 232.74,354.19C232.77,358.9 232.95,363.63 232.68,368.33C232.49,371.68 231.25,374.85 229.4,377.71C226.04,382.9 221.49,386.82 216.27,390.03C209.75,394.04 202.68,396.7 195.25,398.31C191.47,399.13 187.63,399.73 183.75,400.13C179.27,400.6 174.83,400.49 170.37,400.46C164.89,400.42 159.45,399.83 154.08,398.61C147.76,397.18 141.59,395.31 135.86,392.29C131.28,389.88 126.91,387.11 123.24,383.35C119.96,379.98 117.54,376.11 115.96,371.69C115.46,370.29 115.82,368.84 115.71,367.41C115.22,364.68 115.6,361.92 115.48,359.17C115.41,357.6 115.53,356.03 115.34,354.45C115.2,353.22 115.69,352.41 117.16,353.04Z" style="fill:rgb(41,39,38);fill-rule:nonzero;"/>
        <path d="M201.98,268.18C202.57,265.46 202.85,262.67 203.76,260.01C204.33,258.34 204.36,258.32 205.87,259.19C214.14,264.01 222.41,268.83 230.66,273.67C250.13,285.09 269.6,296.51 289.06,307.94C300.13,314.44 311.2,320.97 322.27,327.47C324.54,328.8 326.82,330.13 329.11,331.42C329.92,331.88 330.19,332.29 329.8,333.31C327.57,339.06 326.94,345.04 327.27,351.17C327.41,353.81 328.15,356.32 328.79,359.27C311.01,348.81 293.53,338.52 276.13,328.29C276.11,327.44 276.74,327.42 277.08,327.26C278.12,326.77 278.35,325.99 278.32,324.93C278.15,319.32 279.21,320.9 274.48,318.08C270.68,315.82 266.68,313.89 262.82,311.73C256.75,308.32 250.74,304.8 244.68,301.39C240.03,298.78 235.31,296.3 230.68,293.67C226.26,291.16 221.82,288.69 217.41,286.18C214.29,284.4 211.11,282.71 207.96,280.95C206.39,280.07 204.86,279.1 203.25,278.31C202.11,277.75 201.62,276.99 201.71,275.72C201.79,274.53 201.69,273.33 201.66,272.13C202.11,270.84 201.55,269.47 201.98,268.18Z" style="fill:rgb(109,126,140);fill-rule:nonzero;"/>
        <path d="M425.51,283.14C425.31,284.81 425.1,286.46 424.92,288.11C424.56,291.47 424.79,294.8 425.52,298.1C425.93,299.94 425.9,299.95 424.31,300.86C409.86,309.11 395.42,317.35 380.97,325.61C375.86,328.53 370.77,331.47 365.57,334.46C364.37,332.71 363.31,331.03 361.82,329.71C361.28,329.23 360.7,328.81 360.18,328.32C358.9,327.1 357.72,327.16 356.18,328.1C352.37,330.41 348.43,332.5 344.54,334.68C344.19,334.87 343.82,335.03 343.5,335.26C342.3,336.09 342.27,336.54 343.54,337.32C345.86,338.74 347.58,340.65 348.72,343.11C349.04,343.81 348.96,344.18 348.2,344.61C343.61,347.17 339.06,349.8 334.49,352.4C334.3,352.51 334.04,352.5 333.65,352.58C332.44,346.62 332.85,340.86 334.97,335.21C335.29,334.35 335.85,333.76 336.69,333.33C346.29,328.47 355.44,322.8 364.79,317.51C384.48,306.37 404.11,295.12 423.77,283.92C424.3,283.59 424.76,283.1 425.51,283.14Z" style="fill:white;fill-rule:nonzero;"/>
        <path d="M336.2,327.33C334.55,328.43 332.87,328.86 331.64,330.06C330.95,330.73 330.48,330.06 329.97,329.77C325.07,326.93 320.16,324.1 315.28,321.23C291.21,307.07 267.15,292.88 243.07,278.74C231.37,271.87 219.64,265.06 207.92,258.22C207.1,257.74 206.22,257.34 205.49,256.45C206.61,255.17 208.16,254.53 209.55,253.67C210.25,253.23 210.77,253.8 211.28,254.1C214.94,256.22 218.58,258.37 222.23,260.51C233.03,266.85 243.83,273.19 254.63,279.52C269.08,288 283.53,296.48 297.98,304.95C309.48,311.69 320.98,318.41 332.48,325.14C333.66,325.83 334.82,326.52 336.2,327.33Z" style="fill:rgb(111,126,140);fill-rule:nonzero;"/>
        <path d="M363.65,360.3C358.18,356.62 354.19,352.12 352.04,346.1C350.72,342.41 349.09,338.86 345.49,336.35C347.32,335.28 348.94,334.32 350.57,333.39C352.51,332.29 354.46,331.22 356.41,330.13C358.25,329.1 358.3,329.1 359.93,330.49C361.33,331.69 362.54,333.06 363.43,334.7C363.81,335.4 364.31,336.05 364.59,336.78C366.92,342.82 370.72,347.72 376,351.53C375.43,352.27 374.76,351.95 374.21,351.95C372.14,351.96 370.06,351.89 367.98,351.85C366.18,351.81 366.12,351.86 365.58,353.71C364.96,355.84 364.33,357.98 363.65,360.3Z" style="fill:white;fill-rule:nonzero;"/>
        <path d="M431.1,275.25C432,277.07 430.88,277.64 429.81,278.25C425.92,280.46 422.03,282.66 418.15,284.88C403.05,293.51 387.95,302.15 372.85,310.78C361.9,317.03 350.95,323.28 339.99,329.51C338.54,330.34 337.02,331.06 335.51,331.79C334.44,332.3 333.73,333.08 333.33,334.2C330.96,340.82 330.26,347.55 332.14,354.41C332.37,355.25 332.76,356.06 333.22,356.8C334,358.06 334.89,358.27 335.97,357.27C336.88,356.42 337.84,355.99 339.03,355.7C340.15,355.42 341.17,354.66 342.21,354.07C344.85,352.57 347.46,351.03 350.1,349.54C351.06,349 351.68,349.29 351.87,350.21C352.03,351 351.41,351.16 350.97,351.42C348.7,352.76 346.44,354.11 344.13,355.37C342.04,356.51 340.05,357.86 337.67,358.43C336.65,358.67 335.94,359.52 335.16,360.22C333.32,361.86 332.21,361.62 331.07,359.43C329.94,357.26 329.5,354.88 329.29,352.52C328.79,346.76 329.13,341.06 330.94,335.48C331.91,332.51 333.62,330.47 336.61,329.53C337.37,329.29 338.15,329.01 338.71,328.43C339.79,327.32 341.14,326.61 342.45,325.86C358.8,316.53 375.16,307.22 391.51,297.89C403.98,290.77 416.43,283.63 428.89,276.5C429.57,276.08 430.27,275.71 431.1,275.25Z" style="fill:rgb(110,126,141);fill-rule:nonzero;"/>
        <path d="M172.97,382.16C171.1,381.62 169.6,380.42 167.95,379.53C164.65,377.76 161.43,375.86 158.17,374.03C153.25,371.25 148.33,368.47 143.4,365.71C138.81,363.15 134.19,360.63 129.61,358.06C124.06,354.94 118.52,351.79 112.98,348.65C108.96,346.37 104.95,344.1 100.93,341.82C96.43,339.27 91.94,336.69 87.43,334.16C83.89,332.18 80.33,330.25 76.78,328.29C75.53,327.6 74.27,326.9 73.04,326.17C71.6,325.32 71.5,324.98 71.95,323.04C72.81,322.96 73.46,323.5 74.13,323.87C79.09,326.58 84.07,329.27 88.93,332.15C92.22,334.1 95.63,335.84 98.96,337.71C105.07,341.14 111.16,344.6 117.27,348.03C121.64,350.49 126.04,352.91 130.41,355.37C136.24,358.65 142.05,361.96 147.87,365.24C150.92,366.96 153.99,368.65 157.06,370.35C161.73,372.93 166.42,375.48 171.07,378.1C173.46,379.44 173.46,379.56 172.97,382.16Z" style="fill:rgb(41,39,38);fill-rule:nonzero;"/>
        <path d="M182.97,321.12C184.1,319.09 184.12,319.02 185.84,319.5C188.98,320.37 192.1,321.31 195.22,322.26C206.63,325.72 218.04,329.21 229.45,332.67C234.62,334.24 239.81,335.77 244.97,337.36C247.13,338.03 247.13,338.09 247.14,340.39C247.15,348.77 247.15,357.16 247.14,365.54C247.14,366.1 247.14,366.66 247.05,367.21C246.95,367.8 246.44,367.88 245.95,367.88C245.46,367.88 244.94,367.8 244.85,367.21C244.75,366.58 244.76,365.94 244.76,365.3C244.75,358.11 244.76,350.93 244.75,343.74C244.75,343.02 244.81,342.29 244.67,341.59C244.43,340.38 243.89,339.48 242.5,339.07C236.24,337.24 230.03,335.28 223.78,333.4C220.74,332.48 217.66,331.68 214.62,330.77C206.86,328.43 199.1,326.05 191.35,323.68C188.61,322.85 185.88,322.01 182.97,321.12Z" style="fill:white;fill-rule:nonzero;"/>
        <path d="M242.82,343.09C243.03,344.28 242.01,344.75 241.22,345.15C238.59,346.5 236.11,348.08 233.54,349.53C226.47,353.51 219.39,357.49 212.33,361.5C207.76,364.09 203.15,366.61 198.57,369.18C192.61,372.54 186.66,375.92 180.7,379.29C179.38,380.03 178.09,380.82 176.73,381.49C175.65,382.03 175.09,381.55 175.2,380.34C175.28,379.43 175.84,378.91 176.56,378.51C180.51,376.28 184.48,374.07 188.42,371.84C194.31,368.51 200.26,365.3 206.09,361.86C210.41,359.31 214.85,356.97 219.22,354.52C225.4,351.06 231.56,347.57 237.74,344.1C238.92,343.44 240.14,342.85 241.28,342.1C242.41,341.36 242.86,341.69 242.82,343.09Z" style="fill:rgb(41,39,38);fill-rule:nonzero;"/>
        <path d="M431.53,302.93C432.04,304.48 431.44,305.23 430.21,305.93C420.22,311.6 410.26,317.33 400.29,323.03C390.53,328.62 380.75,334.19 370.99,339.77C370.51,340.05 370.02,340.32 369.52,340.56C369.11,340.76 368.69,341.1 368.33,340.45C368.03,339.92 367.84,339.41 368.46,338.99C369.12,338.54 369.78,338.1 370.47,337.7C390.54,326.2 410.62,314.7 430.7,303.21C430.88,303.11 431.12,303.06 431.53,302.93Z" style="fill:rgb(114,125,137);fill-rule:nonzero;"/>
        <path d="M174.64,321.87C171.8,321.95 169.32,321.7 167.16,320.04C165.23,318.55 165.17,316.8 167.15,315.4C167.73,314.99 168.39,314.67 169.06,314.42C172.35,313.21 175.68,313.01 179.01,314.27C179.6,314.49 180.18,314.79 180.68,315.17C183.2,317.15 182.91,319.61 179.94,320.85C178.19,321.57 176.36,322.19 174.64,321.87Z" style="fill:white;fill-rule:nonzero;"/>
        <path d="M427.72,299.22C428.8,299.9 429.52,300.36 430.24,300.82C430.25,301.63 429.61,301.74 429.17,301.99C409.09,313.47 389,324.94 368.89,336.39C368.26,336.75 367.34,337.73 366.85,336.84C366.34,335.92 367.62,335.42 368.3,335.02C372.5,332.56 376.75,330.19 380.97,327.78C396.21,319.08 411.43,310.36 426.69,301.69C427.64,301.16 428.08,300.58 427.72,299.22Z" style="fill:rgb(111,123,135);fill-rule:nonzero;"/>
        <path d="M247.14,369.81C250.22,370.35 251.73,372.45 251.46,375.81C251.25,378.38 248.95,380.69 246.52,380.79C244.22,380.88 242.13,378.96 241.51,376.19C240.87,373.37 242.82,370.42 245.72,369.82C246.18,369.5 246.66,369.51 247.14,369.81Z" style="fill:white;fill-rule:nonzero;"/>
        <path d="M249.32,340.31C248.49,338.48 249.52,337.55 250.86,336.8C254.06,335.02 257.29,333.28 260.49,331.49C265.15,328.88 269.79,326.25 274.44,323.63C274.51,323.59 274.57,323.53 274.64,323.5C275.13,323.3 275.58,322.76 276.16,323.17C276.6,323.48 276.47,325.2 275.95,325.59C275.18,326.16 274.36,326.66 273.53,327.12C265.6,331.54 257.66,335.95 249.72,340.36C249.66,340.39 249.57,340.35 249.32,340.31Z" style="fill:rgb(41,39,38);fill-rule:nonzero;"/>
        <path d="M350.27,346.65C350.25,347.3 349.81,347.54 349.4,347.77C345.99,349.66 342.74,351.8 339.24,353.53C337.93,354.18 336.17,353.79 335.22,355.29C335.12,355.44 334.74,355.45 334.64,355.16C334.58,354.97 334.59,354.67 334.7,354.52C334.88,354.28 335.16,354.09 335.43,353.93C339.92,351.38 344.41,348.83 348.9,346.29C349.23,346.1 349.58,345.79 349.97,346.1C350.14,346.24 350.19,346.5 350.27,346.65Z" style="fill:rgb(109,123,135);fill-rule:nonzero;"/>
        <path d="M117.16,353.04C115.75,352.92 115.71,353.84 115.71,354.87C115.73,359.05 115.71,363.24 115.71,367.42C115.04,366.87 115.25,366.11 115.24,365.41C115.22,363.33 115.26,361.25 115.22,359.18C115.19,357.6 115.44,355.99 114.84,354.44C114.55,353.7 114.89,353 115.53,352.55C116.24,352.08 116.73,352.53 117.16,353.04Z" style="fill:rgb(22,22,21);fill-rule:nonzero;"/>
        <path d="M201.98,268.18C202.02,269.51 202.2,270.85 201.64,272.13C201.68,270.8 201.19,269.43 201.98,268.18Z" style="fill:rgb(41,39,38);fill-rule:nonzero;"/>
        <path d="M304.5,423.7C302.23,422.38 299.95,421.07 297.67,419.77C293.25,417.25 288.82,414.73 284.4,412.21C280.87,410.2 277.36,408.18 273.82,406.19C269.73,403.89 265.54,401.76 261.7,399.03C258.93,397.06 256.58,394.73 255.16,391.59C254.01,389.06 252.9,386.5 251.79,383.95C251.05,382.26 250.28,381.55 249.01,381.95C247.58,382.4 246.17,382.21 244.74,382.3C243.66,382.37 243.47,383.35 243.36,384.2C243.2,385.55 242.94,386.87 242.84,388.23C242.69,390.24 242.74,392.29 243.12,394.27C243.59,396.7 244.16,398.94 245.36,401.12C246.7,403.55 248.57,406.04 251.01,407.45C254.52,409.48 257.92,411.7 261.36,413.84C271.08,419.89 280.87,425.83 290.58,431.89C291.62,432.54 292.44,432.74 293.38,432.03C294.67,431.05 296.19,430.52 297.56,429.72C300.22,428.16 302.94,426.7 305.39,424.91C305.29,424.24 304.91,423.94 304.5,423.7Z" style="fill:white;fill-rule:nonzero;"/>
        <path d="M239.48,375.1C239.49,374.57 239.39,374.01 239.95,373.67C239.93,374.19 240.03,374.75 239.48,375.1Z" style="fill:rgb(22,22,21);fill-rule:nonzero;"/>
        <path d="M247.14,369.81L245.71,369.81C246.18,369.22 246.66,369.22 247.14,369.81Z" style="fill:rgb(22,22,21);fill-rule:nonzero;"/>
        <path d="M490.27,221.61C489.06,221.64 488.45,221.06 487.79,220.67C466.55,208.15 445.33,195.6 424.07,183.09C405.91,172.41 387.73,161.77 369.55,151.12C367.74,150.06 367.7,149.98 368.12,147.9C368.28,147.12 368.42,146.33 368.61,145.56C369.16,143.28 370.56,142.62 372.62,143.81C380.15,148.16 387.67,152.53 395.17,156.94C413.61,167.78 432.03,178.64 450.46,189.49C462.29,196.46 474.1,203.45 485.95,210.38C489.28,212.32 490.82,215.07 490.44,218.91C490.35,219.77 490.33,220.64 490.27,221.61Z" style="fill:rgb(96,252,64);fill-rule:nonzero;"/>
        <path d="M360.34,209.19C359.34,207.55 359.66,205.76 360,204.1C362.02,194.35 364.16,184.63 366.26,174.91C367.64,168.53 369.02,162.15 370.39,155.77C370.51,155.22 370.55,154.66 371.1,154.07C376.27,157.13 381.45,160.2 386.64,163.26C387.86,168.57 388.7,173.96 389.98,179.25C390.19,180.31 390.49,181.35 390.63,182.42C390.68,182.96 390.69,183.52 390.87,184.04C390.94,184.24 391,184.44 391.05,184.64C391.3,185.64 391.65,186.6 392.24,187.45C392.51,187.92 392.74,188.4 392.96,188.89C393.13,189.31 393.26,189.74 393.16,190.21C392,192.07 389.86,192.52 388.18,193.63C386.75,194.58 385.2,195.38 383.71,196.24C382.64,196.88 381.57,197.52 380.45,198.09C376.65,199.03 374.19,202.22 370.75,203.83C367.89,205.16 365.21,206.9 362.49,208.5C361.85,208.89 361.23,209.51 360.34,209.19Z" style="fill:rgb(239,238,228);fill-rule:nonzero;"/>
        <path d="M484.02,236.42C484.12,237.16 483.64,237.77 483.58,238.47C482.49,238.81 481.77,238.03 480.97,237.58C475.54,234.53 470.36,231.04 464.9,228.04C461.94,226.42 460.25,226.85 458.41,229.6C455.78,233.53 456.34,236.32 460.37,238.7C466.55,242.37 472.68,246.13 478.9,249.73C479.8,250.25 480.71,250.76 481.16,251.78C481.11,252.94 481.61,254.15 480.8,255.23C478.35,251.98 474.55,250.64 471.26,248.62C467.04,246.04 462.82,243.43 458.47,241.07C456.77,240.15 455.26,239.05 454.13,237.4C453.16,235.98 451.5,235.36 450.06,234.51C438.25,227.49 426.41,220.53 414.65,213.42C413.2,212.54 411.8,212.01 409.98,212.77C415.82,216.37 421.62,219.85 427.45,223.28C437.29,229.08 447.04,235.02 456.88,240.83C463.76,244.89 470.57,249.06 477.43,253.15C478.82,253.98 480.16,254.83 480.64,256.51C480.2,257.97 480.6,259.59 479.75,260.96C477.9,264.62 475.67,265.42 472.02,263.42C470.5,262.59 469.89,262.9 469.1,264.33C466.57,268.89 463.48,269.7 459.01,266.99C444.61,258.26 430.04,249.81 415.55,241.22C414.73,240.73 413.89,240.25 413.28,239.48C412.82,238.74 412.47,237.97 412.9,237.09C413.97,236.39 414.71,237.25 415.48,237.71C426.63,244.28 437.79,250.85 448.92,257.46C451.65,259.08 451.65,259.1 452.83,256.28C453.3,255.16 453.9,254.1 454.78,253.29C456.17,252.03 455.77,251.29 454.32,250.45C446.79,246.07 439.32,241.61 431.84,237.15C424.22,232.61 416.51,228.23 408.98,223.54C408.71,223.31 408.5,223.03 408.34,222.72C408.09,222.05 407.67,221.27 408.34,220.73C409.19,220.03 410.01,220.72 410.74,221.16C418.94,226.12 427.21,230.96 435.45,235.84C444.93,241.46 454.4,247.08 463.87,252.72C464.21,252.92 464.55,253.13 464.9,253.33C466.54,254.26 467.32,252.96 467.97,251.96C468.78,250.72 467.33,250.56 466.73,250.19C452.16,241.41 437.53,232.75 422.91,224.05C417.29,220.7 411.66,217.35 406.09,213.91C405.8,213.67 405.57,213.37 405.4,213.03C405.08,212.17 404.72,211.32 405.41,210.47C406.03,210.03 406.76,210.05 407.47,209.97C408.09,209.9 408.88,209.99 409.16,209.31C409.49,208.5 408.76,208.01 408.29,207.5C407.2,206.34 406.01,205.27 405.13,203.92C404.09,202.32 403.26,200.61 404.46,198.81C405.72,196.94 407.61,197.17 409.62,197.42C416.83,198.32 423.25,201.09 429.16,205.19C431.25,206.64 433.45,206.89 435.96,206.52C442.03,205.64 448.14,205.11 454.22,204.31C455.02,204.21 455.8,204.55 456.6,204.37C457.77,205.02 458.94,205.66 460.11,206.31C457.03,207.52 453.73,207.38 450.54,207.81C446.45,208.37 442.34,208.82 437.85,209.39C445.1,213.95 452.2,218.11 459.16,222.5C459.6,222.7 460,222.95 460.39,223.22C468.39,225.41 474.67,230.81 481.78,234.67C482.62,235.13 483.41,235.65 484.02,236.42Z" style="fill:rgb(76,78,72);fill-rule:nonzero;"/>
        <path d="M503.41,175.72C504.13,175.64 504.6,175.61 505.07,175.53C505.98,175.38 506.36,175.82 506.52,176.67C507.92,183.86 509.35,191.05 510.81,198.45C507.67,198.84 504.61,199.23 501.56,199.58C496.18,200.19 490.78,200.74 485.4,201.39C484.46,201.5 483.72,201.36 482.92,200.88C474.77,196.03 466.64,191.13 458.4,186.42C456.39,185.27 456.46,183.51 456.07,181.79C455.96,181.32 456.33,181.05 456.75,180.99C458.17,180.78 459.59,180.61 461.02,180.43C461.94,180.31 462.3,180.8 462.43,181.64C462.58,182.58 462.78,183.52 463.05,184.44C463.19,184.91 463.57,185.27 464.15,185.06C464.57,184.9 464.75,184.51 464.69,184.09C464.57,183.3 464.39,182.52 464.25,181.74C463.95,180.1 463.96,180.1 465.7,179.95C466.18,179.91 466.66,179.92 467.13,179.83C470.25,179.2 469.91,178.95 470.64,182.46C470.88,183.63 471.05,184.82 471.33,185.98C471.43,186.42 471.64,187 472.22,186.95C472.91,186.9 473.11,186.32 473.02,185.72C472.83,184.46 472.58,183.21 472.36,181.95C472.26,181.4 472.17,180.85 472.08,180.3C471.96,179.53 472.23,179.06 473.07,179.02C473.31,179.01 473.55,178.97 473.79,178.99C475.15,179.1 476.64,178.07 477.76,178.75C478.81,179.39 478.45,181.08 478.83,182.27C479.01,182.83 479.26,183.39 479.97,183.2C480.63,183.02 480.68,182.44 480.57,181.83C480.35,180.69 479.55,179.36 480.33,178.45C481.1,177.54 482.61,178.14 483.77,177.9C484.08,177.84 484.4,177.81 484.71,177.73C485.64,177.48 486,177.9 486.14,178.78C486.37,180.2 486.67,181.6 486.97,183C487.09,183.54 487.23,184.08 487.46,184.58C487.63,184.96 488,185.16 488.45,185.01C488.81,184.89 488.93,184.55 488.9,184.25C488.82,183.46 488.67,182.68 488.52,181.9C487.61,177.25 487.61,177.3 492.4,176.9C493.54,176.81 494.01,177.05 494.13,178.19C494.22,179.05 494.47,179.91 494.73,180.74C494.85,181.14 495.22,181.35 495.68,181.23C496.05,181.13 496.19,180.79 496.18,180.5C496.14,179.71 496.15,178.87 495.89,178.14C495.43,176.8 495.97,176.4 497.19,176.4C497.35,176.4 497.5,176.33 497.66,176.31C501.54,175.67 501.54,175.67 502.3,179.42C502.49,180.36 502.64,181.3 502.86,182.23C503,182.8 503.31,183.34 504.01,183.17C504.72,183 504.71,182.38 504.61,181.8C504.44,180.78 504.23,179.76 504.03,178.75C503.85,177.82 503.65,176.89 503.41,175.72Z" style="fill:rgb(96,252,64);fill-rule:nonzero;"/>
        <path d="M413.63,239.35C424.72,245.95 435.8,252.54 446.9,259.14C451.21,261.7 455.54,264.24 459.85,266.8C463.27,268.83 466.12,268.16 468.3,264.74C468.89,263.81 469.34,262.78 469.85,261.78C470.89,261.86 471.6,262.56 472.41,263.01C475.22,264.59 477.01,264.23 479,261.67C479.19,261.43 479.15,260.82 479.74,260.97C478.89,265.92 478.09,270.87 477.18,275.81C476.41,279.97 475.39,280.42 471.78,278.28C462.19,272.6 452.61,266.9 443.02,261.22C431.87,254.61 420.71,248.02 409.56,241.42C394.97,232.79 380.39,224.15 365.81,215.51C363.77,214.3 361.52,213.29 360.89,210.65C362.04,209.13 363.81,208.48 365.37,207.56C368.66,205.62 371.99,203.72 375.31,201.82C377,200.85 378.19,201.05 379.44,202.57C380.96,204.41 382.54,206.21 384.06,208.05C384.5,208.59 385.09,209.28 384.72,209.97C384.31,210.75 383.43,210.34 382.75,210.26C381.56,210.11 380.41,209.78 379.22,209.61C378.75,209.54 378.23,209.42 377.88,209.85C377.5,210.31 377.78,210.79 378.07,211.16C382.47,216.85 385.98,223.27 392.97,226.63C397.69,228.9 402.15,231.75 406.56,234.63C408.9,236.25 411.91,236.83 413.63,239.35Z" style="fill:rgb(239,237,228);fill-rule:nonzero;"/>
        <path d="M456.59,204.36C455.13,205.32 453.41,205.07 451.82,205.28C445.75,206.08 439.65,206.67 433.57,207.44C432.54,207.57 431.76,207.43 430.89,206.9C427.89,205.08 424.84,203.36 421.83,201.57C419.46,200.16 416.97,199.2 414.17,199.19C413.03,199.18 412.01,198.69 410.92,198.47C409.99,198.28 409.09,197.92 408.15,197.75C406.9,197.53 405.72,197.82 404.94,198.89C404.17,199.96 404.29,201.14 404.9,202.27C405.85,204.05 407.23,205.5 408.61,206.93C409.43,207.78 410.33,208.58 410.7,209.87C408.96,210.81 407.1,210.52 405.34,210.76C404.58,210.64 404.3,210.02 404.12,209.42C402.12,202.69 400.02,195.99 398.63,189.09C399.42,187.32 401.4,186.39 403.72,186.62C405.58,186.8 405.59,188.32 405.94,189.59C406.23,190.66 406.28,191.79 406.9,193.28C406.82,191.43 406.36,190.11 406.21,188.74C406.13,188.03 405.93,187.14 406.61,186.73C408.45,185.61 410.58,185.62 412.63,185.73C414.25,185.81 414.33,187.4 414.68,188.6C414.74,188.82 414.77,189.06 415.03,189.23C415.37,188.54 414.92,187.88 414.96,187.21C414.99,186.81 414.91,186.32 415.18,186.05C416.75,184.47 418.85,184.82 420.77,184.66C422.12,184.55 422.69,185.55 423,186.74C423.35,188.1 423.47,189.53 424.08,191.17C424.41,188.93 422.97,187.17 423.74,185.26C424.33,185.25 424.8,185.58 425.28,185.86C435.73,192.03 446.16,198.2 456.59,204.36Z" style="fill:rgb(96,252,64);fill-rule:nonzero;"/>
        <path d="M367.17,152.18C369.14,152.99 369.16,153 368.72,155.02C366.48,165.31 364.22,175.6 362,185.89C360.71,191.89 359.47,197.91 358.21,203.92C357.64,206.67 357.89,209.3 359.22,211.82C360.14,213.57 361.39,214.91 363.1,215.92C385.43,229.11 407.75,242.33 430.06,255.55C443.79,263.69 457.51,271.84 471.24,279.99C471.72,280.27 472.19,280.58 472.7,280.81C475.17,281.92 477.63,280.88 478.41,278.28C479.29,275.37 479.64,272.35 480.16,269.36C482.19,257.65 484.18,245.93 486.2,234.22C486.77,230.92 487.38,227.62 487.99,224.33C488.08,223.85 487.96,223.05 488.85,223.24C489.51,223.39 489.99,223.8 489.86,224.61C489.45,227.13 489.07,229.65 488.64,232.17C486.45,245.15 484.25,258.12 482.06,271.1C481.61,273.77 481.18,276.45 480.68,279.11C480.4,280.62 479.83,282.02 478.56,283.02C476.44,284.69 474.47,284.86 471.91,283.36C467.02,280.5 462.18,277.56 457.32,274.66C438.4,263.39 419.47,252.12 400.54,240.87C387.78,233.29 375.01,225.72 362.23,218.18C360.19,216.98 358.48,215.48 357.23,213.47C355.6,210.84 355.07,208.04 355.74,204.99C358.96,190.18 362.16,175.37 365.36,160.56C365.98,157.79 366.57,154.99 367.17,152.18Z" style="fill:rgb(96,252,64);fill-rule:nonzero;"/>
        <path d="M372.9,141.79C373.37,141.47 373.7,141.26 374.01,141.02C375.3,140.06 376.43,140.06 377.91,140.96C385.34,145.46 392.87,149.82 400.36,154.23C420.83,166.31 441.29,178.4 461.76,190.47C470.76,195.78 479.77,201.06 488.77,206.37C489.94,207.06 491.11,207.73 492.16,208.61C493.77,209.98 494.74,211.61 494.6,213.8C494.53,214.99 494.5,216.2 494.61,217.39C494.77,219.12 494,220.04 492.41,220.48C492.09,219.8 492.28,219.17 492.31,218.55C492.55,214.2 490.69,211.05 486.96,208.88C480.76,205.27 474.58,201.62 468.39,197.98C449.36,186.76 430.35,175.51 411.31,164.31C398.94,157.03 386.53,149.82 374.15,142.57C373.81,142.38 373.48,142.16 372.9,141.79Z" style="fill:rgb(96,252,64);fill-rule:nonzero;"/>
        <path d="M459.19,223.1C457.92,222.79 456.98,221.89 455.9,221.23C450.13,217.7 444.37,214.16 438.62,210.61C437.85,210.13 436.96,209.77 436.21,208.87C442.36,208.14 448.26,207.45 454.16,206.73C456.13,206.49 458.09,206.04 460.1,206.29C467.05,210.43 474.01,214.57 480.96,218.7C481.78,219.19 482.6,219.68 483.42,220.16C486.57,222.01 486.56,222.01 485.86,225.61C485.69,226.47 485.57,227.33 485.43,228.19C484.16,229.21 483.37,227.93 482.56,227.46C475.75,223.44 468.93,219.43 462.15,215.36C461.6,215.03 461.08,214.65 460.47,214.44C459.01,213.94 458.02,214.73 457.13,215.72C456.31,216.63 456.73,217.42 457.31,218.3C458.28,219.75 458.98,221.34 459.19,223.1Z" style="fill:rgb(240,238,228);fill-rule:nonzero;"/>
        <path d="M481.16,251.78C473.63,247.32 466.1,242.83 458.55,238.41C456.67,237.31 455.87,235.88 456.2,233.68C456.54,231.37 457.51,229.43 459.14,227.81C460.94,226.03 462.31,225.81 464.49,227.08C467.66,228.93 470.78,230.84 473.93,232.72C477.14,234.64 480.36,236.56 483.58,238.47C482.89,242.93 482.11,247.37 481.16,251.78Z" style="fill:rgb(240,238,228);fill-rule:nonzero;"/>
        <path d="M490.7,230.75C491.03,228.95 491.57,227.16 491.64,225.35C491.72,223.32 492.87,222.46 494.65,221.64C494.65,222.7 494.63,223.55 494.65,224.4C494.72,226.64 495.82,228.19 497.85,228.96C499.74,229.67 501.76,229.12 503.23,227.48C503.71,226.95 504.14,226.38 504.56,225.67C507.53,235.45 509.81,245.38 512.43,255.2C512.89,256.56 512.41,257.03 511.07,256.59C510.15,256.3 509.32,255.81 508.52,255.29C505.64,253.43 502.71,251.65 499.7,250.01C498.26,249.22 497.02,248.28 496.78,246.48C496.72,246.01 496.57,245.46 496.2,245.19C493.73,243.39 493.44,240.76 493.23,238.01C493.11,236.41 492.3,234.98 491.43,233.62C490.86,232.76 490.31,231.87 490.7,230.75Z" style="fill:rgb(240,238,228);fill-rule:nonzero;"/>
        <path d="M388.76,164.47C395.8,168.58 402.85,172.69 409.89,176.81C413.03,178.65 416.17,180.5 419.31,182.34C419.06,183.69 417.91,183.37 417.06,183.51C412.12,184.29 407.12,184.64 402.17,185.38C400.98,185.56 399.82,185.79 398.86,186.57C397.75,187.5 398.52,188.66 398.48,189.71C398.45,190.48 398.95,191.46 398.05,191.87C397.28,192.22 396.55,191.55 395.91,191.08C393.69,189.44 392.36,187.16 391.7,184.57C390.22,178.78 388.94,172.94 387.78,167.07C387.6,166.14 387.04,164.8 388.76,164.47Z" style="fill:rgb(241,240,231);fill-rule:nonzero;"/>
        <path d="M511.99,259.06C510.72,260.44 508.96,261.08 507.4,262C499.95,266.4 492.47,270.75 485,275.1C484.47,275.41 484,275.92 483.15,275.77C484.12,269.74 485.09,263.71 486.06,257.68C486.22,256.7 486.73,256.31 487.73,256.63C489.23,257.11 490.7,257.06 492.17,256.4C493.21,255.93 494.18,256.29 495.15,256.76C497.71,258.01 498.98,257.6 500.37,255.14C502.13,252.04 502.14,252.03 505.14,253.83C506.99,254.94 508.9,255.95 510.73,257.08C511.45,257.54 512.4,257.88 511.99,259.06Z" style="fill:rgb(241,238,229);fill-rule:nonzero;"/>
        <path d="M458.92,177.85C455.99,178.66 453.58,178.05 451,176.51C429.35,163.64 407.61,150.93 385.89,138.17C384.88,137.57 383.85,137 382.78,136.39C384.9,134.35 385.34,134.31 387.8,135.75C405.61,146.2 423.42,156.64 441.22,167.09C446.79,170.36 452.35,173.64 457.91,176.92C458.25,177.13 458.64,177.25 458.92,177.85Z" style="fill:rgb(96,252,64);fill-rule:nonzero;"/>
        <path d="M406.37,235.09C400.47,231.62 394.59,228.12 388.67,224.69C387.41,223.96 386.29,223.12 385.41,221.95C382.86,218.58 380.3,215.22 377.75,211.86C377.56,211.61 377.4,211.33 377.24,211.06C376.88,210.49 376.72,209.92 377.13,209.28C377.58,208.6 378.21,208.7 378.84,208.84C380.75,209.24 382.66,209.66 384.88,210.13C382.69,207.06 380.26,204.63 378.13,201.96C377.47,201.14 376.88,201.63 376.26,201.99C372.26,204.29 368.26,206.6 364.24,208.88C363.14,209.5 362.17,210.37 360.89,210.66C360.26,210.34 360.33,209.76 360.34,209.2C365.02,206.47 369.7,203.73 374.38,201C374.79,200.76 375.43,200.62 375.58,200.26C376.55,198.07 378.7,198.33 380.46,197.78C381.09,198.26 381.5,199.08 382.45,199.1C387.61,200.14 392.56,201.7 396.93,204.74C397.71,205.28 398.57,205.71 399.08,206.56C399.39,207.23 399.69,207.9 399.36,208.65C398.44,209.4 397.71,208.69 396.99,208.28C395.33,207.34 393.67,206.42 392.04,205.43C390.57,204.53 389.63,205.17 388.89,206.39C388.11,207.68 388,208.94 389.37,209.96C389.82,210.29 390.34,210.53 390.89,210.63C394.76,211.3 397.9,213.48 401.12,215.52C401.49,215.81 401.76,216.18 401.96,216.61C402.2,217.26 402.5,217.91 402.25,218.63C402.11,218.83 401.91,218.92 401.67,218.92C399.62,218.18 397.85,216.94 395.99,215.86C393.24,214.26 392.06,214.47 390.13,217C388.05,219.72 388.4,221.74 391.32,223.5C396.24,226.47 401.32,229.18 406.17,232.28C406.45,232.51 406.67,232.79 406.84,233.12C406.97,233.84 407.76,234.73 406.37,235.09Z" style="fill:rgb(76,77,72);fill-rule:nonzero;"/>
        <path d="M480.63,256.51C476.87,252.85 472.11,250.7 467.71,248.03C454.16,239.82 440.52,231.76 426.92,223.64C421.45,220.37 415.99,217.1 410.52,213.82C409.84,213.41 409.19,212.97 408.47,212.51C411.66,211.28 412.21,211.33 414.8,212.88C427.47,220.42 440.14,227.95 452.81,235.47C453.42,235.83 454.18,236.06 454.5,236.74C455.38,238.6 457.04,239.51 458.7,240.49C465.57,244.53 472.39,248.65 479.29,252.64C480.42,253.29 480.93,253.99 480.79,255.23C480.74,255.66 480.69,256.09 480.63,256.51Z" style="fill:rgb(239,236,226);fill-rule:nonzero;"/>
        <path d="M482.33,280.91C482.17,279.29 482.92,278.41 484.23,277.64C492.65,272.76 501.01,267.77 509.44,262.9C513.6,260.5 515.33,259.46 513.68,252.97C510.96,242.31 508.21,231.66 505.47,221C505.11,219.61 504.75,218.22 504.42,216.83C504.31,216.37 504.18,215.87 504.27,215.43C504.39,214.85 504.92,214.51 505.51,214.51C506,214.51 506.04,215.01 506.13,215.4C507,218.8 507.88,222.2 508.75,225.6C511.28,235.42 513.79,245.23 516.35,255.04C516.64,256.14 516.72,257.23 516.74,258.35C516.76,260.12 515.98,261.4 514.47,262.27C507.36,266.4 500.27,270.54 493.16,274.67C489.58,276.75 485.99,278.8 482.33,280.91Z" style="fill:rgb(96,252,64);fill-rule:nonzero;"/>
        <path d="M511.99,259.06C511.93,258.74 511.82,258.44 511.52,258.27C508.37,256.44 505.22,254.61 502.11,252.8C501.41,253.17 501.57,253.81 501.46,254.31C501.22,255.44 500.64,256.37 499.83,257.16C498.49,258.45 497.17,258.67 495.56,257.67C494.2,256.83 493.06,256.32 491.45,257.34C490.21,258.13 488.63,257.82 487.37,257.01C486.38,256.37 486.4,257.3 486.05,257.68C486.27,255.68 486.78,253.75 487.41,251.85C488.42,252.72 487.81,254.65 489.75,255.15C489.24,253.16 488.85,251.2 490.03,249.44C491.11,247.82 492.4,246.42 494.88,246.46C493.88,245.18 493.04,245.43 492.16,245.92C490.7,246.74 489.83,248.05 489.04,249.47C488.64,250.19 488.63,251.25 487.52,251.43C487.75,248 488.02,244.57 488.96,241.24C490.08,241.26 490.04,242.51 490.78,242.94C492.32,240.78 491.98,237.5 489.92,234.7C490.28,233.4 490.09,231.99 490.7,230.74C490.68,231.49 490.95,232.09 491.45,232.68C493.4,234.96 494.19,237.68 494.19,240.63C494.19,241.78 494.25,242.73 495.49,243.4C496.71,244.07 497.44,245.29 497.48,246.76C497.5,247.56 497.8,248.08 498.49,248.5C503.05,251.23 507.6,253.98 512.12,256.7C512.6,256.16 512.3,255.64 512.44,255.19C513.42,256.62 512.38,257.81 511.99,259.06Z" style="fill:rgb(82,85,77);fill-rule:nonzero;"/>
        <path d="M459.19,223.1C458.54,222.05 457.59,221.15 457.7,219.73C457.76,218.96 456.91,218.81 456.52,218.34C455.6,217.23 455.61,216.21 456.58,215.15C458.12,213.45 459.74,213.25 461.82,214.49C469.25,218.93 476.69,223.37 484.12,227.8C484.52,228.04 484.9,228.35 485.43,228.2C485.26,228.93 485.1,229.65 484.93,230.38C483.79,230.55 482.97,229.85 482.09,229.32C475.6,225.42 469.08,221.57 462.61,217.65C461.63,217.06 460.72,216.14 459.22,216.46C459.4,217.43 460.24,217.64 460.85,218.02C467.84,222.32 474.89,226.53 481.92,230.76C482.92,231.36 484.12,231.79 484.51,233.09C484.62,233.81 484.47,234.47 484.08,235.08C483.08,235.39 482.46,234.64 481.73,234.21C476.6,231.2 471.59,227.99 466.48,224.95C465.2,224.19 463.98,223.61 462.47,224.17C461.54,224.52 460.78,224.06 460.05,223.55C459.76,223.4 459.47,223.25 459.19,223.1Z" style="fill:rgb(77,80,72);fill-rule:nonzero;"/>
        <path d="M399.12,208.59C398.99,207.99 398.86,207.39 398.72,206.79C399.69,206.49 400.39,206.84 400.99,207.72C400.24,203.7 399.3,199.77 398.5,195.82C398.25,194.61 397.46,193.9 396.41,193.38C395.55,192.95 394.72,192.48 393.98,191.86C393.41,191.39 393.18,190.72 392.98,190.04C392.8,189.69 392.5,189.4 392.54,188.97C392.64,188.3 392.27,187.9 391.73,187.61C390.97,186.78 390.65,185.78 390.61,184.67C390.73,184.56 390.79,184.43 390.78,184.26C390.78,184.25 390.7,184.25 390.56,184.25C390.07,183.85 390,183.34 390.12,182.76C390.67,181.54 389.8,180.57 389.52,179.5C388.41,177.12 388.43,174.48 387.75,172C387.28,170.27 387.13,168.44 386.65,166.71C386.32,165.52 386.27,164.41 386.65,163.26C387.38,163.62 388.2,163.83 388.77,164.47C387.83,165 388.14,165.86 388.3,166.6C389.54,172.34 390.73,178.09 392.12,183.8C392.93,187.13 394.49,190.05 398.16,191.67C397.94,190.24 397.79,188.97 397.55,187.73C397.41,187.03 397.43,186.47 398.15,186.13C399.64,186.81 398.67,188.3 399.19,189.29C400.93,195.64 402.66,201.99 404.41,208.34C404.64,209.18 404.84,210.03 405.36,210.76C405.55,211.51 405.73,212.26 405.92,213.01C403.36,212.75 401.57,210.85 399.34,209.9C398.93,209.52 398.81,209.08 399.12,208.59Z" style="fill:rgb(160,162,159);fill-rule:nonzero;"/>
        <path d="M399.18,189.29C398.63,188.3 398.45,187.19 398.14,186.13C400.24,184.37 402.87,184.57 405.34,184.27C409.89,183.7 414.46,183.22 419.01,182.68C419.12,182.67 419.21,182.46 419.31,182.35C420.82,183.28 422.56,183.87 423.75,185.28C424.17,187.14 424.59,189.01 425,190.87C425.07,191.18 425.08,191.5 425.07,191.82C425.06,192.27 424.82,192.6 424.39,192.66C424.07,192.7 423.76,192.5 423.63,192.18C423.46,191.74 423.31,191.28 423.21,190.82C422.93,189.5 422.7,188.16 422.4,186.84C422.01,185.13 421.93,185.1 420.16,185.23C419.92,185.25 419.67,185.24 419.45,185.32C418.24,185.76 416.67,185.2 415.78,186.04C414.82,186.95 416,188.28 415.97,189.44C415.95,190 416.08,190.65 415.37,190.82C414.63,190.99 414.48,190.33 414.27,189.82C414.24,189.75 414.21,189.67 414.2,189.59C413.93,188.46 414.2,186.96 413.1,186.33C412.06,185.74 410.77,186.55 409.59,186.57C405.9,186.63 406.52,186.77 407.1,190.03C407.3,191.13 407.58,192.21 407.77,193.3C407.87,193.89 407.71,194.47 407.01,194.56C406.42,194.64 406.18,194.1 406.08,193.65C405.7,191.94 405.32,190.23 405.06,188.5C404.89,187.38 404.39,186.97 403.3,187.16C402.36,187.33 401.41,187.47 400.47,187.59C399.45,187.74 399.13,188.37 399.18,189.29Z" style="fill:rgb(74,74,67);fill-rule:nonzero;"/>
        <path d="M498.89,210.25C499.63,211.46 499.85,212.89 500.3,214.23C501.07,216.49 501.72,218.8 502.47,221.07C502.83,222.15 503,223.24 502.81,224.37C502.51,226.19 501.04,227.48 499.38,227.41C497.54,227.32 496.54,226.19 496.51,224.02C496.46,220.59 496.58,217.15 496.41,213.73C496.32,211.81 496.94,210.71 498.89,210.25Z" style="fill:rgb(96,252,64);fill-rule:nonzero;"/>
        <path d="M484.51,233.09C475.61,227.67 466.7,222.25 457.74,216.79C458.78,215.58 459.61,215.09 460.98,215.93C468.94,220.79 476.94,225.58 484.93,230.39C484.94,230.65 484.94,230.91 484.95,231.17C484.58,231.78 485.1,232.59 484.5,233.14L484.51,233.09Z" style="fill:rgb(96,252,64);fill-rule:nonzero;"/>
        <path d="M495.39,202.15C496.45,201.98 497.52,201.83 498.58,201.64C499.35,201.5 499.95,201.75 500.56,202.21C502.15,203.39 503.26,204.9 503.9,206.75C504.21,207.65 504.46,208.57 504.69,209.5C505.45,212.57 505.79,212.23 502.59,213.9C501.76,212.75 501.44,211.37 501.09,210.05C500.3,207.06 498.79,204.67 496.1,203.07C495.78,202.88 495.34,202.74 495.39,202.15Z" style="fill:rgb(96,252,64);fill-rule:nonzero;"/>
        <path d="M460.04,223.55C461.19,223.79 462.33,224.26 463.44,223.39C464.14,222.84 464.81,223.22 465.42,223.6C471.64,227.42 477.85,231.26 484.07,235.09C484.05,235.54 484.03,235.98 484.02,236.43C482.25,236.09 480.96,234.83 479.47,233.97C474.79,231.25 470.2,228.39 465.57,225.58C464.46,224.91 463.32,224.41 461.98,224.52C461.18,224.58 460.38,224.5 460.04,223.55Z" style="fill:rgb(240,238,228);fill-rule:nonzero;"/>
        <path d="M487.53,251.43C488.15,250.07 488.66,248.65 489.57,247.43C490.29,246.46 491.18,245.67 492.25,245.12C494.2,244.12 495.16,244.7 495.57,247.23C492.83,246.61 491.2,248.05 490.18,250.31C489.36,252.1 489.37,253.87 491.18,255.31C490.59,255.92 490.03,256.17 489.27,255.87C488.57,255.6 488.07,255.15 487.77,254.44C487.42,253.6 487.55,252.72 487.42,251.86C487.49,251.72 487.52,251.58 487.53,251.43Z" style="fill:rgb(96,252,64);fill-rule:nonzero;"/>
        <path d="M513.69,196.63C513.73,197.1 513.59,197.47 513.14,197.58C512.43,197.77 512.41,197.22 512.32,196.75C510.93,189.8 509.53,182.85 508.15,175.9C508.09,175.6 508.1,175.25 508.19,174.96C508.25,174.78 508.52,174.57 508.71,174.55C508.88,174.53 509.17,174.71 509.25,174.88C509.39,175.15 509.42,175.49 509.48,175.8C510.82,182.52 512.16,189.24 513.5,195.96C513.57,196.19 513.64,196.42 513.69,196.63Z" style="fill:rgb(96,252,64);fill-rule:nonzero;"/>
        <path d="M489.92,234.71C490.17,234.56 490.5,234.21 490.72,234.52C492.52,236.99 492.55,239.82 492.27,242.69C492.2,243.4 491.53,243.7 490.92,243.87C490.1,244.11 490.14,243.3 489.89,242.89C489.56,242.36 489.27,241.8 488.97,241.25C488.99,241.13 488.98,241.01 488.95,240.9C489.24,240.45 489.02,239.89 489.25,239.42C489.47,237.85 489.69,236.28 489.92,234.71Z" style="fill:rgb(96,252,64);fill-rule:nonzero;"/>
        <path d="M454.51,183.91C453.25,183.31 452.32,182.78 451.46,182.01C454.04,180.88 454.15,180.94 454.51,183.91Z" style="fill:rgb(135,185,76);fill-rule:nonzero;"/>
        <path d="M484.5,233.14C484.55,232.46 484.49,231.75 484.95,231.17C485.03,231.87 485.22,232.61 484.5,233.14Z" style="fill:rgb(77,80,72);fill-rule:nonzero;"/>
        <path d="M489.24,239.42C489.36,239.96 489.27,240.45 488.94,240.9C488.81,240.35 488.78,239.83 489.24,239.42Z" style="fill:rgb(82,85,77);fill-rule:nonzero;"/>
        <path d="M405.37,392.86C408.57,380.5 398.66,364.27 387.38,361.35C387.39,360.57 388.13,360.59 388.56,360.38C408.75,350.41 429.05,340.65 449.11,330.43C451.14,329.39 452.92,329.64 454.82,330.36C458.77,331.88 461.6,334.78 464.03,338.1C466.03,340.82 467.29,343.91 468.38,347.1C468.84,348.46 468.5,349.07 467.37,349.78C461.1,353.74 454.89,357.77 448.65,361.78C436.04,369.87 423.44,377.97 410.82,386.04C409.99,386.57 409.13,387.03 409.32,388.21C409.61,389.99 408.74,391.03 407.24,391.74C406.68,392.01 406.16,392.38 405.37,392.86Z" style="fill:white;fill-rule:nonzero;"/>
        <path d="M480.61,341.96C477.9,333.02 473.26,325.65 464.05,322.05C464.21,321.44 464.89,321.26 465.41,320.92C482.2,309.89 498.99,298.87 515.79,287.85C516.06,287.67 516.34,287.52 516.59,287.33C520.66,284.15 524.77,284.71 528.77,287.35C536.42,292.39 540.54,299.71 542.1,308.58C542.46,310.65 542.36,310.67 540.44,311.65C524.58,319.76 508.72,327.86 492.85,335.97C489.38,337.74 485.92,339.53 482.44,341.29C481.9,341.56 481.39,341.99 480.61,341.96Z" style="fill:white;fill-rule:nonzero;"/>
        <path d="M408.51,393.22C408.46,393.71 408.48,393.86 408.43,393.99C406.13,401.02 401.17,403.62 393.83,400.26C389.74,398.39 386.55,395.38 383.94,391.78C379.94,386.25 377.25,380.2 377.11,373.23C377.08,371.69 377.34,370.19 377.73,368.74C378.95,364.27 382.66,362.17 387.13,363.33C388.52,363.69 389.87,364.18 391.09,364.97C399.37,370.39 403.6,378.13 404.13,387.94C404.25,390.23 403.69,392.37 402.28,394.24C400.84,396.15 398.93,396.85 396.61,396.5C394.09,396.12 391.93,394.93 390.03,393.29C384.71,388.69 381.58,382.98 381.39,375.83C381.36,374.77 381.58,373.77 381.89,372.77C383.02,369.1 386.32,367.61 389.85,369.17C395.28,371.57 400.16,379.35 399.89,385.23C399.85,386.1 399.7,386.99 399.41,387.81C398.5,390.41 396.29,391.41 393.68,390.48C389.16,388.87 385.22,382.49 385.74,377.64C386,375.26 387.97,374 390.21,374.84C391.84,375.45 393.12,376.51 393.93,378.06C394.45,379.04 394.91,380.06 395.35,381.09C395.58,381.63 395.73,382.14 396.51,381.94C397.34,381.72 397.15,381.21 396.97,380.64C396.06,377.75 394.69,375.19 391.94,373.63C388.08,371.45 384.15,373.58 383.88,377.99C383.77,379.77 384.05,381.49 384.73,383.14C385.84,385.84 387.47,388.18 389.64,390.14C390.53,390.94 391.54,391.58 392.67,392.03C396.94,393.71 400.85,391.51 401.55,386.98C401.87,384.9 401.73,382.84 401.13,380.82C399.6,375.67 396.78,371.45 392.25,368.46C390.53,367.33 388.66,366.83 386.58,366.91C384.03,367.02 382.2,368.22 380.92,370.34C379.99,371.88 379.55,373.61 379.59,375.37C379.79,384.83 384.05,392.03 392.13,396.84C395.47,398.83 399.07,399.03 402.55,396.78C404.42,395.56 406.37,394.49 408.51,393.22Z" style="fill:rgb(217,216,201);fill-rule:nonzero;"/>
        <path d="M546.2,311.06C545.35,316.21 543.83,320.64 538.76,323.13C519.7,332.53 500.69,342.03 481.66,351.48C481.25,351.68 480.82,351.85 480.2,352.12C480.71,349.59 481.21,347.26 480.88,344.85C480.75,343.86 481.68,343.77 482.27,343.47C486.16,341.45 490.07,339.47 493.97,337.47C510.35,329.09 526.73,320.71 543.12,312.35C544.04,311.9 544.91,311.31 546.2,311.06Z" style="fill:white;fill-rule:nonzero;"/>
        <path d="M469.09,351.18C469.45,353.47 469.11,355.6 468.31,357.71C467.69,359.32 466.4,360.21 465.06,361.08C455.64,367.21 446.22,373.35 436.79,379.48C428.1,385.13 419.41,390.78 410.71,396.43C410.32,396.69 409.9,396.92 409.17,397.35C410.41,394.33 411.27,391.55 411.17,388.56C411.14,387.55 412.11,387.37 412.75,386.96C419.66,382.52 426.58,378.1 433.5,373.66C444.64,366.51 455.77,359.35 466.92,352.22C467.56,351.82 468.12,351.18 469.09,351.18Z" style="fill:white;fill-rule:nonzero;"/>
        <path d="M453.71,327.87C455.61,326.23 457.64,325.11 459.77,324.23C462.48,323.11 465.05,324.03 467.22,325.54C473.04,329.6 476.96,335.04 478.59,342.05C479.39,345.48 479.45,348.79 477.88,352.04C477.31,353.23 476.6,354.18 475.37,354.8C473.9,355.53 472.52,356.44 470.71,357.51C471.7,350.87 470.44,345.06 467.16,339.68C463.93,334.39 459.93,330 453.71,327.87Z" style="fill:rgb(96,252,64);fill-rule:nonzero;"/>
        <path d="M502.76,362.81C501.68,363.85 500.63,363.67 499.76,364C498.59,364.44 498.31,365.12 498.6,366.21C498.85,367.11 499.39,367.94 499.3,368.93C497.5,368.88 474.02,360.31 472.21,359C474.29,357.48 476.46,356.22 478.69,355.08C479.33,354.75 480.08,354.96 480.79,355.21C488,357.73 495.23,360.21 502.76,362.81Z" style="fill:rgb(96,252,64);fill-rule:nonzero;"/>
        <path d="M485.49,376.87C483.93,377.03 483.12,376.23 482.14,375.96C479.94,375.35 479.46,375.41 477.98,377.14C477.67,377.5 477.45,377.93 477.17,378.32C476.94,378.64 476.7,378.97 476.15,379.12C474.61,376.84 473.7,374.2 472.69,371.66C471.66,369.07 470.36,366.6 469.41,363.98C469.27,363.61 469,363.28 468.91,362.9C468.78,362.31 468.23,361.68 468.74,361.11C469.3,360.48 470.04,360.74 470.74,360.99C473.21,361.88 475.69,362.75 478.17,363.61C478.65,363.78 479.02,364.04 479.24,364.49C481.28,368.54 483.32,372.58 485.49,376.87Z" style="fill:rgb(96,252,64);fill-rule:nonzero;"/>
        <path d="M250.97,211.22C249.52,210.96 248.38,210.19 247.2,209.58C242.8,207.32 238.42,205.04 234.09,202.67C232.98,202.06 232.16,202.04 231.03,202.68C216.63,210.89 202.2,219.05 187.77,227.22C187.49,227.38 187.22,227.55 186.93,227.69C183.63,229.27 181.16,227.85 181.05,224.18C180.93,220.43 180.99,216.67 180.97,212.92C180.93,202.14 180.92,191.35 180.82,180.57C180.81,179.12 181.24,178.3 182.48,177.52C190.26,172.64 194.17,165.32 195.29,156.4C195.46,155.04 195.93,154.29 197.09,153.64C213.63,144.32 230.14,134.95 246.66,125.6C250.27,123.56 253.88,121.52 257.5,119.49C257.99,119.22 258.47,118.91 258.99,118.72C261.25,117.89 262.97,118.86 263.42,121.24C263.54,121.86 263.55,122.51 263.55,123.15C263.71,141.04 263.85,158.93 264.01,176.82C264.05,181.73 262.04,185.42 257.69,187.8C256.01,188.72 254.4,189.77 252.69,190.63C251.39,191.29 250.92,192.17 250.95,193.65C251.06,199 251.02,204.35 251.04,209.7C251.04,210.17 251,210.65 250.97,211.22Z" style="fill:rgb(96,252,64);fill-rule:nonzero;"/>
        <path d="M258.49,116.75C237.36,128.73 216.48,140.57 195.51,152.46C194.78,150.02 194.3,147.58 192.48,145.47C193.74,144.73 194.81,144.08 195.9,143.46C212.89,133.79 229.88,124.13 246.87,114.47C247.42,114.15 247.98,113.84 248.56,113.57C250.1,112.85 251.64,112.81 253.15,113.67C254.86,114.66 256.58,115.66 258.49,116.75Z" style="fill:rgb(96,252,64);fill-rule:nonzero;"/>
        <path d="M193.58,154.73C193.01,163.22 189.5,170.18 182.65,175.35C180.51,176.97 178.08,177.95 175.38,178.09C171.61,178.29 168.95,176.58 167.54,173.06C166.34,170.07 166.3,166.99 166.98,163.88C168.57,156.65 172.23,150.75 178.37,146.53C180.5,145.06 182.89,144.28 185.55,144.28C188.82,144.28 190.98,145.86 192.37,148.66C193.32,150.55 193.63,152.6 193.58,154.73Z" style="fill:white;fill-rule:nonzero;"/>
        <path d="M171.97,179.74C174.23,180.14 176.49,180.04 178.9,179.42C179.21,194.94 178.91,210.29 179.4,226.04C177.35,224.84 175.53,223.9 173.83,222.76C172.4,221.8 171.94,220.28 171.95,218.58C171.97,215.39 171.93,212.2 171.91,209.01C171.86,200.15 171.81,191.3 171.78,182.44C171.78,181.57 171.61,180.69 171.97,179.74Z" style="fill:rgb(96,252,64);fill-rule:nonzero;"/>
        <path d="M184.65,142.37C173.05,143.44 161.31,160.57 165.62,174.12C163.13,172.75 161.92,170.6 161.28,168.04C160.47,164.77 160.75,161.55 161.7,158.36C163.38,152.71 166.34,147.89 170.97,144.17C172.85,142.66 174.91,141.53 177.29,140.92C179.87,140.27 182.14,140.76 184.65,142.37Z" style="fill:white;fill-rule:nonzero;"/>
        <path d="M392.98,190.03C393.65,190.3 393.9,190.88 394.03,191.53C394.02,191.96 393.81,192.31 393.47,192.51C390.46,194.31 387.69,196.56 384.19,197.47C383.44,197.14 382.75,196.79 383.42,195.8C386.1,194.23 388.78,192.67 391.46,191.1C391.99,190.79 392.64,190.63 392.98,190.03Z" style="fill:rgb(100,100,94);fill-rule:nonzero;"/>
        <path d="M383.41,195.8C383.42,196.48 383.58,197.06 384.34,197.24C384.16,198.66 382.62,198.65 381.93,199.54C380.77,199.51 380.45,198.77 380.46,197.76C381.26,196.84 382.45,196.49 383.41,195.8Z" style="fill:rgb(177,178,179);fill-rule:nonzero;"/>
        <path d="M389.52,179.5C390.42,180.51 390.58,181.39 390.12,182.76C389.92,181.67 389.72,180.58 389.52,179.5Z" style="fill:rgb(100,100,94);fill-rule:nonzero;"/>
        <path d="M391.73,187.6C392.37,187.83 393.13,188 392.54,188.96C392.27,188.5 392,188.05 391.73,187.6Z" style="fill:rgb(100,100,94);fill-rule:nonzero;"/>
        <path d="M390.55,184.25C390.63,184.06 390.72,183.86 390.8,183.67C390.84,183.7 390.91,183.72 390.93,183.76C391.04,184.14 391.03,184.48 390.61,184.67C390.59,184.52 390.58,184.38 390.55,184.25Z" style="fill:rgb(100,100,94);fill-rule:nonzero;"/>
        <path d="M409.17,223.18C413.18,225.49 417.21,227.76 421.19,230.12C432.66,236.91 444.12,243.74 455.57,250.56C456.1,250.87 456.74,251.07 457.1,251.81C454.33,253.79 452.87,256.62 452.35,260.18C448.53,257.91 444.97,255.78 441.41,253.68C432.47,248.41 423.52,243.15 414.58,237.89C414.1,237.61 413.59,237.4 413.09,237.15C412.7,237.01 412.42,236.75 412.22,236.4C410.97,232.88 410.15,229.22 408.94,225.68C408.65,224.85 408.52,223.96 409.17,223.18Z" style="fill:rgb(96,252,64);fill-rule:nonzero;"/>
        <path d="M458.65,225.73C456,227.92 454.81,230.81 454.19,234.19C449.89,231.65 445.78,229.22 441.68,226.79C432.98,221.62 424.28,216.44 415.58,211.27C414.41,210.58 413.26,209.85 412.37,208.81C410.96,207.17 410.92,205.43 412.21,203.3C413.37,201.38 414.61,200.91 416.82,201.34C418.27,201.62 419.53,202.28 420.76,203.01C432.72,210.04 444.67,217.07 456.61,224.12C457.28,224.51 458.08,224.76 458.65,225.73Z" style="fill:rgb(96,252,64);fill-rule:nonzero;"/>
        <path d="M402.09,218.54C401.94,217.97 401.52,217.47 401.66,216.83C404.05,216.58 405.36,218.42 407.14,219.38C406.88,218.44 406.57,217.33 406.26,216.21C406.01,215.31 405.58,214.39 406.35,213.52C407.91,213.99 409.14,215.05 410.5,215.86C430.15,227.59 449.79,239.34 469.52,251.13C468.82,251.93 468.11,252.67 467.48,253.47C466.43,254.8 466.43,254.85 464.88,253.96C462.33,252.49 459.8,250.97 457.26,249.47C444.64,241.98 432.02,234.5 419.41,227.01C416.46,225.26 413.52,223.49 410.58,221.73C409.97,221.37 409.41,220.91 408.67,220.77C408.04,221.38 408.86,221.96 408.68,222.55C405.94,222.11 403.77,220.73 402.09,218.54Z" style="fill:rgb(125,135,148);fill-rule:nonzero;"/>
        <path d="M402.09,218.54C404.29,219.88 406.49,221.22 408.69,222.55C408.85,222.76 409.01,222.97 409.18,223.18C409.47,226.56 411.04,229.6 411.76,232.86C412.03,234.1 412.4,235.32 412.72,236.55C409.89,236.83 408.29,234.82 406.48,233.2C406.3,233 406.13,232.81 405.95,232.61C404.1,228.13 402.6,223.55 402.02,218.71L402.09,218.54Z" style="fill:rgb(200,224,168);fill-rule:nonzero;"/>
        <path d="M459.15,262.02C459.39,260.05 460.33,258.11 462.33,256.77C463.45,256.02 464.63,255.96 465.66,256.82C466.84,257.81 468.3,258.63 468,260.64C467.69,262.69 466.55,264.15 465.03,265.38C464.15,266.09 463.12,266.65 461.97,265.87C460.68,264.98 459.03,264.39 459.15,262.02Z" style="fill:rgb(119,121,119);fill-rule:nonzero;"/>
        <path d="M406.35,213.52C406.37,215.69 407.61,217.59 407.76,219.97C405.37,219.42 403.75,217.63 401.66,216.83C401.47,216.53 401.28,216.22 401.09,215.91C400.02,213.95 398.95,212 399.61,209.63C401.92,210.36 403.83,211.83 405.91,213C406.05,213.18 406.2,213.35 406.35,213.52Z" style="fill:rgb(198,202,205);fill-rule:nonzero;"/>
        <path d="M462.2,254.85C459.02,256.69 457.67,259.46 457.24,262.77C454.51,261.93 453.94,260.92 454.65,258.31C454.92,257.3 455.3,256.35 455.89,255.49C457.68,252.86 459.31,252.64 462.2,254.85Z" style="fill:rgb(237,236,227);fill-rule:nonzero;"/>
        <path d="M478.37,258.03C478.5,259.61 477.55,260.76 476.31,261.7C475.76,262.11 475.1,262.52 474.35,261.97C473.62,261.43 472.98,260.78 473.16,259.8C473.42,258.36 474.06,257.09 475.31,256.23C475.99,255.77 476.74,255.5 477.56,255.84C478.49,256.26 478.34,257.13 478.37,258.03Z" style="fill:rgb(120,127,134);fill-rule:nonzero;"/>
        <path d="M474.52,254.47C472.95,255.81 471.76,257.26 471.52,259.29C471.48,259.59 471.47,259.95 471.05,260.01C470.62,260.06 470.18,259.94 470.04,259.55C469.64,258.42 468.9,257.44 468.52,256.35C468.12,255.22 469.06,254.3 469.84,253.5C470.58,252.74 471.51,252.51 472.45,252.99C473.15,253.34 473.92,253.64 474.52,254.47Z" style="fill:rgb(230,229,219);fill-rule:nonzero;"/>
        <path d="M411.9,200.71C410.6,202.04 410,203.48 409.55,205.13C408.32,204.08 407.37,202.92 406.61,201.63C405.85,200.33 406.42,199.47 407.94,199.61C409.2,199.72 410.41,200.06 411.9,200.71Z" style="fill:rgb(236,236,231);fill-rule:nonzero;"/>
        <path d="M406.47,233.2C407.77,233.96 409.08,234.7 410.36,235.49C411.1,235.95 411.79,236.49 412.71,236.56C412.84,236.76 412.96,236.95 413.09,237.15C413.03,237.95 413.49,238.61 413.63,239.36C411.21,237.94 408.79,236.52 406.36,235.1C407.35,234.51 406.27,233.82 406.47,233.2Z" style="fill:rgb(155,158,155);fill-rule:nonzero;"/>
        <path d="M402.02,218.71C403.64,223.26 405.08,227.85 405.95,232.61C400.45,229.43 394.95,226.24 389.45,223.06C388.44,222.48 388.03,221.61 388.16,220.47C388.47,217.86 389.74,215.85 391.94,214.42C392.92,213.78 393.84,213.86 394.83,214.46C397.2,215.92 399.62,217.3 402.02,218.71Z" style="fill:rgb(96,252,64);fill-rule:nonzero;"/>
        <path d="M381.93,199.54C381.93,197.93 383.64,198.12 384.34,197.24C387.57,195.33 390.91,193.62 394.02,191.52C395.5,191.9 396.66,192.92 398.01,193.55C398.72,193.88 398.96,194.61 399.11,195.3C399.94,199.24 400.74,203.18 401.54,207.12C401.58,207.34 401.52,207.58 401.49,207.91C400.36,207.96 399.68,207.01 398.72,206.77C394.61,203.93 390.42,201.29 385.35,200.48C384.19,200.31 383.07,199.87 381.93,199.54Z" style="fill:rgb(240,239,230);fill-rule:nonzero;"/>
        <path d="M399.61,209.64C399.89,211.78 401.03,213.72 401.09,215.92C399.93,215.76 399.1,214.95 398.18,214.37C395.82,212.89 393.41,211.59 390.6,211.12C389.19,210.88 387.74,210.45 387.62,208.59C387.52,207.07 388.8,204.87 390.11,204.23C390.83,203.87 391.33,204.33 391.86,204.63C393.86,205.77 395.84,206.94 397.83,208.11C398.24,208.35 398.61,208.67 399.13,208.6C399.21,208.97 399.19,209.4 399.61,209.64Z" style="fill:rgb(125,134,146);fill-rule:nonzero;"/>
        <path d="M386.23,219.81C384.97,218.22 383.97,216.98 383,215.72C382.17,214.64 382.33,212.75 383.29,211.89C383.56,211.65 383.84,211.62 384.17,211.69C386.1,212.12 388.04,212.56 390.25,213.06C388.29,214.98 386.87,217.01 386.23,219.81Z" style="fill:rgb(234,233,223);fill-rule:nonzero;"/>
        <path d="M388.48,203.17C387.16,204.49 386.2,205.91 385.73,207.77C384.22,206.64 383.31,205.18 382.22,203.89C381.59,203.15 382.07,202.56 382.39,201.95C382.77,201.24 383.3,201.61 383.82,201.77C385.31,202.24 386.8,202.67 388.48,203.17Z" style="fill:rgb(237,234,228);fill-rule:nonzero;"/>
        <path d="M497.37,250.57C496.58,251.68 495.59,252.31 495.17,253.4C494.95,253.98 495.11,255.01 493.91,254.6C492.42,254.1 491.31,252.96 491.54,252.02C491.71,251.33 491.99,250.65 492.35,250.04C493.09,248.82 493.82,248.64 495.17,249.29C495.88,249.64 496.54,250.09 497.37,250.57Z" style="fill:rgb(96,252,64);fill-rule:nonzero;"/>
        <path d="M498.7,252.25C499.49,252.31 499.8,252.8 499.8,253.52C499.8,254.55 498.66,256.03 497.75,256.2C497.22,256.3 496.82,256.13 496.65,255.58C496.34,254.61 497.23,252.82 498.24,252.38C498.39,252.32 498.54,252.29 498.7,252.25Z" style="fill:rgb(96,252,64);fill-rule:nonzero;"/>
        <path d="M459.54,220.05C460.83,220.57 461.52,220.97 462.09,221.95C460.8,221.99 460.09,221.58 459.54,220.05Z" style="fill:rgb(134,169,91);fill-rule:nonzero;"/>
        <path d="M243.93,150.5C243.97,151.47 243.65,152.25 243.19,153.03C238.57,160.86 233.96,168.7 229.37,176.54C226.14,182.04 222.92,187.55 219.73,193.07C218.96,194.4 218.03,195.55 216.81,196.5C213.6,199 210.44,201.55 207.24,204.07C206.87,204.36 206.47,204.67 206.03,204.81C205.11,205.12 204.45,204.64 204.41,203.67C204.39,203.12 204.49,202.56 204.6,202.01C205.37,197.94 206.14,193.87 206.93,189.8C207.11,188.87 207.34,187.96 207.84,187.11C215.76,173.72 223.65,160.32 231.54,146.91C232.12,145.93 232.77,145.03 233.78,144.48C234.97,143.84 236.22,143.66 237.44,144.33C239.11,145.26 240.76,146.24 242.38,147.25C243.58,148.01 244,149.18 243.93,150.5Z" style="fill:rgb(19,21,18);fill-rule:nonzero;"/>
        <path d="M190.42,152.36C190.2,152.81 190.02,153.25 189.79,153.67C186.55,159.42 183.3,165.16 180.04,170.9C179.15,172.47 179.02,172.5 177.46,171.63C175.31,170.43 173.2,169.15 171.06,167.93C170.05,167.35 169.72,166.69 170.42,165.62C171.12,164.56 171.74,163.45 172.38,162.35C172.98,161.33 173.72,161.22 174.78,161.72C175.73,162.16 176.52,163.56 177.62,162.88C178.4,162.4 178.75,161.2 179.26,160.3C181.08,157.13 182.87,153.94 184.71,150.78C185.77,148.96 185.86,148.95 187.64,149.99C188.33,150.39 189.01,150.79 189.69,151.21C190.12,151.46 190.33,151.87 190.42,152.36Z" style="fill:rgb(23,25,22);fill-rule:nonzero;"/>
        <path d="M209.47,188.3C215.86,177.38 222.17,166.61 228.62,155.59C231.32,157.23 233.93,158.81 236.6,160.43C236.19,161.2 235.84,161.9 235.44,162.57C229.75,172.24 224.05,181.9 218.34,191.56C217.47,193.03 217.46,193.04 215.9,192.12C213.85,190.91 211.8,189.68 209.47,188.3Z" style="fill:white;fill-rule:nonzero;"/>
        <path d="M242.1,150.6C241.72,152.29 240.56,153.65 239.7,155.16C239.45,155.59 239.06,155.44 238.68,155.2C236.52,153.85 234.35,152.52 232.18,151.2C231.63,150.87 231.62,150.47 231.9,150.01C232.56,148.92 233.19,147.8 233.95,146.79C234.78,145.7 235.74,145.47 236.89,146.09C238.35,146.89 239.74,147.83 241.17,148.7C241.85,149.13 242.09,149.77 242.1,150.6Z" style="fill:white;fill-rule:nonzero;"/>
        <path d="M208.91,190.08C211.36,191.56 213.72,192.98 216.18,194.46C214.58,196.12 212.78,197.27 211.15,198.64C210.98,198.79 210.65,198.98 210.52,198.91C209.61,198.44 208.68,197.98 207.87,197.38C207.23,196.91 207.74,196.18 207.81,195.6C207.99,194.27 208.26,192.95 208.51,191.63C208.59,191.16 208.74,190.71 208.91,190.08Z" style="fill:white;fill-rule:nonzero;"/>
        <path d="M238.28,157.63C238,158.03 237.88,158.87 237.15,158.45C234.82,157.11 232.54,155.68 230.26,154.25C229.77,153.94 229.84,153.46 230.16,153.01C230.43,152.64 230.77,152.5 231.18,152.75C233.48,154.15 235.77,155.56 238.06,156.98C238.27,157.12 238.31,157.36 238.28,157.63Z" style="fill:rgb(96,252,64);fill-rule:nonzero;"/>
        <path d="M208.66,200.28C208.28,200.9 207.77,201.35 206.96,201.48C206.71,200.77 206.65,200.03 207.31,199.63C207.86,199.29 208.31,199.81 208.66,200.28Z" style="fill:rgb(96,252,64);fill-rule:nonzero;"/>
        <path d="M172.31,166.31C172.34,166.14 172.34,166.05 172.37,165.99C173.7,163.32 173.7,163.32 176.3,164.78C178.1,165.79 178.15,165.82 179.21,163.99C181.42,160.2 183.59,156.4 185.73,152.57C186.26,151.63 186.79,151.57 187.62,152.14C188.42,152.68 188.03,153.2 187.71,153.76C185.86,157.01 183.99,160.26 182.16,163.53C181.18,165.27 180.28,167.05 179.3,168.78C178.53,170.13 178.44,170.18 177.11,169.32C175.51,168.28 173.73,167.53 172.31,166.31Z" style="fill:rgb(96,252,64);fill-rule:nonzero;"/>
    </g>
</svg>
