<?xml version="1.0" encoding="UTF-8" standalone="no"?>
<!DOCTYPE svg PUBLIC "-//W3C//DTD SVG 1.1//EN" "http://www.w3.org/Graphics/SVG/1.1/DTD/svg11.dtd">
<svg width="100%" height="100%" viewBox="0 0 880 880" version="1.1" xmlns="http://www.w3.org/2000/svg" xmlns:xlink="http://www.w3.org/1999/xlink" xml:space="preserve" xmlns:serif="http://www.serif.com/" style="fill-rule:evenodd;clip-rule:evenodd;stroke-linejoin:round;stroke-miterlimit:2;">
    <g id="_1" serif:id="1">
        <g id="group-MC0">
            <g id="path2" transform="matrix(1.333333,0,0,-1.333333,437.44853,722.88147)">
                <path d="M0,0C93.177,0 169.172,21.746 169.172,48.41C169.172,75.074 93.177,96.819 0,96.819C-93.178,96.819 -169.174,75.074 -169.174,48.41C-169.174,21.746 -93.178,0 0,0" style="fill:rgb(224,245,161);"/>
            </g>
            <g id="path4" transform="matrix(1.333333,0,0,-1.333333,380.29947,100.11653)">
                <path d="M0,0C7.919,0 14.377,6.458 14.377,14.377C14.377,22.297 7.919,28.755 0,28.755C-7.92,28.755 -14.378,22.297 -14.378,14.377C-14.378,6.458 -7.92,0 0,0" style="fill:rgb(49,48,51);"/>
            </g>
            <g id="path6" transform="matrix(1.333333,0,0,-1.333333,378.62173,56.1836)">
                <path d="M0,0C6.647,0 12.07,5.422 12.07,12.071C12.07,18.718 6.647,24.141 0,24.141C-6.649,24.141 -12.07,18.718 -12.07,12.071C-12.07,5.422 -6.649,0 0,0" style="fill:rgb(49,48,51);"/>
            </g>
            <g id="path8" transform="matrix(1.333333,0,0,-1.333333,329.1504,299.79693)">
                <path d="M0,0C3.497,0 6.348,4.408 6.348,9.812C6.348,15.217 3.497,19.625 0,19.625C-3.498,19.625 -6.35,15.217 -6.35,9.812C-6.35,4.408 -3.498,0 0,0" style="fill:rgb(252,195,166);"/>
            </g>
            <g id="path10" transform="matrix(1.333333,0,0,-1.333333,356.50453,157.8412)">
                <path d="M0,0C-9.341,-28.076 -22.427,-56.86 -27.705,-92.563C-23.928,-94.241 -17.211,-92.772 -14.692,-91.514C-8.594,-56.654 7.847,-39.163 17.211,-9.235C11.474,-6.156 5.737,-3.079 0,0" style="fill:rgb(240,124,0);"/>
            </g>
            <g id="path12" transform="matrix(1.333333,0,0,-1.333333,494.66147,265.86453)">
                <path d="M0,0C4.349,-46.909 -9.887,-106.112 -23.617,-148.786C-27.007,-159.315 -25.08,-169.924 -18.209,-178.591C2.16,-204.281 13.531,-252.989 11.228,-295.424C7.66,-295.564 2.509,-295.565 -0.744,-295.18C-16.416,-249.844 -30.925,-217.448 -46.596,-172.111C-50.235,-142.728 -53.454,-104.946 -57.091,-75.562C-60.196,-99.517 -71.2,-122.507 -82.956,-143.229C-89.879,-155.433 -92.451,-167.825 -90.958,-181.775C-87.304,-215.924 -104.02,-263.238 -122.577,-293.011C-127.615,-288.532 -125.097,-290.771 -130.133,-286.294C-124.817,-244.595 -119.499,-202.897 -114.183,-161.197C-111.383,-113.342 -108.586,-65.488 -105.786,-17.632C-89.835,-4.198 -73.883,9.234 -57.931,22.667C-45.338,34.421 -5.878,33.582 0,0" style="fill:rgb(77,76,80);"/>
            </g>
            <g id="path14" transform="matrix(1.333333,0,0,-1.333333,353.61333,289.37373)">
                <path d="M0,0C-1.271,-21.74 103.374,10.524 100.647,31.296C97.595,35.847 94.541,40.398 91.489,44.948C77.588,65.673 76.822,81.836 82.658,106.101C84.84,115.176 83.938,124.25 79.951,133.157C75.053,144.106 64.959,154.782 53.202,157.16C38.041,160.228 22.277,150.77 9.06,136.711C-1.936,125.013 -11.693,97.714 -0.255,88.647C14.653,76.828 10.754,63.432 7.574,44.675C5.05,29.784 2.525,14.893 0,0" style="fill:rgb(255,145,0);"/>
            </g>
            <g id="path16" transform="matrix(1.333333,0,0,-1.333333,297.65173,390.27933)">
                <path d="M0,0L20.845,41.601L80.356,7.283L60.219,-33.026C49.71,-54.06 -9.611,-19.181 0,0" style="fill:rgb(73,123,173);"/>
            </g>
            <g id="path18" transform="matrix(1.333333,0,0,-1.333333,329.25973,330.10413)">
                <path d="M0,0C7.863,5.594 26.491,1.243 41.605,-9.721C56.72,-20.685 62.596,-34.109 54.733,-39.707C46.869,-45.302 28.242,-40.951 13.128,-29.987C-1.987,-19.022 -7.864,-5.598 0,0" style="fill:rgb(95,147,199);"/>
            </g>
            <g id="path20" transform="matrix(1.333333,0,0,-1.333333,394.50133,370.724)">
                <path d="M0,0C-0.5,-1.561 -2.172,-2.418 -3.73,-1.918C-5.29,-1.418 -6.148,0.253 -5.648,1.812C0.747,21.78 -5.892,38.634 -16.822,48.639C-22.745,54.06 -29.907,57.461 -36.896,58.235C-43.655,58.983 -50.25,57.235 -55.316,52.409C-63.834,44.299 -68.295,27.576 -62.888,-0.473C-62.58,-2.084 -63.636,-3.64 -65.247,-3.947C-66.858,-4.255 -68.414,-3.199 -68.721,-1.588C-74.574,28.768 -69.261,47.326 -59.407,56.709C-52.968,62.839 -44.684,65.072 -36.246,64.138C-28.038,63.23 -19.681,59.284 -12.824,53.009C-0.378,41.618 7.209,22.517 0,0" style="fill:rgb(73,123,173);"/>
            </g>
            <g id="path22" transform="matrix(1.333333,0,0,-1.333333,334.8796,333.37627)">
                <path d="M0,0C4.481,3.189 15.096,0.71 23.709,-5.537C32.322,-11.786 35.671,-19.437 31.19,-22.625C26.708,-25.814 16.095,-23.334 7.481,-17.086C-1.131,-10.84 -4.481,-3.189 0,0" style="fill:rgb(43,88,133);"/>
            </g>
            <g id="path24" transform="matrix(1.333333,0,0,-1.333333,377.1588,408.138)">
                <path d="M0,0L52.167,-3.893L67.608,5.735L67.573,-5.042L70.315,-5.248L70.105,-10.915L67.555,-10.995L67.519,-21.841L51.315,-11.512L-2.308,-13.223L0,0Z" style="fill:rgb(73,123,173);"/>
            </g>
            <g id="path26" transform="matrix(1.333333,0,0,-1.333333,470.77213,438.36333)">
                <path d="M0,0C4.45,0 8.08,6.554 8.08,14.589C8.08,22.623 4.45,29.176 0,29.176C-4.451,29.176 -8.081,22.623 -8.081,14.589C-8.081,6.554 -4.451,0 0,0" style="fill:rgb(95,147,199);"/>
            </g>
            <g id="path28" transform="matrix(1.333333,0,0,-1.333333,468.4024,269.76307)">
                <path d="M0,0C9.29,5.57 15.232,11.433 14.556,16.588C11.503,21.139 8.449,25.691 5.397,30.24C-7.98,50.185 -9.192,65.905 -4.064,88.686C-10.525,76.933 -14.295,62.816 -14.295,47.629C-14.295,29.491 -8.919,12.879 0,0" style="fill:rgb(240,124,0);"/>
            </g>
            <g id="path30" transform="matrix(1.333333,0,0,-1.333333,394.336,310.8424)">
                <path d="M0,0C-5.789,-0.64 -10.141,-4.227 -9.723,-8.012C-9.306,-11.797 -4.275,-14.348 1.513,-13.708C7.3,-13.069 11.654,-9.483 11.236,-5.699C10.817,-1.912 5.787,0.639 0,0" style="fill:rgb(252,195,166);"/>
            </g>
            <g id="path32" transform="matrix(1.333333,0,0,-1.333333,421.918,79.634133)">
                <path d="M0,0C1.329,-0.083 2.643,-0.192 3.945,-0.33C21.022,-2.139 34.966,-10.803 44.147,-25.314C56.366,-44.625 54.682,-88.039 46.939,-109.08C36.966,-136.178 13.372,-159.316 -9.032,-181.023C-12.706,-180.534 -15.854,-176.895 -17.849,-173.257C5.256,-151.498 28.418,-111.432 31.21,-104.129C35.38,-93.214 34.318,-73.003 30.847,-53.694C20.093,-38.143 10.755,-15.552 0,0" style="fill:rgb(255,145,0);"/>
            </g>
            <g id="path34" transform="matrix(1.333333,0,0,-1.333333,432.7448,82.5404)">
                <path d="M0,0C-1.078,0.497 -2.178,0.93 -3.296,1.289C-10.62,3.645 -15.955,8.688 -18.719,15.868L-21.917,24.176L-37.292,19.768L-32.076,4.929C-30.679,0.957 -32.092,-3.312 -35.583,-5.665C-36.887,-6.545 -38.18,-7.483 -39.459,-8.476C-41.169,-18.076 -35.815,-25.413 -26.459,-25.413C-16.084,-25.413 -4.72,-16.392 -1.076,-5.263C-0.479,-3.442 -0.128,-1.678 0,0" style="fill:rgb(252,195,166);"/>
            </g>
            <g id="path36" transform="matrix(1.333333,0,0,-1.333333,407.49547,60.630267)">
                <path d="M0,0L-2.98,7.744L-18.355,3.335L-13.139,-11.504C-12.317,-13.842 -12.469,-16.281 -13.443,-18.372C-6.843,-15.747 -1.336,-8.541 0,0" style="fill:rgb(242,157,114);"/>
            </g>
            <g id="path38" transform="matrix(1.333333,0,0,-1.333333,331.2252,656.5456)">
                <path d="M0,0C-32.463,-5.851 -35.685,-3.802 -7.556,6.717C-3.835,7.351 -1.203,5.384 0,0" style="fill:rgb(77,76,80);"/>
            </g>
            <g id="path40" transform="matrix(1.333333,0,0,-1.333333,509.63147,659.76307)">
                <path d="M0,0C-31.635,-19.238 -27.421,-11.374 -12.544,1.894C-10.136,2.791 -7.158,2.042 -4.751,2.941C-3.167,1.96 -1.584,0.98 0,0" style="fill:rgb(77,76,80);"/>
            </g>
            <g id="path42" transform="matrix(1.333333,0,0,-1.333333,395.26827,23.296933)">
                <path d="M0,0C8.926,0 14.945,-8.927 13.442,-19.939C11.941,-30.952 3.487,-39.879 -5.438,-39.879C-14.364,-39.879 -20.383,-30.952 -18.88,-19.939C-17.379,-8.927 -8.925,0 0,0" style="fill:rgb(252,195,166);"/>
            </g>
            <g id="path44" transform="matrix(1.333333,0,0,-1.333333,388.974,51.700533)">
                <path d="M0,0C8.496,0 15.427,6.929 15.427,15.426C15.427,23.923 8.496,30.854 0,30.854C-8.497,30.854 -15.426,23.923 -15.426,15.426C-15.426,6.929 -8.497,0 0,0" style="fill:rgb(49,48,51);"/>
            </g>
            <g id="path46" transform="matrix(1.333333,0,0,-1.333333,408.8444,65.974)">
                <path d="M0,0C9.652,0 17.526,7.873 17.526,17.526C17.526,27.18 9.652,35.052 0,35.052C-9.654,35.052 -17.527,27.18 -17.527,17.526C-17.527,7.873 -9.654,0 0,0" style="fill:rgb(49,48,51);"/>
            </g>
            <g id="path48" transform="matrix(1.333333,0,0,-1.333333,424.51627,100.39653)">
                <path d="M0,0C11.271,0 20.465,9.193 20.465,20.464C20.465,31.736 11.271,40.929 0,40.929C-11.272,40.929 -20.465,31.736 -20.465,20.464C-20.465,9.193 -11.272,0 0,0" style="fill:rgb(49,48,51);"/>
            </g>
            <g id="path50" transform="matrix(1.333333,0,0,-1.333333,532.59893,763.00133)">
                <path d="M0,0C37.456,0 68.005,10.276 68.005,22.88C68.005,35.479 37.456,45.758 0,45.758C-37.455,45.758 -68.006,35.479 -68.006,22.88C-68.006,10.276 -37.455,0 0,0" style="fill:rgb(224,245,161);"/>
            </g>
            <g id="path52" transform="matrix(1.333333,0,0,-1.333333,486.47267,705.98053)">
                <path d="M0,0L12.816,8.255C17.812,11.474 21.274,16.593 22.397,22.428C23.52,28.263 22.209,34.304 18.765,39.146C12.245,48.314 11.247,60.309 16.16,70.429C21.075,80.548 31.118,87.182 42.354,87.728C47.004,87.955 51.358,90.073 54.406,93.59C57.454,97.108 58.93,101.721 58.49,106.355C57.373,118.125 63.532,129.391 74.042,134.807C84.552,140.222 97.3,138.697 106.236,130.955C115.173,123.214 118.501,110.814 114.641,99.641C110.779,88.465 100.508,80.762 88.698,80.189C74.208,79.483 59.734,78.445 45.29,77.077C35.199,76.12 27.72,67.281 28.445,57.173C29.169,47.064 37.835,39.382 47.957,39.875C53.351,40.138 58.728,39.101 63.639,36.855C72.573,32.767 78.596,24.16 79.373,14.365C80.149,4.569 75.563,-4.88 67.384,-10.327C59.205,-15.772 48.718,-16.363 39.98,-11.87C33.615,-8.597 26.19,-8.071 19.428,-10.412C12.666,-12.753 7.157,-17.76 4.18,-24.266L0,0Z" style="fill:rgb(148,171,19);"/>
            </g>
            <g id="path54" transform="matrix(1.333333,0,0,-1.333333,476.06773,739.49347)">
                <path d="M0,0L6.717,6.715C11.796,11.794 13.779,19.2 11.921,26.139C10.062,33.077 4.641,38.499 -2.299,40.357C-14.824,43.715 -23.534,55.065 -23.534,68.033C-23.534,81.001 -14.824,92.354 -2.299,95.71C4.5,97.531 9.808,102.841 11.632,109.64C13.453,116.438 11.509,123.69 6.532,128.667C-4.475,139.675 -4.475,157.522 6.532,168.53C17.541,179.54 35.389,179.54 46.397,168.53C65.798,149.13 65.798,117.676 46.397,98.274L20.237,72.114C15.893,67.77 15.01,61.052 18.079,55.731C21.151,50.41 27.414,47.816 33.348,49.407C36.732,50.315 40.339,49.84 43.373,48.087C46.408,46.335 48.622,43.45 49.53,40.065C54.408,21.852 49.201,2.419 35.87,-10.913L0,0Z" style="fill:rgb(167,191,28);"/>
            </g>
            <g id="path56" transform="matrix(1.333333,0,0,-1.333333,530.3724,715.7188)">
                <path d="M0,0L-8.15,4.878C-14.314,8.566 -18.044,15.263 -17.932,22.445C-17.819,29.629 -13.884,36.208 -7.606,39.702C3.724,46.01 9.405,59.141 6.245,71.718C3.084,84.297 -8.131,93.183 -21.098,93.385C-28.134,93.495 -34.577,97.351 -38.001,103.501C-41.425,109.65 -41.307,117.157 -37.693,123.196C-29.701,136.557 -34.05,153.864 -47.407,161.858C-60.769,169.852 -78.078,165.501 -86.071,152.144C-100.159,128.599 -92.494,98.094 -68.949,84.004L-37.203,65.009C-31.932,61.855 -29.436,55.553 -31.116,49.646C-32.801,43.736 -38.241,39.695 -44.382,39.791C-47.887,39.846 -51.27,38.507 -53.785,36.068C-56.301,33.629 -57.746,30.291 -57.8,26.786C-58.094,7.934 -48.308,-9.643 -32.127,-19.325L0,0Z" style="fill:rgb(186,213,38);"/>
            </g>
        </g>
    </g>
</svg>
